#N canvas 62 225 425 496 10;
#X text 128 104 so if you need a 128 sample waveform \,;
#X text 240 71 \$1 is first argument.;
#X text 184 87 it should be the sample size.;
#X obj 41 63 loadbang;
#X obj 41 227 until;
#X obj 41 258 f 0;
#X obj 92 258 + 1;
#X obj 41 307 / 1;
#X obj 41 372 * 2;
#X obj 41 394 - 1;
#X obj 59 204 f 0;
#X obj 41 283 t f f;
#X obj 41 328 - 1;
#X obj 41 350 * -1;
#X obj 41 156 f \$1;
#X obj 41 416 tabwrite llramp_\$1;
#X obj 41 450 table llramp_\$1 \$1;
#X text 170 121 you reference it as llramp_128.;
#X text 19 29 -Left Leaning Linear Ramp-;
#X obj 182 289 /;
#X obj 168 265 f 1;
#X obj 168 240 t b f;
#X obj 164 366 wrap;
#X obj 164 391 * \$1;
#X obj 164 316 * 0;
#X text 233 148 \$2 is second argument.;
#X text 212 164 it should be wave offset.;
#X text 219 188 as in \, [llramp 128 0.25];
#X obj 164 340 + \$2;
#X obj 41 182 t f b f f;
#X connect 3 0 14 0;
#X connect 4 0 5 0;
#X connect 5 0 6 0;
#X connect 5 0 11 0;
#X connect 6 0 5 1;
#X connect 7 0 12 0;
#X connect 8 0 9 0;
#X connect 9 0 15 0;
#X connect 10 0 5 1;
#X connect 11 0 7 0;
#X connect 11 1 24 0;
#X connect 12 0 13 0;
#X connect 13 0 8 0;
#X connect 14 0 29 0;
#X connect 19 0 24 1;
#X connect 20 0 19 0;
#X connect 21 0 20 0;
#X connect 21 1 19 1;
#X connect 22 0 23 0;
#X connect 23 0 15 1;
#X connect 24 0 28 0;
#X connect 28 0 22 0;
#X connect 29 0 4 0;
#X connect 29 1 10 0;
#X connect 29 2 7 1;
#X connect 29 3 21 0;
