#N canvas 534 317 449 446 10;
#X text 124 86 so if you need a 128 sample waveform \,;
#X text 236 53 \$1 is first argument.;
#X text 180 69 it should be the sample size.;
#X obj 41 45 loadbang;
#X obj 41 69 f \$1;
#X obj 41 120 until;
#X obj 41 181 f 0;
#X obj 91 282 t b;
#X obj 91 305 f 1;
#X obj 151 283 t b;
#X obj 151 306 f -1;
#X obj 71 181 + 1;
#X obj 91 212 t f f;
#X obj 64 149 f 0;
#X obj 91 235 / 1;
#X obj 91 345 tabwrite lsquare_\$1;
#X obj 91 374 table lsquare_\$1 \$1;
#X text 159 103 you reference it as lsquare_128.;
#X text 17 22 -Linear Square-;
#X text 249 132 as in \, [square 128];
#X obj 91 259 moses \$2;
#X obj 41 95 t f b f;
#X connect 3 0 4 0;
#X connect 4 0 21 0;
#X connect 5 0 6 0;
#X connect 6 0 11 0;
#X connect 6 0 12 0;
#X connect 7 0 8 0;
#X connect 8 0 15 0;
#X connect 9 0 10 0;
#X connect 10 0 15 0;
#X connect 11 0 6 1;
#X connect 12 0 14 0;
#X connect 12 1 15 1;
#X connect 13 0 6 1;
#X connect 14 0 20 0;
#X connect 20 0 7 0;
#X connect 20 1 9 0;
#X connect 21 0 5 0;
#X connect 21 1 13 0;
#X connect 21 2 14 1;
