#N canvas 0 106 556 534 10;
#X obj 95 65 f \$1;
#X obj 55 33 inlet;
#X obj 43 482 outlet;
#X obj 233 112 select 0;
#X msg 210 68 1;
#X msg 278 69 0;
#X obj 219 169 f 4096;
#X obj 220 142 t b;
#X obj 298 161 f \$1;
#X floatatom 360 185 5 0 0 0 - - -, f 5;
#X obj 219 195 t f f f f f f f f f;
#X msg 365 233 \; rampright_\$1 resize \$1;
#X msg 352 268 \; rampleft_\$1 resize \$1;
#X msg 338 300 \; triangle_\$1 resize \$1;
#X msg 325 334 \; square_\$1 resize \$1;
#X msg 270 469 \; lsquare_\$1 resize \$1;
#X msg 284 436 \; ltriangle_\$1 resize \$1;
#X msg 297 401 \; lrampleft_\$1 resize \$1;
#X msg 310 367 \; lrampright_\$1 resize \$1;
#X text 257 27 Decided not to do this;
#X text 180 41 you should know what waveform size you need;
#X connect 0 0 3 0;
#X connect 1 0 0 0;
#X connect 3 0 7 0;
#X connect 3 1 8 0;
#X connect 4 0 3 0;
#X connect 5 0 3 0;
#X connect 6 0 9 0;
#X connect 6 0 10 0;
#X connect 7 0 6 0;
#X connect 8 0 9 0;
#X connect 10 0 2 0;
