#N canvas 150 360 370 321 10;
#X obj 62 58 inlet~;
#X obj 63 198 delwrite~ \$0_echo \$1;
#X obj 140 60 inlet~;
#X text 70 41 audio;
#X text 134 40 echo time;
#X obj 139 123 vd~ \$0_echo;
#X obj 139 247 outlet~;
#X obj 217 159 *~;
#X obj 234 60 inlet~;
#X text 235 41 decay;
#X obj 235 91 clip~ 0 1;
#X obj 140 96 clip~ 0 \$1;
#X connect 0 0 1 0;
#X connect 2 0 11 0;
#X connect 5 0 6 0;
#X connect 5 0 7 0;
#X connect 7 0 1 0;
#X connect 8 0 10 0;
#X connect 10 0 7 1;
#X connect 11 0 5 0;
