#N canvas 362 253 349 418 10;
#X obj 56 36 inlet;
#X obj 133 37 inlet;
#X text 58 17 amp;
#X text 126 19 threshold;
#X text 225 19 ratio;
#X obj 225 39 inlet;
#X obj 123 346 outlet;
#X obj 56 278 pow;
#X obj 56 224 t f b;
#X obj 88 251 f;
#X obj 56 196 + 1;
#X obj 56 167 /;
#X obj 56 142 -;
#X obj 56 107 t f f;
#X obj 123 311 *;
#X obj 56 81 dbtorms;
#X obj 133 80 dbtorms;
#X connect 0 0 15 0;
#X connect 1 0 16 0;
#X connect 5 0 9 1;
#X connect 7 0 14 0;
#X connect 8 0 7 0;
#X connect 8 1 9 0;
#X connect 9 0 7 1;
#X connect 10 0 8 0;
#X connect 11 0 10 0;
#X connect 12 0 11 0;
#X connect 13 0 12 0;
#X connect 13 1 14 1;
#X connect 14 0 6 0;
#X connect 15 0 13 0;
#X connect 16 0 12 1;
#X connect 16 0 11 1;
