#N canvas 107 312 820 398 10;
#X obj 85 245 phasor~;
#X obj 85 217 *;
#X obj 131 216 f 0;
#X obj 124 117 f 0;
#X obj 54 152 f 1;
#X obj 84 289 *~ 1;
#X obj 54 120 t b b;
#X obj 54 60 inlet;
#X obj 124 61 inlet;
#X obj 84 319 outlet~;
#X obj 124 92 t b;
#X obj 195 61 inlet;
#X obj 310 60 inlet;
#X text 483 133 -reset position of phasor to 0;
#X text 483 146 -multiply frequency of loop length;
#X text 506 160 by one to start phasor.;
#X text 466 120 first inlet;
#X text 466 176 second inlet;
#X text 485 191 -multiply frequency of loop length;
#X text 500 205 by zero to stop phasor;
#X text 145 320 Outputs phasor position in samples;
#X text 466 221 third inlet;
#X text 465 295 fourth inlet;
#X text 436 88 Auxiliary object for [Looper];
#X text 486 265 -takes a time in milliSeconds and;
#X text 500 279 changes to frequency.;
#X obj 195 88 time2freq;
#X text 484 311 -sets the number of samples in;
#X text 517 325 max loop length.;
#X text 486 237 -sets the freqeucny of the max;
#X text 500 251 loop length.;
#X text 434 103 (outputs the position of the loop in samples);
#X text 32 29 --Index--;
#X connect 0 0 5 0;
#X connect 1 0 0 0;
#X connect 2 0 0 1;
#X connect 3 0 1 0;
#X connect 4 0 1 0;
#X connect 5 0 9 0;
#X connect 6 0 4 0;
#X connect 6 1 2 0;
#X connect 7 0 6 0;
#X connect 8 0 10 0;
#X connect 10 0 3 0;
#X connect 11 0 26 0;
#X connect 12 0 5 1;
#X connect 26 0 1 1;
