#N canvas 148 39 934 648 10;
#X obj 37 29 inlet~;
#X obj 46 648 outlet~;
#X obj 192 60 inlet;
#X obj 169 138 route start stop;
#X obj 285 139 route start stop;
#X obj 641 424 phasor~;
#X obj 642 452 +~ 0.5;
#X obj 642 477 wrap~;
#X text 712 363 1) Stop Playback \, send to 0;
#X text 713 383 2) Start Record to \$0_loop;
#X text 714 406 3) Stop Record;
#X obj 723 459 phasor~;
#X obj 215 294 loadbang;
#X obj 191 292 bng 15 250 50 0 empty empty empty 17 7 0 10 -262144
-1 -1;
#X obj 224 186 t b b b;
#X obj 273 257 rekord~ \$0;
#X obj 205 418 loops~ \$0;
#X obj 330 388 metro 100;
#X obj 323 421 snapshot~;
#X obj 322 360 tgl 15 0 empty empty empty 17 7 0 10 -262144 -1 -1 0
1;
#X floatatom 324 446 8 0 0 0 - - -;
#X obj 230 472 snapshot~;
#X floatatom 231 497 8 0 0 0 - - -;
#X obj 329 190 t b;
#X obj 367 195 t b;
#X obj 442 303 samples2time~;
#X obj 491 550 delwrite~ \$0_over 60000;
#X obj 442 357 vd~ \$0_over;
#X obj 45 279 onoff~ \$0;
#X obj 490 429 *~;
#X obj 336 219 f 1;
#X obj 371 219 f 0;
#X obj 616 232 t b b;
#X obj 616 254 f 0;
#X obj 545 257 f 1;
#X obj 616 278 t f f;
#X obj 545 279 t f f;
#X obj 549 388 vline~;
#X obj 518 231 t b b;
#X obj 300 638 outlet~;
#X obj 378 251 bng 15 250 50 0 empty empty empty 17 7 0 10 -262144
-1 -1;
#X obj 446 245 bng 15 250 50 0 empty empty empty 17 7 0 10 -262144
-1 -1;
#X obj 169 110 route record overdub clear;
#X obj 762 178 bng 15 250 50 0 empty empty empty 17 7 0 10 -262144
-1 -1;
#X obj 698 207 bng 15 250 50 0 empty empty empty 17 7 0 10 -262144
-1 -1;
#X obj 456 117 f \$0;
#X msg 457 152 \; \$1_loop const 0;
#X obj 149 190 t b b b b;
#X obj 456 89 bng 15 250 50 0 empty empty empty 17 7 0 10 -262144 -1
-1;
#X text 702 299 <consistant envelopes;
#X obj 221 390 f 30;
#X obj 572 303 pack f 30;
#X obj 643 300 pack f 30;
#X connect 0 0 28 0;
#X connect 0 0 29 0;
#X connect 2 0 42 0;
#X connect 3 0 47 0;
#X connect 3 1 14 0;
#X connect 4 0 23 0;
#X connect 4 0 38 0;
#X connect 4 1 24 0;
#X connect 4 1 32 0;
#X connect 5 0 6 0;
#X connect 6 0 7 0;
#X connect 12 0 50 0;
#X connect 13 0 12 0;
#X connect 14 0 28 2;
#X connect 14 1 15 1;
#X connect 14 2 16 2;
#X connect 15 0 16 0;
#X connect 15 0 18 0;
#X connect 15 0 25 0;
#X connect 16 0 1 0;
#X connect 16 1 21 0;
#X connect 17 0 18 0;
#X connect 17 0 21 0;
#X connect 18 0 20 0;
#X connect 19 0 17 0;
#X connect 21 0 22 0;
#X connect 23 0 30 0;
#X connect 23 0 40 0;
#X connect 24 0 31 0;
#X connect 24 0 41 0;
#X connect 25 0 18 0;
#X connect 25 0 27 0;
#X connect 27 0 39 0;
#X connect 27 0 26 0;
#X connect 29 0 26 0;
#X connect 32 0 33 0;
#X connect 33 0 35 0;
#X connect 34 0 36 0;
#X connect 35 1 52 0;
#X connect 36 1 51 0;
#X connect 37 0 29 1;
#X connect 38 1 34 0;
#X connect 42 0 3 0;
#X connect 42 1 4 0;
#X connect 45 0 46 0;
#X connect 47 0 28 1;
#X connect 47 1 15 0;
#X connect 47 2 16 3;
#X connect 47 3 45 0;
#X connect 48 0 45 0;
#X connect 50 0 16 1;
#X connect 51 0 37 0;
#X connect 52 0 37 0;
