#N canvas 413 313 754 387 10;
#X obj 42 46 inlet~;
#X obj 187 44 inlet;
#X obj 259 44 inlet;
#X obj 259 77 t b b;
#X msg 187 292 start;
#X obj 259 104 f 0;
#X obj 219 101 f 1;
#X obj 42 293 *~;
#X obj 59 265 vline~;
#X obj 187 75 t b b;
#X msg 291 293 stop;
#X obj 187 327 tabwrite~ \$1_loop;
#X obj 323 44 loadbang;
#X obj 323 95 select 0;
#X obj 323 117 t b;
#X obj 323 166 max 0;
#X obj 323 139 f 30;
#X obj 291 264 del 1;
#X obj 145 230 pack f 1;
#X obj 59 231 pack f 1;
#X obj 323 71 f \$2;
#X text 442 82 first inlet;
#X text 442 110 second inlet;
#X text 441 185 third inlet;
#X text 412 50 Auxiliary object for [Looper];
#X text 471 215 loop length.;
#X text 29 24 --Record--;
#X text 410 65 (records audio input);
#X text 459 95 -audio input;
#X text 459 141 -first triggering the envelope to;
#X text 459 125 -starts recording the loop.;
#X text 475 169 to start recording.;
#X text 457 201 -stops recording.;
#X text 457 229 -first triggering the envelope to;
#X text 471 256 the same length as envelope.;
#X text 445 292 LOADBANG;
#X text 475 155 attack \, then telling [tabwrite~];
#X text 471 242 release \, then to stop after a delay;
#X text 466 307 -declare envelope time;
#X text 466 322 -30 mS by default;
#X connect 0 0 7 0;
#X connect 1 0 9 0;
#X connect 2 0 3 0;
#X connect 3 0 5 0;
#X connect 3 1 17 0;
#X connect 4 0 11 0;
#X connect 5 0 18 0;
#X connect 6 0 19 0;
#X connect 7 0 11 0;
#X connect 8 0 7 1;
#X connect 9 0 4 0;
#X connect 9 1 6 0;
#X connect 10 0 11 0;
#X connect 12 0 20 0;
#X connect 13 0 14 0;
#X connect 13 1 15 0;
#X connect 14 0 16 0;
#X connect 15 0 17 1;
#X connect 15 0 18 1;
#X connect 15 0 19 1;
#X connect 16 0 15 0;
#X connect 17 0 10 0;
#X connect 18 0 8 0;
#X connect 19 0 8 0;
#X connect 20 0 13 0;
