#N canvas 0 92 450 300 10;
#X obj 38 35 inlet~;
#X obj 37 78 max~ 0;
#X obj 321 57 samplerate~;
#X obj 321 34 loadbang;
#X obj 321 100 f 1;
#X obj 333 121 /;
#X obj 321 78 t b f;
#X obj 37 171 *~ 1;
#X text 307 226 convert to mS;
#X obj 38 229 *~ 1000;
#X text 94 229 voncert to mS;
#X obj 38 257 outlet~;
#X connect 0 0 1 0;
#X connect 1 0 7 0;
#X connect 2 0 6 0;
#X connect 3 0 2 0;
#X connect 4 0 5 0;
#X connect 5 0 7 1;
#X connect 6 0 4 0;
#X connect 6 1 5 1;
#X connect 7 0 9 0;
#X connect 9 0 11 0;
