#N canvas 0 82 450 300 10;
#X obj 108 88 samplerate~;
#X obj 108 61 loadbang;
#X obj 29 62 inlet~;
#X obj 29 216 outlet~;
#X obj 29 84 max~ 0;
#X obj 29 107 *~ 0.001;
#X obj 29 171 *~ 1;
#X connect 0 0 6 1;
#X connect 1 0 0 0;
#X connect 2 0 4 0;
#X connect 4 0 5 0;
#X connect 5 0 6 0;
#X connect 6 0 3 0;
