#N canvas 852 147 502 621 10;
#X obj 78 198 t f f;
#X obj 78 224 / 1;
#X obj 78 275 t f b;
#X obj 110 301 f 3.14159;
#X obj 78 325 *;
#X obj 163 380 * 2;
#X obj 163 404 cos;
#X obj 78 380 cos;
#X obj 78 141 until;
#X obj 78 172 f;
#X obj 116 172 + 1;
#X obj 78 52 loadbang;
#X obj 78 74 f \$1;
#X obj 78 96 t f f;
#X obj 154 198 * 0.5;
#X text 293 61 \$1 is first argument.;
#X text 195 93 so if you need a 128 sample window \,;
#X text 237 77 it should be the window size.;
#X text 209 110 you reference it as blackman_128.;
#X text 166 137 w(n) = a_0 - a_1 cos (2 pi n / (N - 1));
#X text 257 154 + a_2 cos (4 pi n /(N- 1));
#X text 232 186 a_0 = 1 - a / 2;
#X text 232 206 a_1 = 1/2;
#X text 232 227 a_2 = a / 2;
#X obj 241 403 cos;
#X obj 241 379 * 3;
#X obj 78 353 t f f f;
#X obj 78 439 t b f;
#X obj 78 483 -;
#X obj 78 507 +;
#X obj 78 529 -;
#X text 87 254 <--notice we start at cosine unlike the other patches
;
#X obj 78 559 tabwrite blackman-nuttall_\$1;
#X obj 77 593 table blackman-nuttall_\$1 \$1;
#X text 350 299 a_0 = 0.363582;
#X text 350 318 a_1 = 0.489178;
#X text 351 337 a_2 = 0.1365;
#X text 351 358 a_3 = 0.010641;
#X obj 78 461 f 0.363582;
#X obj 78 404 * 0.489178;
#X obj 163 428 * 0.1365;
#X obj 241 427 * 0.010641;
#X text 52 25 -Blackman-Nuttall Window-;
#X connect 0 0 1 0;
#X connect 0 1 32 1;
#X connect 1 0 2 0;
#X connect 2 0 4 0;
#X connect 2 1 3 0;
#X connect 3 0 4 1;
#X connect 4 0 26 0;
#X connect 5 0 6 0;
#X connect 6 0 40 0;
#X connect 7 0 39 0;
#X connect 8 0 9 0;
#X connect 9 0 10 0;
#X connect 9 0 0 0;
#X connect 10 0 9 1;
#X connect 11 0 12 0;
#X connect 12 0 13 0;
#X connect 13 0 8 0;
#X connect 13 1 14 0;
#X connect 14 0 1 1;
#X connect 24 0 41 0;
#X connect 25 0 24 0;
#X connect 26 0 7 0;
#X connect 26 1 5 0;
#X connect 26 2 25 0;
#X connect 27 0 38 0;
#X connect 27 1 28 1;
#X connect 28 0 29 0;
#X connect 29 0 30 0;
#X connect 30 0 32 0;
#X connect 38 0 28 0;
#X connect 39 0 27 0;
#X connect 40 0 29 1;
#X connect 41 0 30 1;
