#N canvas 835 147 502 621 10;
#X obj 87 219 t f f;
#X obj 87 245 / 1;
#X obj 87 269 - 1;
#X obj 87 296 t f b;
#X obj 119 322 f 3.14159;
#X obj 87 346 *;
#X obj 164 401 * 2;
#X obj 164 425 cos;
#X obj 87 401 cos;
#X obj 87 374 t f f;
#X obj 87 475 +;
#X obj 87 162 until;
#X obj 87 193 f;
#X obj 125 193 + 1;
#X obj 87 73 loadbang;
#X obj 87 95 f \$1;
#X obj 87 117 t f f;
#X obj 163 219 * 0.5;
#X text 302 82 \$1 is first argument.;
#X text 204 114 so if you need a 128 sample window \,;
#X text 246 98 it should be the window size.;
#X text 218 131 you reference it as blackman_128.;
#X text 175 158 w(n) = a_0 - a_1 cos (2 pi n / (N - 1));
#X text 266 175 + a_2 cos (4 pi n /(N- 1));
#X text 241 207 a_0 = 1 - a / 2;
#X text 241 227 a_1 = 1/2;
#X text 241 248 a_2 = a / 2;
#X text 219 279 a = 0.16;
#X text 219 299 a_0 = 7938 / 18608 = 0.42659;
#X text 220 319 a_1 = 9240 / 18608 = 0.49656;
#X text 220 338 a_2 = 1430 / 18608 = 0.076849;
#X obj 87 501 + 0.42659;
#X obj 164 449 * 0.076849;
#X obj 87 425 * 0.49656;
#X obj 87 529 tabwrite blackman_\$1;
#X obj 87 575 table blackman_\$1 \$1;
#X text 61 45 --Blackman Window--;
#X connect 0 0 1 0;
#X connect 0 1 34 1;
#X connect 1 0 2 0;
#X connect 2 0 3 0;
#X connect 3 0 5 0;
#X connect 3 1 4 0;
#X connect 4 0 5 1;
#X connect 5 0 9 0;
#X connect 6 0 7 0;
#X connect 7 0 32 0;
#X connect 8 0 33 0;
#X connect 9 0 8 0;
#X connect 9 1 6 0;
#X connect 10 0 31 0;
#X connect 11 0 12 0;
#X connect 12 0 13 0;
#X connect 12 0 0 0;
#X connect 13 0 12 1;
#X connect 14 0 15 0;
#X connect 15 0 16 0;
#X connect 16 0 11 0;
#X connect 16 1 17 0;
#X connect 17 0 1 1;
#X connect 31 0 34 0;
#X connect 32 0 10 1;
#X connect 33 0 10 0;
