#N canvas 700 153 512 566 10;
#X obj 81 228 t f f;
#X obj 81 254 / 1;
#X obj 81 278 - 1;
#X obj 81 305 t f b;
#X obj 113 331 f 3.14159;
#X obj 81 355 *;
#X obj 81 381 cos;
#X obj 81 408 * 0.46;
#X obj 81 431 + 0.54;
#X obj 162 221 * 0.5;
#X obj 81 168 until;
#X obj 81 199 f;
#X obj 119 199 + 1;
#X obj 81 456 tabwrite hamming_\$1;
#X obj 81 70 loadbang;
#X obj 81 96 f \$1;
#X obj 81 124 t f f;
#X text 283 82 \$1 is first argument.;
#X text 185 114 so if you need a 128 sample window \,;
#X text 56 43 -Hamming Window-;
#X text 206 131 you reference it as hamming_128.;
#X text 227 98 it should be the window size.;
#X obj 80 495 table hamming_\$1 \$1;
#X text 184 168 w(n) = a - b cos (2 pi n / (N - 1));
#X text 243 185 a = 0.54 \, b = 1 - a = 0.46;
#X connect 0 0 1 0;
#X connect 0 1 13 1;
#X connect 1 0 2 0;
#X connect 2 0 3 0;
#X connect 3 0 5 0;
#X connect 3 1 4 0;
#X connect 4 0 5 1;
#X connect 5 0 6 0;
#X connect 6 0 7 0;
#X connect 7 0 8 0;
#X connect 8 0 13 0;
#X connect 9 0 1 1;
#X connect 10 0 11 0;
#X connect 11 0 12 0;
#X connect 11 0 0 0;
#X connect 12 0 11 1;
#X connect 14 0 15 0;
#X connect 15 0 16 0;
#X connect 16 0 10 0;
#X connect 16 1 9 0;
