#N canvas 507 334 428 434 10;
#X text 134 96 so if you need a 128 sample waveform \,;
#X text 246 63 \$1 is first argument.;
#X text 190 79 it should be the sample size.;
#X obj 41 45 loadbang;
#X obj 41 99 f \$1;
#X obj 41 150 until;
#X obj 41 207 f 0;
#X obj 86 312 t b;
#X obj 86 335 f 1;
#X obj 146 313 t b;
#X obj 71 207 + 1;
#X obj 86 242 t f f;
#X obj 64 179 f 0;
#X obj 86 265 / 1;
#X text 17 22 -Linear Square-;
#X text 259 142 as in \, [square 128];
#X obj 41 125 t f b f;
#X obj 86 404 table square_\$1 \$1;
#X obj 86 375 tabwrite square_\$1;
#X obj 146 336 f 0;
#X obj 83 100 f \$2;
#X obj 140 193 select 0;
#X obj 140 220 f 0.5;
#X obj 140 166 clip 0 1;
#X obj 41 71 t b b;
#X obj 193 221 t f;
#X obj 86 289 moses;
#X text 169 113 you reference it as square_128.;
#X connect 3 0 24 0;
#X connect 4 0 16 0;
#X connect 5 0 6 0;
#X connect 6 0 10 0;
#X connect 6 0 11 0;
#X connect 7 0 8 0;
#X connect 8 0 18 0;
#X connect 9 0 19 0;
#X connect 10 0 6 1;
#X connect 11 0 13 0;
#X connect 11 1 18 1;
#X connect 12 0 6 1;
#X connect 13 0 26 0;
#X connect 16 0 5 0;
#X connect 16 1 12 0;
#X connect 16 2 13 1;
#X connect 19 0 18 0;
#X connect 20 0 23 0;
#X connect 21 0 22 0;
#X connect 21 1 25 0;
#X connect 22 0 26 1;
#X connect 23 0 21 0;
#X connect 24 0 4 0;
#X connect 24 1 20 0;
#X connect 25 0 26 1;
#X connect 26 0 7 0;
#X connect 26 1 9 0;
