#N canvas 0 197 486 498 10;
#X obj 80 223 t f f;
#X obj 80 250 / 1;
#X obj 80 275 - 1;
#X obj 80 330 f 1;
#X obj 80 359 -;
#X obj 115 330 *;
#X obj 80 302 t b f f;
#X obj 80 163 until;
#X obj 80 194 f;
#X obj 118 194 + 1;
#X obj 80 388 tabwrite welch_\$1;
#X obj 80 87 loadbang;
#X obj 80 113 f \$1;
#X text 285 100 \$1 is first argument.;
#X text 187 132 so if you need a 128 sample window \,;
#X text 69 52 -Welch Window-;
#X text 229 116 it should be the window size.;
#X text 222 149 you reference it as welch_128.;
#X obj 79 427 table welch_\$1 \$1;
#X obj 171 221 * 0.5;
#X obj 80 139 t f f;
#X connect 0 0 1 0;
#X connect 0 1 10 1;
#X connect 1 0 2 0;
#X connect 2 0 6 0;
#X connect 3 0 4 0;
#X connect 4 0 10 0;
#X connect 5 0 4 1;
#X connect 6 0 3 0;
#X connect 6 1 5 0;
#X connect 6 2 5 1;
#X connect 7 0 8 0;
#X connect 8 0 9 0;
#X connect 8 0 0 0;
#X connect 9 0 8 1;
#X connect 11 0 12 0;
#X connect 12 0 20 0;
#X connect 19 0 1 1;
#X connect 20 0 7 0;
#X connect 20 1 19 0;
