#N canvas 255 372 513 389 10;
#X text 225 105 provide an argument for windows \,;
#X text 309 121 as in [windows 128].;
#X obj 57 106 Windows/hamming \$1;
#X obj 57 130 Windows/welch \$1;
#X obj 57 155 Windows/bartlett \$1;
#X text 274 151 to specify gaussian bend \,;
#X text 267 169 provide a second argument \,;
#X text 218 88 in order to define a window size \,;
#X text 302 187 asin [windows 128 3].;
#X text 295 205 the default bend is 2;
#X obj 57 307 Windows/gaussian \$1 \$2;
#X text 35 48 --Collection of Windows--;
#X obj 57 81 Windows/hanning \$1;
#X obj 57 181 Windows/blackman \$1;
#X obj 57 206 Windows/nuttall \$1;
#X obj 57 232 Windows/blackman-nuttall \$1;
#X obj 56 258 Windows/blackman-harris \$1;
#X obj 57 334 Windows/square \$1 0.5;
#X obj 57 282 Windows/flat-top \$1;
