#N canvas 0 93 377 284 10;
#X obj 89 108 sig~ 1;
#X obj 88 134 /~;
#X obj 107 83 min~ 1;
#X obj 172 129 panner~;
#X obj 89 191 *~;
#X obj 199 191 *~;
#X obj 106 37 inlet~;
#X obj 89 224 outlet~;
#X obj 198 223 outlet~;
#X text 98 15 distance in center;
#X connect 0 0 1 0;
#X connect 1 0 4 0;
#X connect 1 0 5 0;
#X connect 2 0 1 1;
#X connect 3 0 4 1;
#X connect 3 1 5 1;
#X connect 4 0 7 0;
#X connect 5 0 8 0;
#X connect 6 0 2 0;
#X connect 6 0 3 0;
