#N canvas 186 294 451 408 10;
#X obj 20 31 inlet~;
#X obj 82 126 clip~ -0.25 0.25;
#X obj 21 86 clip~ -0.25 0.25;
#X obj 144 164 clip~ -0.25 0.25;
#X obj 263 84 -~ 0.25;
#X obj 263 113 -~ 0.25;
#X obj 206 205 clip~ -0.25 0.25;
#X obj 263 144 -~ 0.25;
#X obj 22 355 outlet~;
#X obj 83 356 outlet~;
#X obj 144 356 outlet~;
#X obj 205 356 outlet~;
#X obj 370 39 inlet~;
#X text 23 16 degree;
#X text 371 14 amp;
#X obj 22 325 *~;
#X obj 83 326 *~;
#X obj 144 326 *~;
#X obj 205 326 *~;
#X obj 22 285 cos~;
#X obj 83 286 cos~;
#X obj 144 286 cos~;
#X obj 205 286 cos~;
#X connect 0 0 2 0;
#X connect 0 0 4 0;
#X connect 1 0 20 0;
#X connect 2 0 19 0;
#X connect 3 0 21 0;
#X connect 4 0 5 0;
#X connect 4 0 1 0;
#X connect 5 0 7 0;
#X connect 5 0 3 0;
#X connect 6 0 22 0;
#X connect 7 0 6 0;
#X connect 12 0 15 1;
#X connect 12 0 16 1;
#X connect 12 0 17 1;
#X connect 12 0 18 1;
#X connect 15 0 8 0;
#X connect 16 0 9 0;
#X connect 17 0 10 0;
#X connect 18 0 11 0;
#X connect 19 0 15 0;
#X connect 20 0 16 0;
#X connect 21 0 17 0;
#X connect 22 0 18 0;
