#N canvas 488 188 372 383 10;
#X obj 24 31 inlet~;
#X obj 24 336 outlet~;
#X obj 83 336 outlet~;
#X obj 144 336 outlet~;
#X obj 205 336 outlet~;
#X obj 221 37 inlet~;
#X text 27 16 degree;
#X text 222 12 amp;
#X obj 24 306 *~;
#X obj 83 306 *~;
#X obj 144 306 *~;
#X obj 205 306 *~;
#X obj 25 237 +~;
#X obj 25 75 wrap~;
#X obj 26 119 space~ 0.75 1 1.25;
#X obj 43 144 space~ -0.75 0 0.25;
#X obj 83 183 space~ 0 0.25 0.5;
#X obj 143 215 space~ 0.25 0.5 0.75;
#X obj 205 244 space~ 0.5 0.75 1;
#X connect 0 0 13 0;
#X connect 5 0 8 1;
#X connect 5 0 9 1;
#X connect 5 0 10 1;
#X connect 5 0 11 1;
#X connect 8 0 1 0;
#X connect 9 0 2 0;
#X connect 10 0 3 0;
#X connect 11 0 4 0;
#X connect 12 0 8 0;
#X connect 13 0 14 0;
#X connect 13 0 15 0;
#X connect 13 0 16 0;
#X connect 13 0 17 0;
#X connect 13 0 18 0;
#X connect 14 0 12 0;
#X connect 15 0 12 1;
#X connect 16 0 9 0;
#X connect 17 0 10 0;
#X connect 18 0 11 0;
