#N canvas 84 160 450 300 10;
#X obj 227 46 inlet~;
#X obj 76 41 inlet~;
#X obj 75 199 *~;
#X obj 207 200 *~;
#X obj 227 75 clip~ 0 1;
#X obj 92 168 cos~;
#X obj 227 104 *~ 0.25;
#X obj 226 168 cos~;
#X obj 76 257 outlet~;
#X obj 207 257 outlet~;
#X obj 227 135 -~ 0.25;
#X connect 0 0 4 0;
#X connect 1 0 2 0;
#X connect 1 0 3 0;
#X connect 2 0 8 0;
#X connect 3 0 9 0;
#X connect 4 0 6 0;
#X connect 5 0 2 1;
#X connect 6 0 5 0;
#X connect 6 0 10 0;
#X connect 7 0 3 1;
#X connect 10 0 7 0;
