#N canvas 0 119 450 300 10;
#X obj 185 51 inlet~;
#X obj 90 50 inlet~;
#X text 68 73 0 - is 'north';
#X obj 217 148 +~ 0.5;
#X text 272 148 opposite;
#X obj 157 230 +~;
#X obj 90 230 +~;
#X obj 295 231 +~;
#X obj 227 231 +~;
#X obj 89 96 +~ 0.125;
#X obj 185 95 pspread~;
#X obj 90 175 circle4~;
#X obj 217 174 circle4~;
#X obj 91 267 outlet~;
#X obj 156 268 outlet~;
#X obj 225 268 outlet~;
#X obj 295 268 outlet~;
#X connect 0 0 10 0;
#X connect 1 0 9 0;
#X connect 3 0 12 0;
#X connect 5 0 14 0;
#X connect 6 0 13 0;
#X connect 7 0 16 0;
#X connect 8 0 15 0;
#X connect 9 0 3 0;
#X connect 9 0 11 0;
#X connect 10 0 11 1;
#X connect 10 1 12 1;
#X connect 11 0 6 0;
#X connect 11 1 5 0;
#X connect 11 2 8 0;
#X connect 11 3 7 0;
#X connect 12 0 6 1;
#X connect 12 1 5 1;
#X connect 12 2 8 1;
#X connect 12 3 7 1;
