#N canvas 68 182 375 586 10;
#X obj 46 47 inlet~;
#X obj 154 49 loadbang;
#X obj 45 546 outlet~;
#X obj 154 74 t b b b;
#X obj 274 106 f \$2;
#X obj 154 102 f \$1;
#X obj 222 163 -;
#X obj 154 160 -;
#X obj 222 105 f \$3;
#X obj 222 228 f 1;
#X obj 222 250 /;
#X obj 154 227 f 1;
#X obj 154 249 /;
#X obj 46 229 clip~ \$1 \$3;
#X obj 46 266 -~ \$2;
#X obj 131 414 *~ 1;
#X obj 47 402 *~ 1;
#X obj 46 325 min~ 0;
#X obj 130 325 max~ 0;
#X obj 45 471 +~;
#X obj 45 495 cos~;
#X obj 132 441 *~ 0.250001;
#X obj 45 521 max~ 0;
#X obj 46 440 *~ 0.250002;
#X obj 274 129 t f f;
#X obj 222 202 t b f;
#X obj 154 201 t b f;
#X connect 0 0 13 0;
#X connect 1 0 3 0;
#X connect 3 0 5 0;
#X connect 3 1 8 0;
#X connect 3 2 4 0;
#X connect 4 0 24 0;
#X connect 5 0 7 0;
#X connect 6 0 25 0;
#X connect 7 0 26 0;
#X connect 8 0 6 0;
#X connect 9 0 10 0;
#X connect 10 0 15 1;
#X connect 11 0 12 0;
#X connect 12 0 16 1;
#X connect 13 0 14 0;
#X connect 14 0 17 0;
#X connect 14 0 18 0;
#X connect 15 0 21 0;
#X connect 16 0 23 0;
#X connect 17 0 16 0;
#X connect 18 0 15 0;
#X connect 19 0 20 0;
#X connect 20 0 22 0;
#X connect 21 0 19 1;
#X connect 22 0 2 0;
#X connect 23 0 19 0;
#X connect 24 0 7 1;
#X connect 24 1 6 1;
#X connect 25 0 9 0;
#X connect 25 1 10 1;
#X connect 26 0 11 0;
#X connect 26 1 12 1;
