#N canvas 695 274 382 470 10;
#X obj 42 30 inlet~;
#X obj 42 71 env~ 256;
#X obj 139 31 inlet;
#X obj 131 238 dbtorms;
#X obj 131 297 f;
#X obj 131 319 /;
#X obj 203 238 dbtorms;
#X obj 42 167 moses;
#X obj 88 140 t f f;
#X obj 131 265 t b f;
#X obj 41 421 outlet~;
#X obj 42 393 vline~;
#X obj 42 236 pack 1 30;
#X obj 131 342 pack f 30;
#X obj 42 192 t b;
#X obj 139 103 max 0;
#X obj 268 238 max 0;
#X obj 139 72 unpack f f f;
#X obj 220 103 max 0;
#X text 147 131 threshold \, attack \, release;
#X connect 0 0 1 0;
#X connect 1 0 7 0;
#X connect 2 0 17 0;
#X connect 3 0 9 0;
#X connect 4 0 5 0;
#X connect 5 0 13 0;
#X connect 6 0 4 1;
#X connect 7 0 14 0;
#X connect 7 1 3 0;
#X connect 8 0 7 1;
#X connect 8 1 6 0;
#X connect 9 0 4 0;
#X connect 9 1 5 1;
#X connect 11 0 10 0;
#X connect 12 0 11 0;
#X connect 13 0 11 0;
#X connect 14 0 12 0;
#X connect 15 0 8 0;
#X connect 16 0 13 1;
#X connect 17 0 15 0;
#X connect 17 1 16 0;
#X connect 17 2 18 0;
#X connect 18 0 12 1;
