#N canvas 687 321 457 389 10;
#X obj 52 52 cnv 15 126 36 empty empty empty 20 12 0 14 -191680 -66577
0;
#X obj 55 55 cnv 15 120 30 empty empty empty 20 12 0 14 -262144 -66577
0;
#X floatatom 92 58 5 0 100 0 - - -, f 5;
#X floatatom 134 58 5 0 100 0 - - -, f 5;
#X text 56 70 ----;
#X obj 96 186 inlet~;
#X obj 95 358 outlet~;
#X obj 233 358 outlet~;
#X obj 206 189 pack f f;
#X obj 164 146 t f f;
#X obj 213 146 t f b f;
#X obj 164 248 pack f 50;
#X obj 164 270 vline~;
#X obj 247 248 pack f 50;
#X obj 247 270 vline~;
#X obj 92 27 unpack f f;
#X text 138 71 amp;
#X text 94 71 time;
#X text 56 57 rvrb;
#X obj 95 303 greverb/reverb_init~;
#X obj 309 53 loadbang;
#X msg 309 75 20 85;
#X obj 247 225 * 0.01;
#X obj 28 115 greverb/p \$1_grvrbparams;
#X connect 2 0 9 0;
#X connect 3 0 10 0;
#X connect 5 0 19 0;
#X connect 8 0 23 0;
#X connect 9 0 11 0;
#X connect 9 1 8 0;
#X connect 10 0 22 0;
#X connect 10 1 8 0;
#X connect 10 2 8 1;
#X connect 11 0 12 0;
#X connect 12 0 19 1;
#X connect 13 0 14 0;
#X connect 14 0 19 2;
#X connect 15 0 2 0;
#X connect 15 1 3 0;
#X connect 19 0 6 0;
#X connect 19 1 7 0;
#X connect 20 0 21 0;
#X connect 21 0 15 0;
#X connect 22 0 13 0;
#X connect 23 0 15 0;
#X coords 0 -1 1 1 130 40 2 50 50;
