#N canvas 68 168 552 600 10;
#X obj 75 567 outlet~;
#X obj 300 152 tabwrite \$0_onoff;
#X obj 382 98 t b b;
#X obj 416 122 f 0;
#X obj 382 122 f 1;
#X obj 300 97 t b b;
#X obj 332 121 f 1;
#X obj 300 121 f 0;
#X obj 301 174 table \$0_onoff 2;
#X obj 300 44 loadbang;
#X obj 75 482 +~;
#X obj 326 499 +~;
#X obj 266 472 sig~ 1;
#X obj 75 533 /~;
#X obj 165 56 inlet~;
#X text 159 37 Frequency;
#X obj 455 99 samplerate~;
#X obj 455 172 f 1;
#X obj 455 196 /;
#X obj 455 125 * 0.5;
#X obj 455 147 t b f;
#X obj 300 71 t b b b;
#X obj 349 564 outlet~;
#X text 257 564 0.5;
#X obj 260 535 *~ 1;
#X obj 74 184 aaosc/oscctl~ 1 \$1 \$0;
#X obj 62 56 inlet~;
#X text 56 35 phasor;
#X obj 301 445 aaosc/oscctl~ 11 \$11 \$0;
#X obj 192 319 aaosc/oscctl~ 6 \$6 \$0;
#X obj 116 237 aaosc/oscctl~ 3 \$3 \$0;
#X obj 95 211 aaosc/oscctl~ 2 \$2 \$0;
#X obj 143 264 aaosc/oscctl~ 4 \$4 \$0;
#X obj 163 292 aaosc/oscctl~ 5 \$5 \$0;
#X obj 212 346 aaosc/oscctl~ 7 \$7 \$0;
#X obj 240 372 aaosc/oscctl~ 8 \$8 \$0;
#X obj 258 397 aaosc/oscctl~ 9 \$9 \$0;
#X obj 281 423 aaosc/oscctl~ 10 \$10 \$0;
#X connect 2 0 4 0;
#X connect 2 1 3 0;
#X connect 3 0 1 1;
#X connect 4 0 1 0;
#X connect 5 0 7 0;
#X connect 5 1 6 0;
#X connect 6 0 1 1;
#X connect 7 0 1 0;
#X connect 9 0 21 0;
#X connect 10 0 13 0;
#X connect 11 0 22 0;
#X connect 11 0 24 0;
#X connect 11 0 13 1;
#X connect 12 0 11 0;
#X connect 13 0 0 0;
#X connect 14 0 25 1;
#X connect 14 0 28 1;
#X connect 14 0 29 1;
#X connect 14 0 30 1;
#X connect 14 0 31 1;
#X connect 14 0 32 1;
#X connect 14 0 33 1;
#X connect 14 0 34 1;
#X connect 14 0 35 1;
#X connect 14 0 36 1;
#X connect 14 0 37 1;
#X connect 16 0 19 0;
#X connect 17 0 18 0;
#X connect 18 0 25 2;
#X connect 18 0 28 2;
#X connect 18 0 29 2;
#X connect 18 0 30 2;
#X connect 18 0 31 2;
#X connect 18 0 32 2;
#X connect 18 0 33 2;
#X connect 18 0 34 2;
#X connect 18 0 35 2;
#X connect 18 0 36 2;
#X connect 18 0 37 2;
#X connect 19 0 20 0;
#X connect 20 0 17 0;
#X connect 20 1 18 1;
#X connect 21 0 5 0;
#X connect 21 1 2 0;
#X connect 21 2 16 0;
#X connect 25 0 10 0;
#X connect 26 0 25 0;
#X connect 26 0 28 0;
#X connect 26 0 29 0;
#X connect 26 0 30 0;
#X connect 26 0 31 0;
#X connect 26 0 32 0;
#X connect 26 0 33 0;
#X connect 26 0 34 0;
#X connect 26 0 35 0;
#X connect 26 0 36 0;
#X connect 26 0 37 0;
#X connect 28 0 10 1;
#X connect 28 1 11 1;
#X connect 29 0 10 1;
#X connect 29 1 11 1;
#X connect 30 0 10 0;
#X connect 30 1 11 0;
#X connect 31 0 10 0;
#X connect 31 1 11 0;
#X connect 32 0 10 0;
#X connect 32 1 11 0;
#X connect 33 0 10 0;
#X connect 33 1 11 0;
#X connect 34 0 10 1;
#X connect 34 1 11 1;
#X connect 35 0 10 1;
#X connect 35 1 11 1;
#X connect 36 0 10 1;
#X connect 36 1 11 1;
#X connect 37 0 10 1;
#X connect 37 1 11 1;
