#N canvas 288 277 431 472 10;
#X obj 64 92 *~ \$1;
#X obj 65 325 *~ \$2;
#X obj 63 57 inlet~;
#X obj 65 437 outlet~;
#X obj 223 59 loadbang;
#X obj 280 116 samplerate~;
#X obj 280 189 f 1;
#X obj 280 213 /;
#X obj 280 142 * 0.5;
#X obj 280 164 t b f;
#X obj 65 380 *~;
#X obj 255 302 *~ 1;
#X obj 239 433 outlet~;
#X obj 238 366 sig~ \$2;
#X obj 65 256 cos~;
#X obj 65 229 +~ 1;
#X obj 223 114 f \$1;
#X obj 223 136 * 0.25;
#X obj 223 158 - 0.25;
#X obj 223 181 wrap;
#X obj 239 396 *~;
#X text 270 83 Get offset;
#X obj 223 83 t b b;
#X text 58 34 Phasor input;
#X text 109 94 harmonic;
#X text 105 233 offset;
#X text 110 325 harmonic amp;
#X text 298 366 harmonic amp;
#X text 294 307 nyquist test;
#X text 295 390 after nyquist;
#X obj 256 335 tabread~ \$1_onoff;
#X connect 0 0 15 0;
#X connect 1 0 10 0;
#X connect 2 0 0 0;
#X connect 4 0 22 0;
#X connect 5 0 8 0;
#X connect 6 0 7 0;
#X connect 7 0 11 1;
#X connect 8 0 9 0;
#X connect 9 0 6 0;
#X connect 9 1 7 1;
#X connect 10 0 3 0;
#X connect 11 0 30 0;
#X connect 13 0 20 0;
#X connect 14 0 1 0;
#X connect 14 0 11 0;
#X connect 15 0 14 0;
#X connect 16 0 17 0;
#X connect 17 0 18 0;
#X connect 18 0 19 0;
#X connect 19 0 15 1;
#X connect 20 0 12 0;
#X connect 22 0 16 0;
#X connect 22 1 5 0;
#X connect 30 0 10 1;
#X connect 30 0 20 1;
