#N canvas 0 93 508 469 10;
#X obj 65 62 inlet;
#X obj 124 130 select 0;
#X obj 124 197 f 1;
#X obj 156 197 f 0;
#X obj 124 166 t b b;
#X obj 188 166 t b b;
#X obj 188 197 f 0;
#X obj 220 197 f 1;
#X obj 124 63 loadbang;
#X obj 124 97 f 0;
#X obj 124 248 outlet;
#X obj 176 248 outlet;
#X connect 0 0 1 0;
#X connect 1 0 4 0;
#X connect 1 1 5 0;
#X connect 2 0 10 0;
#X connect 3 0 11 0;
#X connect 4 0 2 0;
#X connect 4 1 3 0;
#X connect 5 0 6 0;
#X connect 5 1 7 0;
#X connect 6 0 10 0;
#X connect 7 0 11 0;
#X connect 8 0 9 0;
#X connect 9 0 1 0;
