#N canvas 227 373 471 395 10;
#X obj 121 182 mod 12;
#X obj 89 234 -;
#X obj 89 121 spigot;
#X obj 89 265 +;
#X obj 121 208 t f f;
#X obj 89 149 t f f;
#X obj 89 307 outlet;
#X obj 89 66 inlet;
#X obj 178 67 inlet;
#X obj 153 232 tabread \$1_redirect;
#X connect 0 0 4 0;
#X connect 1 0 3 0;
#X connect 2 0 5 0;
#X connect 3 0 6 0;
#X connect 4 0 1 1;
#X connect 4 1 9 0;
#X connect 5 0 1 0;
#X connect 5 1 0 0;
#X connect 7 0 2 0;
#X connect 8 0 2 1;
#X connect 9 0 3 1;
