#N canvas 763 96 585 672 10;
#X text 44 45 ++++LINEAR AND SINUSOIDAL WAVEFORMS++++;
#X text 45 104 ++++WINDOWS FOR GRAINS AND FFT++++;
#X obj 67 67 Waveforms/wavebank 256;
#X obj 67 128 Windows/windows 128 4;
#X text 45 468 ++++MIDI++++;
#X text 47 2655 ++++CONVERSIONS++++;
#X floatatom 68 1739 5 0 0 0 - - -, f 5;
#X text 46 1645 ++++LOGIC++++;
#X floatatom 68 1844 5 0 0 0 - - -, f 5;
#X floatatom 68 1950 5 0 0 0 - - -, f 5;
#X floatatom 68 2012 5 0 0 0 - - -, f 5;
#X floatatom 68 2060 5 0 0 0 - - -, f 5;
#X floatatom 142 1739 5 0 0 0 - - -, f 5;
#X obj 68 1819 Logic/switch 7 3;
#X obj 68 2035 Logic/channel;
#X obj 156 2011 tgl 15 0 empty empty empty 17 7 0 10 -262144 -1 -1
0 1;
#X floatatom 156 2059 5 0 0 0 - - -, f 5;
#X obj 68 1796 bng 15 250 50 0 empty empty empty 17 7 0 10 -262144
-1 -1;
#X obj 177 1796 bng 15 250 50 0 empty empty empty 17 7 0 10 -262144
-1 -1;
#X obj 68 1902 bng 15 250 50 0 empty empty empty 17 7 0 10 -262144
-1 -1;
#X obj 177 1902 bng 15 250 50 0 empty empty empty 17 7 0 10 -262144
-1 -1;
#X floatatom 67 2206 5 0 0 0 - - -, f 5;
#X floatatom 67 2254 5 0 0 0 - - -, f 5;
#X text 47 2125 ++++PRESETS++++;
#X floatatom 217 2206 5 0 0 0 - - -, f 5;
#X floatatom 217 2254 5 0 0 0 - - -, f 5;
#X obj 67 2230 Demo/param var1;
#X obj 217 2230 Demo/p var1;
#X obj 67 2415 Demo/saver;
#X text 63 2497 [Demo/presets];
#X obj 67 2474 Demo/presets;
#X obj 67 2554 Demo/presets20;
#X text 64 2577 [Demo/presets20];
#X text 65 2155 Demo directory is to show functionality.;
#X msg 67 2368 save_name;
#X obj 149 2367 bng 15 250 50 0 empty empty empty 17 7 0 10 -262144
-1 -1;
#X msg 100 2391 load_name;
#X text 440 22 Brian Taylor Vann;
#X text 503 37 2017 JAN;
#X floatatom 86 4580 5 0 0 0 - - -, f 5;
#X obj 86 4603 Pan/panner~;
#X obj 67 4633 *~;
#X obj 142 4633 *~;
#X obj 67 4843 Pan/ptwospeakers~;
#X obj 67 4933 Pan/pfourspeakers~;
#X obj 67 5023 Pan/pfivespeakers~;
#X floatatom 125 4818 5 0 0 0 - - -, f 5;
#X floatatom 183 4818 5 0 0 0 - - -, f 5;
#X floatatom 128 4910 5 0 0 0 - - -, f 5;
#X floatatom 190 4910 5 0 0 0 - - -, f 5;
#X floatatom 128 5000 5 0 0 0 - - -, f 5;
#X floatatom 190 5000 5 0 0 0 - - -, f 5;
#X floatatom 132 5090 5 0 0 0 - - -, f 5;
#X floatatom 197 5090 5 0 0 0 - - -, f 5;
#X obj 67 5113 Pan/psevenspeakers~;
#X text 47 4536 ++++PANNING++++;
#X obj 67 5354 Oscillators/wbosc~;
#X obj 67 5305 sig~;
#X floatatom 67 5283 5 0 0 0 - - -, f 5;
#X obj 67 5330 phasor~;
#X obj 128 5306 hradio 15 1 0 10 empty empty empty 0 -8 0 10 -262144
-1 -1 0;
#X msg 190 5329 256;
#X text 127 5288 select table;
#X text 220 5330 specify table length;
#X obj 67 5438 sig~;
#X floatatom 67 5416 5 0 0 0 - - -, f 5;
#X obj 67 5463 phasor~;
#X msg 190 5484 256;
#X text 220 5485 specify table length;
#X floatatom 128 5414 5 0 0 0 - - -, f 5;
#X obj 128 5433 / 100;
#X obj 128 5455 pack f 30;
#X obj 128 5477 vline~;
#X obj 67 5509 Oscillators/wbpwm~;
#X text 176 5433 pulse width between (0-1);
#X obj 67 5653 sig~;
#X floatatom 67 5631 5 0 0 0 - - -, f 5;
#X obj 67 5678 phasor~;
#X obj 67 5714 Oscillators/aaramp~;
#X obj 67 5801 sig~;
#X floatatom 67 5779 5 0 0 0 - - -, f 5;
#X obj 67 5826 phasor~;
#X obj 67 5862 Oscillators/aatri~;
#X obj 67 5941 sig~;
#X floatatom 67 5919 5 0 0 0 - - -, f 5;
#X obj 67 5966 phasor~;
#X obj 67 6085 sig~;
#X floatatom 67 6063 5 0 0 0 - - -, f 5;
#X obj 67 6110 phasor~;
#X obj 67 6152 Oscillators/aapwm~;
#X obj 67 6002 Oscillators/aasquare~;
#X floatatom 190 6063 5 0 0 0 - - -, f 5;
#X obj 190 6082 / 100;
#X obj 190 6104 pack f 30;
#X obj 190 6126 vline~;
#X text 238 6082 pulse width between (0-1);
#X obj 67 6235 sig~;
#X floatatom 67 6213 5 0 0 0 - - -, f 5;
#X obj 67 6260 phasor~;
#X obj 67 6292 Oscillators/aaosc~;
#X msg 190 6257 1 0.2 0.5 0.3 0.11 0.023;
#X text 188 6236 keep harmonics between (0-1);
#X obj 66 6405 sig~;
#X floatatom 66 6383 5 0 0 0 - - -, f 5;
#X obj 66 6430 phasor~;
#X obj 67 6472 Oscillators/voscillator~;
#X floatatom 232 6383 5 0 0 0 - - -, f 5;
#X obj 232 6402 / 100;
#X obj 232 6424 pack f 30;
#X obj 232 6446 vline~;
#X text 280 6402 waveshape between (0-1);
#X text 47 6529 ++++LOOPER++++;
#X obj 67 6685 Looper/looper~ 90 40;
#X text 82 6633 start/stop;
#X text 175 6632 play/pause;
#X text 261 6632 clear;
#X obj 276 6652 bng 15 250 50 0 empty empty empty 17 7 0 10 -262144
-1 -1;
#X obj 198 6652 tgl 15 0 empty empty empty 17 7 0 10 -262144 -1 -1
0 1;
#X obj 112 6652 tgl 15 0 empty empty empty 17 7 0 10 -262144 -1 -1
0 1;
#X text 47 6746 ++++ENVELOPES++++;
#X text 47 6768 TAPE STYLE;
#X floatatom 130 6937 5 0 0 0 - - -, f 5;
#X floatatom 171 6971 5 0 0 0 - - -, f 5;
#X obj 89 7026 Envelopes/tapeenv~;
#X obj 88 6885 phasor~;
#X obj 88 6911 *~;
#X floatatom 88 6858 5 0 0 0 - - -, f 5;
#X obj 150 6886 Conversions/freq2samp~;
#X text 168 6954 open time;
#X floatatom 212 7002 5 0 0 0 - - -, f 5;
#X text 209 6986 close time;
#X floatatom 114 7209 5 0 0 0 - - -, f 5;
#X floatatom 140 7239 5 0 0 0 - - -, f 5;
#X obj 87 7145 phasor~;
#X obj 87 7171 *~;
#X floatatom 87 7118 5 0 0 0 - - -, f 5;
#X obj 149 7146 Conversions/freq2samp~;
#X floatatom 166 7272 5 0 0 0 - - -, f 5;
#X obj 70 7055 *~;
#X obj 88 7369 Envelopes/tapeadsr~;
#X text 113 7193 attack time;
#X text 138 7223 decay level;
#X text 164 7255 decay time;
#X floatatom 192 7312 5 0 0 0 - - -, f 5;
#X floatatom 218 7345 5 0 0 0 - - -, f 5;
#X text 189 7295 sustain time;
#X text 216 7328 release time;
#X obj 70 7399 *~;
#X text 127 6921 env time;
#X text 66 6799 similar to analog drum machines and samplers.;
#X floatatom 168 7596 5 0 0 0 - - -, f 5;
#X floatatom 202 7630 5 0 0 0 - - -, f 5;
#X floatatom 135 7563 5 0 0 0 - - -, f 5;
#X obj 185 7679 tgl 15 0 empty empty empty 17 7 0 10 -262144 -1 -1
0 1;
#X obj 236 7699 tgl 15 0 empty empty empty 17 7 0 10 -262144 -1 -1
0 1;
#X obj 85 7685 tgl 15 0 empty empty empty 17 7 0 10 -262144 -1 -1 0
1;
#X text 204 7678 key release off/on;
#X text 255 7698 amp reset off/on;
#X obj 67 7750 *~;
#X text 47 7448 TRIGGER STYLE;
#X floatatom 160 7865 5 0 0 0 - - -, f 5;
#X floatatom 184 7899 5 0 0 0 - - -, f 5;
#X floatatom 137 7833 5 0 0 0 - - -, f 5;
#X floatatom 208 7931 5 0 0 0 - - -, f 5;
#X floatatom 232 7963 5 0 0 0 - - -, f 5;
#X obj 137 7985 pack f f f f f;
#X obj 190 8014 tgl 15 0 empty empty empty 17 7 0 10 -262144 -1 -1
0 1;
#X obj 243 8029 tgl 15 0 empty empty empty 17 7 0 10 -262144 -1 -1
0 1;
#X obj 85 8015 tgl 15 0 empty empty empty 17 7 0 10 -262144 -1 -1 0
1;
#X obj 85 8052 Envelopes/trigadsr~ 0 0;
#X text 209 8013 key release off/on;
#X text 262 8028 amp reset off/on;
#X text 136 7815 attack time;
#X text 158 7847 decay level (0-1);
#X text 183 7882 decay time;
#X text 207 7914 sustain time;
#X text 231 7947 release time;
#X obj 67 8080 *~;
#X text 134 7545 envelope time;
#X text 166 7578 open time;
#X text 201 7613 close time;
#X obj 135 7655 pack f f f;
#X obj 85 7722 Envelopes/trigenv~ 0 0;
#X obj 69 237 Tuner/tuner~;
#X obj 150 214 tgl 15 0 empty empty empty 17 7 0 10 -262144 -1 -1 0
1;
#X obj 72 283 hsl 128 15 -1 1 0 0 empty empty empty -2 -8 0 10 -262144
-1 -1 0 1;
#X symbolatom 150 262 10 0 0 0 - - -, f 10;
#X text 48 283 -1;
#X text 204 283 1;
#X text 46 1669 OnOff;
#X text 46 1774 Switch;
#X text 46 1883 Round;
#X text 46 1990 Channel;
#X text 47 2184 Param or P;
#X text 47 2347 Saver;
#X text 47 2447 Presets;
#X text 47 2527 Presets20;
#X text 47 4558 Panner;
#X text 47 4674 Polar Based Surround Sound Objects;
#X text 47 4798 Polar Two Speakers;
#X text 47 4889 Polar Four Speakers;
#X text 47 4979 Polar Five Speakers;
#X text 47 5070 Polar Seven Speakers;
#X text 47 5198 Wavebank Oscillators;
#X text 47 5260 Wavebank Standard Oscillators;
#X text 47 5387 Wavebank PWM;
#X text 47 5553 Anti-Aliasing Oscillators;
#X text 47 5610 Anti-Aliasing Ramp Wave;
#X text 46 5758 Anti-Aliasing Triangle Wave;
#X text 47 5898 Anti-Aliasing Square Wave;
#X text 47 6038 Anti-Aliasing PWM;
#X text 47 6188 Anti-Aliasing Custom Harmonics;
#X text 47 6358 Voscillator;
#X text 47 6551 Looper;
#X text 47 6830 Tape Envelope;
#X text 47 7090 Tape ADSR;
#X text 47 7528 Trigger Envelope;
#X text 47 7798 Trigger ADSR;
#X text 44 206 Tuner;
#X text 44 319 Tuner with GUI;
#X text 45 178 ++++TUNER++++;
#X obj 69 352 Tuner/gtuner~;
#X text 65 405 [Tuner/gtuner~];
#X text 65 2142 Use objects in Presets directory.;
#X text 66 2277 To save and recal values give [p] or [param] a unique
id.;
#X text 66 2291 Do not use pd's \$0 argument as it is randomized.;
#X text 66 2306 Use [saver] \, [presets] \, or [presets20] to save
and recall;
#X text 66 2320 all [p] and [param] values in your patch.;
#X text 70 4695 Left inlet is for audio signal.;
#X text 70 4723 Right inlet is distance \, can be signal driven.;
#X text 70 4747 For polar panning \, the last outlet is only attenuated
;
#X text 71 4760 by distance. Suitable for subwoofers or filters.;
#X text 66 5221 Wavebank oscillators must be used in tandem;
#X text 66 5234 with the [wavebank] object. Specify table length.;
#X text 66 5575 These oscillators will never cause nyquist frequencies.
;
#X obj 68 1925 Logic/rotund 5 2;
#X text 133 4580 0-1;
#X text 71 4709 Middle inlet is for theta (0-1) \, can be signal driven.
;
#X text 188 6223 up to 10 harmonics;
#X obj 68 1714 Logic/onoff;
#X obj 68 1692 tgl 15 0 empty empty empty 17 7 0 10 -262144 -1 -1 0
1;
#X text 47 5176 ++++Generators++++;
#X text 47 6338 VARIABLE OSCILLATORS;
#X text 66 6786 driven by sample number and function at the signal
level.;
#X text 66 6574 First argument is max length of loop in seconds.;
#X text 66 6587 Second argument is the length of crossfade in mS.;
#X text 65 6601 Default is a 60 second loop with a 30 mS crossfade.
;
#X text 66 7466 Function off events and function at the control level.
;
#X text 67 7480 Give [trigadsr~] and [envadsr~] a zero or non-zero
value;
#X text 66 7494 representing amplitude (like a keypress).;
#X text 795 6637 Play a soundfile;
#X text 795 6734 Load a soundfile to a table;
#X text 800 7097 Swipe through a sample;
#X text 796 6609 ++++SAMPLES++++;
#X text 796 6864 Save a signal to disk;
#X text 796 6984 Save signal to a table;
#X text 800 7317 Swipe through a sample with a signal;
#X obj 950 6671 bng 15 250 50 0 empty empty empty 17 7 0 10 -262144
-1 -1;
#X msg 820 6667 1;
#X msg 856 6667 0;
#X obj 820 6695 Samples/sampleplay~;
#X obj 821 6829 Samples/sampload foo;
#X text 970 6830 <-- table name;
#X obj 821 6804 openpanel;
#X obj 821 6780 bng 15 250 50 0 empty empty empty 17 7 0 10 -262144
-1 -1;
#X msg 958 6803 1;
#X text 989 6804 normalize (0 -1);
#X text 819 6755 First argument: table name;
#X obj 821 6929 Samples/samplesave~;
#X text 830 6909 signal;
#X obj 886 6905 bng 15 250 50 0 empty empty empty 17 7 0 10 -262144
-1 -1;
#X obj 951 6906 tgl 15 0 empty empty empty 17 7 0 10 -262144 -1 -1
0 1;
#X text 945 6889 stop/start;
#X text 868 6888 filename;
#X obj 821 7069 Samples/sampletable~ foo;
#X obj 903 7039 tgl 15 0 empty empty empty 17 7 0 10 -262144 -1 -1
0 1;
#X text 897 7022 stop/start;
#X msg 986 7025 new_table_name;
#X text 996 7042 change tables;
#X text 829 7049 signal;
#X text 819 7002 First argument: table name;
#X obj 821 7274 Samples/scratch foo 100;
#X floatatom 821 7169 5 0 0 0 - - -, f 5;
#X obj 821 7191 * 0.01;
#X floatatom 873 7193 5 0 0 0 - - -, f 5;
#X floatatom 926 7213 5 0 0 0 - - -, f 5;
#X msg 979 7230 new_table_name;
#X text 860 7168 Position (0-1);
#X text 919 7192 Start time (mS);
#X text 966 7211 End time (mS);
#X text 999 7247 Change tables;
#X text 819 7121 First argument: table name;
#X text 819 7137 Second argument: cossover time (30 mS default);
#X msg 1059 7434 new_table_name;
#X floatatom 820 7362 5 0 0 0 - - -, f 5;
#X obj 820 7403 pack f 30;
#X obj 820 7425 vline~;
#X obj 820 7381 * 0.01;
#X floatatom 896 7381 5 0 0 0 - - -, f 5;
#X obj 896 7404 pack f 30;
#X obj 896 7426 vline~;
#X floatatom 976 7405 5 0 0 0 - - -, f 5;
#X obj 976 7428 pack f 30;
#X obj 976 7450 vline~;
#X text 865 7360 Position (0-1);
#X text 939 7380 Start time (mS);
#X text 1016 7403 End time (mS);
#X text 1068 7454 Change tables;
#X obj 821 7512 Samples/scratch~ foo;
#X text 819 7342 First argument: table name;
#X obj 821 7704 Samples/trigplay~ foo 44100;
#X msg 821 7607 60;
#X msg 838 7630 63;
#X msg 849 7655 65;
#X text 851 7605 Midi;
#X floatatom 883 7621 5 0 0 0 - - -, f 5;
#X text 923 7619 Start time (mS);
#X text 986 7639 End time (mS);
#X floatatom 945 7641 5 0 0 0 - - -, f 5;
#X msg 1006 7666 new_table 48000;
#X text 1026 7684 change table and samplerate;
#X text 800 7551 Play a sample with a midi note;
#X text 829 7568 First argument: table name;
#X text 829 7584 Second argument: cossover time (30 mS default);
#X obj 69 500 Midi/demo_midi;
#X obj 67 2692 Conversions/demo_conversions;
#X text 52 8127 ++++EFFECTS++++;
#X obj 68 8161 Effects/demo_effects;
#X connect 10 0 14 0;
#X connect 13 0 8 0;
#X connect 14 0 11 0;
#X connect 14 1 16 0;
#X connect 15 0 14 1;
#X connect 17 0 13 0;
#X connect 18 0 13 1;
#X connect 19 0 235 0;
#X connect 20 0 235 1;
#X connect 21 0 26 0;
#X connect 24 0 27 0;
#X connect 26 0 22 0;
#X connect 27 0 25 0;
#X connect 34 0 28 0;
#X connect 35 0 28 2;
#X connect 36 0 28 1;
#X connect 39 0 40 0;
#X connect 40 0 41 1;
#X connect 40 1 42 1;
#X connect 46 0 43 1;
#X connect 47 0 43 2;
#X connect 48 0 44 1;
#X connect 49 0 44 2;
#X connect 50 0 45 1;
#X connect 51 0 45 2;
#X connect 52 0 54 1;
#X connect 53 0 54 2;
#X connect 57 0 59 0;
#X connect 58 0 57 0;
#X connect 59 0 56 0;
#X connect 60 0 56 1;
#X connect 61 0 56 2;
#X connect 64 0 66 0;
#X connect 65 0 64 0;
#X connect 66 0 73 0;
#X connect 67 0 73 2;
#X connect 69 0 70 0;
#X connect 70 0 71 0;
#X connect 71 0 72 0;
#X connect 72 0 73 1;
#X connect 75 0 77 0;
#X connect 75 0 78 1;
#X connect 76 0 75 0;
#X connect 77 0 78 0;
#X connect 79 0 81 0;
#X connect 79 0 82 1;
#X connect 80 0 79 0;
#X connect 81 0 82 0;
#X connect 83 0 85 0;
#X connect 83 0 90 1;
#X connect 84 0 83 0;
#X connect 85 0 90 0;
#X connect 86 0 88 0;
#X connect 86 0 89 1;
#X connect 87 0 86 0;
#X connect 88 0 89 0;
#X connect 91 0 92 0;
#X connect 92 0 93 0;
#X connect 93 0 94 0;
#X connect 94 0 89 2;
#X connect 96 0 98 0;
#X connect 96 0 99 1;
#X connect 97 0 96 0;
#X connect 98 0 99 0;
#X connect 100 0 99 2;
#X connect 102 0 104 0;
#X connect 103 0 102 0;
#X connect 104 0 105 0;
#X connect 106 0 107 0;
#X connect 107 0 108 0;
#X connect 108 0 109 0;
#X connect 109 0 105 1;
#X connect 116 0 112 3;
#X connect 117 0 112 2;
#X connect 118 0 112 1;
#X connect 121 0 123 1;
#X connect 122 0 123 2;
#X connect 123 0 138 1;
#X connect 124 0 125 0;
#X connect 125 0 123 0;
#X connect 126 0 124 0;
#X connect 126 0 127 0;
#X connect 127 0 125 1;
#X connect 129 0 123 3;
#X connect 131 0 139 1;
#X connect 132 0 139 2;
#X connect 133 0 134 0;
#X connect 134 0 139 0;
#X connect 135 0 133 0;
#X connect 135 0 136 0;
#X connect 136 0 134 1;
#X connect 137 0 139 3;
#X connect 139 0 147 1;
#X connect 143 0 139 4;
#X connect 144 0 139 5;
#X connect 150 0 181 1;
#X connect 151 0 181 2;
#X connect 152 0 181 0;
#X connect 153 0 182 2;
#X connect 154 0 182 3;
#X connect 155 0 182 0;
#X connect 160 0 165 1;
#X connect 161 0 165 2;
#X connect 162 0 165 0;
#X connect 163 0 165 3;
#X connect 164 0 165 4;
#X connect 165 0 169 1;
#X connect 166 0 169 2;
#X connect 167 0 169 3;
#X connect 168 0 169 0;
#X connect 169 0 177 1;
#X connect 181 0 182 1;
#X connect 182 0 158 1;
#X connect 183 0 185 0;
#X connect 183 1 186 0;
#X connect 184 0 183 1;
#X connect 235 0 9 0;
#X connect 239 0 6 0;
#X connect 239 1 12 0;
#X connect 240 0 239 0;
#X connect 257 0 260 1;
#X connect 258 0 260 0;
#X connect 259 0 260 0;
#X connect 263 0 261 0;
#X connect 264 0 263 0;
#X connect 265 0 261 1;
#X connect 270 0 268 1;
#X connect 271 0 268 2;
#X connect 275 0 274 1;
#X connect 277 0 274 2;
#X connect 282 0 283 0;
#X connect 283 0 281 0;
#X connect 284 0 281 1;
#X connect 285 0 281 2;
#X connect 286 0 281 3;
#X connect 293 0 308 3;
#X connect 294 0 297 0;
#X connect 295 0 296 0;
#X connect 296 0 308 0;
#X connect 297 0 295 0;
#X connect 298 0 299 0;
#X connect 299 0 300 0;
#X connect 300 0 308 1;
#X connect 301 0 302 0;
#X connect 302 0 303 0;
#X connect 303 0 308 2;
#X connect 311 0 310 0;
#X connect 312 0 310 0;
#X connect 313 0 310 0;
#X connect 315 0 310 1;
#X connect 318 0 310 2;
#X connect 319 0 310 3;
