#N canvas 0 93 606 672 10;
#X text 44 35 ++++LINEAR AND SINUSOIDAL WAVEFORMS++++;
#X text 45 94 ++++WINDOWS FOR GRAINS AND FFT++++;
#X obj 67 57 Waveforms/wavebank 256;
#X obj 67 118 Windows/windows 128 4;
#X obj 69 231 tgl 15 0 empty empty empty 17 7 0 10 -262144 -1 -1 0
1;
#X floatatom 69 310 5 0 0 0 - - -, f 5;
#X floatatom 136 310 5 0 0 0 - - -, f 5;
#X obj 69 283 unpack f f;
#X floatatom 68 619 5 0 0 0 - - -, f 5;
#X obj 68 487 unpack f f;
#X floatatom 68 509 5 0 0 0 - - -, f 5;
#X floatatom 135 509 5 0 0 0 - - -, f 5;
#X obj 68 552 unpack f f;
#X floatatom 68 574 5 0 0 0 - - -, f 5;
#X floatatom 135 574 5 0 0 0 - - -, f 5;
#X text 45 178 ++++MIDI++++;
#X obj 68 369 Midi/midi_debug;
#X obj 68 398 Midi/midi;
#X obj 68 462 Midi/getnotes;
#X obj 68 530 Midi/getcontrols;
#X obj 68 595 Midi/getbend;
#X obj 69 256 Midi/qwerty;
#X text 47 1685 ++++CONVERSIONS++++;
#X text 47 1817 BPM<-->MILLISECONDS;
#X obj 67 1863 Conversions/bpm2time;
#X obj 244 1863 Conversions/bpm2time~;
#X obj 67 1908 Conversions/time2bpm;
#X obj 244 1908 Conversions/time2bpm~;
#X obj 244 1752 Conversions/absolute~;
#X obj 67 1752 Conversions/absolute;
#X text 47 1707 [+/-]<-->ABSOLUTE VALUE;
#X floatatom 67 1729 5 0 0 0 - - -, f 5;
#X floatatom 67 1777 5 0 0 0 - - -, f 5;
#X floatatom 67 1840 5 0 0 0 - - -, f 5;
#X floatatom 67 1888 5 0 0 0 - - -, f 5;
#X floatatom 67 1935 5 0 0 0 - - -, f 5;
#X floatatom 67 2000 5 0 0 0 - - -, f 5;
#X floatatom 67 2048 5 0 0 0 - - -, f 5;
#X floatatom 67 2095 5 0 0 0 - - -, f 5;
#X text 47 1977 FREQUENCY<-->SAMPLES;
#X obj 67 2023 Conversions/freq2samp;
#X obj 67 2068 Conversions/samp2freq;
#X obj 244 2023 Conversions/freq2samp~;
#X obj 244 2068 Conversions/samp2freq~;
#X floatatom 67 2161 5 0 0 0 - - -, f 5;
#X floatatom 67 2209 5 0 0 0 - - -, f 5;
#X floatatom 67 2256 5 0 0 0 - - -, f 5;
#X text 47 2138 FREQUENCY<-->MILLISECONDS;
#X obj 67 2184 Conversions/freq2time;
#X obj 244 2184 Conversions/freq2time~;
#X obj 67 2229 Conversions/time2freq;
#X obj 244 2229 Conversions/time2freq~;
#X text 66 420 to use [getnotes] \, [getcontrols] \, or [getbend];
#X text 67 436 make sure there is an instance of [midi];
#X floatatom 67 2321 5 0 0 0 - - -, f 5;
#X floatatom 67 2369 5 0 0 0 - - -, f 5;
#X floatatom 67 2416 5 0 0 0 - - -, f 5;
#X text 47 2298 FREQUENCY<-->MIDI;
#X obj 67 2344 Conversions/freq2midi;
#X obj 67 2389 Conversions/midi2freq;
#X obj 244 2344 Conversions/freq2midi~;
#X obj 244 2389 Conversions/midi2freq~;
#X floatatom 67 2485 5 0 0 0 - - -, f 5;
#X floatatom 67 2533 5 0 0 0 - - -, f 5;
#X floatatom 67 2580 5 0 0 0 - - -, f 5;
#X text 47 2462 SAMPLES<-->MILLISECONDS;
#X obj 67 2508 Conversions/samp2time;
#X obj 67 2553 Conversions/time2samp;
#X obj 244 2508 Conversions/samp2time~;
#X obj 244 2553 Conversions/time2samp~;
#X floatatom 67 2645 5 0 0 0 - - -, f 5;
#X floatatom 67 2693 5 0 0 0 - - -, f 5;
#X floatatom 67 2740 5 0 0 0 - - -, f 5;
#X obj 67 2668 Conversions/time2dist;
#X obj 67 2713 Conversions/dist2time;
#X obj 244 2668 Conversions/time2dist~;
#X obj 244 2713 Conversions/dist2time~;
#X text 47 2622 MILLISECONDS<-->METERS;
#X floatatom 67 2805 5 0 0 0 - - -, f 5;
#X floatatom 67 2853 5 0 0 0 - - -, f 5;
#X floatatom 67 2900 5 0 0 0 - - -, f 5;
#X obj 67 2828 Conversions/time2dist;
#X obj 67 2873 Conversions/dist2time;
#X obj 244 2828 Conversions/time2dist~;
#X obj 244 2873 Conversions/dist2time~;
#X text 47 2782 MILLISECONDS<-->METERS;
#X floatatom 66 3225 5 0 0 0 - - -, f 5;
#X text 45 2937 2D & 3D HYPOTENUSE;
#X obj 263 3198 Conversions/hypotenuse3d~;
#X obj 66 3198 Conversions/hypotenuse3d;
#X floatatom 66 3109 5 0 0 0 - - -, f 5;
#X floatatom 118 3110 5 0 0 0 - - -, f 5;
#X obj 118 3132 t b f;
#X floatatom 168 3110 5 0 0 0 - - -, f 5;
#X obj 168 3132 t b f;
#X obj 66 3168 pack f f f;
#X floatatom 66 3075 5 0 0 0 - - -, f 5;
#X obj 66 3048 Conversions/hypotenuse3d;
#X floatatom 66 2959 5 0 0 0 - - -, f 5;
#X floatatom 118 2960 5 0 0 0 - - -, f 5;
#X obj 118 2982 t b f;
#X obj 66 3018 pack f f;
#X obj 263 3048 Conversions/hypotenuse2d~;
#X floatatom 67 3504 5 0 0 0 - - -, f 5;
#X floatatom 67 3378 5 0 0 0 - - -, f 5;
#X floatatom 119 3379 5 0 0 0 - - -, f 5;
#X obj 119 3401 t b f;
#X floatatom 67 3340 5 0 0 0 - - -, f 5;
#X floatatom 67 3288 5 0 0 0 - - -, f 5;
#X text 46 3266 UNIT CIRCLE & UNIT SPHERE;
#X obj 67 3313 Conversions/unitcircle;
#X obj 264 3313 Conversions/unitcircle~;
#X obj 67 3431 pack f f;
#X obj 67 3477 Conversions/unitsphere;
#X obj 264 3477 Conversions/unitsphere~;
#X floatatom 218 3340 5 0 0 0 - - -, f 5;
#X floatatom 142 3504 5 0 0 0 - - -, f 5;
#X floatatom 218 3504 5 0 0 0 - - -, f 5;
#X text 333 3290 theta = 0 - 1;
#X text 115 3291 theta = 0 - 2pi;
#X text 333 3454 theta = 0 - 1;
#X text 115 3455 theta = 0 - 2pi;
#X floatatom 68 721 5 0 0 0 - - -, f 5;
#X floatatom 68 769 5 0 0 0 - - -, f 5;
#X text 46 675 ++++LOGIC++++;
#X floatatom 68 874 5 0 0 0 - - -, f 5;
#X floatatom 68 980 5 0 0 0 - - -, f 5;
#X floatatom 68 1042 5 0 0 0 - - -, f 5;
#X floatatom 68 1090 5 0 0 0 - - -, f 5;
#X text 46 699 ONOFF;
#X obj 68 744 Logic/onoff 7 3;
#X floatatom 170 769 5 0 0 0 - - -, f 5;
#X text 46 804 SWITCH;
#X obj 68 849 Logic/switch 7 3;
#X text 46 913 ROUND;
#X obj 68 955 Logic/round 5 2;
#X text 46 1020 CHANNEL;
#X obj 68 1065 Logic/channel;
#X obj 156 1041 tgl 15 0 empty empty empty 17 7 0 10 -262144 -1 -1
1 1;
#X floatatom 156 1089 5 0 0 0 - - -, f 5;
#X obj 68 826 bng 15 250 50 0 empty empty empty 17 7 0 10 -262144 -1
-1;
#X obj 177 826 bng 15 250 50 0 empty empty empty 17 7 0 10 -262144
-1 -1;
#X obj 68 932 bng 15 250 50 0 empty empty empty 17 7 0 10 -262144 -1
-1;
#X obj 170 932 bng 15 250 50 0 empty empty empty 17 7 0 10 -262144
-1 -1;
#X floatatom 67 1236 5 0 0 0 - - -, f 5;
#X floatatom 67 1284 5 0 0 0 - - -, f 5;
#X text 47 1155 ++++PRESETS++++;
#X floatatom 217 1236 5 0 0 0 - - -, f 5;
#X floatatom 217 1284 5 0 0 0 - - -, f 5;
#X text 47 1214 PARAM or P;
#X text 47 1377 SAVER;
#X text 43 346 Midi Input;
#X text 44 206 Qwerty Midi;
#X obj 67 1260 Demo/param var1;
#X obj 217 1260 Demo/p var1;
#X obj 67 1445 Demo/saver;
#X text 47 1477 PRESETS;
#X text 47 1557 PRESETS20;
#X text 148 1532 [Demo/presets];
#X obj 67 1504 Demo/presets;
#X obj 67 1584 Demo/presets20;
#X text 148 1611 [Demo/presets20];
#X text 65 1172 use objects in Presets directory.;
#X text 65 1185 Demo directory is to show functionality.;
#X text 66 1307 to save and recal values give [p] or [param] a unique
id.;
#X text 66 1321 do not use pd's \$0 argument as it is randomized.;
#X text 66 1336 use [saver] \, [presets] \, or [presets20] to save
and recall;
#X text 66 1350 all [p] and [param] values in your patch.;
#X msg 67 1398 save_name;
#X obj 149 1397 bng 15 250 50 0 empty empty empty 17 7 0 10 -262144
-1 -1;
#X msg 100 1421 load_name;
#X text 440 22 Brian Taylor Vann;
#X text 503 40 2017 JAN;
#X floatatom 86 3610 5 0 0 0 - - -, f 5;
#X obj 86 3633 Pan/panner~;
#X text 47 3588 PANNER;
#X obj 67 3663 *~;
#X obj 142 3663 *~;
#X obj 67 3873 Pan/ptwospeakers~;
#X text 47 3828 POLAR TWO SPEAKERS;
#X text 47 3919 POLAR FOUR SPEAKERS;
#X obj 67 3963 Pan/pfourspeakers~;
#X text 70 3777 for polar panning \, the last outlet is only attenuated
;
#X text 71 3790 by distance. suitable for subwoofers or filters.;
#X obj 67 4053 Pan/pfivespeakers~;
#X floatatom 125 3848 5 0 0 0 - - -, f 5;
#X floatatom 183 3848 5 0 0 0 - - -, f 5;
#X floatatom 128 3940 5 0 0 0 - - -, f 5;
#X floatatom 190 3940 5 0 0 0 - - -, f 5;
#X floatatom 128 4030 5 0 0 0 - - -, f 5;
#X floatatom 190 4030 5 0 0 0 - - -, f 5;
#X floatatom 132 4120 5 0 0 0 - - -, f 5;
#X floatatom 197 4120 5 0 0 0 - - -, f 5;
#X text 47 4100 POLAR SEVEN SPEAKERS;
#X text 47 4009 POLAR FIVE SPEAKERS;
#X obj 67 4143 Pan/psevenspeakers~;
#X text 47 3566 ++++PANNING++++;
#X text 70 3725 left inlet is for audio signal.;
#X text 71 3739 middle inlet is for theta \, can be signal driven.
;
#X text 70 3753 right inlet is distance \, can be signal driven.;
#X text 47 3704 POLAR BASED SURROUND SOUND OBJECTS;
#X connect 4 0 21 0;
#X connect 7 0 5 0;
#X connect 7 1 6 0;
#X connect 9 0 10 0;
#X connect 9 1 11 0;
#X connect 12 0 13 0;
#X connect 12 1 14 0;
#X connect 18 0 9 0;
#X connect 19 0 12 0;
#X connect 20 0 8 0;
#X connect 21 0 7 0;
#X connect 24 0 34 0;
#X connect 26 0 35 0;
#X connect 29 0 32 0;
#X connect 31 0 29 0;
#X connect 33 0 24 0;
#X connect 34 0 26 0;
#X connect 36 0 40 0;
#X connect 37 0 41 0;
#X connect 40 0 37 0;
#X connect 41 0 38 0;
#X connect 44 0 48 0;
#X connect 45 0 50 0;
#X connect 48 0 45 0;
#X connect 50 0 46 0;
#X connect 54 0 58 0;
#X connect 55 0 59 0;
#X connect 58 0 55 0;
#X connect 59 0 56 0;
#X connect 62 0 66 0;
#X connect 63 0 67 0;
#X connect 66 0 63 0;
#X connect 67 0 64 0;
#X connect 70 0 73 0;
#X connect 71 0 74 0;
#X connect 73 0 71 0;
#X connect 74 0 72 0;
#X connect 78 0 81 0;
#X connect 79 0 82 0;
#X connect 81 0 79 0;
#X connect 82 0 80 0;
#X connect 89 0 86 0;
#X connect 90 0 95 0;
#X connect 91 0 92 0;
#X connect 92 0 95 0;
#X connect 92 1 95 1;
#X connect 93 0 94 0;
#X connect 94 0 95 0;
#X connect 94 1 95 2;
#X connect 95 0 89 0;
#X connect 97 0 96 0;
#X connect 98 0 101 0;
#X connect 99 0 100 0;
#X connect 100 0 101 0;
#X connect 100 1 101 1;
#X connect 101 0 97 0;
#X connect 104 0 112 0;
#X connect 105 0 106 0;
#X connect 106 0 112 0;
#X connect 106 1 112 1;
#X connect 108 0 110 0;
#X connect 110 0 107 0;
#X connect 110 1 115 0;
#X connect 112 0 113 0;
#X connect 113 0 103 0;
#X connect 113 1 116 0;
#X connect 113 2 117 0;
#X connect 122 0 130 0;
#X connect 127 0 137 0;
#X connect 130 0 123 0;
#X connect 130 1 131 0;
#X connect 133 0 125 0;
#X connect 135 0 126 0;
#X connect 137 0 128 0;
#X connect 137 1 139 0;
#X connect 138 0 137 1;
#X connect 140 0 133 0;
#X connect 141 0 133 1;
#X connect 142 0 135 0;
#X connect 143 0 135 1;
#X connect 144 0 153 0;
#X connect 147 0 154 0;
#X connect 153 0 145 0;
#X connect 154 0 148 0;
#X connect 168 0 155 0;
#X connect 169 0 155 2;
#X connect 170 0 155 1;
#X connect 173 0 174 0;
#X connect 174 0 176 1;
#X connect 174 1 177 1;
#X connect 185 0 178 1;
#X connect 186 0 178 2;
#X connect 187 0 181 1;
#X connect 188 0 181 2;
#X connect 189 0 184 1;
#X connect 190 0 184 2;
#X connect 191 0 195 1;
#X connect 192 0 195 2;
