#N canvas 751 96 404 672 10;
#X text 44 408 ++++LINEAR AND SINUSOIDAL WAVEFORMS++++;
#X text 45 477 ++++WINDOWS FOR GRAINS AND FFT++++;
#X text 45 101 ++++MIDI++++;
#X text 47 338 ++++CONVERSIONS++++;
#X text 46 178 ++++LOGIC++++;
#X text 47 258 ++++PRESETS++++;
#X text 50 41 Brian Taylor Vann;
#X text 50 56 2017 JAN;
#X text 47 939 ++++PANNING++++;
#X text 47 778 ++++ENVELOPES++++;
#X text 47 700 ++++SAMPLES++++;
#X text 45 859 ++++EFFECTS++++;
#X obj 69 133 Demo/demo_midi;
#X obj 67 364 Demo/demo_conversions;
#X obj 67 892 Demo/demo_effects;
#X obj 67 810 Demo/demo-envelopes;
#X obj 67 731 Demo/demo-samples;
#X obj 67 647 Demo/demo_generators;
#X obj 67 966 Demo/demo_panning;
#X obj 68 286 Demo/demo_presets;
#X obj 68 209 Demo/demo_logic;
#X obj 67 432 Demo/demo_waveforms;
#X obj 67 501 Demo/demo_windows;
#X obj 67 1025 Demo/demo_tools;
#X text 45 1001 ++++TOOLS++++;
#X text 47 620 ++++GENERATORS++++;
