#N canvas 781 96 585 672 10;
#X text 44 35 ++++LINEAR AND SINUSOIDAL WAVEFORMS++++;
#X text 45 94 ++++WINDOWS FOR GRAINS AND FFT++++;
#X obj 67 57 Waveforms/wavebank 256;
#X obj 67 118 Windows/windows 128 4;
#X obj 69 521 tgl 15 0 empty empty empty 17 7 0 10 -262144 -1 -1 0
1;
#X floatatom 69 600 5 0 0 0 - - -, f 5;
#X floatatom 136 600 5 0 0 0 - - -, f 5;
#X obj 69 573 unpack f f;
#X floatatom 68 909 5 0 0 0 - - -, f 5;
#X obj 68 777 unpack f f;
#X floatatom 68 799 5 0 0 0 - - -, f 5;
#X floatatom 135 799 5 0 0 0 - - -, f 5;
#X obj 68 842 unpack f f;
#X floatatom 68 864 5 0 0 0 - - -, f 5;
#X floatatom 135 864 5 0 0 0 - - -, f 5;
#X text 45 468 ++++MIDI++++;
#X obj 68 659 Midi/midi_debug;
#X obj 68 688 Midi/midi;
#X obj 68 752 Midi/getnotes;
#X obj 68 820 Midi/getcontrols;
#X obj 68 885 Midi/getbend;
#X obj 69 546 Midi/qwerty;
#X text 47 2655 ++++CONVERSIONS++++;
#X obj 67 2833 Conversions/bpm2time;
#X obj 244 2833 Conversions/bpm2time~;
#X obj 67 2878 Conversions/time2bpm;
#X obj 244 2878 Conversions/time2bpm~;
#X obj 244 2722 Conversions/absolute~;
#X obj 67 2722 Conversions/absolute;
#X floatatom 67 2699 5 0 0 0 - - -, f 5;
#X floatatom 67 2747 5 0 0 0 - - -, f 5;
#X floatatom 67 2810 5 0 0 0 - - -, f 5;
#X floatatom 67 2858 5 0 0 0 - - -, f 5;
#X floatatom 67 2905 5 0 0 0 - - -, f 5;
#X floatatom 67 2970 5 0 0 0 - - -, f 5;
#X floatatom 67 3018 5 0 0 0 - - -, f 5;
#X floatatom 67 3065 5 0 0 0 - - -, f 5;
#X obj 67 2993 Conversions/freq2samp;
#X obj 67 3038 Conversions/samp2freq;
#X obj 244 2993 Conversions/freq2samp~;
#X obj 244 3038 Conversions/samp2freq~;
#X floatatom 67 3131 5 0 0 0 - - -, f 5;
#X floatatom 67 3179 5 0 0 0 - - -, f 5;
#X floatatom 67 3226 5 0 0 0 - - -, f 5;
#X obj 67 3154 Conversions/freq2time;
#X obj 244 3154 Conversions/freq2time~;
#X obj 67 3199 Conversions/time2freq;
#X obj 244 3199 Conversions/time2freq~;
#X text 67 726 make sure there is an instance of [midi];
#X floatatom 67 3291 5 0 0 0 - - -, f 5;
#X floatatom 67 3339 5 0 0 0 - - -, f 5;
#X floatatom 67 3386 5 0 0 0 - - -, f 5;
#X obj 67 3314 Conversions/freq2midi;
#X obj 67 3359 Conversions/midi2freq;
#X obj 244 3314 Conversions/freq2midi~;
#X obj 244 3359 Conversions/midi2freq~;
#X floatatom 67 3455 5 0 0 0 - - -, f 5;
#X floatatom 67 3503 5 0 0 0 - - -, f 5;
#X floatatom 67 3550 5 0 0 0 - - -, f 5;
#X obj 67 3478 Conversions/samp2time;
#X obj 67 3523 Conversions/time2samp;
#X obj 244 3478 Conversions/samp2time~;
#X obj 244 3523 Conversions/time2samp~;
#X floatatom 67 3615 5 0 0 0 - - -, f 5;
#X floatatom 67 3663 5 0 0 0 - - -, f 5;
#X floatatom 67 3710 5 0 0 0 - - -, f 5;
#X obj 67 3638 Conversions/time2dist;
#X obj 67 3683 Conversions/dist2time;
#X obj 244 3638 Conversions/time2dist~;
#X obj 244 3683 Conversions/dist2time~;
#X floatatom 67 3775 5 0 0 0 - - -, f 5;
#X floatatom 67 3823 5 0 0 0 - - -, f 5;
#X floatatom 67 3870 5 0 0 0 - - -, f 5;
#X obj 67 3798 Conversions/time2dist;
#X obj 67 3843 Conversions/dist2time;
#X obj 244 3798 Conversions/time2dist~;
#X obj 244 3843 Conversions/dist2time~;
#X floatatom 66 4195 5 0 0 0 - - -, f 5;
#X obj 263 4168 Conversions/hypotenuse3d~;
#X obj 66 4168 Conversions/hypotenuse3d;
#X floatatom 66 4079 5 0 0 0 - - -, f 5;
#X floatatom 118 4080 5 0 0 0 - - -, f 5;
#X obj 118 4102 t b f;
#X floatatom 168 4080 5 0 0 0 - - -, f 5;
#X obj 168 4102 t b f;
#X obj 66 4138 pack f f f;
#X floatatom 66 4045 5 0 0 0 - - -, f 5;
#X obj 66 4018 Conversions/hypotenuse3d;
#X floatatom 66 3929 5 0 0 0 - - -, f 5;
#X floatatom 118 3930 5 0 0 0 - - -, f 5;
#X obj 118 3952 t b f;
#X obj 66 3988 pack f f;
#X obj 263 4018 Conversions/hypotenuse2d~;
#X floatatom 67 4474 5 0 0 0 - - -, f 5;
#X floatatom 67 4348 5 0 0 0 - - -, f 5;
#X floatatom 119 4349 5 0 0 0 - - -, f 5;
#X obj 119 4371 t b f;
#X floatatom 67 4310 5 0 0 0 - - -, f 5;
#X floatatom 67 4258 5 0 0 0 - - -, f 5;
#X obj 67 4283 Conversions/unitcircle;
#X obj 264 4283 Conversions/unitcircle~;
#X obj 67 4401 pack f f;
#X obj 67 4447 Conversions/unitsphere;
#X obj 264 4447 Conversions/unitsphere~;
#X floatatom 218 4310 5 0 0 0 - - -, f 5;
#X floatatom 142 4474 5 0 0 0 - - -, f 5;
#X floatatom 218 4474 5 0 0 0 - - -, f 5;
#X text 333 4260 theta = 0 - 1;
#X text 115 4261 theta = 0 - 2pi;
#X text 333 4424 theta = 0 - 1;
#X text 115 4425 theta = 0 - 2pi;
#X floatatom 68 1739 5 0 0 0 - - -, f 5;
#X text 46 1645 ++++LOGIC++++;
#X floatatom 68 1844 5 0 0 0 - - -, f 5;
#X floatatom 68 1950 5 0 0 0 - - -, f 5;
#X floatatom 68 2012 5 0 0 0 - - -, f 5;
#X floatatom 68 2060 5 0 0 0 - - -, f 5;
#X floatatom 142 1739 5 0 0 0 - - -, f 5;
#X obj 68 1819 Logic/switch 7 3;
#X obj 68 2035 Logic/channel;
#X obj 156 2011 tgl 15 0 empty empty empty 17 7 0 10 -262144 -1 -1
1 1;
#X floatatom 156 2059 5 0 0 0 - - -, f 5;
#X obj 68 1796 bng 15 250 50 0 empty empty empty 17 7 0 10 -262144
-1 -1;
#X obj 177 1796 bng 15 250 50 0 empty empty empty 17 7 0 10 -262144
-1 -1;
#X obj 68 1902 bng 15 250 50 0 empty empty empty 17 7 0 10 -262144
-1 -1;
#X obj 177 1902 bng 15 250 50 0 empty empty empty 17 7 0 10 -262144
-1 -1;
#X floatatom 67 2206 5 0 0 0 - - -, f 5;
#X floatatom 67 2254 5 0 0 0 - - -, f 5;
#X text 47 2125 ++++PRESETS++++;
#X floatatom 217 2206 5 0 0 0 - - -, f 5;
#X floatatom 217 2254 5 0 0 0 - - -, f 5;
#X text 43 636 Midi Input;
#X text 44 496 Qwerty Midi;
#X obj 67 2230 Demo/param var1;
#X obj 217 2230 Demo/p var1;
#X obj 67 2415 Demo/saver;
#X text 63 2497 [Demo/presets];
#X obj 67 2474 Demo/presets;
#X obj 67 2554 Demo/presets20;
#X text 64 2577 [Demo/presets20];
#X text 65 2155 Demo directory is to show functionality.;
#X msg 67 2368 save_name;
#X obj 149 2367 bng 15 250 50 0 empty empty empty 17 7 0 10 -262144
-1 -1;
#X msg 100 2391 load_name;
#X text 440 22 Brian Taylor Vann;
#X text 503 37 2017 JAN;
#X floatatom 86 4580 5 0 0 0 - - -, f 5;
#X obj 86 4603 Pan/panner~;
#X obj 67 4633 *~;
#X obj 142 4633 *~;
#X obj 67 4843 Pan/ptwospeakers~;
#X obj 67 4933 Pan/pfourspeakers~;
#X obj 67 5023 Pan/pfivespeakers~;
#X floatatom 125 4818 5 0 0 0 - - -, f 5;
#X floatatom 183 4818 5 0 0 0 - - -, f 5;
#X floatatom 128 4910 5 0 0 0 - - -, f 5;
#X floatatom 190 4910 5 0 0 0 - - -, f 5;
#X floatatom 128 5000 5 0 0 0 - - -, f 5;
#X floatatom 190 5000 5 0 0 0 - - -, f 5;
#X floatatom 132 5090 5 0 0 0 - - -, f 5;
#X floatatom 197 5090 5 0 0 0 - - -, f 5;
#X obj 67 5113 Pan/psevenspeakers~;
#X text 47 4536 ++++PANNING++++;
#X text 47 5176 ++++OSCILLATORS++++;
#X obj 67 5354 Oscillators/wbosc~;
#X obj 67 5305 sig~;
#X floatatom 67 5283 5 0 0 0 - - -, f 5;
#X obj 67 5330 phasor~;
#X obj 128 5306 hradio 15 1 0 10 empty empty empty 0 -8 0 10 -262144
-1 -1 0;
#X msg 190 5329 256;
#X text 127 5288 select table;
#X text 220 5330 specify table length;
#X obj 67 5438 sig~;
#X floatatom 67 5416 5 0 0 0 - - -, f 5;
#X obj 67 5463 phasor~;
#X msg 190 5484 256;
#X text 220 5485 specify table length;
#X floatatom 128 5414 5 0 0 0 - - -, f 5;
#X obj 128 5433 / 100;
#X obj 128 5455 pack f 30;
#X obj 128 5477 vline~;
#X obj 67 5509 Oscillators/wbpwm~;
#X text 176 5433 pulse width between (0-1);
#X obj 67 5653 sig~;
#X floatatom 67 5631 5 0 0 0 - - -, f 5;
#X obj 67 5678 phasor~;
#X obj 67 5714 Oscillators/aaramp~;
#X obj 67 5801 sig~;
#X floatatom 67 5779 5 0 0 0 - - -, f 5;
#X obj 67 5826 phasor~;
#X obj 67 5862 Oscillators/aatri~;
#X obj 67 5941 sig~;
#X floatatom 67 5919 5 0 0 0 - - -, f 5;
#X obj 67 5966 phasor~;
#X obj 67 6085 sig~;
#X floatatom 67 6063 5 0 0 0 - - -, f 5;
#X obj 67 6110 phasor~;
#X obj 67 6152 Oscillators/aapwm~;
#X obj 67 6002 Oscillators/aasquare~;
#X floatatom 190 6063 5 0 0 0 - - -, f 5;
#X obj 190 6082 / 100;
#X obj 190 6104 pack f 30;
#X obj 190 6126 vline~;
#X text 238 6082 pulse width between (0-1);
#X obj 67 6235 sig~;
#X floatatom 67 6213 5 0 0 0 - - -, f 5;
#X obj 67 6260 phasor~;
#X obj 67 6292 Oscillators/aaosc~;
#X msg 190 6257 1 0.2 0.5 0.3 0.11 0.023;
#X text 188 6236 keep harmonics between (0-1);
#X obj 66 6405 sig~;
#X floatatom 66 6383 5 0 0 0 - - -, f 5;
#X obj 66 6430 phasor~;
#X text 47 6338 VARIABLE OSCILLATORS;
#X obj 67 6472 Oscillators/voscillator~;
#X floatatom 232 6383 5 0 0 0 - - -, f 5;
#X obj 232 6402 / 100;
#X obj 232 6424 pack f 30;
#X obj 232 6446 vline~;
#X text 280 6402 waveshape between (0-1);
#X text 47 6529 ++++LOOPER++++;
#X text 66 6587 second argument is the length of crossfade in mS.;
#X text 66 6574 first argument is max length of loop in seconds.;
#X text 66 6601 default is a 60 second loop with a 30 mS crossfade.
;
#X obj 67 6685 Looper/looper~ 90 40;
#X text 82 6633 start/stop;
#X text 175 6632 play/pause;
#X text 261 6632 clear;
#X obj 276 6652 bng 15 250 50 0 empty empty empty 17 7 0 10 -262144
-1 -1;
#X obj 198 6652 tgl 15 0 empty empty empty 17 7 0 10 -262144 -1 -1
0 1;
#X obj 112 6652 tgl 15 0 empty empty empty 17 7 0 10 -262144 -1 -1
0 1;
#X text 47 6746 ++++ENVELOPES++++;
#X text 47 6768 TAPE STYLE;
#X floatatom 130 6937 5 0 0 0 - - -, f 5;
#X floatatom 171 6971 5 0 0 0 - - -, f 5;
#X obj 89 7026 Envelopes/tapeenv~;
#X obj 88 6885 phasor~;
#X obj 88 6911 *~;
#X floatatom 88 6858 5 0 0 0 - - -, f 5;
#X obj 150 6886 Conversions/freq2samp~;
#X text 168 6954 open time;
#X floatatom 212 7002 5 0 0 0 - - -, f 5;
#X text 209 6986 close time;
#X floatatom 114 7209 5 0 0 0 - - -, f 5;
#X floatatom 140 7239 5 0 0 0 - - -, f 5;
#X obj 87 7145 phasor~;
#X obj 87 7171 *~;
#X floatatom 87 7118 5 0 0 0 - - -, f 5;
#X obj 149 7146 Conversions/freq2samp~;
#X floatatom 166 7272 5 0 0 0 - - -, f 5;
#X obj 70 7055 *~;
#X obj 88 7369 Envelopes/tapeadsr~;
#X text 113 7193 attack time;
#X text 138 7223 decay level;
#X text 164 7255 decay time;
#X floatatom 192 7312 5 0 0 0 - - -, f 5;
#X floatatom 218 7345 5 0 0 0 - - -, f 5;
#X text 189 7295 sustain time;
#X text 216 7328 release time;
#X obj 70 7399 *~;
#X text 127 6921 env time;
#X text 66 7466 function off events and function at the control level.
;
#X text 66 6786 driven by samples and functin at the signal level.
;
#X text 66 6799 similar to analog drum machines and samplers.;
#X floatatom 168 7596 5 0 0 0 - - -, f 5;
#X floatatom 202 7630 5 0 0 0 - - -, f 5;
#X floatatom 135 7563 5 0 0 0 - - -, f 5;
#X obj 185 7679 tgl 15 0 empty empty empty 17 7 0 10 -262144 -1 -1
0 1;
#X obj 236 7699 tgl 15 0 empty empty empty 17 7 0 10 -262144 -1 -1
0 1;
#X obj 85 7685 tgl 15 0 empty empty empty 17 7 0 10 -262144 -1 -1 0
1;
#X text 204 7678 key release off/on;
#X text 255 7698 amp reset off/on;
#X obj 67 7750 *~;
#X text 47 7448 TRIGGER STYLE;
#X text 67 7480 give [trigadsr~] and [envadsr~] a zero or non-zero
value;
#X text 66 7494 representing amplitude (like a keypress).;
#X floatatom 160 7865 5 0 0 0 - - -, f 5;
#X floatatom 184 7899 5 0 0 0 - - -, f 5;
#X floatatom 137 7833 5 0 0 0 - - -, f 5;
#X floatatom 208 7931 5 0 0 0 - - -, f 5;
#X floatatom 232 7963 5 0 0 0 - - -, f 5;
#X obj 137 7985 pack f f f f f;
#X obj 190 8014 tgl 15 0 empty empty empty 17 7 0 10 -262144 -1 -1
0 1;
#X obj 243 8029 tgl 15 0 empty empty empty 17 7 0 10 -262144 -1 -1
0 1;
#X obj 85 8015 tgl 15 0 empty empty empty 17 7 0 10 -262144 -1 -1 0
1;
#X obj 85 8052 Envelopes/trigadsr~ 0 0;
#X text 209 8013 key release off/on;
#X text 262 8028 amp reset off/on;
#X text 136 7815 attack time;
#X text 158 7847 decay level (0-1);
#X text 183 7882 decay time;
#X text 207 7914 sustain time;
#X text 231 7947 release time;
#X obj 67 8080 *~;
#X text 134 7545 envelope time;
#X text 166 7578 open time;
#X text 201 7613 close time;
#X obj 135 7655 pack f f f;
#X obj 85 7722 Envelopes/trigenv~ 0 0;
#X obj 69 227 Tuner/tuner~;
#X obj 150 204 tgl 15 0 empty empty empty 17 7 0 10 -262144 -1 -1 0
1;
#X obj 72 273 hsl 128 15 -1 1 0 0 empty empty empty -2 -8 0 10 -262144
-1 -1 0 1;
#X symbolatom 150 252 10 0 0 0 - - -, f 10;
#X text 48 273 -1;
#X text 204 273 1;
#X text 46 1669 OnOff;
#X text 46 1774 Switch;
#X text 46 1883 Round;
#X text 46 1990 Channel;
#X text 47 2184 Param or P;
#X text 47 2347 Saver;
#X text 47 2447 Presets;
#X text 47 2527 Presets20;
#X text 47 2677 [+/-]<-->Absolute Value;
#X text 47 2947 Frequency<-->Samples;
#X text 47 3108 Frequency<-->Milliseconds;
#X text 47 2787 BPM<-->Milliseconds;
#X text 47 3268 Frequency<-->MIDI;
#X text 47 3432 Samples<-->Milliseconds;
#X text 47 3592 Milliseconds<-->Meters;
#X text 47 3752 Milliseconds<-->Meters;
#X text 45 3907 2D & 3D Hypotenuse;
#X text 46 4236 Unit Circle & Unit Sphere;
#X text 47 4558 Panner;
#X text 47 4674 Polar Based Surround Sound Objects;
#X text 47 4798 Polar Two Speakers;
#X text 47 4889 Polar Four Speakers;
#X text 47 4979 Polar Five Speakers;
#X text 47 5070 Polar Seven Speakers;
#X text 47 5198 Wavebank Oscillators;
#X text 47 5260 Wavebank Standard Oscillators;
#X text 47 5387 Wavebank PWM;
#X text 47 5553 Anti-Aliasing Oscillators;
#X text 47 5610 Anti-Aliasing Ramp Wave;
#X text 46 5758 Anti-Aliasing Triangle Wave;
#X text 47 5898 Anti-Aliasing Square Wave;
#X text 47 6038 Anti-Aliasing PWM;
#X text 47 6188 Anti-Aliasing Custom Harmonics;
#X text 47 6358 Voscillator;
#X text 47 6551 Looper;
#X text 47 6830 Tape Envelope;
#X text 47 7090 Tape ADSR;
#X text 47 7528 Trigger Envelope;
#X text 47 7798 Trigger ADSR;
#X text 44 196 Tuner;
#X text 44 309 Tuner with GUI;
#X text 45 168 ++++TUNER++++;
#X obj 69 342 Tuner/gtuner~;
#X text 47 8139 ++++EFFECTS++++;
#X text 47 8161 Pd-Sandbox Effects;
#X text 64 8178 effects come in three forms:;
#X text 84 8195 1) effect_init~;
#X text 84 8227 2) effect~;
#X text 114 8241 -effect with init and params to save with preset.
;
#X text 114 8274 -effect with init \, params \, and a a gui.;
#X text 84 8258 3) geffect~;
#X text 65 395 [Tuner/gtuner~];
#X obj 67 8415 Effects/SampleRate/changerate_init~;
#X obj 67 8471 Effects/SampleRate/changerate~ cr1;
#X obj 68 8498 Effects/SampleRate/gchangerate~ cr2;
#X text 65 8543 [Effects/SampleRate/gchangerate~ cr2];
#X obj 68 8672 Effects/BitDepth/changebit_init~;
#X obj 68 8739 Effects/BitDepth/changebit~ cb1;
#X obj 68 8764 Effects/BitDepth/gchangebit~ cb2;
#X text 64 8810 [Effects/BitDepth/gchangebit~ cb2];
#X text 64 8293 Be sure to give effects with params a unique identifier!
;
#X text 66 710 To use [getnotes] \, [getcontrols] \, or [getbend];
#X text 65 2142 Use objects in Presets directory.;
#X text 66 2277 To save and recal values give [p] or [param] a unique
id.;
#X text 66 2291 Do not use pd's \$0 argument as it is randomized.;
#X text 66 2306 Use [saver] \, [presets] \, or [presets20] to save
and recall;
#X text 66 2320 all [p] and [param] values in your patch.;
#X text 70 4695 Left inlet is for audio signal.;
#X text 70 4723 Right inlet is distance \, can be signal driven.;
#X text 70 4747 For polar panning \, the last outlet is only attenuated
;
#X text 71 4760 by distance. Suitable for subwoofers or filters.;
#X text 66 5221 Wavebank oscillators must be used in tandem;
#X text 66 5234 with the [wavebank] object. Specify table length.;
#X text 66 5575 These oscillators will never cause nyquist frequencies.
;
#X floatatom 309 8345 5 0 0 0 - - -, f 5;
#X obj 309 8364 pack f 30;
#X obj 309 8386 vline~;
#X floatatom 302 8446 5 0 0 0 - - -, f 5;
#X floatatom 289 8605 5 0 0 0 - - -, f 5;
#X obj 289 8624 pack f 30;
#X obj 289 8646 vline~;
#X floatatom 282 8718 5 0 0 0 - - -, f 5;
#X text 217 8445 SampleRate;
#X text 47 8341 Change Rate;
#X text 47 8605 Change Bit;
#X text 207 8718 Bit Depth;
#X text 217 8386 SampleRate;
#X text 207 8647 Bit Depth;
#X obj 68 1139 Midi/guidenote_init;
#X text 43 954 Midi Guides;
#X msg 133 1113 0 2 4 7 9;
#X obj 219 1110 tgl 15 0 empty empty empty 17 7 0 10 -262144 -1 -1
0 1;
#X floatatom 68 1114 5 0 0 0 - - -, f 5;
#X floatatom 68 1167 5 0 0 0 - - -, f 5;
#X floatatom 68 1202 5 0 0 0 - - -, f 5;
#X floatatom 68 1255 5 0 0 0 - - -, f 5;
#X obj 198 1202 tgl 15 0 empty empty empty 17 7 0 10 -262144 -1 -1
0 1;
#X msg 119 1192 0 2 4 7 9;
#X floatatom 68 1284 5 0 0 0 - - -, f 5;
#X floatatom 68 1355 5 0 0 0 - - -, f 5;
#X text 114 8211 -the no frills base effect.;
#X obj 68 1306 Midi/gguidenote gn2;
#X obj 68 1228 Midi/guidenote gn1;
#X obj 68 1452 Midi/guidenote_init~;
#X obj 68 1515 Midi/guidenote~ sgn1;
#X obj 67 1559 Midi/gguidenote~ sgn2;
#X text 65 993 1) [guidenote_init] is the baseline object.;
#X text 65 1009 2) [guidenote] has [param] object.;
#X text 65 1024 3) [gguidenote] has [param] object with a GUI.;
#X text 65 1041 be sure to give type 2 & 3 a unique identifier to save!
;
#X text 65 977 GuideNote objects guide midi at the signal and control
level;
#X text 113 1354 [Midi/gguidenotes gn2];
#X text 83 1603 [Midi/gguidenotes~ sgn2];
#X text 64 1073 Control level guidenotes;
#X text 66 1405 Signal level guidenotes;
#X text 84 1087 right inlet is off/on for block/correct.;
#X msg 205 1429 0 2 4 7 9;
#X msg 205 1491 0 2 4 7 9;
#X floatatom 169 8875 5 0 0 0 - - -, f 5;
#X obj 169 8894 pack f 30;
#X obj 169 8916 vline~;
#X text 47 8875 Delay;
#X obj 68 8942 Effects/Delay/delay_init~ 500;
#X text 209 8874 Length;
#X floatatom 269 8875 5 0 0 0 - - -, f 5;
#X obj 269 8894 pack f 30;
#X obj 269 8916 vline~;
#X text 309 8874 Amp;
#X floatatom 164 8988 5 0 0 0 - - -, f 5;
#X text 204 8987 Length;
#X floatatom 261 8988 5 0 0 0 - - -, f 5;
#X text 301 8987 Amp;
#X obj 68 9015 Effects/Delay/delay~ 500 dl1;
#X obj 68 9065 Effects/Delay/gdelay~ 500 dl2;
#X floatatom 165 9195 5 0 0 0 - - -, f 5;
#X obj 165 9214 pack f 30;
#X obj 165 9236 vline~;
#X text 205 9194 Length;
#X floatatom 265 9195 5 0 0 0 - - -, f 5;
#X obj 265 9214 pack f 30;
#X obj 265 9236 vline~;
#X text 305 9194 Amp;
#X floatatom 161 9308 5 0 0 0 - - -, f 5;
#X text 201 9307 Length;
#X floatatom 258 9308 5 0 0 0 - - -, f 5;
#X text 302 9307 Amp;
#X text 47 9185 Echo;
#X obj 68 9262 Effects/Delay/echo_init~ 500;
#X obj 68 9335 Effects/Delay/echo~ 500 ec1;
#X text 64 9110 [Effects/Delay/gdelay~ 500 dl2];
#X obj 68 9385 Effects/Delay/gecho~ 500 ec2;
#X text 64 9430 [Effects/Delay/gecho~ 500 ec2];
#X floatatom 158 9515 5 0 0 0 - - -, f 5;
#X obj 158 9534 pack f 30;
#X obj 158 9556 vline~;
#X floatatom 248 9515 5 0 0 0 - - -, f 5;
#X obj 248 9534 pack f 30;
#X obj 248 9556 vline~;
#X text 288 9514 Amp;
#X floatatom 154 9628 5 0 0 0 - - -, f 5;
#X text 194 9627 Length;
#X floatatom 254 9628 5 0 0 0 - - -, f 5;
#X text 298 9627 Amp;
#X text 47 9505 Reverb;
#X text 198 9514 Pre;
#X obj 68 9582 Effects/Delay/reverb_init~;
#X obj 68 9655 Effects/Delay/reverb~ rv1;
#X obj 68 9705 Effects/Delay/greverb~ rv2;
#X text 64 9770 [Effects/Delay/greverb~ rv2];
#X obj 68 1925 Logic/rotund 5 2;
#X text 133 4580 0-1;
#X text 71 4709 Middle inlet is for theta (0-1) \, can be signal driven.
;
#X text 188 6223 up to 10 harmonics;
#X obj 68 1714 Logic/onoff;
#X obj 68 1692 tgl 15 0 empty empty empty 17 7 0 10 -262144 -1 -1 0
1;
#X connect 4 0 21 0;
#X connect 7 0 5 0;
#X connect 7 1 6 0;
#X connect 9 0 10 0;
#X connect 9 1 11 0;
#X connect 12 0 13 0;
#X connect 12 1 14 0;
#X connect 18 0 9 0;
#X connect 19 0 12 0;
#X connect 20 0 8 0;
#X connect 21 0 7 0;
#X connect 23 0 32 0;
#X connect 25 0 33 0;
#X connect 28 0 30 0;
#X connect 29 0 28 0;
#X connect 31 0 23 0;
#X connect 32 0 25 0;
#X connect 34 0 37 0;
#X connect 35 0 38 0;
#X connect 37 0 35 0;
#X connect 38 0 36 0;
#X connect 41 0 44 0;
#X connect 42 0 46 0;
#X connect 44 0 42 0;
#X connect 46 0 43 0;
#X connect 49 0 52 0;
#X connect 50 0 53 0;
#X connect 52 0 50 0;
#X connect 53 0 51 0;
#X connect 56 0 59 0;
#X connect 57 0 60 0;
#X connect 59 0 57 0;
#X connect 60 0 58 0;
#X connect 63 0 66 0;
#X connect 64 0 67 0;
#X connect 66 0 64 0;
#X connect 67 0 65 0;
#X connect 70 0 73 0;
#X connect 71 0 74 0;
#X connect 73 0 71 0;
#X connect 74 0 72 0;
#X connect 79 0 77 0;
#X connect 80 0 85 0;
#X connect 81 0 82 0;
#X connect 82 0 85 0;
#X connect 82 1 85 1;
#X connect 83 0 84 0;
#X connect 84 0 85 0;
#X connect 84 1 85 2;
#X connect 85 0 79 0;
#X connect 87 0 86 0;
#X connect 88 0 91 0;
#X connect 89 0 90 0;
#X connect 90 0 91 0;
#X connect 90 1 91 1;
#X connect 91 0 87 0;
#X connect 94 0 101 0;
#X connect 95 0 96 0;
#X connect 96 0 101 0;
#X connect 96 1 101 1;
#X connect 98 0 99 0;
#X connect 99 0 97 0;
#X connect 99 1 104 0;
#X connect 101 0 102 0;
#X connect 102 0 93 0;
#X connect 102 1 105 0;
#X connect 102 2 106 0;
#X connect 115 0 119 0;
#X connect 118 0 113 0;
#X connect 119 0 116 0;
#X connect 119 1 121 0;
#X connect 120 0 119 1;
#X connect 122 0 118 0;
#X connect 123 0 118 1;
#X connect 124 0 474 0;
#X connect 125 0 474 1;
#X connect 126 0 133 0;
#X connect 129 0 134 0;
#X connect 133 0 127 0;
#X connect 134 0 130 0;
#X connect 141 0 135 0;
#X connect 142 0 135 2;
#X connect 143 0 135 1;
#X connect 146 0 147 0;
#X connect 147 0 148 1;
#X connect 147 1 149 1;
#X connect 153 0 150 1;
#X connect 154 0 150 2;
#X connect 155 0 151 1;
#X connect 156 0 151 2;
#X connect 157 0 152 1;
#X connect 158 0 152 2;
#X connect 159 0 161 1;
#X connect 160 0 161 2;
#X connect 165 0 167 0;
#X connect 166 0 165 0;
#X connect 167 0 164 0;
#X connect 168 0 164 1;
#X connect 169 0 164 2;
#X connect 172 0 174 0;
#X connect 173 0 172 0;
#X connect 174 0 181 0;
#X connect 175 0 181 2;
#X connect 177 0 178 0;
#X connect 178 0 179 0;
#X connect 179 0 180 0;
#X connect 180 0 181 1;
#X connect 183 0 185 0;
#X connect 183 0 186 1;
#X connect 184 0 183 0;
#X connect 185 0 186 0;
#X connect 187 0 189 0;
#X connect 187 0 190 1;
#X connect 188 0 187 0;
#X connect 189 0 190 0;
#X connect 191 0 193 0;
#X connect 191 0 198 1;
#X connect 192 0 191 0;
#X connect 193 0 198 0;
#X connect 194 0 196 0;
#X connect 194 0 197 1;
#X connect 195 0 194 0;
#X connect 196 0 197 0;
#X connect 199 0 200 0;
#X connect 200 0 201 0;
#X connect 201 0 202 0;
#X connect 202 0 197 2;
#X connect 204 0 206 0;
#X connect 204 0 207 1;
#X connect 205 0 204 0;
#X connect 206 0 207 0;
#X connect 208 0 207 2;
#X connect 210 0 212 0;
#X connect 211 0 210 0;
#X connect 212 0 214 0;
#X connect 215 0 216 0;
#X connect 216 0 217 0;
#X connect 217 0 218 0;
#X connect 218 0 214 1;
#X connect 228 0 224 3;
#X connect 229 0 224 2;
#X connect 230 0 224 1;
#X connect 233 0 235 1;
#X connect 234 0 235 2;
#X connect 235 0 250 1;
#X connect 236 0 237 0;
#X connect 237 0 235 0;
#X connect 238 0 236 0;
#X connect 238 0 239 0;
#X connect 239 0 237 1;
#X connect 241 0 235 3;
#X connect 243 0 251 1;
#X connect 244 0 251 2;
#X connect 245 0 246 0;
#X connect 246 0 251 0;
#X connect 247 0 245 0;
#X connect 247 0 248 0;
#X connect 248 0 246 1;
#X connect 249 0 251 3;
#X connect 251 0 259 1;
#X connect 255 0 251 4;
#X connect 256 0 251 5;
#X connect 264 0 297 1;
#X connect 265 0 297 2;
#X connect 266 0 297 0;
#X connect 267 0 298 2;
#X connect 268 0 298 3;
#X connect 269 0 298 0;
#X connect 276 0 281 1;
#X connect 277 0 281 2;
#X connect 278 0 281 0;
#X connect 279 0 281 3;
#X connect 280 0 281 4;
#X connect 281 0 285 1;
#X connect 282 0 285 2;
#X connect 283 0 285 3;
#X connect 284 0 285 0;
#X connect 285 0 293 1;
#X connect 297 0 298 1;
#X connect 298 0 272 1;
#X connect 299 0 301 0;
#X connect 299 1 302 0;
#X connect 300 0 299 1;
#X connect 379 0 380 0;
#X connect 380 0 381 0;
#X connect 381 0 357 1;
#X connect 382 0 358 1;
#X connect 383 0 384 0;
#X connect 384 0 385 0;
#X connect 385 0 361 1;
#X connect 386 0 362 1;
#X connect 393 0 398 0;
#X connect 395 0 393 1;
#X connect 396 0 393 2;
#X connect 397 0 393 0;
#X connect 399 0 407 0;
#X connect 401 0 407 2;
#X connect 402 0 407 1;
#X connect 403 0 406 0;
#X connect 406 0 404 0;
#X connect 407 0 400 0;
#X connect 421 0 408 1;
#X connect 422 0 409 1;
#X connect 423 0 424 0;
#X connect 424 0 425 0;
#X connect 425 0 427 1;
#X connect 429 0 430 0;
#X connect 430 0 431 0;
#X connect 431 0 427 2;
#X connect 433 0 437 1;
#X connect 435 0 437 2;
#X connect 439 0 440 0;
#X connect 440 0 441 0;
#X connect 441 0 452 1;
#X connect 443 0 444 0;
#X connect 444 0 445 0;
#X connect 445 0 452 2;
#X connect 447 0 453 1;
#X connect 449 0 453 2;
#X connect 457 0 458 0;
#X connect 458 0 459 0;
#X connect 459 0 470 1;
#X connect 460 0 461 0;
#X connect 461 0 462 0;
#X connect 462 0 470 2;
#X connect 464 0 471 1;
#X connect 466 0 471 2;
#X connect 474 0 114 0;
#X connect 478 0 111 0;
#X connect 478 1 117 0;
#X connect 479 0 478 0;
