#N canvas 772 96 585 672 10;
#X text 44 35 ++++LINEAR AND SINUSOIDAL WAVEFORMS++++;
#X text 45 94 ++++WINDOWS FOR GRAINS AND FFT++++;
#X obj 67 57 Waveforms/wavebank 256;
#X obj 67 118 Windows/windows 128 4;
#X obj 69 521 tgl 15 0 empty empty empty 17 7 0 10 -262144 -1 -1 0
1;
#X floatatom 69 600 5 0 0 0 - - -, f 5;
#X floatatom 136 600 5 0 0 0 - - -, f 5;
#X obj 69 573 unpack f f;
#X floatatom 68 909 5 0 0 0 - - -, f 5;
#X obj 68 777 unpack f f;
#X floatatom 68 799 5 0 0 0 - - -, f 5;
#X floatatom 135 799 5 0 0 0 - - -, f 5;
#X obj 68 842 unpack f f;
#X floatatom 68 864 5 0 0 0 - - -, f 5;
#X floatatom 135 864 5 0 0 0 - - -, f 5;
#X text 45 468 ++++MIDI++++;
#X obj 68 659 Midi/midi_debug;
#X obj 68 688 Midi/midi;
#X obj 68 752 Midi/getnotes;
#X obj 68 820 Midi/getcontrols;
#X obj 68 885 Midi/getbend;
#X obj 69 546 Midi/qwerty;
#X text 47 2655 ++++CONVERSIONS++++;
#X obj 67 2833 Conversions/bpm2time;
#X obj 244 2833 Conversions/bpm2time~;
#X obj 67 2878 Conversions/time2bpm;
#X obj 244 2878 Conversions/time2bpm~;
#X obj 244 2722 Conversions/absolute~;
#X obj 67 2722 Conversions/absolute;
#X floatatom 67 2699 5 0 0 0 - - -, f 5;
#X floatatom 67 2747 5 0 0 0 - - -, f 5;
#X floatatom 67 2810 5 0 0 0 - - -, f 5;
#X floatatom 67 2858 5 0 0 0 - - -, f 5;
#X floatatom 67 2905 5 0 0 0 - - -, f 5;
#X floatatom 67 2970 5 0 0 0 - - -, f 5;
#X floatatom 67 3018 5 0 0 0 - - -, f 5;
#X floatatom 67 3065 5 0 0 0 - - -, f 5;
#X obj 67 2993 Conversions/freq2samp;
#X obj 67 3038 Conversions/samp2freq;
#X obj 244 2993 Conversions/freq2samp~;
#X obj 244 3038 Conversions/samp2freq~;
#X floatatom 67 3131 5 0 0 0 - - -, f 5;
#X floatatom 67 3179 5 0 0 0 - - -, f 5;
#X floatatom 67 3226 5 0 0 0 - - -, f 5;
#X obj 67 3154 Conversions/freq2time;
#X obj 244 3154 Conversions/freq2time~;
#X obj 67 3199 Conversions/time2freq;
#X obj 244 3199 Conversions/time2freq~;
#X text 67 726 make sure there is an instance of [midi];
#X floatatom 67 3291 5 0 0 0 - - -, f 5;
#X floatatom 67 3339 5 0 0 0 - - -, f 5;
#X floatatom 67 3386 5 0 0 0 - - -, f 5;
#X obj 67 3314 Conversions/freq2midi;
#X obj 67 3359 Conversions/midi2freq;
#X obj 244 3314 Conversions/freq2midi~;
#X obj 244 3359 Conversions/midi2freq~;
#X floatatom 67 3455 5 0 0 0 - - -, f 5;
#X floatatom 67 3503 5 0 0 0 - - -, f 5;
#X floatatom 67 3550 5 0 0 0 - - -, f 5;
#X obj 67 3478 Conversions/samp2time;
#X obj 67 3523 Conversions/time2samp;
#X obj 244 3478 Conversions/samp2time~;
#X obj 244 3523 Conversions/time2samp~;
#X floatatom 67 3615 5 0 0 0 - - -, f 5;
#X floatatom 67 3663 5 0 0 0 - - -, f 5;
#X floatatom 67 3710 5 0 0 0 - - -, f 5;
#X obj 67 3638 Conversions/time2dist;
#X obj 67 3683 Conversions/dist2time;
#X obj 244 3638 Conversions/time2dist~;
#X obj 244 3683 Conversions/dist2time~;
#X floatatom 67 3775 5 0 0 0 - - -, f 5;
#X floatatom 67 3823 5 0 0 0 - - -, f 5;
#X floatatom 67 3870 5 0 0 0 - - -, f 5;
#X obj 67 3798 Conversions/time2dist;
#X obj 67 3843 Conversions/dist2time;
#X obj 244 3798 Conversions/time2dist~;
#X obj 244 3843 Conversions/dist2time~;
#X floatatom 66 4195 5 0 0 0 - - -, f 5;
#X obj 263 4168 Conversions/hypotenuse3d~;
#X obj 66 4168 Conversions/hypotenuse3d;
#X floatatom 66 4079 5 0 0 0 - - -, f 5;
#X floatatom 118 4080 5 0 0 0 - - -, f 5;
#X obj 118 4102 t b f;
#X floatatom 168 4080 5 0 0 0 - - -, f 5;
#X obj 168 4102 t b f;
#X obj 66 4138 pack f f f;
#X floatatom 66 4045 5 0 0 0 - - -, f 5;
#X obj 66 4018 Conversions/hypotenuse3d;
#X floatatom 66 3929 5 0 0 0 - - -, f 5;
#X floatatom 118 3930 5 0 0 0 - - -, f 5;
#X obj 118 3952 t b f;
#X obj 66 3988 pack f f;
#X obj 263 4018 Conversions/hypotenuse2d~;
#X floatatom 67 4474 5 0 0 0 - - -, f 5;
#X floatatom 67 4348 5 0 0 0 - - -, f 5;
#X floatatom 119 4349 5 0 0 0 - - -, f 5;
#X obj 119 4371 t b f;
#X floatatom 67 4310 5 0 0 0 - - -, f 5;
#X floatatom 67 4258 5 0 0 0 - - -, f 5;
#X obj 67 4283 Conversions/unitcircle;
#X obj 264 4283 Conversions/unitcircle~;
#X obj 67 4401 pack f f;
#X obj 67 4447 Conversions/unitsphere;
#X obj 264 4447 Conversions/unitsphere~;
#X floatatom 218 4310 5 0 0 0 - - -, f 5;
#X floatatom 142 4474 5 0 0 0 - - -, f 5;
#X floatatom 218 4474 5 0 0 0 - - -, f 5;
#X text 333 4260 theta = 0 - 1;
#X text 115 4261 theta = 0 - 2pi;
#X text 333 4424 theta = 0 - 1;
#X text 115 4425 theta = 0 - 2pi;
#X floatatom 68 1739 5 0 0 0 - - -, f 5;
#X text 46 1645 ++++LOGIC++++;
#X floatatom 68 1844 5 0 0 0 - - -, f 5;
#X floatatom 68 1950 5 0 0 0 - - -, f 5;
#X floatatom 68 2012 5 0 0 0 - - -, f 5;
#X floatatom 68 2060 5 0 0 0 - - -, f 5;
#X floatatom 142 1739 5 0 0 0 - - -, f 5;
#X obj 68 1819 Logic/switch 7 3;
#X obj 68 2035 Logic/channel;
#X obj 156 2011 tgl 15 0 empty empty empty 17 7 0 10 -262144 -1 -1
0 1;
#X floatatom 156 2059 5 0 0 0 - - -, f 5;
#X obj 68 1796 bng 15 250 50 0 empty empty empty 17 7 0 10 -262144
-1 -1;
#X obj 177 1796 bng 15 250 50 0 empty empty empty 17 7 0 10 -262144
-1 -1;
#X obj 68 1902 bng 15 250 50 0 empty empty empty 17 7 0 10 -262144
-1 -1;
#X obj 177 1902 bng 15 250 50 0 empty empty empty 17 7 0 10 -262144
-1 -1;
#X floatatom 67 2206 5 0 0 0 - - -, f 5;
#X floatatom 67 2254 5 0 0 0 - - -, f 5;
#X text 47 2125 ++++PRESETS++++;
#X floatatom 217 2206 5 0 0 0 - - -, f 5;
#X floatatom 217 2254 5 0 0 0 - - -, f 5;
#X text 43 636 Midi Input;
#X text 44 496 Qwerty Midi;
#X obj 67 2230 Demo/param var1;
#X obj 217 2230 Demo/p var1;
#X obj 67 2415 Demo/saver;
#X text 63 2497 [Demo/presets];
#X obj 67 2474 Demo/presets;
#X obj 67 2554 Demo/presets20;
#X text 64 2577 [Demo/presets20];
#X text 65 2155 Demo directory is to show functionality.;
#X msg 67 2368 save_name;
#X obj 149 2367 bng 15 250 50 0 empty empty empty 17 7 0 10 -262144
-1 -1;
#X msg 100 2391 load_name;
#X text 440 22 Brian Taylor Vann;
#X text 503 37 2017 JAN;
#X floatatom 86 4580 5 0 0 0 - - -, f 5;
#X obj 86 4603 Pan/panner~;
#X obj 67 4633 *~;
#X obj 142 4633 *~;
#X obj 67 4843 Pan/ptwospeakers~;
#X obj 67 4933 Pan/pfourspeakers~;
#X obj 67 5023 Pan/pfivespeakers~;
#X floatatom 125 4818 5 0 0 0 - - -, f 5;
#X floatatom 183 4818 5 0 0 0 - - -, f 5;
#X floatatom 128 4910 5 0 0 0 - - -, f 5;
#X floatatom 190 4910 5 0 0 0 - - -, f 5;
#X floatatom 128 5000 5 0 0 0 - - -, f 5;
#X floatatom 190 5000 5 0 0 0 - - -, f 5;
#X floatatom 132 5090 5 0 0 0 - - -, f 5;
#X floatatom 197 5090 5 0 0 0 - - -, f 5;
#X obj 67 5113 Pan/psevenspeakers~;
#X text 47 4536 ++++PANNING++++;
#X obj 67 5354 Oscillators/wbosc~;
#X obj 67 5305 sig~;
#X floatatom 67 5283 5 0 0 0 - - -, f 5;
#X obj 67 5330 phasor~;
#X obj 128 5306 hradio 15 1 0 10 empty empty empty 0 -8 0 10 -262144
-1 -1 0;
#X msg 190 5329 256;
#X text 127 5288 select table;
#X text 220 5330 specify table length;
#X obj 67 5438 sig~;
#X floatatom 67 5416 5 0 0 0 - - -, f 5;
#X obj 67 5463 phasor~;
#X msg 190 5484 256;
#X text 220 5485 specify table length;
#X floatatom 128 5414 5 0 0 0 - - -, f 5;
#X obj 128 5433 / 100;
#X obj 128 5455 pack f 30;
#X obj 128 5477 vline~;
#X obj 67 5509 Oscillators/wbpwm~;
#X text 176 5433 pulse width between (0-1);
#X obj 67 5653 sig~;
#X floatatom 67 5631 5 0 0 0 - - -, f 5;
#X obj 67 5678 phasor~;
#X obj 67 5714 Oscillators/aaramp~;
#X obj 67 5801 sig~;
#X floatatom 67 5779 5 0 0 0 - - -, f 5;
#X obj 67 5826 phasor~;
#X obj 67 5862 Oscillators/aatri~;
#X obj 67 5941 sig~;
#X floatatom 67 5919 5 0 0 0 - - -, f 5;
#X obj 67 5966 phasor~;
#X obj 67 6085 sig~;
#X floatatom 67 6063 5 0 0 0 - - -, f 5;
#X obj 67 6110 phasor~;
#X obj 67 6152 Oscillators/aapwm~;
#X obj 67 6002 Oscillators/aasquare~;
#X floatatom 190 6063 5 0 0 0 - - -, f 5;
#X obj 190 6082 / 100;
#X obj 190 6104 pack f 30;
#X obj 190 6126 vline~;
#X text 238 6082 pulse width between (0-1);
#X obj 67 6235 sig~;
#X floatatom 67 6213 5 0 0 0 - - -, f 5;
#X obj 67 6260 phasor~;
#X obj 67 6292 Oscillators/aaosc~;
#X msg 190 6257 1 0.2 0.5 0.3 0.11 0.023;
#X text 188 6236 keep harmonics between (0-1);
#X obj 66 6405 sig~;
#X floatatom 66 6383 5 0 0 0 - - -, f 5;
#X obj 66 6430 phasor~;
#X obj 67 6472 Oscillators/voscillator~;
#X floatatom 232 6383 5 0 0 0 - - -, f 5;
#X obj 232 6402 / 100;
#X obj 232 6424 pack f 30;
#X obj 232 6446 vline~;
#X text 280 6402 waveshape between (0-1);
#X text 47 6529 ++++LOOPER++++;
#X obj 67 6685 Looper/looper~ 90 40;
#X text 82 6633 start/stop;
#X text 175 6632 play/pause;
#X text 261 6632 clear;
#X obj 276 6652 bng 15 250 50 0 empty empty empty 17 7 0 10 -262144
-1 -1;
#X obj 198 6652 tgl 15 0 empty empty empty 17 7 0 10 -262144 -1 -1
0 1;
#X obj 112 6652 tgl 15 0 empty empty empty 17 7 0 10 -262144 -1 -1
0 1;
#X text 47 6746 ++++ENVELOPES++++;
#X text 47 6768 TAPE STYLE;
#X floatatom 130 6937 5 0 0 0 - - -, f 5;
#X floatatom 171 6971 5 0 0 0 - - -, f 5;
#X obj 89 7026 Envelopes/tapeenv~;
#X obj 88 6885 phasor~;
#X obj 88 6911 *~;
#X floatatom 88 6858 5 0 0 0 - - -, f 5;
#X obj 150 6886 Conversions/freq2samp~;
#X text 168 6954 open time;
#X floatatom 212 7002 5 0 0 0 - - -, f 5;
#X text 209 6986 close time;
#X floatatom 114 7209 5 0 0 0 - - -, f 5;
#X floatatom 140 7239 5 0 0 0 - - -, f 5;
#X obj 87 7145 phasor~;
#X obj 87 7171 *~;
#X floatatom 87 7118 5 0 0 0 - - -, f 5;
#X obj 149 7146 Conversions/freq2samp~;
#X floatatom 166 7272 5 0 0 0 - - -, f 5;
#X obj 70 7055 *~;
#X obj 88 7369 Envelopes/tapeadsr~;
#X text 113 7193 attack time;
#X text 138 7223 decay level;
#X text 164 7255 decay time;
#X floatatom 192 7312 5 0 0 0 - - -, f 5;
#X floatatom 218 7345 5 0 0 0 - - -, f 5;
#X text 189 7295 sustain time;
#X text 216 7328 release time;
#X obj 70 7399 *~;
#X text 127 6921 env time;
#X text 66 6799 similar to analog drum machines and samplers.;
#X floatatom 168 7596 5 0 0 0 - - -, f 5;
#X floatatom 202 7630 5 0 0 0 - - -, f 5;
#X floatatom 135 7563 5 0 0 0 - - -, f 5;
#X obj 185 7679 tgl 15 0 empty empty empty 17 7 0 10 -262144 -1 -1
0 1;
#X obj 236 7699 tgl 15 0 empty empty empty 17 7 0 10 -262144 -1 -1
0 1;
#X obj 85 7685 tgl 15 0 empty empty empty 17 7 0 10 -262144 -1 -1 0
1;
#X text 204 7678 key release off/on;
#X text 255 7698 amp reset off/on;
#X obj 67 7750 *~;
#X text 47 7448 TRIGGER STYLE;
#X floatatom 160 7865 5 0 0 0 - - -, f 5;
#X floatatom 184 7899 5 0 0 0 - - -, f 5;
#X floatatom 137 7833 5 0 0 0 - - -, f 5;
#X floatatom 208 7931 5 0 0 0 - - -, f 5;
#X floatatom 232 7963 5 0 0 0 - - -, f 5;
#X obj 137 7985 pack f f f f f;
#X obj 190 8014 tgl 15 0 empty empty empty 17 7 0 10 -262144 -1 -1
0 1;
#X obj 243 8029 tgl 15 0 empty empty empty 17 7 0 10 -262144 -1 -1
0 1;
#X obj 85 8015 tgl 15 0 empty empty empty 17 7 0 10 -262144 -1 -1 0
1;
#X obj 85 8052 Envelopes/trigadsr~ 0 0;
#X text 209 8013 key release off/on;
#X text 262 8028 amp reset off/on;
#X text 136 7815 attack time;
#X text 158 7847 decay level (0-1);
#X text 183 7882 decay time;
#X text 207 7914 sustain time;
#X text 231 7947 release time;
#X obj 67 8080 *~;
#X text 134 7545 envelope time;
#X text 166 7578 open time;
#X text 201 7613 close time;
#X obj 135 7655 pack f f f;
#X obj 85 7722 Envelopes/trigenv~ 0 0;
#X obj 69 227 Tuner/tuner~;
#X obj 150 204 tgl 15 0 empty empty empty 17 7 0 10 -262144 -1 -1 0
1;
#X obj 72 273 hsl 128 15 -1 1 0 0 empty empty empty -2 -8 0 10 -262144
-1 -1 0 1;
#X symbolatom 150 252 10 0 0 0 - - -, f 10;
#X text 48 273 -1;
#X text 204 273 1;
#X text 46 1669 OnOff;
#X text 46 1774 Switch;
#X text 46 1883 Round;
#X text 46 1990 Channel;
#X text 47 2184 Param or P;
#X text 47 2347 Saver;
#X text 47 2447 Presets;
#X text 47 2527 Presets20;
#X text 47 2677 [+/-]<-->Absolute Value;
#X text 47 2947 Frequency<-->Samples;
#X text 47 3108 Frequency<-->Milliseconds;
#X text 47 2787 BPM<-->Milliseconds;
#X text 47 3268 Frequency<-->MIDI;
#X text 47 3432 Samples<-->Milliseconds;
#X text 47 3592 Milliseconds<-->Meters;
#X text 47 3752 Milliseconds<-->Meters;
#X text 45 3907 2D & 3D Hypotenuse;
#X text 46 4236 Unit Circle & Unit Sphere;
#X text 47 4558 Panner;
#X text 47 4674 Polar Based Surround Sound Objects;
#X text 47 4798 Polar Two Speakers;
#X text 47 4889 Polar Four Speakers;
#X text 47 4979 Polar Five Speakers;
#X text 47 5070 Polar Seven Speakers;
#X text 47 5198 Wavebank Oscillators;
#X text 47 5260 Wavebank Standard Oscillators;
#X text 47 5387 Wavebank PWM;
#X text 47 5553 Anti-Aliasing Oscillators;
#X text 47 5610 Anti-Aliasing Ramp Wave;
#X text 46 5758 Anti-Aliasing Triangle Wave;
#X text 47 5898 Anti-Aliasing Square Wave;
#X text 47 6038 Anti-Aliasing PWM;
#X text 47 6188 Anti-Aliasing Custom Harmonics;
#X text 47 6358 Voscillator;
#X text 47 6551 Looper;
#X text 47 6830 Tape Envelope;
#X text 47 7090 Tape ADSR;
#X text 47 7528 Trigger Envelope;
#X text 47 7798 Trigger ADSR;
#X text 44 196 Tuner;
#X text 44 309 Tuner with GUI;
#X text 45 168 ++++TUNER++++;
#X obj 69 342 Tuner/gtuner~;
#X text 47 8139 ++++EFFECTS++++;
#X text 47 8161 Pd-Sandbox Effects;
#X text 84 8195 1) effect_init~;
#X text 84 8227 2) effect~;
#X text 84 8258 3) geffect~;
#X text 65 395 [Tuner/gtuner~];
#X obj 67 8415 Effects/SampleRate/changerate_init~;
#X obj 67 8471 Effects/SampleRate/changerate~ cr1;
#X obj 68 8498 Effects/SampleRate/gchangerate~ cr2;
#X text 65 8543 [Effects/SampleRate/gchangerate~ cr2];
#X obj 68 8672 Effects/BitDepth/changebit_init~;
#X obj 68 8739 Effects/BitDepth/changebit~ cb1;
#X obj 68 8764 Effects/BitDepth/gchangebit~ cb2;
#X text 64 8810 [Effects/BitDepth/gchangebit~ cb2];
#X text 64 8293 Be sure to give effects with params a unique identifier!
;
#X text 66 710 To use [getnotes] \, [getcontrols] \, or [getbend];
#X text 65 2142 Use objects in Presets directory.;
#X text 66 2277 To save and recal values give [p] or [param] a unique
id.;
#X text 66 2291 Do not use pd's \$0 argument as it is randomized.;
#X text 66 2306 Use [saver] \, [presets] \, or [presets20] to save
and recall;
#X text 66 2320 all [p] and [param] values in your patch.;
#X text 70 4695 Left inlet is for audio signal.;
#X text 70 4723 Right inlet is distance \, can be signal driven.;
#X text 70 4747 For polar panning \, the last outlet is only attenuated
;
#X text 71 4760 by distance. Suitable for subwoofers or filters.;
#X text 66 5221 Wavebank oscillators must be used in tandem;
#X text 66 5234 with the [wavebank] object. Specify table length.;
#X text 66 5575 These oscillators will never cause nyquist frequencies.
;
#X floatatom 309 8345 5 0 0 0 - - -, f 5;
#X obj 309 8364 pack f 30;
#X obj 309 8386 vline~;
#X floatatom 302 8446 5 0 0 0 - - -, f 5;
#X floatatom 289 8605 5 0 0 0 - - -, f 5;
#X obj 289 8624 pack f 30;
#X obj 289 8646 vline~;
#X floatatom 282 8718 5 0 0 0 - - -, f 5;
#X text 344 8446 SampleRate;
#X text 47 8341 Change Rate;
#X text 47 8605 Change Bit;
#X text 323 8718 Bit Depth;
#X text 349 8346 SampleRate;
#X text 331 8604 Bit Depth;
#X obj 68 1139 Midi/guidenote_init;
#X text 43 954 Midi Guides;
#X msg 133 1113 0 2 4 7 9;
#X obj 219 1110 tgl 15 0 empty empty empty 17 7 0 10 -262144 -1 -1
0 1;
#X floatatom 68 1114 5 0 0 0 - - -, f 5;
#X floatatom 68 1167 5 0 0 0 - - -, f 5;
#X floatatom 68 1202 5 0 0 0 - - -, f 5;
#X floatatom 68 1255 5 0 0 0 - - -, f 5;
#X obj 198 1202 tgl 15 0 empty empty empty 17 7 0 10 -262144 -1 -1
0 1;
#X msg 119 1192 0 2 4 7 9;
#X floatatom 68 1284 5 0 0 0 - - -, f 5;
#X floatatom 68 1355 5 0 0 0 - - -, f 5;
#X obj 68 1306 Midi/gguidenote gn2;
#X obj 68 1228 Midi/guidenote gn1;
#X obj 68 1452 Midi/guidenote_init~;
#X obj 68 1515 Midi/guidenote~ sgn1;
#X obj 67 1559 Midi/gguidenote~ sgn2;
#X text 65 993 1) [guidenote_init] is the baseline object.;
#X text 65 1009 2) [guidenote] has [param] object.;
#X text 65 1024 3) [gguidenote] has [param] object with a GUI.;
#X text 65 1041 be sure to give type 2 & 3 a unique identifier to save!
;
#X text 65 977 GuideNote objects guide midi at the signal and control
level;
#X text 113 1354 [Midi/gguidenotes gn2];
#X text 83 1603 [Midi/gguidenotes~ sgn2];
#X text 64 1073 Control level guidenotes;
#X text 66 1405 Signal level guidenotes;
#X msg 205 1429 0 2 4 7 9;
#X msg 205 1491 0 2 4 7 9;
#X floatatom 169 8875 5 0 0 0 - - -, f 5;
#X obj 169 8894 pack f 30;
#X obj 169 8916 vline~;
#X text 47 8875 Delay;
#X obj 68 8942 Effects/Delay/delay_init~ 500;
#X text 209 8874 Length;
#X floatatom 269 8875 5 0 0 0 - - -, f 5;
#X obj 269 8894 pack f 30;
#X obj 269 8916 vline~;
#X text 309 8874 Amp;
#X floatatom 164 8988 5 0 0 0 - - -, f 5;
#X text 204 8987 Length;
#X floatatom 261 8988 5 0 0 0 - - -, f 5;
#X text 301 8987 Amp;
#X floatatom 162 9205 5 0 0 0 - - -, f 5;
#X obj 162 9224 pack f 30;
#X obj 162 9246 vline~;
#X text 202 9204 Length;
#X floatatom 262 9205 5 0 0 0 - - -, f 5;
#X obj 262 9224 pack f 30;
#X obj 262 9246 vline~;
#X text 302 9204 Amp;
#X floatatom 158 9320 5 0 0 0 - - -, f 5;
#X text 198 9319 Length;
#X floatatom 254 9320 5 0 0 0 - - -, f 5;
#X text 298 9319 Amp;
#X text 47 9195 Echo;
#X floatatom 161 9515 5 0 0 0 - - -, f 5;
#X obj 161 9534 pack f 30;
#X obj 161 9556 vline~;
#X floatatom 254 9515 5 0 0 0 - - -, f 5;
#X obj 254 9534 pack f 30;
#X obj 254 9556 vline~;
#X text 294 9514 Amp;
#X floatatom 157 9628 5 0 0 0 - - -, f 5;
#X text 197 9627 Length;
#X floatatom 254 9628 5 0 0 0 - - -, f 5;
#X text 298 9627 Amp;
#X text 47 9505 Reverb;
#X text 201 9514 Pre;
#X obj 68 1925 Logic/rotund 5 2;
#X text 133 4580 0-1;
#X text 71 4709 Middle inlet is for theta (0-1) \, can be signal driven.
;
#X text 188 6223 up to 10 harmonics;
#X obj 68 1714 Logic/onoff;
#X obj 68 1692 tgl 15 0 empty empty empty 17 7 0 10 -262144 -1 -1 0
1;
#X obj 68 9272 Effects/Echo/echo_init~ 500;
#X obj 68 9582 Effects/Reverb/reverb_init~;
#X obj 68 9655 Effects/Reverb/reverb~ rv1;
#X text 64 9750 [Effects/Reverb/greverb~ rv2];
#X obj 70 9707 Effects/Reverb/greverb~ rb2;
#X text 80 8961 outlet: delayed signal;
#X text 81 9031 outlet1: original + delay;
#X text 81 9044 outlet2: delay signal;
#X text 81 9131 outlet1: original + delay;
#X text 81 9144 outlet2: delay signal;
#X text 88 10122 signal;
#X text 76 9970 outlet: amp modulator;
#X text 78 10186 outlet2: amp modulator;
#X text 78 10170 outlet1: modulated signal;
#X text 78 10320 outlet2: amp modulator;
#X text 78 10304 outlet1: modulated signal;
#X text 93 9675 outlets: stereo reverb;
#X text 93 9765 outlets: stereo reverb;
#X text 93 9603 outlets: stereo reverb;
#X floatatom 161 12132 5 0 0 0 - - -, f 5;
#X obj 161 12171 pack f 30;
#X obj 161 12193 vline~;
#X floatatom 244 12152 5 0 0 0 - - -, f 5;
#X obj 244 12171 pack f 30;
#X obj 244 12193 vline~;
#X obj 68 12218 Effects/Tremolo/tremolo_init~;
#X obj 68 12451 Effects/Tremolo/gtremolo~ tm2;
#X obj 68 12367 Effects/Tremolo/tremolo~ tm1;
#X obj 320 12200 bng 15 250 50 0 empty empty empty 17 7 0 10 -262144
-1 -1;
#X text 340 12200 reset phase;
#X floatatom 68 12112 5 0 0 0 - - -, f 5;
#X obj 68 12171 pack f 30;
#X obj 68 12193 vline~;
#X text 108 12111 Freq;
#X obj 164 12337 pack f f f;
#X floatatom 164 12282 5 0 0 0 - - -, f 5;
#X floatatom 231 12317 5 0 0 0 - - -, f 5;
#X floatatom 197 12300 5 0 0 0 - - -, f 5;
#X obj 261 12344 bng 15 250 50 0 empty empty empty 17 7 0 10 -262144
-1 -1;
#X text 88 12341 signal;
#X text 209 12282 Freq;
#X text 240 12298 Depth (0-1);
#X text 274 12318 Waveshape (0-1);
#X text 284 12151 WaveShape (0-1);
#X text 201 12131 Depth (0-1);
#X text 76 12237 outlet: amp modulator;
#X text 78 12405 outlet2: amp modulator;
#X text 78 12389 outlet1: modulated signal;
#X text 78 12539 outlet2: amp modulator;
#X text 78 12523 outlet1: modulated signal;
#X text 64 12506 [Effects/Tremolo/gtremolo~ tm2];
#X text 47 12072 Tremolo;
#X text 47 9815 Gate;
#X obj 68 9951 Effects/Gate/gate_init~;
#X obj 68 10148 Effects/Gate/gate~ g1;
#X text 88 9934 signal;
#X floatatom 226 9833 5 0 0 0 - - -, f 5;
#X floatatom 253 9853 5 0 0 0 - - -, f 5;
#X floatatom 280 9876 5 0 0 0 - - -, f 5;
#X floatatom 307 9899 5 0 0 0 - - -, f 5;
#X obj 226 9925 pack f f f f;
#X text 293 9854 attack time;
#X text 320 9876 hold time;
#X text 349 9899 release time;
#X text 265 9831 threshold (dB);
#X floatatom 212 10027 5 0 0 0 - - -, f 5;
#X floatatom 239 10047 5 0 0 0 - - -, f 5;
#X floatatom 266 10070 5 0 0 0 - - -, f 5;
#X floatatom 293 10093 5 0 0 0 - - -, f 5;
#X obj 212 10119 pack f f f f;
#X text 281 10047 attack time;
#X text 305 10070 hold time;
#X text 335 10093 release time;
#X text 252 10027 threshold (dB);
#X text 88 10646 signal;
#X text 76 10530 outlet: amp modulator;
#X text 78 10706 outlet2: amp modulator;
#X text 78 10690 outlet1: modulated signal;
#X text 78 10850 outlet2: amp modulator;
#X text 78 10834 outlet1: modulated signal;
#X text 88 10494 signal;
#X floatatom 268 10413 5 0 0 0 - - -, f 5;
#X floatatom 301 10433 5 0 0 0 - - -, f 5;
#X floatatom 335 10456 5 0 0 0 - - -, f 5;
#X text 341 10434 attack time;
#X text 376 10458 release time;
#X text 307 10411 threshold (dB);
#X floatatom 261 10567 5 0 0 0 - - -, f 5;
#X floatatom 294 10588 5 0 0 0 - - -, f 5;
#X floatatom 328 10610 5 0 0 0 - - -, f 5;
#X text 336 10588 attack time;
#X text 368 10609 release time;
#X text 301 10567 threshold (dB);
#X obj 68 10511 Effects/Limiter/limiter_init~;
#X obj 268 10485 pack f f f;
#X obj 261 10639 pack f f f;
#X obj 68 10668 Effects/Limiter/limiter~ lm1;
#X text 64 10287 [Effects/Gate/ggate~ g2];
#X obj 68 10238 Effects/Gate/ggate~ g2;
#X text 47 10385 Limiter;
#X obj 68 10764 Effects/Limiter/glimiter~ lm2;
#X text 88 10745 signal;
#X text 64 10817 [Effects/Limiter/glimter~ lm2];
#X text 88 11274 signal;
#X text 76 11134 outlet: amp modulator;
#X text 78 11334 outlet2: amp modulator;
#X text 78 11318 outlet1: modulated signal;
#X text 78 11484 outlet2: amp modulator;
#X text 78 11468 outlet1: modulated signal;
#X text 88 11098 signal;
#X text 88 11379 signal;
#X obj 68 11115 Effects/Compressor/compressar_init~;
#X text 47 10905 Compressar;
#X floatatom 189 10996 5 0 0 0 - - -, f 5;
#X floatatom 216 11016 5 0 0 0 - - -, f 5;
#X floatatom 243 11039 5 0 0 0 - - -, f 5;
#X floatatom 270 11062 5 0 0 0 - - -, f 5;
#X obj 189 11088 pack f f f f;
#X text 287 11037 attack time;
#X text 312 11062 release time;
#X text 229 10996 threshold (dB);
#X obj 310 11088 tgl 15 0 empty empty empty 17 7 0 10 -262144 -1 -1
0 1;
#X text 259 11014 ratio;
#X text 332 11089 dB/rms ratio;
#X floatatom 185 11176 5 0 0 0 - - -, f 5;
#X floatatom 212 11196 5 0 0 0 - - -, f 5;
#X floatatom 239 11219 5 0 0 0 - - -, f 5;
#X floatatom 266 11242 5 0 0 0 - - -, f 5;
#X obj 185 11268 pack f f f f;
#X text 283 11217 attack time;
#X text 308 11242 release time;
#X text 225 11176 threshold (dB);
#X obj 303 11269 tgl 15 0 empty empty empty 17 7 0 10 -262144 -1 -1
0 1;
#X text 255 11194 ratio;
#X text 325 11270 dB/rms ratio;
#X obj 68 11296 Effects/Compressor/compressar~ cm1;
#X obj 67 11403 Effects/Compressor/gcompressar~ lm2;
#X text 64 11451 [Effects/Compressor/gcompressar~ lm2];
#X text 79 10926 -written as compressar;
#X text 87 10940 because [compressor~];
#X text 87 10954 is taken in Pd extended;
#X text 88 11833 signal;
#X text 76 11693 outlet: amp modulator;
#X text 78 11893 outlet2: amp modulator;
#X text 78 11877 outlet1: modulated signal;
#X text 78 12033 outlet2: amp modulator;
#X text 78 12017 outlet1: modulated signal;
#X text 88 11657 signal;
#X text 88 11928 signal;
#X floatatom 175 11555 5 0 0 0 - - -, f 5;
#X floatatom 202 11575 5 0 0 0 - - -, f 5;
#X floatatom 229 11598 5 0 0 0 - - -, f 5;
#X floatatom 256 11621 5 0 0 0 - - -, f 5;
#X obj 175 11647 pack f f f f;
#X text 273 11596 attack time;
#X text 298 11621 release time;
#X text 215 11555 threshold (dB);
#X obj 282 11647 tgl 15 0 empty empty empty 17 7 0 10 -262144 -1 -1
0 1;
#X text 245 11573 ratio;
#X text 304 11648 dB/rms ratio;
#X floatatom 171 11735 5 0 0 0 - - -, f 5;
#X floatatom 198 11755 5 0 0 0 - - -, f 5;
#X floatatom 225 11778 5 0 0 0 - - -, f 5;
#X floatatom 252 11801 5 0 0 0 - - -, f 5;
#X obj 171 11827 pack f f f f;
#X text 269 11776 attack time;
#X text 294 11801 release time;
#X text 211 11735 threshold (dB);
#X obj 275 11828 tgl 15 0 empty empty empty 17 7 0 10 -262144 -1 -1
0 1;
#X text 241 11753 ratio;
#X text 297 11829 dB/rms ratio;
#X text 64 12000 [Effects/Compressor/gcompressar~ lm2];
#X text 47 11534 Expander;
#X obj 68 11674 Effects/Expander/expander_init~;
#X obj 68 11855 Effects/Expander/expander~ ex1;
#X obj 68 11945 Effects/Expander/gexpander~ ex2;
#X floatatom 161 12632 5 0 0 0 - - -, f 5;
#X obj 161 12671 pack f 30;
#X obj 161 12693 vline~;
#X floatatom 253 12652 5 0 0 0 - - -, f 5;
#X obj 253 12671 pack f 30;
#X obj 253 12693 vline~;
#X obj 157 12837 pack f f f;
#X floatatom 157 12780 5 0 0 0 - - -, f 5;
#X floatatom 224 12817 5 0 0 0 - - -, f 5;
#X floatatom 190 12798 5 0 0 0 - - -, f 5;
#X text 78 12847 signal;
#X text 47 12592 Leslie;
#X obj 68 12718 Effects/Leslie/leslie_init~;
#X obj 68 12867 Effects/Leslie/leslie~ ls1;
#X obj 68 12947 Effects/Leslie/gleslie~ ls2;
#X obj 247 12838 hradio 15 1 0 3 empty empty empty 0 -8 0 10 -262144
-1 -1 0;
#X text 80 12697 signal;
#X text 293 12651 Distance;
#X text 297 12837 off/low/high;
#X text 201 12631 Speed (0-1);
#X text 202 12780 Low;
#X text 233 12796 High;
#X text 267 12818 Distance;
#X floatatom 134 13092 5 0 0 0 - - -, f 5;
#X obj 134 13131 pack f 30;
#X obj 134 13153 vline~;
#X floatatom 206 13112 5 0 0 0 - - -, f 5;
#X obj 206 13131 pack f 30;
#X obj 206 13153 vline~;
#X text 88 13311 signal;
#X text 76 13186 signal;
#X text 64 13006 [Effects/Tremolo/gtremolo~ ls2];
#X text 80 12927 signal;
#X text 47 13062 Flanger;
#X obj 68 13208 Effects/Flanger/flanger_init~;
#X obj 68 13337 Effects/Flanger/flanger~ fl1;
#X floatatom 261 13238 5 0 0 0 - - -, f 5;
#X floatatom 294 13259 5 0 0 0 - - -, f 5;
#X obj 261 13301 pack f f f;
#X floatatom 328 13279 5 0 0 0 - - -, f 5;
#X text 302 13236 Freq;
#X text 334 13259 Del (0-10);
#X text 366 13279 Feedback (0-1);
#X floatatom 282 13131 5 0 0 0 - - -, f 5;
#X obj 282 13150 pack f 30;
#X obj 282 13172 vline~;
#X text 174 13091 Freq;
#X text 246 13111 Del (0-10);
#X text 322 13130 Feedback (0-1);
#X obj 68 13407 Effects/Flanger/gflanger~ fl2;
#X text 76 12887 outlet: modulated signal;
#X text 101 12989 outlet: modulated signal;
#X text 76 12737 outlet: modulated signal;
#X text 75 13227 outlet: modulated signal;
#X text 78 13359 outlet: modulated signal;
#X text 78 13473 outlet: modulated signal;
#X text 64 13456 [Effects/Flanger/gflanger~ fl2];
#X floatatom 114 13552 5 0 0 0 - - -, f 5;
#X obj 114 13591 pack f 30;
#X obj 114 13613 vline~;
#X floatatom 186 13572 5 0 0 0 - - -, f 5;
#X obj 186 13591 pack f 30;
#X obj 186 13613 vline~;
#X text 88 13831 signal;
#X text 76 13676 signal;
#X floatatom 247 13748 5 0 0 0 - - -, f 5;
#X floatatom 274 13769 5 0 0 0 - - -, f 5;
#X floatatom 301 13789 5 0 0 0 - - -, f 5;
#X text 288 13746 Freq;
#X text 314 13769 Del (0-10);
#X floatatom 262 13591 5 0 0 0 - - -, f 5;
#X obj 262 13610 pack f 30;
#X obj 262 13632 vline~;
#X text 154 13551 Freq;
#X text 75 13717 outlet: modulated signal;
#X text 78 13879 outlet: modulated signal;
#X text 78 13993 outlet: modulated signal;
#X text 47 13522 Chorus;
#X obj 68 13698 Effects/Chorus/chorus_init~;
#X text 227 13571 Del (0-1);
#X floatatom 342 13611 5 0 0 0 - - -, f 5;
#X obj 342 13630 pack f 30;
#X obj 342 13652 vline~;
#X text 302 13590 Depth (0-1);
#X text 382 13610 Color (0-1);
#X obj 247 13831 pack f f f f;
#X floatatom 328 13809 5 0 0 0 - - -, f 5;
#X text 341 13789 Depth (0-1);
#X text 366 13808 Color (0-1);
#X obj 68 13927 Effects/Chorus/gchorus~ ch2;
#X obj 68 13857 Effects/Chorus/chorus~ fl1;
#X text 64 13976 [Effects/Chorus/gchorus~ fl2];
#X obj 69 9395 Effects/Echo/gecho~ ec2 500;
#X text 64 9440 [Effects/Echo/gecho~ ec2 500];
#X obj 69 9345 Effects/Echo/echo~ ec1 500;
#X obj 68 9015 Effects/Delay/delay~ dl1 500;
#X obj 68 9072 Effects/Delay/gdelay~ dl2 500;
#X text 64 9116 [Effects/Delay/gdelay~ dl2 500];
#X text 47 5176 ++++Generators++++;
#X text 47 6338 VARIABLE OSCILLATORS;
#X text 66 6786 driven by sample number and function at the signal
level.;
#X text 84 1087 Right inlet is choice between block/correct.;
#X text 66 6574 First argument is max length of loop in seconds.;
#X text 66 6587 Second argument is the length of crossfade in mS.;
#X text 65 6601 Default is a 60 second loop with a 30 mS crossfade.
;
#X text 66 7466 Function off events and function at the control level.
;
#X text 67 7480 Give [trigadsr~] and [envadsr~] a zero or non-zero
value;
#X text 66 7494 representing amplitude (like a keypress).;
#X text 64 8178 Effects come in three forms:;
#X text 114 8211 -The no frills base effect.;
#X text 114 8241 -Effect with init and params to save with preset.
;
#X text 114 8274 -Effect with init \, params \, and a a gui.;
#X connect 4 0 21 0;
#X connect 7 0 5 0;
#X connect 7 1 6 0;
#X connect 9 0 10 0;
#X connect 9 1 11 0;
#X connect 12 0 13 0;
#X connect 12 1 14 0;
#X connect 18 0 9 0;
#X connect 19 0 12 0;
#X connect 20 0 8 0;
#X connect 21 0 7 0;
#X connect 23 0 32 0;
#X connect 25 0 33 0;
#X connect 28 0 30 0;
#X connect 29 0 28 0;
#X connect 31 0 23 0;
#X connect 32 0 25 0;
#X connect 34 0 37 0;
#X connect 35 0 38 0;
#X connect 37 0 35 0;
#X connect 38 0 36 0;
#X connect 41 0 44 0;
#X connect 42 0 46 0;
#X connect 44 0 42 0;
#X connect 46 0 43 0;
#X connect 49 0 52 0;
#X connect 50 0 53 0;
#X connect 52 0 50 0;
#X connect 53 0 51 0;
#X connect 56 0 59 0;
#X connect 57 0 60 0;
#X connect 59 0 57 0;
#X connect 60 0 58 0;
#X connect 63 0 66 0;
#X connect 64 0 67 0;
#X connect 66 0 64 0;
#X connect 67 0 65 0;
#X connect 70 0 73 0;
#X connect 71 0 74 0;
#X connect 73 0 71 0;
#X connect 74 0 72 0;
#X connect 79 0 77 0;
#X connect 80 0 85 0;
#X connect 81 0 82 0;
#X connect 82 0 85 0;
#X connect 82 1 85 1;
#X connect 83 0 84 0;
#X connect 84 0 85 0;
#X connect 84 1 85 2;
#X connect 85 0 79 0;
#X connect 87 0 86 0;
#X connect 88 0 91 0;
#X connect 89 0 90 0;
#X connect 90 0 91 0;
#X connect 90 1 91 1;
#X connect 91 0 87 0;
#X connect 94 0 101 0;
#X connect 95 0 96 0;
#X connect 96 0 101 0;
#X connect 96 1 101 1;
#X connect 98 0 99 0;
#X connect 99 0 97 0;
#X connect 99 1 104 0;
#X connect 101 0 102 0;
#X connect 102 0 93 0;
#X connect 102 1 105 0;
#X connect 102 2 106 0;
#X connect 115 0 119 0;
#X connect 118 0 113 0;
#X connect 119 0 116 0;
#X connect 119 1 121 0;
#X connect 120 0 119 1;
#X connect 122 0 118 0;
#X connect 123 0 118 1;
#X connect 124 0 449 0;
#X connect 125 0 449 1;
#X connect 126 0 133 0;
#X connect 129 0 134 0;
#X connect 133 0 127 0;
#X connect 134 0 130 0;
#X connect 141 0 135 0;
#X connect 142 0 135 2;
#X connect 143 0 135 1;
#X connect 146 0 147 0;
#X connect 147 0 148 1;
#X connect 147 1 149 1;
#X connect 153 0 150 1;
#X connect 154 0 150 2;
#X connect 155 0 151 1;
#X connect 156 0 151 2;
#X connect 157 0 152 1;
#X connect 158 0 152 2;
#X connect 159 0 161 1;
#X connect 160 0 161 2;
#X connect 164 0 166 0;
#X connect 165 0 164 0;
#X connect 166 0 163 0;
#X connect 167 0 163 1;
#X connect 168 0 163 2;
#X connect 171 0 173 0;
#X connect 172 0 171 0;
#X connect 173 0 180 0;
#X connect 174 0 180 2;
#X connect 176 0 177 0;
#X connect 177 0 178 0;
#X connect 178 0 179 0;
#X connect 179 0 180 1;
#X connect 182 0 184 0;
#X connect 182 0 185 1;
#X connect 183 0 182 0;
#X connect 184 0 185 0;
#X connect 186 0 188 0;
#X connect 186 0 189 1;
#X connect 187 0 186 0;
#X connect 188 0 189 0;
#X connect 190 0 192 0;
#X connect 190 0 197 1;
#X connect 191 0 190 0;
#X connect 192 0 197 0;
#X connect 193 0 195 0;
#X connect 193 0 196 1;
#X connect 194 0 193 0;
#X connect 195 0 196 0;
#X connect 198 0 199 0;
#X connect 199 0 200 0;
#X connect 200 0 201 0;
#X connect 201 0 196 2;
#X connect 203 0 205 0;
#X connect 203 0 206 1;
#X connect 204 0 203 0;
#X connect 205 0 206 0;
#X connect 207 0 206 2;
#X connect 209 0 211 0;
#X connect 210 0 209 0;
#X connect 211 0 212 0;
#X connect 213 0 214 0;
#X connect 214 0 215 0;
#X connect 215 0 216 0;
#X connect 216 0 212 1;
#X connect 223 0 219 3;
#X connect 224 0 219 2;
#X connect 225 0 219 1;
#X connect 228 0 230 1;
#X connect 229 0 230 2;
#X connect 230 0 245 1;
#X connect 231 0 232 0;
#X connect 232 0 230 0;
#X connect 233 0 231 0;
#X connect 233 0 234 0;
#X connect 234 0 232 1;
#X connect 236 0 230 3;
#X connect 238 0 246 1;
#X connect 239 0 246 2;
#X connect 240 0 241 0;
#X connect 241 0 246 0;
#X connect 242 0 240 0;
#X connect 242 0 243 0;
#X connect 243 0 241 1;
#X connect 244 0 246 3;
#X connect 246 0 254 1;
#X connect 250 0 246 4;
#X connect 251 0 246 5;
#X connect 257 0 288 1;
#X connect 258 0 288 2;
#X connect 259 0 288 0;
#X connect 260 0 289 2;
#X connect 261 0 289 3;
#X connect 262 0 289 0;
#X connect 267 0 272 1;
#X connect 268 0 272 2;
#X connect 269 0 272 0;
#X connect 270 0 272 3;
#X connect 271 0 272 4;
#X connect 272 0 276 1;
#X connect 273 0 276 2;
#X connect 274 0 276 3;
#X connect 275 0 276 0;
#X connect 276 0 284 1;
#X connect 288 0 289 1;
#X connect 289 0 265 1;
#X connect 290 0 292 0;
#X connect 290 1 293 0;
#X connect 291 0 290 1;
#X connect 367 0 368 0;
#X connect 368 0 369 0;
#X connect 369 0 345 1;
#X connect 370 0 346 1;
#X connect 371 0 372 0;
#X connect 372 0 373 0;
#X connect 373 0 349 1;
#X connect 374 0 350 1;
#X connect 381 0 386 0;
#X connect 383 0 381 1;
#X connect 384 0 381 2;
#X connect 385 0 381 0;
#X connect 387 0 394 0;
#X connect 389 0 394 2;
#X connect 390 0 394 1;
#X connect 391 0 393 0;
#X connect 393 0 392 0;
#X connect 394 0 388 0;
#X connect 407 0 395 1;
#X connect 408 0 396 1;
#X connect 409 0 410 0;
#X connect 410 0 411 0;
#X connect 411 0 413 1;
#X connect 415 0 416 0;
#X connect 416 0 417 0;
#X connect 417 0 413 2;
#X connect 419 0 726 1;
#X connect 421 0 726 2;
#X connect 423 0 424 0;
#X connect 424 0 425 0;
#X connect 425 0 455 1;
#X connect 427 0 428 0;
#X connect 428 0 429 0;
#X connect 429 0 455 2;
#X connect 431 0 725 1;
#X connect 433 0 725 2;
#X connect 436 0 437 0;
#X connect 437 0 438 0;
#X connect 438 0 456 1;
#X connect 439 0 440 0;
#X connect 440 0 441 0;
#X connect 441 0 456 2;
#X connect 443 0 457 1;
#X connect 445 0 457 2;
#X connect 449 0 114 0;
#X connect 453 0 111 0;
#X connect 453 1 117 0;
#X connect 454 0 453 0;
#X connect 474 0 475 0;
#X connect 475 0 476 0;
#X connect 476 0 480 1;
#X connect 477 0 478 0;
#X connect 478 0 479 0;
#X connect 479 0 480 2;
#X connect 483 0 480 3;
#X connect 485 0 486 0;
#X connect 486 0 487 0;
#X connect 487 0 480 0;
#X connect 489 0 482 1;
#X connect 490 0 489 0;
#X connect 491 0 489 2;
#X connect 492 0 489 1;
#X connect 493 0 482 2;
#X connect 511 0 515 0;
#X connect 512 0 515 1;
#X connect 513 0 515 2;
#X connect 514 0 515 3;
#X connect 515 0 508 1;
#X connect 520 0 524 0;
#X connect 521 0 524 1;
#X connect 522 0 524 2;
#X connect 523 0 524 3;
#X connect 524 0 509 1;
#X connect 536 0 549 0;
#X connect 537 0 549 1;
#X connect 538 0 549 2;
#X connect 542 0 550 0;
#X connect 543 0 550 1;
#X connect 544 0 550 2;
#X connect 549 0 548 1;
#X connect 550 0 551 1;
#X connect 568 0 572 0;
#X connect 569 0 572 1;
#X connect 570 0 572 2;
#X connect 571 0 572 3;
#X connect 572 0 566 1;
#X connect 576 0 566 2;
#X connect 579 0 583 0;
#X connect 580 0 583 1;
#X connect 581 0 583 2;
#X connect 582 0 583 3;
#X connect 583 0 590 1;
#X connect 587 0 590 2;
#X connect 604 0 608 0;
#X connect 605 0 608 1;
#X connect 606 0 608 2;
#X connect 607 0 608 3;
#X connect 608 0 628 1;
#X connect 612 0 628 2;
#X connect 615 0 619 0;
#X connect 616 0 619 1;
#X connect 617 0 619 2;
#X connect 618 0 619 3;
#X connect 619 0 629 1;
#X connect 623 0 629 2;
#X connect 631 0 632 0;
#X connect 632 0 633 0;
#X connect 633 0 643 1;
#X connect 634 0 635 0;
#X connect 635 0 636 0;
#X connect 636 0 643 2;
#X connect 637 0 644 1;
#X connect 638 0 637 0;
#X connect 639 0 637 2;
#X connect 640 0 637 1;
#X connect 646 0 644 2;
#X connect 654 0 655 0;
#X connect 655 0 656 0;
#X connect 656 0 665 1;
#X connect 657 0 658 0;
#X connect 658 0 659 0;
#X connect 659 0 665 2;
#X connect 667 0 669 0;
#X connect 668 0 669 1;
#X connect 669 0 666 1;
#X connect 670 0 669 2;
#X connect 674 0 675 0;
#X connect 675 0 676 0;
#X connect 676 0 665 3;
#X connect 688 0 689 0;
#X connect 689 0 690 0;
#X connect 690 0 709 1;
#X connect 691 0 692 0;
#X connect 692 0 693 0;
#X connect 693 0 709 2;
#X connect 696 0 716 0;
#X connect 697 0 716 1;
#X connect 698 0 716 2;
#X connect 701 0 702 0;
#X connect 702 0 703 0;
#X connect 703 0 709 3;
#X connect 711 0 712 0;
#X connect 712 0 713 0;
#X connect 713 0 709 4;
#X connect 716 0 721 1;
#X connect 717 0 716 3;
