#N canvas 197 305 423 413 10;
#X obj 62 58 inlet~;
#X text 70 41 audio;
#X obj 63 347 outlet~;
#X text 243 105 Freq;
#X text 243 123 Del;
#X obj 138 59 inlet;
#X text 243 140 Feedback?;
#X obj 170 163 flanger/p \$1_flngparams;
#X obj 138 199 unpack f f f;
#X obj 63 309 flanger/flanger_init~;
#X obj 116 240 pack f 50;
#X obj 116 262 vline~;
#X obj 196 240 pack f 50;
#X obj 196 262 vline~;
#X obj 276 240 pack f 50;
#X obj 276 262 vline~;
#X obj 242 61 loadbang;
#X msg 242 87 4 10 0.2;
#X obj 138 132 t l l;
#X connect 0 0 9 0;
#X connect 5 0 18 0;
#X connect 7 0 8 0;
#X connect 8 0 10 0;
#X connect 8 1 12 0;
#X connect 8 2 14 0;
#X connect 9 0 2 0;
#X connect 10 0 11 0;
#X connect 11 0 9 1;
#X connect 12 0 13 0;
#X connect 13 0 9 2;
#X connect 14 0 15 0;
#X connect 15 0 9 3;
#X connect 16 0 17 0;
#X connect 17 0 18 0;
#X connect 18 0 8 0;
#X connect 18 1 7 0;
