#N canvas 763 245 491 458 10;
#X obj 52 52 cnv 15 166 36 empty empty empty 20 12 0 14 -111585 -66577
0;
#X obj 55 55 cnv 15 160 30 empty empty empty 20 12 0 14 -262144 -66577
0;
#X floatatom 92 58 5 0 20 0 - - -, f 5;
#X floatatom 133 58 5 0 10 0 - - -, f 5;
#X floatatom 174 58 5 0 100 0 - - -, f 5;
#X text 57 70 ----;
#X obj 67 179 inlet~;
#X obj 156 401 outlet~;
#X text 172 382 amp;
#X obj 92 27 unpack f f f;
#X obj 241 187 pack f f f;
#X text 57 57 flng;
#X obj 28 110 gflanger/p \$1_gflngparams;
#X obj 66 346 gflanger/flanger_init~;
#X obj 118 277 pack f 50;
#X obj 118 299 vline~;
#X obj 198 277 pack f 50;
#X obj 198 299 vline~;
#X obj 278 277 pack f 50;
#X obj 278 299 vline~;
#X obj 278 253 * 0.01;
#X obj 295 140 t f b f;
#X obj 235 140 t f b f;
#X obj 184 140 t f f;
#X text 93 71 freq;
#X text 138 71 del;
#X text 181 71 fb;
#X obj 377 49 loadbang;
#X msg 377 75 4 10 20;
#X connect 2 0 23 0;
#X connect 3 0 22 0;
#X connect 4 0 21 0;
#X connect 6 0 13 0;
#X connect 9 0 2 0;
#X connect 9 1 3 0;
#X connect 9 2 4 0;
#X connect 10 0 12 0;
#X connect 12 0 9 0;
#X connect 13 0 7 0;
#X connect 14 0 15 0;
#X connect 15 0 13 1;
#X connect 16 0 17 0;
#X connect 17 0 13 2;
#X connect 18 0 19 0;
#X connect 19 0 13 3;
#X connect 20 0 18 0;
#X connect 21 0 20 0;
#X connect 21 1 10 0;
#X connect 21 2 10 2;
#X connect 22 0 16 0;
#X connect 22 1 10 0;
#X connect 22 2 10 1;
#X connect 23 0 14 0;
#X connect 23 1 10 0;
#X connect 27 0 28 0;
#X connect 28 0 9 0;
#X coords 0 -1 1 1 170 40 2 50 50;
