#N canvas 134 235 555 533 10;
#X obj 70 55 inlet~;
#X obj 154 56 inlet;
#X text 267 221 attack time;
#X obj 71 89 env~ 256;
#X obj 71 156 >=;
#X obj 89 131 max 0;
#X obj 154 88 unpack f f f f;
#X text 267 204 threshold;
#X obj 71 437 outlet~;
#X text 267 237 hold time;
#X obj 147 245 del;
#X obj 71 405 vline~;
#X obj 71 185 select 0;
#X text 268 254 release time;
#X obj 71 320 spigot;
#X obj 147 267 f 1;
#X obj 180 265 f 0;
#X obj 71 358 pack 0 30;
#X obj 149 358 pack 1 30;
#X obj 124 211 t b b b;
#X obj 209 156 max 0;
#X obj 266 156 max 0;
#X obj 313 156 max 0;
#X obj 299 395 cnv 15 210 40 empty empty empty 20 12 0 14 -204786 -66577
0;
#X obj 304 400 cnv 15 200 30 empty empty empty 20 12 0 14 -262144 -66577
0;
#X floatatom 342 403 5 0 100 0 - - -, f 5;
#X floatatom 383 403 5 0 100 0 - - -, f 5;
#X floatatom 424 403 5 0 100 0 - - -, f 5;
#X floatatom 465 403 5 0 100 0 - - -, f 5;
#X text 426 416 hold;
#X text 468 416 rls;
#X text 305 402 gate;
#X text 305 415 ----;
#X text 340 416 thrsh;
#X text 381 416 attck;
#X connect 0 0 3 0;
#X connect 1 0 6 0;
#X connect 3 0 4 0;
#X connect 4 0 12 0;
#X connect 5 0 4 1;
#X connect 6 0 5 0;
#X connect 6 1 20 0;
#X connect 6 2 21 0;
#X connect 6 3 22 0;
#X connect 10 0 15 0;
#X connect 11 0 8 0;
#X connect 12 0 14 0;
#X connect 12 1 19 0;
#X connect 14 0 17 0;
#X connect 15 0 14 1;
#X connect 16 0 14 1;
#X connect 17 0 11 0;
#X connect 18 0 11 0;
#X connect 19 0 18 0;
#X connect 19 1 10 0;
#X connect 19 2 16 0;
#X connect 20 0 18 1;
#X connect 21 0 10 1;
#X connect 22 0 17 1;
