#N canvas 0 159 795 544 10;
#X obj 157 223 +~;
#X obj 218 223 -~;
#X obj 366 226 -~;
#X obj 156 273 +~;
#X obj 218 274 +~;
#X obj 279 271 -~;
#X obj 349 272 -~;
#X obj 296 223 +~;
#X obj 363 334 *~;
#X obj 446 336 *~;
#X obj 524 336 *~;
#X obj 600 334 *~;
#X obj 24 440 outlet~;
#X obj 99 441 outlet~;
#X text 325 410 Longer times more high freq cutoff;
#X obj 23 146 +~;
#X obj 98 146 +~;
#X obj 24 77 inlet~;
#X obj 98 77 inlet~;
#X obj 363 363 lop~ 7000;
#X obj 600 359 lop~ 4000;
#X obj 523 361 lop~ 5000;
#X obj 444 360 lop~ 6000;
#X obj 543 100 inlet~;
#X obj 219 94 delread~ \$1_tail1 120;
#X obj 265 117 delread~ \$1_tail2 170;
#X obj 296 142 delread~ \$1_tail3 250;
#X obj 336 165 delread~ \$1_tail4 400;
#X obj 364 491 delwrite~ \$1_tail1 150;
#X obj 445 459 delwrite~ \$1_tail2 200;
#X obj 524 427 delwrite~ \$1_tail3 300;
#X obj 600 395 delwrite~ \$1_tail4 450;
#X connect 0 0 5 0;
#X connect 0 0 3 0;
#X connect 1 0 6 0;
#X connect 1 0 4 0;
#X connect 2 0 6 1;
#X connect 2 0 4 1;
#X connect 3 0 8 0;
#X connect 4 0 9 0;
#X connect 5 0 10 0;
#X connect 6 0 11 0;
#X connect 7 0 5 1;
#X connect 7 0 3 1;
#X connect 8 0 19 0;
#X connect 9 0 22 0;
#X connect 10 0 21 0;
#X connect 11 0 20 0;
#X connect 15 0 12 0;
#X connect 15 0 0 0;
#X connect 15 0 1 0;
#X connect 16 0 13 0;
#X connect 16 0 0 1;
#X connect 16 0 1 1;
#X connect 17 0 15 0;
#X connect 18 0 16 0;
#X connect 19 0 28 0;
#X connect 20 0 31 0;
#X connect 21 0 30 0;
#X connect 22 0 29 0;
#X connect 23 0 8 1;
#X connect 23 0 9 1;
#X connect 23 0 10 1;
#X connect 23 0 11 1;
#X connect 24 0 15 1;
#X connect 25 0 16 1;
#X connect 26 0 7 0;
#X connect 26 0 2 0;
#X connect 27 0 7 1;
#X connect 27 0 2 1;
