#N canvas 168 357 459 408 10;
#X obj 146 235 symbol;
#X obj 102 172 symbol;
#X obj 102 202 t s s;
#X msg 102 146 presets/preset_\$1.txt;
#X obj 86 308 outlet;
#X obj 101 102 cnv 15 174 17 empty empty empty 20 12 0 14 -233017 -66577
0;
#X obj 102 103 hradio 15 1 0 10 empty empty empty 0 -8 0 10 -262144
-1 -1 0;
#X obj 259 103 bng 15 250 50 0 empty empty empty 17 7 0 10 -262144
-1 -1;
#X obj 86 278 saver;
#X text 222 214 how to use:;
#X text 240 232 similar to max-object.;
#X text 240 246 select option to load.;
#X text 240 260 press button to save.;
#X text 222 283 note:;
#X text 236 316 directory / folder;
#X text 235 300 only one saver / preset per;
#X connect 0 0 8 0;
#X connect 1 0 2 0;
#X connect 2 0 8 1;
#X connect 2 1 0 1;
#X connect 3 0 1 0;
#X connect 6 0 3 0;
#X connect 7 0 0 0;
#X connect 8 0 4 0;
#X coords 0 -1 1 1 176 21 2 100 100;
