#N canvas 303 222 520 397 10;
#X obj 57 53 inlet~;
#X obj 61 368 outlet~;
#X obj 190 53 inlet~;
#X obj 134 99 sig~ 2;
#X obj 133 134 pow~;
#X obj 134 159 *~ 0.5;
#X text 26 26 --Change Bit--;
#X text 220 198 Change Bit;
#X text 235 214 Change the bit depth;
#X text 236 228 without bit twiddling.;
#X text 236 243 Allows for funky settings;
#X text 236 258 like 12.7 bit-depth.;
#X obj 58 164 +~ 1;
#X obj 59 189 *~;
#X obj 78 218 wrap~;
#X obj 60 246 -~;
#X obj 61 279 -~;
#X obj 61 328 /~;
#X obj 190 99 clip~ 1 32;
#X text 237 273 Ranges from 1 - 32;
#X text 268 100 <--between 1 and 32 bit;
#X text 68 74 Signal;
#X text 200 74 BitDepth;
#X connect 0 0 12 0;
#X connect 2 0 18 0;
#X connect 3 0 4 0;
#X connect 4 0 5 0;
#X connect 5 0 13 1;
#X connect 5 0 16 1;
#X connect 5 0 17 1;
#X connect 12 0 13 0;
#X connect 13 0 15 0;
#X connect 13 0 14 0;
#X connect 14 0 15 1;
#X connect 15 0 16 0;
#X connect 16 0 17 0;
#X connect 17 0 1 0;
#X connect 18 0 4 1;
