#N canvas 164 286 510 416 10;
#X obj 57 53 inlet~;
#X obj 58 358 outlet~;
#X text 26 26 --Change Bit--;
#X obj 315 66 loadbang;
#X obj 315 110 select 0;
#X obj 368 131 f \$2;
#X obj 57 309 changebit/changebit_init~;
#X obj 229 55 inlet;
#X obj 229 283 vline~;
#X obj 315 132 f 32;
#X obj 269 195 changebit/p \$1_cbit;
#X obj 229 249 pack f 50;
#X obj 315 88 f \$2;
#X obj 315 160 t f;
#X obj 229 161 t f f;
#X text 68 74 Signal;
#X text 235 74 BitDepth;
#X connect 0 0 6 0;
#X connect 3 0 12 0;
#X connect 4 0 9 0;
#X connect 4 1 5 0;
#X connect 5 0 13 0;
#X connect 6 0 1 0;
#X connect 7 0 14 0;
#X connect 8 0 6 1;
#X connect 9 0 13 0;
#X connect 10 0 11 0;
#X connect 11 0 8 0;
#X connect 12 0 4 0;
#X connect 13 0 14 0;
#X connect 14 0 11 0;
#X connect 14 1 10 0;
