#N canvas 209 422 551 346 10;
#X obj 52 52 cnv 15 82 36 empty empty empty 20 12 0 14 -168861 -66577
0;
#X obj 55 55 cnv 15 76 30 empty empty empty 20 12 0 14 -262144 -66577
0;
#X floatatom 91 58 5 1 32 0 - - -, f 5;
#X text 55 69 ----;
#X text 58 56 bit;
#X text 93 71 num;
#X obj 170 54 inlet~;
#X obj 171 299 outlet~;
#X obj 422 52 loadbang;
#X obj 422 96 select 0;
#X obj 475 117 f \$2;
#X obj 170 250 changebit/changebit_init~;
#X obj 342 202 pack f 50;
#X obj 342 226 vline~;
#X obj 422 118 f 32;
#X obj 283 158 t f f;
#X obj 283 136 clip 1 32;
#X obj 264 101 changebit/p \$1_gcbit;
#X obj 422 74 f \$2;
#X obj 422 146 t f;
#X connect 2 0 16 0;
#X connect 6 0 11 0;
#X connect 8 0 18 0;
#X connect 9 0 14 0;
#X connect 9 1 10 0;
#X connect 10 0 19 0;
#X connect 11 0 7 0;
#X connect 12 0 13 0;
#X connect 13 0 11 1;
#X connect 14 0 19 0;
#X connect 15 0 12 0;
#X connect 15 1 17 0;
#X connect 16 0 15 0;
#X connect 17 0 2 0;
#X connect 18 0 9 0;
#X connect 19 0 2 0;
#X coords 0 -1 1 1 86 40 2 50 50;
