#N canvas 654 337 600 339 10;
#X obj 70 55 inlet~;
#X obj 191 56 inlet;
#X text 265 193 attack time;
#X text 265 176 threshold;
#X obj 71 257 outlet~;
#X text 265 209 hold time;
#X text 265 225 release time;
#X obj 89 202 gate/gate_init~;
#X obj 71 227 *~;
#X obj 235 125 gate/p \$1_gateparams;
#X text 247 159 -pack f f f f-;
#X obj 187 257 outlet~;
#X text 190 239 amp;
#X obj 407 67 loadbang;
#X msg 407 97 50 30 100 200;
#X obj 191 90 t l l;
#X connect 0 0 7 0;
#X connect 0 0 8 0;
#X connect 1 0 15 0;
#X connect 7 0 8 1;
#X connect 7 0 11 0;
#X connect 8 0 4 0;
#X connect 9 0 7 1;
#X connect 13 0 14 0;
#X connect 14 0 15 0;
#X connect 15 0 7 1;
#X connect 15 1 9 0;
