#N canvas 125 261 466 488 10;
#X obj 70 55 inlet~;
#X obj 154 56 inlet;
#X text 290 88 attack time;
#X obj 71 89 env~ 256;
#X obj 71 156 >=;
#X obj 89 131 max 0;
#X obj 154 88 unpack f f f f;
#X text 290 71 threshold;
#X obj 71 437 outlet~;
#X text 290 104 hold time;
#X obj 147 245 del;
#X obj 71 405 vline~;
#X obj 71 185 select 0;
#X text 291 121 release time;
#X obj 71 320 spigot;
#X obj 147 267 f 1;
#X obj 180 265 f 0;
#X obj 71 358 pack 0 30;
#X obj 149 358 pack 1 30;
#X obj 124 211 t b b b;
#X obj 209 156 max 0;
#X obj 266 156 max 0;
#X obj 313 156 max 0;
#X connect 0 0 3 0;
#X connect 1 0 6 0;
#X connect 3 0 4 0;
#X connect 4 0 12 0;
#X connect 5 0 4 1;
#X connect 6 0 5 0;
#X connect 6 1 20 0;
#X connect 6 2 21 0;
#X connect 6 3 22 0;
#X connect 10 0 15 0;
#X connect 11 0 8 0;
#X connect 12 0 14 0;
#X connect 12 1 19 0;
#X connect 14 0 17 0;
#X connect 15 0 14 1;
#X connect 16 0 14 1;
#X connect 17 0 11 0;
#X connect 18 0 11 0;
#X connect 19 0 18 0;
#X connect 19 1 10 0;
#X connect 19 2 16 0;
#X connect 20 0 18 1;
#X connect 21 0 10 1;
#X connect 22 0 17 1;
