#N canvas 413 363 587 393 10;
#X obj 52 52 cnv 15 206 36 empty empty empty 20 12 0 14 -204786 -66577
0;
#X obj 55 55 cnv 15 200 30 empty empty empty 20 12 0 14 -262144 -66577
0;
#X floatatom 91 58 5 0 100 0 - - -, f 5;
#X floatatom 132 58 5 0 100 0 - - -, f 5;
#X floatatom 173 58 5 0 500 0 - - -, f 5;
#X floatatom 214 58 5 0 100 0 - - -, f 5;
#X text 175 71 hold;
#X text 217 71 rls;
#X text 57 57 gate;
#X text 57 70 ----;
#X text 131 71 attck;
#X obj 96 186 inlet~;
#X text 308 232 attack time;
#X text 308 215 threshold;
#X obj 97 328 outlet~;
#X text 308 248 hold time;
#X text 308 264 release time;
#X obj 97 298 *~;
#X text 290 198 -pack f f f f-;
#X obj 115 273 ggate/gate_init~;
#X obj 224 152 pack f f f f;
#X obj 108 26 unpack f f f f;
#X obj 317 106 t b f;
#X obj 267 106 t b f;
#X obj 217 105 t b f;
#X obj 205 328 outlet~;
#X text 221 309 amp;
#X text 99 71 dB;
#X obj 24 126 ggate/p \$1_ggateparams;
#X obj 408 50 loadbang;
#X msg 408 80 50 30 100 200;
#X obj 192 184 t l l;
#X connect 2 0 20 0;
#X connect 3 0 24 0;
#X connect 4 0 23 0;
#X connect 5 0 22 0;
#X connect 11 0 17 0;
#X connect 11 0 19 0;
#X connect 17 0 14 0;
#X connect 19 0 17 1;
#X connect 19 0 25 0;
#X connect 20 0 31 0;
#X connect 21 0 2 0;
#X connect 21 1 3 0;
#X connect 21 2 4 0;
#X connect 21 3 5 0;
#X connect 22 0 20 0;
#X connect 22 1 20 3;
#X connect 23 0 20 0;
#X connect 23 1 20 2;
#X connect 24 0 20 0;
#X connect 24 1 20 1;
#X connect 28 0 21 0;
#X connect 29 0 30 0;
#X connect 30 0 21 0;
#X connect 31 0 19 1;
#X connect 31 1 28 0;
#X coords 0 -1 1 1 210 40 2 50 50;
