#N canvas 43 275 666 493 10;
#X text 99 51 sample #;
#X obj 193 71 inlet~;
#X obj 104 156 max~ 0;
#X obj 175 232 -~;
#X obj 105 220 min~;
#X obj 175 254 +~;
#X obj 175 298 min~;
#X obj 175 344 -~ 1;
#X obj 175 276 max~ 0;
#X obj 105 412 *~;
#X obj 106 444 outlet~;
#X text 423 52 window close time;
#X obj 175 366 *~ -1;
#X obj 473 170 samphold~;
#X obj 331 167 samphold~;
#X obj 331 70 inlet~;
#X obj 474 70 inlet~;
#X obj 105 242 /~;
#X obj 175 321 /~;
#X text 295 52 window open time;
#X obj 104 71 inlet~;
#X obj 330 103 tapeenv/time2samp~;
#X obj 474 103 tapeenv/time2samp~;
#X text 180 50 env length;
#X obj 193 138 tapeenv/time2samp~;
#X connect 1 0 24 0;
#X connect 2 0 4 0;
#X connect 2 0 3 0;
#X connect 3 0 5 0;
#X connect 4 0 17 0;
#X connect 5 0 8 0;
#X connect 6 0 18 0;
#X connect 7 0 12 0;
#X connect 8 0 6 0;
#X connect 9 0 10 0;
#X connect 12 0 9 1;
#X connect 13 0 6 1;
#X connect 13 0 18 1;
#X connect 13 0 5 1;
#X connect 14 0 4 1;
#X connect 14 0 17 1;
#X connect 15 0 21 0;
#X connect 16 0 22 0;
#X connect 17 0 9 0;
#X connect 18 0 7 0;
#X connect 20 0 2 0;
#X connect 20 0 14 1;
#X connect 20 0 13 1;
#X connect 21 0 14 0;
#X connect 22 0 13 0;
#X connect 24 0 3 1;
