#N canvas 42 120 858 648 10;
#X obj 81 42 inlet~;
#X obj 296 41 inlet~;
#X obj 180 38 inlet~;
#X obj 669 40 inlet~;
#X obj 377 41 inlet~;
#X obj 82 233 max~ 0;
#X obj 165 307 -~;
#X obj 82 255 min~;
#X obj 166 358 min~;
#X obj 166 406 -~ 1;
#X obj 166 336 max~ 0;
#X obj 166 428 *~ -1;
#X obj 82 277 /~;
#X obj 166 381 /~;
#X obj 81 577 *~;
#X obj 342 363 -~;
#X obj 343 422 min~;
#X obj 343 468 -~ 1;
#X obj 343 400 max~ 0;
#X obj 343 490 *~ -1;
#X obj 343 445 /~;
#X text 157 23 Attack time;
#X text 374 24 decay time;
#X text 57 210 Ramps to 1;
#X obj 378 181 samphold~;
#X obj 182 182 samphold~;
#X obj 668 176 samphold~;
#X obj 359 313 +~;
#X obj 377 66 tapeadsr/time2samp~;
#X obj 181 69 tapeadsr/time2samp~;
#X obj 669 65 tapeadsr/time2samp~;
#X obj 165 455 *~;
#X obj 231 406 *~ -1;
#X obj 231 430 +~ 1;
#X obj 165 495 +~;
#X obj 164 535 *~;
#X obj 524 40 inlet~;
#X obj 525 181 samphold~;
#X obj 359 338 +~;
#X obj 524 65 tapeadsr/time2samp~;
#X obj 295 181 samphold~;
#X obj 80 605 outlet~;
#X text 509 18 sustain time;
#X text 274 23 decay Level;
#X text 651 20 release time;
#X obj 295 157 clip~ 0 1;
#X connect 0 0 5 0;
#X connect 0 0 6 0;
#X connect 0 0 15 0;
#X connect 0 0 25 1;
#X connect 0 0 40 1;
#X connect 0 0 24 1;
#X connect 0 0 37 1;
#X connect 0 0 26 1;
#X connect 1 0 45 0;
#X connect 2 0 29 0;
#X connect 3 0 30 0;
#X connect 4 0 28 0;
#X connect 5 0 7 0;
#X connect 6 0 10 0;
#X connect 7 0 12 0;
#X connect 8 0 13 0;
#X connect 9 0 11 0;
#X connect 10 0 8 0;
#X connect 11 0 31 0;
#X connect 12 0 14 0;
#X connect 13 0 9 0;
#X connect 14 0 41 0;
#X connect 15 0 18 0;
#X connect 16 0 20 0;
#X connect 17 0 19 0;
#X connect 18 0 16 0;
#X connect 19 0 35 1;
#X connect 20 0 17 0;
#X connect 24 0 8 1;
#X connect 24 0 13 1;
#X connect 24 0 27 1;
#X connect 25 0 7 1;
#X connect 25 0 12 1;
#X connect 25 0 6 1;
#X connect 25 0 27 0;
#X connect 26 0 16 1;
#X connect 26 0 20 1;
#X connect 27 0 38 0;
#X connect 28 0 24 0;
#X connect 29 0 25 0;
#X connect 30 0 26 0;
#X connect 31 0 34 0;
#X connect 32 0 33 0;
#X connect 33 0 31 1;
#X connect 34 0 35 0;
#X connect 35 0 14 1;
#X connect 36 0 39 0;
#X connect 37 0 38 1;
#X connect 38 0 15 1;
#X connect 39 0 37 0;
#X connect 40 0 34 1;
#X connect 40 0 32 0;
#X connect 45 0 40 0;
