#N canvas 58 325 756 443 10;
#X obj 54 58 inlet;
#X obj 175 65 inlet;
#X obj 106 310 outlet~;
#X obj 107 279 vline~;
#X text 30 37 --BangADSR--;
#X obj 266 69 inlet;
#X obj 54 106 select 0;
#X text 430 84 -multiply frequency of loop length;
#X text 453 98 by one to start phasor.;
#X text 413 58 first inlet;
#X text 413 114 second inlet;
#X text 413 174 third inlet;
#X text 383 26 BangADSR;
#X text 430 71 -takes a number as input;
#X text 432 129 -takes a packed message containing:;
#X text 382 41 (versatile ADSR);
#X text 447 143 attack speed \, decay level \, decay;
#X text 447 157 speed \, sustain time \, release speed.;
#X text 429 190 -non-zero input turns key release;
#X text 443 204 on/off.;
#X obj 321 70 inlet;
#X obj 107 137 t f b;
#X text 31 87 atk time \, dcy amp \, dcy time \, sus time \, rls time
;
#X obj 107 247 trigadsr/adsrchain;
#X obj 156 204 trigadsr/rls_rstrt \$1 \$2;
#X text 386 260 LOADBANG;
#X text 411 280 -first argument \, \$1 \, turns key;
#X text 434 296 release on or off.;
#X text 412 312 -non-zero turns key release on.;
#X text 412 329 -default is zero \, key release off.;
#X text 413 224 fourth inlet;
#X text 429 238 -non-zero input turns amp reset on/off.;
#X text 412 345 -second argument \, \$2 \, turns amp;
#X text 435 361 reset on or off.;
#X text 413 377 -non-zero turns amp reset on.;
#X text 413 394 -default is zero \, amp reset off.;
#X connect 0 0 6 0;
#X connect 1 0 23 1;
#X connect 3 0 2 0;
#X connect 5 0 24 2;
#X connect 6 0 24 0;
#X connect 6 1 21 0;
#X connect 20 0 24 3;
#X connect 21 0 23 0;
#X connect 21 1 24 1;
#X connect 23 0 3 0;
#X connect 24 0 23 2;
#X connect 24 1 23 3;
#X connect 24 2 23 4;
#X connect 24 3 23 5;
