#N canvas 224 361 797 406 10;
#X obj 59 47 inlet;
#X obj 188 49 inlet;
#X text 35 26 --BangADSR--;
#X obj 283 49 inlet;
#X obj 59 95 select 0;
#X text 466 113 -multiply frequency of loop length;
#X text 489 127 by one to start phasor.;
#X text 449 87 first inlet;
#X text 449 143 second inlet;
#X text 449 187 third inlet;
#X text 466 100 -takes a number as input;
#X text 468 158 -takes a packed message containing:;
#X text 422 267 LOADBANG;
#X text 447 287 -first argument \, \$1 \, turns key;
#X text 470 303 release on or off.;
#X text 448 319 -non-zero turns key release on.;
#X text 448 336 -default is zero \, key release off.;
#X text 419 55 BangEnv;
#X text 418 70 (versatile ENV);
#X obj 336 50 inlet;
#X obj 112 124 t f b;
#X obj 112 270 vline~;
#X obj 112 296 outlet~;
#X text 288 30 rls;
#X text 340 33 comment;
#X text 185 33 params;
#X text 114 73 atk time \, sus time \, rls time;
#X obj 178 195 trigenv/rls_rstrt \$1 \$2;
#X obj 112 243 trigenv/envchain;
#X text 475 172 envelope time \, open time \, close time.;
#X text 449 217 fourth inlet;
#X text 465 202 -non-zero input turns key release on/off.;
#X text 465 231 -non-zero input turns amp reset on/off.;
#X text 449 401 -default is zero \, key release off.;
#X text 448 352 -second argument \, \$2 \, turns amp;
#X text 471 368 reset on or off.;
#X text 449 384 -non-zero turns amp reset on.;
#X connect 0 0 4 0;
#X connect 1 0 28 1;
#X connect 3 0 27 2;
#X connect 4 0 27 0;
#X connect 4 1 20 0;
#X connect 19 0 27 3;
#X connect 20 0 28 0;
#X connect 20 1 27 1;
#X connect 21 0 22 0;
#X connect 27 0 28 2;
#X connect 27 1 28 3;
#X connect 27 2 28 4;
#X connect 27 3 28 5;
#X connect 28 0 21 0;
