#N canvas 68 252 511 473 10;
#X obj 52 55 inlet~;
#X obj 51 395 outlet~;
#X obj 51 315 chorus/chorus_init~;
#X obj 375 235 pack f 50;
#X obj 375 257 vline~;
#X obj 137 234 pack f 50;
#X obj 137 256 vline~;
#X obj 217 234 pack f 50;
#X obj 217 256 vline~;
#X obj 297 234 pack f 50;
#X obj 297 256 vline~;
#X obj 137 55 inlet;
#X obj 137 195 unpack f f f f;
#X obj 169 161 chorus/p \$1_chrsparams~;
#X text 375 141 freq;
#X text 368 190 color;
#X text 382 158 del;
#X text 368 174 depth;
#X obj 262 57 loadbang;
#X msg 262 79 5 7 0.5 0.5;
#X obj 137 129 t l l;
#X connect 0 0 2 0;
#X connect 2 0 1 0;
#X connect 3 0 4 0;
#X connect 4 0 2 4;
#X connect 5 0 6 0;
#X connect 6 0 2 1;
#X connect 7 0 8 0;
#X connect 8 0 2 2;
#X connect 9 0 10 0;
#X connect 10 0 2 3;
#X connect 11 0 20 0;
#X connect 12 0 5 0;
#X connect 12 1 7 0;
#X connect 12 2 9 0;
#X connect 12 3 3 0;
#X connect 13 0 12 0;
#X connect 18 0 19 0;
#X connect 19 0 20 0;
#X connect 20 0 12 0;
#X connect 20 1 13 0;
