#N canvas 651 264 542 504 10;
#X obj 52 52 cnv 15 206 36 empty empty empty 20 12 0 14 -259352 -66577
0;
#X obj 55 55 cnv 15 200 30 empty empty empty 20 12 0 14 -262144 -66577
0;
#X floatatom 91 58 5 0 20 0 - - -, f 5;
#X floatatom 132 58 5 0 10 0 - - -, f 5;
#X floatatom 173 58 5 0 100 0 - - -, f 5;
#X floatatom 214 58 5 0 100 0 - - -, f 5;
#X text 57 68 ----;
#X obj 55 191 inlet~;
#X obj 56 456 outlet~;
#X obj 309 208 pack f f f f;
#X obj 108 26 unpack f f f f;
#X obj 24 126 gchorus/p \$1_gchrsparams;
#X obj 56 401 gchorus/chorus_init~;
#X obj 327 329 pack f 50;
#X obj 327 351 vline~;
#X obj 89 328 pack f 50;
#X obj 89 350 vline~;
#X obj 169 328 pack f 50;
#X obj 169 350 vline~;
#X obj 249 328 pack f 50;
#X obj 249 350 vline~;
#X text 57 58 chrs;
#X obj 422 162 t f b f;
#X obj 362 162 t f b f;
#X obj 302 161 t f b f;
#X obj 252 160 t f f;
#X text 218 71 clr;
#X text 180 71 fb;
#X text 93 71 freq;
#X text 138 71 del;
#X obj 327 307 * 0.01;
#X obj 391 60 loadbang;
#X msg 391 82 5 7 50 50;
#X obj 249 305 * 0.01;
#X obj 169 305 * 0.01;
#X connect 2 0 25 0;
#X connect 3 0 24 0;
#X connect 4 0 23 0;
#X connect 5 0 22 0;
#X connect 7 0 12 0;
#X connect 9 0 11 0;
#X connect 10 0 2 0;
#X connect 10 1 3 0;
#X connect 10 2 4 0;
#X connect 10 3 5 0;
#X connect 11 0 10 0;
#X connect 12 0 8 0;
#X connect 13 0 14 0;
#X connect 14 0 12 4;
#X connect 15 0 16 0;
#X connect 16 0 12 1;
#X connect 17 0 18 0;
#X connect 18 0 12 2;
#X connect 19 0 20 0;
#X connect 20 0 12 3;
#X connect 22 0 30 0;
#X connect 22 1 9 0;
#X connect 22 2 9 3;
#X connect 23 0 33 0;
#X connect 23 1 9 0;
#X connect 23 2 9 2;
#X connect 24 0 34 0;
#X connect 24 1 9 0;
#X connect 24 2 9 1;
#X connect 25 0 15 0;
#X connect 25 1 9 0;
#X connect 30 0 13 0;
#X connect 31 0 32 0;
#X connect 32 0 10 0;
#X connect 33 0 19 0;
#X connect 34 0 17 0;
#X coords 0 -1 1 1 210 40 2 50 50;
