#N canvas 56 120 591 603 10;
#X obj 59 50 inlet;
#X obj 171 50 inlet;
#X msg 424 136 stop;
#X obj 171 243 del 1;
#X obj 234 244 *;
#X obj 216 268 f;
#X obj 171 161 t f f;
#X obj 269 265 t f f;
#X obj 302 382 del 1;
#X obj 279 344 spigot;
#X obj 334 349 +;
#X obj 112 209 f;
#X obj 59 181 t f b;
#X obj 216 314 t f b b;
#X obj 251 361 f;
#X obj 397 450 f;
#X obj 365 449 f 0;
#X obj 365 423 t b b;
#X obj 484 447 f 0;
#X obj 516 447 f 0;
#X obj 424 50 inlet;
#X text 431 34 stop;
#X obj 485 49 inlet;
#X text 478 31 release;
#X obj 59 100 t f b f b;
#X obj 484 423 t b b;
#X obj 318 52 inlet;
#X obj 366 51 inlet;
#X obj 216 529 pack f f;
#X obj 216 560 outlet;
#X obj 171 96 unpack f f f f f;
#X obj 171 140 max 0;
#X obj 415 422 max 0;
#X obj 269 241 max 0;
#X obj 352 324 max 0;
#X text 64 29 input;
#X text 126 80 params (atk time \, dec amp \, dec time \, sus time
\, rls time);
#X obj 252 218 clip 0 1;
#X text 367 32 rls;
#X text 305 34 switch;
#X text 171 33 params;
#X connect 0 0 24 0;
#X connect 1 0 30 0;
#X connect 2 0 3 0;
#X connect 2 0 8 0;
#X connect 3 0 5 0;
#X connect 4 0 5 1;
#X connect 5 0 13 0;
#X connect 6 0 11 1;
#X connect 6 1 3 1;
#X connect 7 0 14 1;
#X connect 7 1 10 0;
#X connect 8 0 17 0;
#X connect 9 0 8 0;
#X connect 10 0 8 1;
#X connect 11 0 28 1;
#X connect 12 0 28 0;
#X connect 12 1 11 0;
#X connect 13 0 28 0;
#X connect 13 1 14 0;
#X connect 13 2 9 0;
#X connect 14 0 28 1;
#X connect 15 0 28 1;
#X connect 16 0 28 0;
#X connect 17 0 16 0;
#X connect 17 1 15 0;
#X connect 18 0 28 0;
#X connect 19 0 28 1;
#X connect 20 0 2 0;
#X connect 22 0 25 0;
#X connect 24 0 12 0;
#X connect 24 1 3 0;
#X connect 24 2 4 0;
#X connect 24 3 2 0;
#X connect 25 0 18 0;
#X connect 25 1 19 0;
#X connect 26 0 9 1;
#X connect 27 0 17 0;
#X connect 28 0 29 0;
#X connect 30 0 31 0;
#X connect 30 1 37 0;
#X connect 30 2 33 0;
#X connect 30 3 34 0;
#X connect 30 4 32 0;
#X connect 31 0 6 0;
#X connect 32 0 15 1;
#X connect 33 0 7 0;
#X connect 34 0 10 1;
#X connect 37 0 4 1;
