#N canvas 65 147 608 608 10;
#X obj 59 50 inlet;
#X obj 171 50 inlet;
#X msg 424 206 stop;
#X obj 171 263 del 1;
#X obj 234 264 *;
#X obj 216 288 f;
#X obj 171 191 t f f;
#X obj 269 285 t f f;
#X obj 302 402 del 1;
#X obj 279 364 spigot;
#X obj 334 369 +;
#X obj 112 229 f;
#X obj 59 201 t f b;
#X obj 216 334 t f b b;
#X obj 251 381 f;
#X obj 397 470 f;
#X obj 365 469 f 0;
#X obj 365 443 t b b;
#X obj 484 462 f 0;
#X obj 516 462 f 0;
#X obj 171 116 unpack f f f f f;
#X obj 424 50 inlet;
#X text 431 34 stop;
#X obj 485 49 inlet;
#X text 478 31 release;
#X obj 59 140 t f b f b;
#X obj 484 438 t b b;
#X obj 318 52 inlet;
#X obj 366 51 inlet;
#X obj 216 549 pack f f;
#X obj 216 580 outlet;
#X connect 0 0 25 0;
#X connect 1 0 20 0;
#X connect 2 0 3 0;
#X connect 2 0 8 0;
#X connect 3 0 5 0;
#X connect 4 0 5 1;
#X connect 5 0 13 0;
#X connect 6 0 11 1;
#X connect 6 1 3 1;
#X connect 7 0 14 1;
#X connect 7 1 10 0;
#X connect 8 0 17 0;
#X connect 9 0 8 0;
#X connect 10 0 8 1;
#X connect 11 0 29 1;
#X connect 12 0 29 0;
#X connect 12 1 11 0;
#X connect 13 0 29 0;
#X connect 13 1 14 0;
#X connect 13 2 9 0;
#X connect 14 0 29 1;
#X connect 15 0 29 1;
#X connect 16 0 29 0;
#X connect 17 0 16 0;
#X connect 17 1 15 0;
#X connect 18 0 29 0;
#X connect 19 0 29 1;
#X connect 20 0 6 0;
#X connect 20 1 4 1;
#X connect 20 2 7 0;
#X connect 20 3 10 1;
#X connect 20 4 15 1;
#X connect 21 0 2 0;
#X connect 23 0 26 0;
#X connect 25 0 12 0;
#X connect 25 1 3 0;
#X connect 25 2 4 0;
#X connect 25 3 2 0;
#X connect 26 0 18 0;
#X connect 26 1 19 0;
#X connect 27 0 9 1;
#X connect 28 0 17 0;
#X connect 29 0 30 0;
