#N canvas 722 267 511 398 10;
#X obj 373 58 inlet;
#X obj 205 301 spigot;
#X obj 80 210 t f f f b;
#X obj 140 265 select 1;
#X obj 80 105 f \$1;
#X obj 80 132 select 0;
#X obj 133 157 t b;
#X obj 133 182 f 1;
#X obj 140 237 f 0;
#X obj 80 157 f 0;
#X obj 62 236 - 1;
#X obj 62 258 * -1;
#X obj 80 80 t b b;
#X obj 347 169 select 0;
#X obj 400 194 t b;
#X obj 347 142 f \$2;
#X obj 347 194 f 0;
#X obj 400 219 f 1;
#X obj 436 60 inlet;
#X obj 347 254 t f;
#X obj 204 324 t b b;
#X obj 61 364 outlet;
#X obj 164 363 outlet;
#X obj 308 363 outlet;
#X obj 236 364 outlet;
#X obj 80 56 loadbang;
#X obj 206 59 inlet;
#X obj 308 58 inlet;
#X text 282 86 toggle restart on/off;
#X text 221 34 toggle key release on/off;
#X obj 308 335 spigot;
#X connect 0 0 5 0;
#X connect 1 0 20 0;
#X connect 2 0 10 0;
#X connect 2 1 1 1;
#X connect 2 2 8 1;
#X connect 2 3 8 0;
#X connect 3 0 1 0;
#X connect 4 0 5 0;
#X connect 5 0 9 0;
#X connect 5 1 6 0;
#X connect 6 0 7 0;
#X connect 7 0 2 0;
#X connect 8 0 3 0;
#X connect 9 0 2 0;
#X connect 10 0 11 0;
#X connect 11 0 21 0;
#X connect 12 0 4 0;
#X connect 12 1 15 0;
#X connect 13 0 16 0;
#X connect 13 1 14 0;
#X connect 14 0 17 0;
#X connect 15 0 13 0;
#X connect 16 0 19 0;
#X connect 17 0 19 0;
#X connect 18 0 13 0;
#X connect 19 0 30 1;
#X connect 20 0 22 0;
#X connect 20 1 24 0;
#X connect 25 0 12 0;
#X connect 26 0 1 0;
#X connect 27 0 30 0;
#X connect 30 0 23 0;
