#N canvas 127 323 528 422 10;
#X obj 44 353 outlet~;
#X obj 312 45 inlet~;
#X obj 108 353 outlet~;
#X obj 168 354 outlet~;
#X obj 231 355 outlet~;
#X obj 297 355 outlet~;
#X obj 44 50 inlet~;
#X obj 45 315 *~;
#X obj 108 319 *~;
#X obj 168 320 *~;
#X obj 231 321 *~;
#X obj 296 320 *~;
#X obj 45 80 wrap~;
#X obj 46 245 +~;
#X text 201 176 from 0 to 120;
#X text 99 113 from 330(-30) to 30;
#X text 363 240 from 120 to 330;
#X text 363 276 from 250 to 0(360);
#X text 301 206 from 30 to 250;
#X obj 46 134 space~ -0.083333 0 0.083333;
#X obj 64 158 space~ 0.916667 1 1.08333;
#X obj 108 190 space~ 0 0.082222 0.305556;
#X obj 168 223 space~ 0.083333 0.305556 0.694444;
#X obj 232 258 space~ 0.305556 0.694444 0.916667;
#X obj 295 289 space~ 0.669444 0.916667 1;
#X connect 1 0 7 1;
#X connect 1 0 8 1;
#X connect 1 0 9 1;
#X connect 1 0 10 1;
#X connect 1 0 11 1;
#X connect 6 0 12 0;
#X connect 7 0 0 0;
#X connect 8 0 2 0;
#X connect 9 0 3 0;
#X connect 10 0 4 0;
#X connect 11 0 5 0;
#X connect 12 0 19 0;
#X connect 12 0 20 0;
#X connect 12 0 21 0;
#X connect 12 0 22 0;
#X connect 12 0 23 0;
#X connect 12 0 24 0;
#X connect 13 0 7 0;
#X connect 19 0 13 0;
#X connect 20 0 13 1;
#X connect 21 0 8 0;
#X connect 22 0 9 0;
#X connect 23 0 10 0;
#X connect 24 0 11 0;
