#N canvas 421 284 638 484 10;
#X obj 26 34 inlet~;
#X obj 71 544 outlet~;
#X obj 313 54 loadbang;
#X obj 325 134 t b b b;
#X obj 393 92 bng 15 250 50 0 empty empty empty 17 7 0 10 -262144 -1
-1;
#X obj 503 170 f \$2;
#X obj 325 169 f \$1;
#X obj 425 242 -;
#X obj 331 247 -;
#X floatatom 418 284 5 0 0 0 - - -, f 5;
#X floatatom 339 271 5 0 0 0 - - -, f 5;
#X obj 424 170 f \$3;
#X obj 397 331 f 1;
#X obj 397 353 /;
#X obj 325 323 f 1;
#X obj 325 345 /;
#X obj 325 297 t b f f;
#X obj 397 305 t b f f;
#X floatatom 416 385 5 0 0 0 - - -, f 5;
#X floatatom 333 384 5 0 0 0 - - -, f 5;
#X obj 496 201 t f f f;
#X obj 493 323 -;
#X floatatom 494 387 5 0 0 0 - - -, f 5;
#X obj 494 353 abs;
#X obj 42 184 clip~ 0 1;
#X obj 102 351 *~ 1;
#X obj 44 350 *~ 1;
#X obj 43 273 min~ 0;
#X obj 99 275 max~ 0;
#X obj 74 436 +~;
#X obj 73 468 cos~;
#X obj 121 399 *~ 0.250001;
#X obj 72 500 max~ 0;
#X obj 345 410 tgl 15 0 empty empty empty 17 7 0 10 -262144 -1 -1 1
1;
#X obj 345 438 metro 100;
#X obj 286 490 snapshot~;
#X floatatom 286 512 8 0 0 0 - - -, f 8;
#X obj 369 490 snapshot~;
#X floatatom 369 512 5 0 0 0 - - -, f 5;
#X obj 301 538 snapshot~;
#X floatatom 301 560 8 0 0 0 - - -, f 8;
#X obj 456 493 snapshot~;
#X floatatom 456 515 5 0 0 0 - - -, f 5;
#X floatatom 95 123 5 0 0 0 - - -, f 5;
#X obj 43 214 -~ 1;
#X obj 36 396 *~ 0.250009;
#X obj 208 545 outlet~;
#X obj 148 34 inlet~;
#X obj 41 101 -~;
#X connect 0 0 48 0;
#X connect 2 0 3 0;
#X connect 3 0 6 0;
#X connect 3 1 11 0;
#X connect 3 2 5 0;
#X connect 4 0 3 0;
#X connect 5 0 20 0;
#X connect 6 0 8 0;
#X connect 6 0 21 0;
#X connect 7 0 9 0;
#X connect 7 0 17 0;
#X connect 7 0 44 1;
#X connect 8 0 10 0;
#X connect 8 0 16 0;
#X connect 11 0 7 0;
#X connect 11 0 21 1;
#X connect 12 0 13 0;
#X connect 13 0 18 0;
#X connect 13 0 25 1;
#X connect 14 0 15 0;
#X connect 15 0 19 0;
#X connect 15 0 26 1;
#X connect 16 0 14 0;
#X connect 16 1 15 1;
#X connect 17 0 12 0;
#X connect 17 1 13 1;
#X connect 20 1 8 1;
#X connect 20 2 7 1;
#X connect 21 0 23 0;
#X connect 23 0 22 0;
#X connect 23 0 24 2;
#X connect 24 0 44 0;
#X connect 24 0 46 0;
#X connect 25 0 31 0;
#X connect 26 0 45 0;
#X connect 27 0 26 0;
#X connect 28 0 25 0;
#X connect 29 0 30 0;
#X connect 30 0 32 0;
#X connect 31 0 29 1;
#X connect 32 0 35 0;
#X connect 32 0 1 0;
#X connect 33 0 34 0;
#X connect 34 0 35 0;
#X connect 34 0 37 0;
#X connect 34 0 39 0;
#X connect 34 0 41 0;
#X connect 35 0 36 0;
#X connect 37 0 38 0;
#X connect 39 0 40 0;
#X connect 41 0 42 0;
#X connect 43 0 24 0;
#X connect 44 0 27 0;
#X connect 44 0 28 0;
#X connect 45 0 29 0;
#X connect 47 0 48 1;
#X connect 48 0 24 0;
