#N canvas 506 375 450 300 10;
#X obj 50 258 outlet~;
#X obj 50 41 inlet~;
#X obj 250 45 inlet~;
#X text 253 27 dist;
#X obj 50 227 +~;
#X obj 108 259 outlet~;
#X obj 108 228 +~;
#X obj 167 259 outlet~;
#X obj 167 228 +~;
#X obj 227 259 outlet~;
#X obj 227 228 +~;
#X obj 287 259 outlet~;
#X obj 287 228 +~;
#X obj 251 130 +~ 0.5;
#X text 36 20 radian as 0-1;
#X obj 49 153 circle5~;
#X obj 252 158 circle5~;
#X obj 251 91 pspread~;
#X obj 357 259 outlet~;
#X connect 1 0 13 0;
#X connect 1 0 15 0;
#X connect 2 0 17 0;
#X connect 4 0 0 0;
#X connect 6 0 5 0;
#X connect 8 0 7 0;
#X connect 10 0 9 0;
#X connect 12 0 11 0;
#X connect 13 0 16 0;
#X connect 15 0 4 0;
#X connect 15 1 6 0;
#X connect 15 2 8 0;
#X connect 15 3 10 0;
#X connect 15 4 12 0;
#X connect 16 0 4 1;
#X connect 16 1 6 1;
#X connect 16 2 8 1;
#X connect 16 3 10 1;
#X connect 16 4 12 1;
#X connect 17 0 15 1;
#X connect 17 1 16 1;
#X connect 17 2 18 0;
