#N canvas 14 173 479 564 10;
#X obj 96 77 inlet~;
#X obj 98 490 outlet~;
#X obj 210 489 outlet~;
#X text 88 55 distance in center;
#X obj 98 460 *~;
#X obj 210 434 *~;
#X obj 115 433 cos~;
#X obj 229 322 cos~;
#X obj 230 208 clip~ 0 1;
#X obj 230 263 *~ 0.125;
#X obj 114 406 -~ 0.125;
#X obj 211 456 max~ 0;
#X obj 230 292 +~ 0.125001;
#X obj 97 182 *~ 1;
#X obj 223 132 * -1;
#X obj 96 263 dbtorms~;
#X obj 97 293 min~ 1;
#X obj 223 79 onedb;
#X obj 223 104 t f f;
#X obj 255 156 + 100;
#X obj 96 235 +~ 1;
#X obj 310 489 outlet~;
#X connect 0 0 8 0;
#X connect 0 0 13 0;
#X connect 4 0 1 0;
#X connect 5 0 11 0;
#X connect 6 0 4 1;
#X connect 7 0 5 1;
#X connect 8 0 9 0;
#X connect 9 0 10 0;
#X connect 9 0 12 0;
#X connect 10 0 6 0;
#X connect 11 0 2 0;
#X connect 12 0 7 0;
#X connect 13 0 20 0;
#X connect 14 0 13 1;
#X connect 15 0 16 0;
#X connect 16 0 4 0;
#X connect 16 0 5 0;
#X connect 16 0 21 0;
#X connect 17 0 18 0;
#X connect 18 0 14 0;
#X connect 18 1 19 0;
#X connect 19 0 20 1;
#X connect 20 0 15 0;
