#N canvas 0 132 488 447 10;
#X obj 228 189 -;
#X obj 122 266 /;
#X obj 170 244 +;
#X obj 228 164 f;
#X obj 228 139 t b f;
#X obj 228 214 / 1;
#X obj 122 183 f;
#X obj 215 109 t f f;
#X obj 122 297 *;
#X obj 179 358 /;
#X obj 197 324 dbtorms;
#X obj 122 107 t b f f f f;
#X obj 122 324 dbtorms;
#X text 143 90 by db;
#X obj 122 52 inlet;
#X obj 215 51 inlet;
#X text 119 38 amp;
#X text 210 36 threshold;
#X obj 179 396 outlet;
#X obj 323 54 inlet;
#X text 317 38 ratio;
#X connect 0 0 5 0;
#X connect 1 0 8 0;
#X connect 2 0 1 1;
#X connect 3 0 0 0;
#X connect 4 0 3 0;
#X connect 4 1 0 1;
#X connect 5 0 2 1;
#X connect 6 0 1 0;
#X connect 7 0 6 1;
#X connect 7 1 3 1;
#X connect 8 0 12 0;
#X connect 9 0 18 0;
#X connect 10 0 9 1;
#X connect 11 0 6 0;
#X connect 11 1 2 0;
#X connect 11 2 4 0;
#X connect 11 3 8 1;
#X connect 11 4 10 0;
#X connect 12 0 9 0;
#X connect 14 0 11 0;
#X connect 15 0 7 0;
#X connect 19 0 5 1;
