#N canvas 656 210 493 422 10;
#X obj 182 250 rmscomp;
#X obj 76 251 dbcomp;
#X obj 76 63 inlet;
#X obj 173 66 inlet;
#X text 73 49 amp;
#X text 164 47 threshold;
#X obj 277 65 inlet;
#X text 271 49 ratio;
#X obj 76 90 t f f;
#X obj 173 92 t f f;
#X obj 277 93 t f f;
#X obj 350 61 inlet;
#X text 346 43 switch;
#X obj 76 326 outlet;
#X obj 76 155 channel;
#X connect 0 0 13 0;
#X connect 1 0 13 0;
#X connect 2 0 8 0;
#X connect 3 0 9 0;
#X connect 6 0 10 0;
#X connect 8 0 14 0;
#X connect 8 1 14 1;
#X connect 9 0 1 1;
#X connect 9 1 0 1;
#X connect 10 0 1 2;
#X connect 10 1 0 2;
#X connect 11 0 14 2;
#X connect 14 0 1 0;
#X connect 14 1 0 0;
