#N canvas 689 237 450 300 10;
#X obj 97 115 f 0;
#X obj 45 91 t b b;
#X obj 72 138 spigot 1;
#X obj 169 237 f 0;
#X obj 72 264 pack f f;
#X obj 72 215 t f b;
#X obj 99 238 f 1;
#X obj 72 190 + 0;
#X obj 45 60 inlet;
#X obj 129 59 inlet;
#X text 44 35 keyup;
#X text 128 34 keydown;
#X obj 72 164 f \$1;
#X obj 72 290 outlet;
#X obj 189 60 inlet;
#X text 185 34 octave;
#X obj 240 59 inlet;
#X text 236 33 pressure;
#X obj 129 88 t b b b;
#X obj 129 111 f 1;
#X connect 0 0 2 1;
#X connect 1 0 0 0;
#X connect 1 1 2 0;
#X connect 2 0 12 0;
#X connect 3 0 4 1;
#X connect 4 0 13 0;
#X connect 5 0 4 0;
#X connect 5 1 6 0;
#X connect 6 0 4 1;
#X connect 7 0 5 0;
#X connect 8 0 1 0;
#X connect 9 0 18 0;
#X connect 12 0 7 0;
#X connect 14 0 7 1;
#X connect 16 0 6 1;
#X connect 18 0 19 0;
#X connect 18 1 4 0;
#X connect 18 2 3 0;
#X connect 19 0 2 1;
