#N canvas 461 121 844 647 10;
#X obj 353 598 outlet;
#X obj 1175 174 s \$1_vel_down_tch;
#X obj 1193 148 s \$1_vel_up_tch;
#X obj 1210 123 s \$1_oct_down_tch;
#X obj 1228 96 s \$1_oct_up_tch;
#X obj 1743 158 s \$1_vel_down_rls;
#X obj 1761 134 s \$1_vel_up_rls;
#X obj 1778 109 s \$1_oct_down_rls;
#X obj 1796 83 s \$1_oct_up_rls;
#X obj 930 467 s \$1_c#_key_tch;
#X obj 948 447 s \$1_d_key_tch;
#X obj 965 427 s \$1_d#_key_tch;
#X obj 983 407 s \$1_e_key_tch;
#X obj 1000 386 s \$1_f_key_tch;
#X obj 1018 363 s \$1_f#_key_tch;
#X obj 1035 342 s \$1_g_key_tch;
#X obj 1053 320 s \$1_g#_key_tch;
#X obj 1070 300 s \$1_a_key_tch;
#X obj 1088 278 s \$1_a#_key_tch;
#X obj 1105 259 s \$1_b_key_tch;
#X obj 1123 240 s \$1_c2_key_tch;
#X obj 1140 219 s \$1_c#2_key_tch;
#X obj 1158 197 s \$1_d2_key_tch;
#X obj 1498 453 s \$1_c#_key_rls;
#X obj 1516 433 s \$1_d_key_rls;
#X obj 1533 413 s \$1_d#_key_rls;
#X obj 1551 392 s \$1_e_key_rls;
#X obj 1568 370 s \$1_f_key_rls;
#X obj 1586 348 s \$1_f#_key_rls;
#X obj 1603 326 s \$1_g_key_rls;
#X obj 1621 305 s \$1_g#_key_rls;
#X obj 1638 285 s \$1_a_key_rls;
#X obj 1656 263 s \$1_a#_key_rls;
#X obj 1673 243 s \$1_b_key_rls;
#X obj 1691 222 s \$1_c2_key_rls;
#X obj 1708 203 s \$1_c#2_key_rls;
#X obj 1726 180 s \$1_d2_key_rls;
#X obj 75 111 r \$1_octave;
#X obj 94 133 r \$1_velocity;
#X obj 37 60 r \$1_c_key_tch;
#X obj 56 85 r \$1_c_key_rls;
#X obj 227 114 r \$1_octave;
#X obj 246 136 r \$1_velocity;
#X obj 388 116 r \$1_octave;
#X obj 407 138 r \$1_velocity;
#X obj 543 118 r \$1_octave;
#X obj 562 140 r \$1_velocity;
#X obj 697 119 r \$1_octave;
#X obj 716 141 r \$1_velocity;
#X obj 77 283 r \$1_octave;
#X obj 96 305 r \$1_velocity;
#X obj 229 286 r \$1_octave;
#X obj 248 308 r \$1_velocity;
#X obj 390 288 r \$1_octave;
#X obj 409 310 r \$1_velocity;
#X obj 545 290 r \$1_octave;
#X obj 564 312 r \$1_velocity;
#X obj 699 291 r \$1_octave;
#X obj 718 313 r \$1_velocity;
#X obj 77 446 r \$1_octave;
#X obj 96 468 r \$1_velocity;
#X obj 229 449 r \$1_octave;
#X obj 248 471 r \$1_velocity;
#X obj 390 451 r \$1_octave;
#X obj 409 473 r \$1_velocity;
#X obj 545 453 r \$1_octave;
#X obj 564 475 r \$1_velocity;
#X obj 699 454 r \$1_octave;
#X obj 718 476 r \$1_velocity;
#X obj 189 63 r \$1_c#_key_tch;
#X obj 208 88 r \$1_c#_key_rls;
#X obj 350 65 r \$1_d_key_tch;
#X obj 369 90 r \$1_d_key_rls;
#X obj 505 67 r \$1_d#_key_tch;
#X obj 524 92 r \$1_d#_key_rls;
#X obj 659 68 r \$1_e_key_tch;
#X obj 678 93 r \$1_e_key_rls;
#X obj 39 232 r \$1_f_key_tch;
#X obj 58 257 r \$1_f_key_rls;
#X obj 191 235 r \$1_f#_key_tch;
#X obj 210 260 r \$1_f#_key_rls;
#X obj 352 237 r \$1_g_key_tch;
#X obj 371 262 r \$1_g_key_rls;
#X obj 507 239 r \$1_g#_key_tch;
#X obj 526 264 r \$1_g#_key_rls;
#X obj 661 240 r \$1_a_key_tch;
#X obj 680 265 r \$1_a_key_rls;
#X obj 39 395 r \$1_a#_key_tch;
#X obj 58 420 r \$1_a#_key_rls;
#X obj 191 398 r \$1_b_key_tch;
#X obj 210 423 r \$1_b_key_rls;
#X obj 352 400 r \$1_c2_key_tch;
#X obj 371 425 r \$1_c2_key_rls;
#X obj 507 402 r \$1_c#2_key_tch;
#X obj 526 427 r \$1_c#2_key_rls;
#X obj 661 403 r \$1_d2_key_tch;
#X obj 680 428 r \$1_d2_key_rls;
#X obj 37 189 s \$1_output;
#X obj 353 573 r \$1_output;
#X obj 189 192 s \$1_output;
#X obj 350 194 s \$1_output;
#X obj 505 196 s \$1_output;
#X obj 659 197 s \$1_output;
#X obj 39 361 s \$1_output;
#X obj 191 363 s \$1_output;
#X obj 352 366 s \$1_output;
#X obj 507 368 s \$1_output;
#X obj 661 369 s \$1_output;
#X obj 39 524 s \$1_output;
#X obj 191 527 s \$1_output;
#X obj 352 528 s \$1_output;
#X obj 507 531 s \$1_output;
#X obj 661 532 s \$1_output;
#X obj 37 162 key_gen 0;
#X obj 189 165 key_gen 1;
#X obj 350 167 key_gen 2;
#X obj 505 169 key_gen 3;
#X obj 659 170 key_gen 4;
#X obj 39 334 key_gen 5;
#X obj 191 337 key_gen 6;
#X obj 352 339 key_gen 7;
#X obj 507 341 key_gen 8;
#X obj 661 342 key_gen 9;
#X obj 39 497 key_gen 10;
#X obj 191 500 key_gen 11;
#X obj 352 502 key_gen 12;
#X obj 507 504 key_gen 13;
#X obj 661 505 key_gen 14;
#X connect 37 0 113 2;
#X connect 38 0 113 3;
#X connect 39 0 113 0;
#X connect 40 0 113 1;
#X connect 41 0 114 2;
#X connect 42 0 114 3;
#X connect 43 0 115 2;
#X connect 44 0 115 3;
#X connect 45 0 116 2;
#X connect 46 0 116 3;
#X connect 47 0 117 2;
#X connect 48 0 117 3;
#X connect 49 0 118 2;
#X connect 50 0 118 3;
#X connect 51 0 119 2;
#X connect 52 0 119 3;
#X connect 53 0 120 2;
#X connect 54 0 120 3;
#X connect 55 0 121 2;
#X connect 56 0 121 3;
#X connect 57 0 122 2;
#X connect 58 0 122 3;
#X connect 59 0 123 2;
#X connect 60 0 123 3;
#X connect 61 0 124 2;
#X connect 62 0 124 3;
#X connect 63 0 125 2;
#X connect 64 0 125 3;
#X connect 65 0 126 2;
#X connect 66 0 126 3;
#X connect 67 0 127 2;
#X connect 68 0 127 3;
#X connect 69 0 114 0;
#X connect 70 0 114 1;
#X connect 71 0 115 0;
#X connect 72 0 115 1;
#X connect 73 0 116 0;
#X connect 74 0 116 1;
#X connect 75 0 117 0;
#X connect 76 0 117 1;
#X connect 77 0 118 0;
#X connect 78 0 118 1;
#X connect 79 0 119 0;
#X connect 80 0 119 1;
#X connect 81 0 120 0;
#X connect 82 0 120 1;
#X connect 83 0 121 0;
#X connect 84 0 121 1;
#X connect 85 0 122 0;
#X connect 86 0 122 1;
#X connect 87 0 123 0;
#X connect 88 0 123 1;
#X connect 89 0 124 0;
#X connect 90 0 124 1;
#X connect 91 0 125 0;
#X connect 92 0 125 1;
#X connect 93 0 126 0;
#X connect 94 0 126 1;
#X connect 95 0 127 0;
#X connect 96 0 127 1;
#X connect 98 0 0 0;
#X connect 113 0 97 0;
#X connect 114 0 99 0;
#X connect 115 0 100 0;
#X connect 116 0 101 0;
#X connect 117 0 102 0;
#X connect 118 0 103 0;
#X connect 119 0 104 0;
#X connect 120 0 105 0;
#X connect 121 0 106 0;
#X connect 122 0 107 0;
#X connect 123 0 108 0;
#X connect 124 0 109 0;
#X connect 125 0 110 0;
#X connect 126 0 111 0;
#X connect 127 0 112 0;
