#N canvas 426 276 474 276 10;
#X obj 36 67 r \$1_oct_down_tch;
#X obj 53 95 r \$1_oct_up_tch;
#X obj 268 71 r \$1_vel_down_tch;
#X obj 294 97 r \$1_vel_up_tch;
#X obj 268 203 s \$1_velocity;
#X obj 36 207 s \$1_octave;
#X obj 36 146 switch 10 4;
#X obj 36 174 * 12;
#X obj 268 141 switch 11 9;
#X obj 268 173 * 0.1;
#X connect 0 0 6 0;
#X connect 1 0 6 1;
#X connect 2 0 8 0;
#X connect 3 0 8 1;
#X connect 6 0 7 0;
#X connect 7 0 5 0;
#X connect 8 0 9 0;
#X connect 9 0 4 0;
