#N canvas 174 169 1110 552 10;
#X obj 49 144 key;
#X obj 617 135 keyup;
#X obj 49 171 spigot;
#X obj 617 165 spigot;
#X obj 88 43 inlet;
#X obj 49 663 s \$1_c_key_tch;
#X obj 311 351 s \$1_vel_down_tch;
#X obj 329 325 s \$1_vel_up_tch;
#X obj 346 300 s \$1_oct_down_tch;
#X obj 364 273 s \$1_oct_up_tch;
#X obj 879 335 s \$1_vel_down_rls;
#X obj 897 311 s \$1_vel_up_rls;
#X obj 914 286 s \$1_oct_down_rls;
#X obj 932 260 s \$1_oct_up_rls;
#X obj 617 653 s \$1_c_key_rls;
#X obj 66 644 s \$1_c#_key_tch;
#X obj 84 624 s \$1_d_key_tch;
#X obj 101 604 s \$1_d#_key_tch;
#X obj 119 584 s \$1_e_key_tch;
#X obj 136 563 s \$1_f_key_tch;
#X obj 154 540 s \$1_f#_key_tch;
#X obj 171 519 s \$1_g_key_tch;
#X obj 189 497 s \$1_g#_key_tch;
#X obj 206 477 s \$1_a_key_tch;
#X obj 224 455 s \$1_a#_key_tch;
#X obj 241 436 s \$1_b_key_tch;
#X obj 259 417 s \$1_c2_key_tch;
#X obj 276 396 s \$1_c#2_key_tch;
#X obj 294 374 s \$1_d2_key_tch;
#X obj 634 630 s \$1_c#_key_rls;
#X obj 652 610 s \$1_d_key_rls;
#X obj 669 590 s \$1_d#_key_rls;
#X obj 687 569 s \$1_e_key_rls;
#X obj 704 547 s \$1_f_key_rls;
#X obj 722 525 s \$1_f#_key_rls;
#X obj 739 503 s \$1_g_key_rls;
#X obj 757 482 s \$1_g#_key_rls;
#X obj 774 462 s \$1_a_key_rls;
#X obj 792 440 s \$1_a#_key_rls;
#X obj 809 420 s \$1_b_key_rls;
#X obj 827 399 s \$1_c2_key_rls;
#X obj 844 380 s \$1_c#2_key_rls;
#X obj 862 357 s \$1_d2_key_rls;
#X obj 49 203 route 97 119 115 101 100 102 116 103 121 104 117 106
107 111 108 122 120 45 61;
#X obj 617 199 route 97 119 115 101 100 102 116 103 121 104 117 106
107 111 108 122 120 45 61;
#X connect 0 0 2 0;
#X connect 1 0 3 0;
#X connect 2 0 43 0;
#X connect 3 0 44 0;
#X connect 4 0 2 1;
#X connect 4 0 3 1;
#X connect 43 0 5 0;
#X connect 43 1 15 0;
#X connect 43 2 16 0;
#X connect 43 3 17 0;
#X connect 43 4 18 0;
#X connect 43 5 19 0;
#X connect 43 6 20 0;
#X connect 43 7 21 0;
#X connect 43 8 22 0;
#X connect 43 9 23 0;
#X connect 43 10 24 0;
#X connect 43 11 25 0;
#X connect 43 12 26 0;
#X connect 43 13 27 0;
#X connect 43 14 28 0;
#X connect 43 15 6 0;
#X connect 43 16 7 0;
#X connect 43 17 8 0;
#X connect 43 18 9 0;
#X connect 44 0 14 0;
#X connect 44 1 29 0;
#X connect 44 2 30 0;
#X connect 44 3 31 0;
#X connect 44 4 32 0;
#X connect 44 5 33 0;
#X connect 44 6 34 0;
#X connect 44 7 35 0;
#X connect 44 8 36 0;
#X connect 44 9 37 0;
#X connect 44 10 38 0;
#X connect 44 11 39 0;
#X connect 44 12 40 0;
#X connect 44 13 41 0;
#X connect 44 14 42 0;
#X connect 44 15 10 0;
#X connect 44 16 11 0;
#X connect 44 17 12 0;
#X connect 44 18 13 0;
