#N canvas 444 296 632 472 10;
#X obj 68 144 t b b;
#X obj 156 170 t b b;
#X obj 156 65 inlet;
#X obj 68 62 inlet;
#X obj 264 62 loadbang;
#X obj 129 410 outlet;
#X text 386 356 in between a range.;
#X text 372 304 left inlet decreases \,;
#X text 365 322 right inlet increases \,;
#X text 344 339 by a specified increment \,;
#X text 400 246 --- arguments ---;
#X obj 129 383 t f f;
#X text 337 287 acts like a guitar switch.;
#X text 49 35 --Switch--;
#X obj 129 351 clip 0 \$1;
#X obj 296 113 f \$1;
#X obj 296 137 - 1;
#X obj 296 164 max 0;
#X obj 100 243 f -1;
#X obj 188 242 f 1;
#X obj 68 265 f 0;
#X text 407 262 \$1 max \, \$2 start;
#X text 358 373 as in \, if [switch 5 2] \,;
#X text 435 406 starts at 2;
#X text 365 389 keys through 0 - 4 and;
#X obj 264 89 t b b;
#X obj 129 298 + \$2;
#X connect 0 0 20 0;
#X connect 0 1 18 0;
#X connect 1 0 20 0;
#X connect 1 1 19 0;
#X connect 2 0 1 0;
#X connect 3 0 0 0;
#X connect 4 0 25 0;
#X connect 11 0 5 0;
#X connect 11 1 20 1;
#X connect 14 0 11 0;
#X connect 15 0 16 0;
#X connect 16 0 17 0;
#X connect 17 0 14 2;
#X connect 18 0 26 1;
#X connect 19 0 26 1;
#X connect 20 0 26 0;
#X connect 25 0 26 0;
#X connect 25 1 15 0;
#X connect 26 0 14 0;
