#N canvas 619 290 381 340 10;
#X obj 55 36 inlet;
#X obj 132 37 inlet;
#X text 58 17 amp;
#X text 126 19 threshold;
#X text 285 20 ratio;
#X obj 285 40 inlet;
#X obj 55 70 dbtorms;
#X obj 132 71 dbtorms;
#X obj 103 177 -;
#X obj 55 253 /;
#X obj 85 228 +;
#X obj 103 152 f;
#X obj 103 127 t b f;
#X obj 103 202 / 1;
#X obj 55 97 t b f f;
#X obj 55 129 f;
#X obj 132 94 t f f;
#X obj 55 279 outlet;
#X connect 0 0 6 0;
#X connect 1 0 7 0;
#X connect 5 0 13 1;
#X connect 6 0 14 0;
#X connect 7 0 16 0;
#X connect 8 0 13 0;
#X connect 9 0 17 0;
#X connect 10 0 9 1;
#X connect 11 0 8 0;
#X connect 12 0 11 0;
#X connect 12 1 8 1;
#X connect 13 0 10 1;
#X connect 14 0 15 0;
#X connect 14 1 10 0;
#X connect 14 2 12 0;
#X connect 15 0 9 0;
#X connect 16 0 15 1;
#X connect 16 1 11 1;
