#N canvas 168 375 494 335 10;
#X obj 59 237 *~;
#X obj 59 259 outlet~;
#X obj 129 237 *~;
#X obj 129 259 outlet~;
#X obj 58 170 +~;
#X obj 237 27 inlet~;
#X obj 58 55 wrap~;
#X obj 58 29 inlet~;
#X obj 77 128 space~ 0.5 1 1.5;
#X obj 58 93 space~ -0.5 0 0.5;
#X obj 129 193 space~ 0 0.5 1;
#X connect 0 0 1 0;
#X connect 2 0 3 0;
#X connect 4 0 0 0;
#X connect 5 0 0 1;
#X connect 5 0 2 1;
#X connect 6 0 9 0;
#X connect 6 0 8 0;
#X connect 6 0 10 0;
#X connect 7 0 6 0;
#X connect 8 0 4 1;
#X connect 9 0 4 0;
#X connect 10 0 2 0;
