#N canvas 33 211 348 411 10;
#X obj 96 77 inlet~;
#X obj 96 323 outlet~;
#X text 88 55 distance in center;
#X obj 97 182 *~ 1;
#X obj 223 132 * -1;
#X obj 96 263 dbtorms~;
#X obj 97 293 min~ 1;
#X obj 223 79 onedb;
#X obj 223 104 t f f;
#X obj 255 156 + 100;
#X obj 96 235 +~ 1;
#X connect 0 0 3 0;
#X connect 3 0 10 0;
#X connect 4 0 3 1;
#X connect 5 0 6 0;
#X connect 6 0 1 0;
#X connect 7 0 8 0;
#X connect 8 0 4 0;
#X connect 8 1 9 0;
#X connect 9 0 10 1;
#X connect 10 0 5 0;
