#N canvas 41 164 668 563 10;
#X obj 210 517 +~;
#X obj 390 57 loadbang;
#X obj 161 278 *~ 2;
#X obj 315 410 +~;
#X obj 143 439 min~;
#X obj 291 443 min~;
#X obj 144 208 phasor~;
#X obj 144 324 *~;
#X obj 292 326 *~;
#X obj 161 51 inlet~;
#X obj 245 54 inlet;
#X obj 314 58 inlet;
#X text 181 38 On;
#X obj 245 107 f 1;
#X obj 145 186 *~ 0;
#X obj 314 109 f 0;
#X obj 144 154 *~ 0.5;
#X obj 210 597 outlet~;
#X obj 277 108 f 0;
#X obj 245 80 t b b;
#X obj 144 351 max~ 0;
#X obj 291 351 max~ 0;
#X obj 268 538 vline~;
#X obj 209 570 *~;
#X obj 292 291 -~ 0.5;
#X obj 143 465 tabread4~ \$1_loop;
#X obj 290 465 tabread4~ \$1_loop;
#X obj 314 81 t b;
#X obj 390 106 select 0;
#X obj 390 128 t b;
#X obj 390 177 max 0;
#X obj 390 150 f 30;
#X obj 390 82 f \$2;
#X obj 390 203 time2samp;
#X obj 144 130 samp2freq~;
#X obj 268 515 pack f 1;
#X obj 245 136 t f f;
#X obj 314 137 t f f;
#X connect 0 0 23 0;
#X connect 1 0 32 0;
#X connect 2 0 7 1;
#X connect 2 0 8 1;
#X connect 3 0 4 1;
#X connect 3 0 5 1;
#X connect 4 0 25 0;
#X connect 5 0 26 0;
#X connect 6 0 7 0;
#X connect 6 0 24 0;
#X connect 7 0 20 0;
#X connect 8 0 21 0;
#X connect 9 0 3 0;
#X connect 9 0 2 0;
#X connect 9 0 34 0;
#X connect 10 0 19 0;
#X connect 11 0 27 0;
#X connect 13 0 36 0;
#X connect 14 0 6 0;
#X connect 15 0 37 0;
#X connect 16 0 14 0;
#X connect 18 0 6 1;
#X connect 19 0 13 0;
#X connect 19 1 18 0;
#X connect 20 0 4 0;
#X connect 21 0 5 0;
#X connect 22 0 23 1;
#X connect 23 0 17 0;
#X connect 24 0 8 0;
#X connect 25 0 0 0;
#X connect 26 0 0 1;
#X connect 27 0 15 0;
#X connect 28 0 29 0;
#X connect 28 1 30 0;
#X connect 29 0 31 0;
#X connect 30 0 33 0;
#X connect 30 0 35 1;
#X connect 31 0 30 0;
#X connect 32 0 28 0;
#X connect 33 0 3 1;
#X connect 34 0 16 0;
#X connect 35 0 22 0;
#X connect 36 0 14 1;
#X connect 36 1 35 0;
#X connect 37 0 14 0;
#X connect 37 1 35 0;
