#N canvas 811 197 529 416 10;
#X obj 42 34 inlet~;
#X obj 187 44 inlet;
#X obj 259 52 inlet;
#X obj 259 77 t b b;
#X msg 187 292 start;
#X obj 259 104 f 0;
#X obj 219 101 f 1;
#X obj 42 293 *~;
#X obj 59 265 vline~;
#X obj 187 75 t b b;
#X obj 42 326 outlet~;
#X msg 291 293 stop;
#X obj 187 327 tabwrite~ \$1_loop;
#X obj 397 40 loadbang;
#X obj 397 91 select 0;
#X obj 397 113 t b;
#X obj 397 162 max 0;
#X obj 397 135 f 30;
#X obj 291 264 del 1;
#X obj 145 230 pack f 1;
#X obj 59 231 pack f 1;
#X obj 397 67 f \$2;
#X connect 0 0 7 0;
#X connect 1 0 9 0;
#X connect 2 0 3 0;
#X connect 3 0 5 0;
#X connect 3 1 18 0;
#X connect 4 0 12 0;
#X connect 5 0 19 0;
#X connect 6 0 20 0;
#X connect 7 0 10 0;
#X connect 7 0 12 0;
#X connect 8 0 7 1;
#X connect 9 0 4 0;
#X connect 9 1 6 0;
#X connect 11 0 12 0;
#X connect 13 0 21 0;
#X connect 14 0 15 0;
#X connect 14 1 16 0;
#X connect 15 0 17 0;
#X connect 16 0 18 1;
#X connect 16 0 19 1;
#X connect 16 0 20 1;
#X connect 17 0 16 0;
#X connect 18 0 11 0;
#X connect 19 0 8 0;
#X connect 20 0 8 0;
#X connect 21 0 14 0;
