#N canvas 530 142 762 626 10;
#X obj 130 505 +~;
#X obj 319 39 loadbang;
#X obj 81 266 *~ 2;
#X obj 235 398 +~;
#X obj 63 427 min~;
#X obj 211 431 min~;
#X obj 64 231 phasor~;
#X obj 64 312 *~;
#X obj 212 314 *~;
#X obj 81 39 inlet~;
#X obj 156 40 inlet;
#X obj 239 39 inlet;
#X obj 156 93 f 1;
#X obj 65 209 *~ 0;
#X obj 239 90 f 0;
#X obj 64 142 *~ 0.5;
#X obj 130 585 outlet~;
#X obj 188 94 f 0;
#X obj 156 66 t b b;
#X obj 64 339 max~ 0;
#X obj 211 339 max~ 0;
#X obj 188 526 vline~;
#X obj 129 558 *~;
#X obj 212 279 -~ 0.5;
#X obj 63 453 tabread4~ \$1_loop;
#X obj 210 453 tabread4~ \$1_loop;
#X obj 239 62 t b;
#X obj 319 88 select 0;
#X obj 319 110 t b;
#X obj 319 159 max 0;
#X obj 319 132 f 30;
#X obj 319 64 f \$2;
#X obj 253 375 time2samp;
#X obj 64 118 samp2freq~;
#X obj 188 503 pack f 1;
#X obj 156 122 t f f;
#X text 442 67 first inlet;
#X text 442 95 second inlet;
#X text 441 186 third inlet;
#X text 412 35 Auxiliary object for [Looper];
#X text 471 216 loop length.;
#X text 410 50 (records audio input);
#X text 459 80 -audio input;
#X text 457 230 -first triggering the envelope to;
#X text 471 257 the same length as envelope.;
#X text 445 282 LOADBANG;
#X text 471 243 release \, then to stop after a delay;
#X text 466 297 -declare envelope time;
#X text 466 312 -30 mS by default;
#X text 73 22 --Player--;
#X text 459 110 -starts playing the loop.;
#X text 459 126 -first resets the phasor to zero \,;
#X text 475 140 then triggers the envelop to attack \,;
#X text 475 154 finally \, sets phasor frequency to;
#X text 476 168 half of the recorded loop.;
#X text 457 202 -stops playback.;
#X obj 239 150 del 1;
#X text 370 429 CAREFUL! CHECK AND SEE IF DELAY CAUSES PROBLEMS!;
#X text 404 453 ESPECIALLY WHEN STARTING A NEW LOOP;
#X obj 238 180 f 0;
#X obj 239 118 t b f;
#X connect 0 0 22 0;
#X connect 1 0 31 0;
#X connect 2 0 7 1;
#X connect 2 0 8 1;
#X connect 3 0 4 1;
#X connect 3 0 5 1;
#X connect 4 0 24 0;
#X connect 5 0 25 0;
#X connect 6 0 7 0;
#X connect 6 0 23 0;
#X connect 7 0 19 0;
#X connect 8 0 20 0;
#X connect 9 0 3 0;
#X connect 9 0 2 0;
#X connect 9 0 33 0;
#X connect 10 0 18 0;
#X connect 11 0 26 0;
#X connect 12 0 35 0;
#X connect 13 0 6 0;
#X connect 14 0 60 0;
#X connect 15 0 13 0;
#X connect 17 0 6 1;
#X connect 18 0 12 0;
#X connect 18 1 17 0;
#X connect 19 0 4 0;
#X connect 20 0 5 0;
#X connect 21 0 22 1;
#X connect 22 0 16 0;
#X connect 23 0 8 0;
#X connect 24 0 0 0;
#X connect 25 0 0 1;
#X connect 26 0 14 0;
#X connect 27 0 28 0;
#X connect 27 1 29 0;
#X connect 28 0 30 0;
#X connect 29 0 32 0;
#X connect 29 0 34 1;
#X connect 29 0 56 1;
#X connect 30 0 29 0;
#X connect 31 0 27 0;
#X connect 32 0 3 1;
#X connect 33 0 15 0;
#X connect 34 0 21 0;
#X connect 35 0 13 1;
#X connect 35 1 34 0;
#X connect 56 0 59 0;
#X connect 59 0 13 1;
#X connect 60 0 56 0;
#X connect 60 1 34 0;
