#N canvas 159 253 723 396 10;
#X obj 85 245 phasor~;
#X obj 85 217 *;
#X obj 131 216 f 0;
#X obj 145 116 f 0;
#X obj 54 152 f 1;
#X obj 84 289 *~ 1;
#X obj 54 120 t b b;
#X obj 54 59 inlet;
#X obj 145 60 inlet;
#X obj 84 319 outlet~;
#X obj 145 91 t b;
#X obj 245 65 inlet;
#X obj 309 66 inlet;
#X text 422 155 -reset position of phasor to 0;
#X text 422 168 -multiply frequency of loop length;
#X text 445 182 by one to start phasor.;
#X text 405 142 first inlet;
#X text 405 198 second inlet;
#X text 424 213 -multiply frequency of loop length;
#X text 439 227 by zero to stop phasor;
#X text 131 292 Outputs phasor position in samples;
#X text 405 243 third inlet;
#X text 425 259 -sets the freqeucny of loop length;
#X text 406 273 fourth inlet;
#X text 426 289 -sets the number of samples in loop;
#X text 32 29 --Indexer--;
#X text 375 110 Auxiliary object for [Looper];
#X text 373 125 (controls playback position of loop);
#X connect 0 0 5 0;
#X connect 1 0 0 0;
#X connect 2 0 0 1;
#X connect 3 0 1 0;
#X connect 4 0 1 0;
#X connect 5 0 9 0;
#X connect 6 0 4 0;
#X connect 6 1 2 0;
#X connect 7 0 6 0;
#X connect 8 0 10 0;
#X connect 10 0 3 0;
#X connect 11 0 1 1;
#X connect 12 0 5 1;
