#N canvas 2 223 651 463 10;
#X obj 47 34 inlet~;
#X obj 46 467 outlet~;
#X obj 48 157 -~ 1;
#X obj 48 181 *~ -1;
#X obj 48 110 max~;
#X obj 48 132 -~;
#X obj 47 236 tabread~ \$0_onoff;
#X obj 112 72 max~ 0;
#X obj 48 211 clip~ 0 1;
#X obj 47 268 lop~;
#X obj 47 70 absolute~;
#X obj 46 439 clip~ 0 1;
#X obj 47 408 1darriver_gatemod~;
#X obj 141 182 loadbang;
#X obj 205 294 t b f;
#X obj 205 340 /;
#X obj 205 259 t f f;
#X obj 205 236 f 5;
#X obj 160 291 /;
#X obj 160 360 /;
#X obj 160 313 t b f;
#X obj 261 238 t b b b;
#X msg 339 264 resize 2;
#X obj 319 313 t b b;
#X obj 261 307 t b b;
#X obj 288 336 f 0;
#X obj 261 403 table \$0_onoff;
#X obj 261 379 tabwrite \$0_onoff;
#X obj 339 286 s \$0_onoff;
#X obj 351 336 f 1;
#X obj 261 336 f 1;
#X obj 319 335 f 0;
#X obj 242 186 dbtorms;
#X obj 141 206 t b b b b b b;
#X obj 235 209 samplerate~;
#X obj 98 363 *;
#X obj 160 335 f 1;
#X obj 98 334 f 0.1;
#X obj 242 162 f 1;
#X obj 48 317 -~ 1;
#X text 425 325 Changed the -1;
#X obj 47 291 *~ 3;
#X obj 205 318 f 1000;
#X obj 160 237 f 250;
#X connect 0 0 10 0;
#X connect 2 0 3 0;
#X connect 3 0 8 0;
#X connect 4 0 5 0;
#X connect 5 0 2 0;
#X connect 6 0 9 0;
#X connect 7 0 4 1;
#X connect 7 0 5 1;
#X connect 8 0 6 0;
#X connect 9 0 41 0;
#X connect 10 0 4 0;
#X connect 11 0 1 0;
#X connect 12 0 11 0;
#X connect 13 0 33 0;
#X connect 14 0 42 0;
#X connect 14 1 15 1;
#X connect 15 0 9 1;
#X connect 16 0 14 0;
#X connect 16 1 18 1;
#X connect 17 0 16 0;
#X connect 18 0 20 0;
#X connect 19 0 12 2;
#X connect 20 0 36 0;
#X connect 20 1 19 1;
#X connect 21 0 24 0;
#X connect 21 1 23 0;
#X connect 21 2 22 0;
#X connect 22 0 28 0;
#X connect 23 0 31 0;
#X connect 23 1 29 0;
#X connect 24 0 30 0;
#X connect 24 1 25 0;
#X connect 25 0 27 1;
#X connect 29 0 27 1;
#X connect 30 0 27 0;
#X connect 31 0 27 0;
#X connect 32 0 7 0;
#X connect 33 0 37 0;
#X connect 33 1 43 0;
#X connect 33 2 17 0;
#X connect 33 3 21 0;
#X connect 33 4 38 0;
#X connect 33 5 34 0;
#X connect 34 0 35 1;
#X connect 35 0 12 1;
#X connect 36 0 19 0;
#X connect 37 0 35 0;
#X connect 38 0 32 0;
#X connect 39 0 12 0;
#X connect 41 0 39 0;
#X connect 42 0 15 0;
#X connect 43 0 18 0;
