#N canvas 0 87 450 300 10;
#X obj 40 29 inlet;
#X obj 40 64 max 0;
#X obj 40 160 *;
#X obj 102 47 samplerate~;
#X obj 102 24 loadbang;
#X obj 102 90 f 1;
#X obj 114 111 /;
#X obj 102 68 t b f;
#X obj 40 213 * 1000;
#X text 88 216 convert to mS;
#X obj 40 247 outlet;
#X connect 0 0 1 0;
#X connect 1 0 2 0;
#X connect 2 0 8 0;
#X connect 3 0 7 0;
#X connect 4 0 3 0;
#X connect 5 0 6 0;
#X connect 6 0 2 1;
#X connect 7 0 5 0;
#X connect 7 1 6 1;
#X connect 8 0 10 0;
