#N canvas 774 246 512 328 10;
#X obj 48 55 r bend;
#X obj 48 216 route \$1;
#X obj 48 247 outlet;
#X obj 121 56 loadbang;
#X obj 121 83 f \$1;
#X obj 121 109 select 0;
#X obj 174 158 f \$1;
#X obj 174 134 t b;
#X text 245 66 remember to use with midi object!;
#X text 224 83 by default reads from midi channel 1;
#X text 203 100 first argument will change the channel.;
#X text 245 116 as in \, [getbend 3] for channel 3;
#X obj 174 182 max 1;
#X text 28 31 --Get Midi Bend--;
#X connect 0 0 1 0;
#X connect 1 0 2 0;
#X connect 3 0 4 0;
#X connect 4 0 5 0;
#X connect 5 1 7 0;
#X connect 6 0 12 0;
#X connect 7 0 6 0;
#X connect 12 0 1 1;
