#N canvas 237 232 522 318 10;
#X obj 43 282 outlet;
#X obj 43 42 r controls;
#X obj 132 46 loadbang;
#X obj 132 73 f \$1;
#X obj 132 99 select 0;
#X obj 185 148 f \$1;
#X obj 185 124 t b;
#X obj 43 223 route 1;
#X text 255 53 remember to use with midi object!;
#X text 234 70 by default reads from midi channel 1;
#X text 213 87 first argument will change the channel.;
#X text 227 104 as in \, [getcontrols 3] for channel 3;
#X obj 185 173 max 1;
#X text 34 20 --Get Midi Controls--;
#X connect 1 0 7 0;
#X connect 2 0 3 0;
#X connect 3 0 4 0;
#X connect 4 1 6 0;
#X connect 5 0 12 0;
#X connect 6 0 5 0;
#X connect 7 0 0 0;
#X connect 12 0 7 1;
