#N canvas 0 134 525 317 10;
#X obj 37 53 r notes;
#X obj 37 273 outlet;
#X obj 130 56 loadbang;
#X obj 130 83 f \$1;
#X obj 130 109 select 0;
#X obj 37 219 route 1;
#X obj 183 158 f \$1;
#X obj 183 134 t b;
#X text 270 59 remember to use with midi object!;
#X text 242 76 by default reads from midi channel 1;
#X text 228 93 first argument will change the channel.;
#X text 263 111 as in \, [getnotes 3] for channel 3;
#X obj 183 181 max 1;
#X text 22 31 --Get Midi Notes--;
#X connect 0 0 5 0;
#X connect 2 0 3 0;
#X connect 3 0 4 0;
#X connect 4 1 7 0;
#X connect 5 0 1 0;
#X connect 6 0 12 0;
#X connect 7 0 6 0;
#X connect 12 0 5 1;
