#N canvas 523 245 802 444 10;
#X text 472 59 1 - only triggers correct notes;
#X text 472 45 0 - routes everynote;
#X obj 43 333 outlet;
#X obj 102 102 cnv 15 186 34 empty empty empty 20 12 0 14 -233017 -66577
0;
#X obj 43 48 inlet;
#X obj 113 104 tgl 15 0 empty empty empty 17 7 0 10 -262144 -1 -1 0
1;
#X obj 104 118 tgl 15 0 empty empty empty 17 7 0 10 -262144 -1 -1 1
1;
#X obj 119 118 tgl 15 0 empty empty empty 17 7 0 10 -262144 -1 -1 0
1;
#X obj 128 104 tgl 15 0 empty empty empty 17 7 0 10 -262144 -1 -1 0
1;
#X obj 134 118 tgl 15 0 empty empty empty 17 7 0 10 -262144 -1 -1 0
1;
#X obj 149 118 tgl 15 0 empty empty empty 17 7 0 10 -262144 -1 -1 0
1;
#X obj 157 104 tgl 15 0 empty empty empty 17 7 0 10 -262144 -1 -1 0
1;
#X obj 164 118 tgl 15 0 empty empty empty 17 7 0 10 -262144 -1 -1 1
1;
#X obj 172 104 tgl 15 0 empty empty empty 17 7 0 10 -262144 -1 -1 0
1;
#X obj 179 118 tgl 15 0 empty empty empty 17 7 0 10 -262144 -1 -1 0
1;
#X obj 187 104 tgl 15 0 empty empty empty 17 7 0 10 -262144 -1 -1 0
1;
#X obj 194 118 tgl 15 0 empty empty empty 17 7 0 10 -262144 -1 -1 0
1;
#X obj 385 243 guidenote/p \$1_gnparams;
#X obj 352 137 t f f;
#X obj 267 107 tgl 15 0 empty empty empty 17 7 0 10 -262144 -1 -1 0
1;
#X obj 384 163 gguidenote/p \$1_gnstyle;
#X obj 66 75 unpack f f f f f f f f f f f f;
#X obj 228 107 bng 15 250 50 0 empty empty empty 17 7 0 10 -262144
-1 -1;
#X text 211 120 update;
#X text 258 120 pass;
#X obj 352 51 loadbang;
#X obj 352 103 f 0;
#X msg 398 103 1 0 1 0 1 1 0 1 0 1 0 1;
#X obj 352 79 t b b b;
#X obj 43 301 gguidenote/guidenote_init;
#X obj 68 196 gguidenote/gui_guide_save \$0;
#X connect 4 0 29 0;
#X connect 5 0 30 1;
#X connect 6 0 30 0;
#X connect 7 0 30 2;
#X connect 8 0 30 3;
#X connect 9 0 30 4;
#X connect 10 0 30 5;
#X connect 11 0 30 6;
#X connect 12 0 30 7;
#X connect 13 0 30 8;
#X connect 14 0 30 9;
#X connect 15 0 30 10;
#X connect 16 0 30 11;
#X connect 17 0 21 0;
#X connect 18 0 29 2;
#X connect 18 1 20 0;
#X connect 19 0 18 0;
#X connect 20 0 19 0;
#X connect 21 0 6 0;
#X connect 21 1 5 0;
#X connect 21 2 7 0;
#X connect 21 3 8 0;
#X connect 21 4 9 0;
#X connect 21 5 10 0;
#X connect 21 6 11 0;
#X connect 21 7 12 0;
#X connect 21 8 13 0;
#X connect 21 9 14 0;
#X connect 21 10 15 0;
#X connect 21 11 16 0;
#X connect 22 0 30 12;
#X connect 25 0 28 0;
#X connect 26 0 19 0;
#X connect 27 0 21 0;
#X connect 28 0 22 0;
#X connect 28 1 26 0;
#X connect 28 2 27 0;
#X connect 29 0 2 0;
#X connect 30 0 17 0;
#X connect 30 1 29 1;
#X coords 0 -1 1 1 190 38 2 100 100;
