#N canvas 47 146 583 587 10;
#X obj 102 102 cnv 15 156 34 empty empty empty 20 12 0 14 -203904 -66577
0;
#X obj 44 47 inlet~;
#X obj 43 440 gguidenote/guidenote_init~;
#X obj 44 475 outlet~;
#X obj 113 104 tgl 15 0 empty empty empty 17 7 0 10 -262144 -1 -1 0
1;
#X obj 104 118 tgl 15 0 empty empty empty 17 7 0 10 -262144 -1 -1 1
1;
#X obj 119 118 tgl 15 0 empty empty empty 17 7 0 10 -262144 -1 -1 1
1;
#X obj 128 104 tgl 15 0 empty empty empty 17 7 0 10 -262144 -1 -1 0
1;
#X obj 134 118 tgl 15 0 empty empty empty 17 7 0 10 -262144 -1 -1 1
1;
#X obj 149 118 tgl 15 0 empty empty empty 17 7 0 10 -262144 -1 -1 0
1;
#X obj 157 104 tgl 15 0 empty empty empty 17 7 0 10 -262144 -1 -1 0
1;
#X obj 164 118 tgl 15 0 empty empty empty 17 7 0 10 -262144 -1 -1 1
1;
#X obj 172 104 tgl 15 0 empty empty empty 17 7 0 10 -262144 -1 -1 0
1;
#X obj 179 118 tgl 15 0 empty empty empty 17 7 0 10 -262144 -1 -1 1
1;
#X obj 187 104 tgl 15 0 empty empty empty 17 7 0 10 -262144 -1 -1 0
1;
#X obj 194 118 tgl 15 0 empty empty empty 17 7 0 10 -262144 -1 -1 0
1;
#X obj 359 148 guidenote/p \$1_gnparams;
#X obj 66 75 unpack f f f f f f f f f f f f;
#X obj 228 107 bng 15 250 50 0 empty empty empty 17 7 0 10 -262144
-1 -1;
#X text 211 120 update;
#X obj 352 51 loadbang;
#X msg 384 105 1 0 1 0 1 1 0 1 0 1 0 1;
#X obj 64 202 gguidenote/gui_guide_save \$0;
#X obj 352 79 t b b;
#X connect 1 0 2 0;
#X connect 2 0 3 0;
#X connect 4 0 22 1;
#X connect 5 0 22 0;
#X connect 6 0 22 2;
#X connect 7 0 22 3;
#X connect 8 0 22 4;
#X connect 9 0 22 5;
#X connect 10 0 22 6;
#X connect 11 0 22 7;
#X connect 12 0 22 8;
#X connect 13 0 22 9;
#X connect 14 0 22 10;
#X connect 15 0 22 11;
#X connect 16 0 17 0;
#X connect 17 0 5 0;
#X connect 17 1 4 0;
#X connect 17 2 6 0;
#X connect 17 3 7 0;
#X connect 17 4 8 0;
#X connect 17 5 9 0;
#X connect 17 6 10 0;
#X connect 17 7 11 0;
#X connect 17 8 12 0;
#X connect 17 9 13 0;
#X connect 17 10 14 0;
#X connect 17 11 15 0;
#X connect 18 0 22 12;
#X connect 20 0 23 0;
#X connect 21 0 17 0;
#X connect 22 0 16 0;
#X connect 22 1 2 1;
#X connect 23 0 18 0;
#X connect 23 1 21 0;
#X coords 0 -1 1 1 160 38 2 100 100;
