#N canvas 0 249 455 399 10;
#X obj 71 49 inlet~;
#X obj 192 47 inlet;
#X obj 192 81 t b a;
#X obj 108 227 tabread~ \$0_redirect;
#X obj 71 116 *~ 0.0833333;
#X obj 96 145 wrap~;
#X obj 70 173 -~;
#X obj 71 283 +~;
#X obj 108 172 *~ 12;
#X obj 71 256 *~ 12;
#X obj 71 324 outlet~;
#X obj 257 314 table \$0_redirect 12;
#X obj 278 289 table \$0_guide 12;
#X obj 70 83 max~ 0;
#X obj 108 199 +~ 0.5;
#X obj 192 132 guidenote_init/remap \$0;
#X obj 224 109 guidenote_init/setup_guide \$0;
#X connect 0 0 13 0;
#X connect 1 0 2 0;
#X connect 2 0 15 0;
#X connect 2 1 16 0;
#X connect 3 0 7 1;
#X connect 4 0 5 0;
#X connect 4 0 6 0;
#X connect 5 0 6 1;
#X connect 5 0 8 0;
#X connect 6 0 9 0;
#X connect 7 0 10 0;
#X connect 8 0 14 0;
#X connect 9 0 7 0;
#X connect 13 0 4 0;
#X connect 14 0 3 0;
