#N canvas 220 206 668 388 10;
#X obj 86 48 inlet;
#X obj 168 47 inlet;
#X obj 251 47 inlet;
#X text 297 64 1 - only triggers correct notes;
#X text 297 50 0 - routes everynote;
#X obj 86 322 outlet;
#X obj 86 229 guidenote/guidenote_init;
#X obj 168 81 t a a;
#X obj 200 133 guidenote/p \$1_gnparams;
#X obj 283 107 guidenote/p \$1_gnstyle;
#X obj 251 82 t f f;
#X obj 527 55 loadbang;
#X msg 559 132 0 2 4 5 7 9 11;
#X obj 527 109 f 0;
#X obj 527 81 t b b;
#X connect 0 0 6 0;
#X connect 1 0 7 0;
#X connect 2 0 10 0;
#X connect 6 0 5 0;
#X connect 7 0 6 1;
#X connect 7 1 8 0;
#X connect 8 0 6 1;
#X connect 9 0 6 2;
#X connect 10 0 6 2;
#X connect 10 1 9 0;
#X connect 11 0 14 0;
#X connect 12 0 7 0;
#X connect 13 0 10 0;
#X connect 14 0 13 0;
#X connect 14 1 12 0;
