#N canvas 576 219 590 379 10;
#X obj 28 49 notein;
#X obj 479 49 ctlin;
#X obj 28 141 pack f f f;
#X obj 28 285 s notes;
#X obj 447 282 s controls;
#X obj 184 49 bendin;
#X obj 205 263 pack f f;
#X obj 205 286 s bend;
#X obj 28 117 f;
#X obj 28 94 t b f;
#X obj 447 138 pack f f f;
#X obj 447 113 f;
#X obj 475 112 f;
#X obj 479 76 t b b f;
#X obj 205 243 f;
#X obj 95 95 / 127;
#X obj 504 112 / 127;
#X obj 231 123 clip 0 8192;
#X obj 317 114 clip 8192 16383;
#X obj 231 146 / 8192;
#X obj 317 136 - 8192;
#X obj 317 159 / 8191;
#X obj 231 86 t f f;
#X obj 231 186 +;
#X obj 231 212 t b f;
#X text 148 325 use [getbend] \, [getcontrols] \, or [getbend];
#X text 218 341 to control and access midi flow.;
#X text 16 20 --Midi Interface--;
#X connect 0 0 9 0;
#X connect 0 1 15 0;
#X connect 0 2 8 1;
#X connect 1 0 13 0;
#X connect 1 1 12 1;
#X connect 1 2 11 1;
#X connect 2 0 3 0;
#X connect 5 0 22 0;
#X connect 5 1 14 1;
#X connect 6 0 7 0;
#X connect 8 0 2 0;
#X connect 9 0 8 0;
#X connect 9 1 2 1;
#X connect 10 0 4 0;
#X connect 11 0 10 0;
#X connect 12 0 10 1;
#X connect 13 0 11 0;
#X connect 13 1 12 0;
#X connect 13 2 16 0;
#X connect 14 0 6 0;
#X connect 15 0 2 2;
#X connect 16 0 10 2;
#X connect 17 0 19 0;
#X connect 18 0 20 0;
#X connect 19 0 23 0;
#X connect 20 0 21 0;
#X connect 21 0 23 1;
#X connect 22 0 17 0;
#X connect 22 1 18 0;
#X connect 23 0 24 0;
#X connect 24 0 14 0;
#X connect 24 1 6 1;
