#N canvas 366 132 596 276 10;
#X obj 91 -304 notein;
#X obj 151 -303 bendin;
#X obj 54 -241 f 0;
#X obj 54 -211 pack f f f;
#X obj 82 -241 f 0;
#X obj 54 -272 t b b f;
#X obj 152 -212 pack f f;
#X obj 152 -240 f 0;
#X obj 152 -276 t b f;
#X obj 230 -243 f 0;
#X obj 230 -213 pack f f f;
#X obj 258 -243 f 0;
#X obj 230 -274 t b b f;
#X obj 230 -301 ctlin;
#X obj 230 -179 print midicontrols (channel# - ctrl# - value);
#X obj 53 -132 print midinotes (channel# - note# - velocity);
#X obj 152 -155 print pitchbend (channel# - value);
#X text 15 -327 --Midi Debug Utility--;
#X text 336 -276 use this to find out what your;
#X text 385 -261 midi buttons are saying.;
#X connect 0 0 5 0;
#X connect 0 1 4 1;
#X connect 0 2 2 1;
#X connect 1 0 8 0;
#X connect 1 1 7 1;
#X connect 2 0 3 0;
#X connect 3 0 15 0;
#X connect 4 0 3 1;
#X connect 5 0 2 0;
#X connect 5 1 4 0;
#X connect 5 2 3 2;
#X connect 6 0 16 0;
#X connect 7 0 6 0;
#X connect 8 0 7 0;
#X connect 8 1 6 1;
#X connect 9 0 10 0;
#X connect 10 0 14 0;
#X connect 11 0 10 1;
#X connect 12 0 9 0;
#X connect 12 1 11 0;
#X connect 12 2 10 2;
#X connect 13 0 12 0;
#X connect 13 1 11 1;
#X connect 13 2 9 1;
#X coords 0 276 1 275 200 100 0;
