#N canvas 94 273 537 437 10;
#X obj 71 32 inlet~;
#X obj 103 350 outlet~;
#X obj 187 34 inlet;
#X obj 72 87 env~ 256;
#X obj 187 87 unpack f f f f;
#X obj 72 172 moses;
#X obj 187 114 max 0;
#X obj 292 138 max 0;
#X obj 342 138 max 0;
#X obj 187 139 t f f;
#X obj 104 208 t b;
#X obj 104 230 f 1;
#X obj 215 253 pack f 30;
#X obj 104 301 vline~;
#X obj 241 138 max 1;
#X obj 387 35 inlet;
#X obj 104 253 pack f 30;
#X text 327 75 threshold \, ratio \, atk \, rls;
#X obj 215 225 expander_init/switchdbrms;
#X connect 0 0 3 0;
#X connect 2 0 4 0;
#X connect 3 0 5 0;
#X connect 4 0 6 0;
#X connect 4 1 14 0;
#X connect 4 2 7 0;
#X connect 4 3 8 0;
#X connect 5 0 18 0;
#X connect 5 1 10 0;
#X connect 6 0 9 0;
#X connect 7 0 16 1;
#X connect 8 0 12 1;
#X connect 9 0 5 1;
#X connect 9 1 18 1;
#X connect 10 0 11 0;
#X connect 11 0 16 0;
#X connect 12 0 13 0;
#X connect 13 0 1 0;
#X connect 14 0 18 2;
#X connect 15 0 18 3;
#X connect 16 0 13 0;
#X connect 18 0 12 0;
