#N canvas 100 192 428 576 10;
#X text 131 90 so if you need a 128 sample waveform \,;
#X text 243 57 \$1 is first argument.;
#X text 187 73 it should be the sample size.;
#X obj 47 46 loadbang;
#X obj 47 137 f \$1;
#X obj 47 258 f 0;
#X obj 75 337 * 2;
#X obj 121 406 * -1;
#X obj 121 429 + 1;
#X obj 121 383 - 1;
#X obj 47 207 until;
#X obj 77 257 + 1;
#X obj 65 230 f 0;
#X obj 75 291 t f f;
#X obj 75 315 / 1;
#X obj 75 359 moses 1;
#X obj 75 454 * 2;
#X obj 75 474 - 1;
#X text 152 107 you reference it as ltriangle_128.;
#X obj 237 363 /;
#X obj 223 339 f 1;
#X obj 223 314 t b f;
#X obj 219 440 wrap;
#X obj 219 465 * \$1;
#X obj 219 390 * 0;
#X obj 219 414 + 0.25;
#X text 236 135 \$2 is second argument.;
#X text 215 151 it should be wave offset.;
#X obj 224 251 select 0;
#X obj 277 276 t b;
#X obj 224 225 f \$2;
#X obj 277 300 f \$2;
#X obj 47 170 t f b f f b;
#X text 278 167 0.25 by default.;
#X obj 75 497 tabwrite lbent_\$1;
#X obj 75 522 table lbent_\$1 \$1;
#X text 23 24 -Linear Bent Triangle-;
#X text 236 193 as in \, [lbent 128 0.5];
#X connect 3 0 4 0;
#X connect 4 0 32 0;
#X connect 5 0 11 0;
#X connect 5 0 13 0;
#X connect 6 0 15 0;
#X connect 7 0 8 0;
#X connect 8 0 16 0;
#X connect 9 0 7 0;
#X connect 10 0 5 0;
#X connect 11 0 5 1;
#X connect 12 0 5 1;
#X connect 13 0 14 0;
#X connect 13 1 24 0;
#X connect 14 0 6 0;
#X connect 15 0 16 0;
#X connect 15 1 9 0;
#X connect 16 0 17 0;
#X connect 17 0 34 0;
#X connect 19 0 24 1;
#X connect 20 0 19 0;
#X connect 21 0 20 0;
#X connect 21 1 19 1;
#X connect 22 0 23 0;
#X connect 23 0 34 1;
#X connect 24 0 25 0;
#X connect 25 0 22 0;
#X connect 28 1 29 0;
#X connect 29 0 31 0;
#X connect 30 0 28 0;
#X connect 31 0 25 1;
#X connect 32 0 10 0;
#X connect 32 1 12 0;
#X connect 32 2 14 1;
#X connect 32 3 21 0;
#X connect 32 4 30 0;
