#N canvas 76 252 415 516 10;
#X text 122 100 so if you need a 128 sample waveform \,;
#X text 234 67 \$1 is first argument.;
#X text 178 83 it should be the sample size.;
#X obj 37 228 until;
#X obj 37 261 f 0;
#X obj 67 261 + 1;
#X obj 37 311 / 1;
#X obj 37 334 * 2;
#X obj 37 359 - 1;
#X obj 55 207 f 0;
#X obj 37 286 t f f;
#X obj 37 68 loadbang;
#X obj 37 158 f \$1;
#X text 164 117 you reference it as llramp_128.;
#X obj 37 427 tabwrite lrramp_\$1;
#X obj 37 462 table lrramp_\$1 \$1;
#X text 17 31 -Right Leaning Linear Ramp-;
#X obj 178 298 /;
#X obj 164 274 f 1;
#X obj 164 249 t b f;
#X obj 160 375 wrap;
#X obj 160 400 * \$1;
#X obj 160 325 * 0;
#X text 227 144 \$2 is second argument.;
#X text 206 160 it should be wave offset.;
#X text 213 185 as in \, [lrramp 128 0.75];
#X obj 37 183 t f b f f;
#X obj 160 349 + \$2;
#X connect 3 0 4 0;
#X connect 4 0 5 0;
#X connect 4 0 10 0;
#X connect 5 0 4 1;
#X connect 6 0 7 0;
#X connect 7 0 8 0;
#X connect 8 0 14 0;
#X connect 9 0 4 1;
#X connect 10 0 6 0;
#X connect 10 1 22 0;
#X connect 11 0 12 0;
#X connect 12 0 26 0;
#X connect 17 0 22 1;
#X connect 18 0 17 0;
#X connect 19 0 18 0;
#X connect 19 1 17 1;
#X connect 20 0 21 0;
#X connect 21 0 14 1;
#X connect 22 0 27 0;
#X connect 26 0 3 0;
#X connect 26 1 9 0;
#X connect 26 2 6 1;
#X connect 26 3 19 0;
#X connect 27 0 20 0;
