#N canvas 588 332 566 305 10;
#X obj 62 58 inlet~;
#X obj 250 60 inlet~;
#X text 70 41 audio;
#X text 244 40 echo time;
#X obj 249 212 outlet~;
#X obj 62 129 delwrite~ \$0_delay \$1;
#X obj 249 131 vd~ \$0_delay;
#X obj 379 62 inlet~;
#X obj 250 171 *~;
#X text 383 41 Amp;
#X obj 379 129 clip~ 0 1;
#X obj 250 96 clip~ 0 \$1;
#X connect 0 0 5 0;
#X connect 1 0 11 0;
#X connect 6 0 8 0;
#X connect 7 0 10 0;
#X connect 8 0 4 0;
#X connect 10 0 8 1;
#X connect 11 0 6 0;
