#N canvas 22 316 749 452 10;
#X obj 62 65 inlet~;
#X obj 336 64 inlet~;
#X obj 298 385 outlet~;
#X obj 430 64 inlet~;
#X obj 229 61 inlet~;
#X obj 229 190 *~;
#X obj 318 263 +~;
#X obj 96 220 vd~ \$0_fb;
#X obj 342 356 delwrite~ \$0_fb 100;
#X obj 229 98 max~ 0;
#X obj 229 123 osc~;
#X obj 229 145 *~ 0.5;
#X obj 229 167 +~ 0.5;
#X obj 317 310 vd~ \$0_chorus;
#X obj 62 349 delwrite~ \$0_chorus 100;
#X obj 95 248 *~ 0.5;
#X obj 95 317 vcf~;
#X obj 628 62 loadbang;
#X obj 537 71 inlet~;
#X obj 537 93 clip~ 0 1;
#X obj 147 248 *~ 5000;
#X obj 628 87 f 6;
#X obj 147 270 +~ 500;
#X obj 299 356 +~;
#X text 234 39 freq;
#X text 534 48 color;
#X text 332 40 del;
#X text 431 44 depth;
#X obj 318 287 +~ 1;
#X obj 336 90 clip~ 0 1;
#X obj 430 90 clip~ 0 1;
#X obj 336 115 *~ 10;
#X obj 431 115 *~ 10;
#X connect 0 0 14 0;
#X connect 0 0 23 0;
#X connect 1 0 29 0;
#X connect 3 0 30 0;
#X connect 4 0 9 0;
#X connect 5 0 6 0;
#X connect 6 0 28 0;
#X connect 7 0 15 0;
#X connect 9 0 10 0;
#X connect 10 0 11 0;
#X connect 11 0 12 0;
#X connect 12 0 5 0;
#X connect 13 0 8 0;
#X connect 13 0 23 1;
#X connect 15 0 16 0;
#X connect 16 0 14 0;
#X connect 17 0 21 0;
#X connect 18 0 19 0;
#X connect 19 0 20 0;
#X connect 20 0 22 0;
#X connect 21 0 16 2;
#X connect 22 0 16 1;
#X connect 23 0 2 0;
#X connect 28 0 13 0;
#X connect 29 0 31 0;
#X connect 30 0 32 0;
#X connect 31 0 7 0;
#X connect 31 0 6 1;
#X connect 32 0 5 1;
