#N canvas 745 339 572 374 10;
#X obj 52 55 inlet~;
#X obj 53 226 outlet~;
#X obj 53 196 *~;
#X obj 161 226 outlet~;
#X text 177 207 amp;
#X obj 118 54 inlet;
#X obj 197 54 inlet;
#X obj 71 171 expander/expander_init~;
#X obj 150 135 expander/p \$1_xpndparams;
#X obj 229 107 expander/p \$1_xpnddbrms;
#X obj 436 44 loadbang;
#X obj 436 70 t b b;
#X obj 436 97 f 0;
#X msg 468 97 30 4 100 200;
#X obj 197 76 t f f;
#X obj 118 81 t l l;
#X connect 0 0 2 0;
#X connect 0 0 7 0;
#X connect 2 0 1 0;
#X connect 5 0 15 0;
#X connect 6 0 14 0;
#X connect 7 0 2 1;
#X connect 7 0 3 0;
#X connect 8 0 7 1;
#X connect 9 0 7 2;
#X connect 10 0 11 0;
#X connect 11 0 12 0;
#X connect 11 1 13 0;
#X connect 12 0 14 0;
#X connect 13 0 15 0;
#X connect 14 0 7 2;
#X connect 14 1 9 0;
#X connect 15 0 7 1;
#X connect 15 1 8 0;
