#N canvas 624 173 639 525 10;
#X obj 61 49 inlet~;
#X obj 62 439 outlet~;
#X text 214 37 Boost;
#X text 66 29 signal;
#X text 215 80 Threshold;
#X text 213 55 Cutoff;
#X text 221 100 Crunch;
#X text 216 119 turn down;
#X obj 154 49 inlet;
#X obj 62 360 distortion/distortion_init~;
#X obj 186 144 distortion/p distparams;
#X obj 100 290 pack f 50;
#X obj 100 314 vline~;
#X obj 180 290 pack f 50;
#X obj 180 314 vline~;
#X obj 260 290 pack f 50;
#X obj 260 314 vline~;
#X obj 343 290 pack f 50;
#X obj 343 314 vline~;
#X obj 423 290 pack f 50;
#X obj 423 314 vline~;
#X obj 154 195 unpack f f f f f;
#X obj 454 120 loadbang;
#X msg 454 142 0.1 0.5 0.1 10 0.2;
#X obj 154 112 t l l;
#X connect 0 0 9 0;
#X connect 8 0 24 0;
#X connect 9 0 1 0;
#X connect 10 0 21 0;
#X connect 11 0 12 0;
#X connect 12 0 9 1;
#X connect 13 0 14 0;
#X connect 14 0 9 2;
#X connect 15 0 16 0;
#X connect 16 0 9 3;
#X connect 17 0 18 0;
#X connect 18 0 9 4;
#X connect 19 0 20 0;
#X connect 20 0 9 5;
#X connect 21 0 11 0;
#X connect 21 1 13 0;
#X connect 21 2 15 0;
#X connect 21 3 17 0;
#X connect 21 4 19 0;
#X connect 22 0 23 0;
#X connect 23 0 24 0;
#X connect 24 0 21 0;
#X connect 24 1 10 0;
