#N canvas 564 264 616 496 10;
#X obj 52 52 cnv 15 246 36 empty empty empty 20 12 0 14 -222165 -66577
0;
#X obj 55 55 cnv 15 240 30 empty empty empty 20 12 0 14 -262144 -66577
0;
#X floatatom 92 58 5 0 100 0 - - -, f 5;
#X floatatom 133 58 5 0 100 0 - - -, f 5;
#X floatatom 174 58 5 0 100 0 - - -, f 5;
#X floatatom 215 58 5 0 100 0 - - -, f 5;
#X text 56 69 ----;
#X obj 96 186 inlet~;
#X obj 97 428 outlet~;
#X text 56 56 dist;
#X floatatom 255 58 5 0 100 0 - - -, f 5;
#X obj 108 26 unpack f f f f f;
#X obj 272 215 pack f f f f f;
#X obj 97 395 gdistortion/distortion_init~;
#X obj 136 324 pack f 50;
#X obj 136 348 vline~;
#X obj 216 324 pack f 50;
#X obj 216 348 vline~;
#X obj 296 324 pack f 50;
#X obj 296 348 vline~;
#X obj 379 324 pack f 50;
#X obj 379 348 vline~;
#X obj 459 324 pack f 50;
#X obj 459 348 vline~;
#X obj 459 299 dbtorms;
#X obj 296 300 dbtorms;
#X obj 216 300 dbtorms;
#X obj 211 147 t f f;
#X text 90 71 boost;
#X obj 154 301 * 0.01;
#X text 132 71 ctoff;
#X text 172 71 thrsh;
#X text 215 71 ratio;
#X text 261 71 amp;
#X obj 440 149 t f b f;
#X obj 381 149 t f b f;
#X obj 324 149 t f b f;
#X obj 265 147 t f b f;
#X obj 487 63 loadbang;
#X msg 487 85 20 50 82 10 80;
#X obj 379 297 * 0.01;
#X obj 18 106 gdistortion/p \$1_gdistparams;
#X connect 2 0 27 0;
#X connect 3 0 37 0;
#X connect 4 0 36 0;
#X connect 5 0 35 0;
#X connect 7 0 13 0;
#X connect 10 0 34 0;
#X connect 11 0 2 0;
#X connect 11 1 3 0;
#X connect 11 2 4 0;
#X connect 11 3 5 0;
#X connect 11 4 10 0;
#X connect 12 0 41 0;
#X connect 13 0 8 0;
#X connect 14 0 15 0;
#X connect 15 0 13 1;
#X connect 16 0 17 0;
#X connect 17 0 13 2;
#X connect 18 0 19 0;
#X connect 19 0 13 3;
#X connect 20 0 21 0;
#X connect 21 0 13 4;
#X connect 22 0 23 0;
#X connect 23 0 13 5;
#X connect 24 0 22 0;
#X connect 25 0 18 0;
#X connect 26 0 16 0;
#X connect 27 0 29 0;
#X connect 27 1 12 0;
#X connect 29 0 14 0;
#X connect 34 0 24 0;
#X connect 34 1 12 0;
#X connect 34 2 12 4;
#X connect 35 0 40 0;
#X connect 35 1 12 0;
#X connect 35 2 12 3;
#X connect 36 0 25 0;
#X connect 36 1 12 0;
#X connect 36 2 12 2;
#X connect 37 0 26 0;
#X connect 37 1 12 0;
#X connect 37 2 12 1;
#X connect 38 0 39 0;
#X connect 39 0 11 0;
#X connect 40 0 20 0;
#X connect 41 0 11 0;
#X coords 0 -1 1 1 250 40 2 50 50;
