#N canvas 316 296 542 472 10;
#X obj 44 39 inlet~;
#X obj 46 441 outlet~;
#X obj 231 173 -~ 1;
#X obj 45 410 *~;
#X obj 194 174 *~;
#X obj 247 41 inlet~;
#X obj 44 160 *~ 1;
#X obj 328 40 loadbang;
#X obj 328 101 dist2time;
#X obj 44 372 vd~ \$1;
#X obj 328 70 f \$2;
#X obj 195 286 +~;
#X obj 232 196 *~ -1;
#X obj 112 39 inlet~;
#X obj 45 343 *~;
#X text 75 344 as we get faster;
#X text 96 358 increase phase;
#X obj 111 243 cos~;
#X obj 111 266 *~ 1;
#X obj 230 145 /~;
#X obj 246 76 max~ 0;
#X obj 247 98 +~ 1;
#X obj 229 121 sig~ 1;
#X text 160 240 0.125;
#X text 177 206 0.25;
#X obj 111 194 *~ 0.25;
#X obj 111 219 -~ 0.125;
#X connect 0 0 6 0;
#X connect 0 0 4 0;
#X connect 2 0 12 0;
#X connect 3 0 1 0;
#X connect 4 0 11 0;
#X connect 5 0 20 0;
#X connect 6 0 14 0;
#X connect 7 0 10 0;
#X connect 8 0 6 1;
#X connect 9 0 3 0;
#X connect 10 0 8 0;
#X connect 11 0 3 1;
#X connect 12 0 11 1;
#X connect 13 0 25 0;
#X connect 14 0 9 0;
#X connect 17 0 18 0;
#X connect 18 0 14 1;
#X connect 19 0 2 0;
#X connect 19 0 4 1;
#X connect 20 0 21 0;
#X connect 21 0 19 1;
#X connect 22 0 19 0;
#X connect 25 0 26 0;
#X connect 26 0 17 0;
