#N canvas 656 210 493 422 10;
#X obj 76 63 inlet;
#X obj 179 67 inlet;
#X text 73 49 amp;
#X text 170 48 threshold;
#X obj 247 66 inlet;
#X text 289 61 ratio;
#X obj 76 90 t f f;
#X obj 179 93 t f f;
#X obj 247 94 t f f;
#X obj 363 68 inlet;
#X text 359 50 switch;
#X obj 76 321 outlet;
#X obj 76 175 channel;
#X obj 76 271 dbexp;
#X obj 192 268 rmsexp;
#X connect 0 0 6 0;
#X connect 1 0 7 0;
#X connect 4 0 8 0;
#X connect 6 0 12 0;
#X connect 6 1 12 1;
#X connect 7 0 13 1;
#X connect 7 1 14 1;
#X connect 8 0 13 2;
#X connect 8 1 14 2;
#X connect 9 0 12 2;
#X connect 12 0 13 0;
#X connect 12 1 14 0;
#X connect 13 0 11 0;
#X connect 14 0 11 0;
