#N canvas 82 129 890 638 10;
#X obj 120 56 inlet;
#X obj 353 59 inlet;
#X obj 45 55 inlet~;
#X obj 221 540 outlet~;
#X obj 188 203 t b b b;
#X obj 353 290 f \$0;
#X msg 353 315 \; \$1_loop const 0;
#X obj 353 157 t b b;
#X obj 467 446 table \$0_loop;
#X obj 469 60 loadbang;
#X obj 529 216 samplerate~;
#X msg 469 404 \; \$1_loop resize \$2;
#X obj 529 351 t f f;
#X obj 529 327 *;
#X obj 621 243 t f f;
#X obj 621 144 select 0;
#X obj 621 166 t b;
#X obj 621 215 max 0;
#X obj 621 188 f 60;
#X obj 469 378 pack \$0 f;
#X obj 621 120 f \$1;
#X obj 692 144 select 0;
#X obj 692 166 t b;
#X obj 692 215 max 0;
#X obj 353 266 del 1;
#X obj 692 120 f \$2;
#X text 809 334 1) set reset delay to second argument;
#X text 808 366 2) set max length of the loop;
#X text 395 269 (1);
#X text 602 413 (2);
#X obj 692 188 f 30;
#X text 39 35 --Looper--;
#X text 1177 106 digital environment.;
#X obj 120 204 t b b b;
#X obj 383 378 * 1000;
#X text 1167 123 There is a trick to making them work;
#X text 1176 139 cleanly with no pops or clicks.;
#X text 1167 156 When you start or stop playing and;
#X text 1176 172 recording a sample \, you usually;
#X text 1176 189 use a envelope of ~30mS. This;
#X text 1177 206 means your loop will be ~30mS;
#X text 1176 224 longer than the recorded sample.;
#X text 1167 241 If you ignore this \, there will be pops;
#X text 1176 258 and clicks. So the solution is to;
#X text 1175 274 cycle through the loop using a;
#X text 1175 291 frequency twice as long as the;
#X text 1284 419 /---------------/;
#X text 1182 397 /---------------/;
#X text 1184 408 --------------------------------;
#X text 1165 359 You begin the loop while simultaneously;
#X text 1177 374 ending the recording with an envelope.;
#X text 777 316 LOADBANG;
#X text 1167 89 Loopers are deceptive in PureData or any;
#X text 1176 308 loop length. Play the loop twice;
#X text 1169 340 'long loop' and again half-way though.;
#X text 352 379 (3);
#X text 540 59 Load you presets and defaults.;
#X text 808 383 3) send the loop's max length to index;
#X text 1176 324 once at the beginning of this;
#X obj 143 450 looper/index~ \$0;
#X text 773 406 !REMEMBER!;
#X text 808 423 -include supporting object folder.;
#X text 818 458 'looper' in the same directory.;
#X text 824 440 as in \, keep looper~.pd AND the folder;
#X text 801 115 first inlet;
#X text 802 145 second inlet;
#X text 785 100 Looper;
#X text 818 128 -audio input;
#X obj 120 82 select 0;
#X text 821 159 -triggers looper recording.;
#X text 837 174 non-zero starts recording.;
#X text 837 187 zero stops recroding;
#X text 800 264 fourth inlet;
#X text 815 278 -stops playback and clears;
#X text 847 349 in milliSeconds. (default is 30 mS);
#X text 830 296 looper memory with any input.;
#X obj 252 57 inlet;
#X obj 252 203 select 0;
#X obj 305 228 t b;
#X obj 120 114 t b b;
#X obj 173 114 t b b;
#X obj 270 158 f 1;
#X obj 307 158 f 0;
#X text 801 201 third inlet;
#X text 821 216 -non-zero resets and starts;
#X text 839 231 loop playback.;
#X text 821 247 -zero stops loop playback.;
#X obj 252 181 spigot;
#X obj 46 261 looper/record~ \$0 \$1;
#X obj 220 514 looper/player~ \$0 \$1;
#X obj 469 84 t b b b b;
#X text 166 57 start/stop;
#X text 363 78 clear;
#X text 262 77 play/pause;
#X connect 0 0 68 0;
#X connect 1 0 7 0;
#X connect 2 0 88 0;
#X connect 4 0 88 2;
#X connect 4 1 59 1;
#X connect 4 2 89 1;
#X connect 5 0 6 0;
#X connect 7 0 24 0;
#X connect 7 1 89 1;
#X connect 9 0 90 0;
#X connect 10 0 13 0;
#X connect 12 0 19 1;
#X connect 12 1 59 3;
#X connect 13 0 12 0;
#X connect 14 0 34 0;
#X connect 14 1 13 1;
#X connect 15 0 16 0;
#X connect 15 1 17 0;
#X connect 16 0 18 0;
#X connect 17 0 14 0;
#X connect 18 0 17 0;
#X connect 19 0 11 0;
#X connect 20 0 15 0;
#X connect 21 0 22 0;
#X connect 21 1 23 0;
#X connect 22 0 30 0;
#X connect 23 0 24 1;
#X connect 24 0 5 0;
#X connect 25 0 21 0;
#X connect 30 0 23 0;
#X connect 33 0 88 1;
#X connect 33 1 59 0;
#X connect 33 2 89 2;
#X connect 34 0 59 2;
#X connect 59 0 89 0;
#X connect 68 0 79 0;
#X connect 68 1 80 0;
#X connect 76 0 87 0;
#X connect 77 0 89 2;
#X connect 77 1 78 0;
#X connect 78 0 89 1;
#X connect 79 0 4 0;
#X connect 79 1 81 0;
#X connect 80 0 33 0;
#X connect 80 1 82 0;
#X connect 81 0 87 1;
#X connect 82 0 87 1;
#X connect 87 0 77 0;
#X connect 89 0 3 0;
#X connect 90 0 19 0;
#X connect 90 1 10 0;
#X connect 90 2 20 0;
#X connect 90 3 25 0;
#X coords 0 638 1 637 60 58 0;
