#N canvas 19 206 612 562 10;
#X obj 32 36 inlet~;
#X text 175 157 3;
#X text 178 185 5;
#X text 178 212 8;
#X text 257 248 13;
#X text 257 271 21;
#X text 257 298 34;
#X text 257 322 55;
#X obj 31 395 outlet~;
#X text 173 137 2;
#X obj 125 394 outlet~;
#X obj 31 86 *~ 0.5;
#X obj 823 208 loadbang;
#X obj 31 118 res~ \$0_foo 2;
#X obj 30 151 res~ \$0_foo1 3;
#X obj 30 183 res~ \$0_foo2 5;
#X obj 31 216 res~ \$0_foo3 8;
#X obj 110 251 res~ \$0_foo4 13;
#X obj 110 275 res~ \$0_foo5 21;
#X obj 109 302 res~ \$0_foo6 34;
#X obj 108 329 res~ \$0_foo7 55;
#X connect 0 0 11 0;
#X connect 11 0 13 0;
#X connect 13 0 14 0;
#X connect 13 1 14 1;
#X connect 14 0 15 0;
#X connect 14 1 15 1;
#X connect 15 0 16 0;
#X connect 15 1 16 1;
#X connect 16 0 17 0;
#X connect 16 1 17 1;
#X connect 17 0 18 0;
#X connect 17 1 18 1;
#X connect 18 0 19 0;
#X connect 18 1 19 1;
#X connect 19 0 20 0;
#X connect 19 1 20 1;
#X connect 20 0 8 0;
#X connect 20 1 10 0;
