#N canvas 123 457 479 311 10;
#X text 370 67 distance;
#X obj 44 247 outlet~;
#X obj 112 247 outlet~;
#X obj 181 247 outlet~;
#X obj 250 247 outlet~;
#X text 195 68 radian as 0-1;
#X obj 44 47 inlet~;
#X obj 113 212 *~;
#X obj 45 214 *~;
#X obj 250 213 *~;
#X obj 182 212 *~;
#X obj 355 48 inlet~;
#X obj 188 47 inlet~;
#X obj 320 247 outlet~;
#X obj 320 213 *~;
#X obj 189 112 pfourspeakers/pquaddist~;
#X connect 6 0 8 0;
#X connect 6 0 7 0;
#X connect 6 0 10 0;
#X connect 6 0 9 0;
#X connect 6 0 14 0;
#X connect 7 0 2 0;
#X connect 8 0 1 0;
#X connect 9 0 4 0;
#X connect 10 0 3 0;
#X connect 11 0 15 1;
#X connect 12 0 15 0;
#X connect 14 0 13 0;
#X connect 15 0 8 1;
#X connect 15 1 7 1;
#X connect 15 2 10 1;
#X connect 15 3 9 1;
#X connect 15 4 14 1;
