#N canvas 547 227 321 509 10;
#X obj 72 61 inlet~;
#X obj 181 65 loadbang;
#X obj 181 87 f \$1;
#X obj 181 109 select 0;
#X obj 181 131 f 80;
#X obj 234 132 t b;
#X obj 234 154 f \$1;
#X obj 73 300 lop~;
#X obj 73 270 lop~;
#X obj 74 358 lop~;
#X obj 74 328 lop~;
#X obj 73 417 outlet~;
#X obj 181 189 t f f f f;
#X connect 0 0 8 0;
#X connect 1 0 2 0;
#X connect 2 0 3 0;
#X connect 3 0 4 0;
#X connect 3 1 5 0;
#X connect 4 0 12 0;
#X connect 5 0 6 0;
#X connect 6 0 12 0;
#X connect 7 0 10 0;
#X connect 8 0 7 0;
#X connect 9 0 11 0;
#X connect 10 0 9 0;
#X connect 12 0 8 1;
#X connect 12 1 7 1;
#X connect 12 2 10 1;
#X connect 12 3 9 1;
