#N canvas 0 422 566 315 10;
#X obj 41 260 outlet~;
#X obj 99 261 outlet~;
#X obj 158 261 outlet~;
#X obj 218 261 outlet~;
#X obj 278 261 outlet~;
#X obj 341 259 outlet~;
#X obj 401 259 outlet~;
#X obj 43 41 inlet~;
#X obj 475 45 inlet~;
#X text 422 86 dist;
#X text 268 84 radian as 0-1;
#X obj 295 44 inlet~;
#X obj 41 228 *~;
#X obj 99 230 *~;
#X obj 158 230 *~;
#X obj 218 230 *~;
#X obj 278 230 *~;
#X obj 341 228 *~;
#X obj 401 228 *~;
#X obj 461 259 outlet~;
#X obj 461 228 *~;
#X obj 296 124 psevenspeakers/psevendist~;
#X connect 7 0 12 0;
#X connect 7 0 13 0;
#X connect 7 0 14 0;
#X connect 7 0 15 0;
#X connect 7 0 16 0;
#X connect 7 0 17 0;
#X connect 7 0 18 0;
#X connect 7 0 20 0;
#X connect 8 0 21 1;
#X connect 11 0 21 0;
#X connect 12 0 0 0;
#X connect 13 0 1 0;
#X connect 14 0 2 0;
#X connect 15 0 3 0;
#X connect 16 0 4 0;
#X connect 17 0 5 0;
#X connect 18 0 6 0;
#X connect 20 0 19 0;
#X connect 21 0 12 1;
#X connect 21 1 13 1;
#X connect 21 2 14 1;
#X connect 21 3 15 1;
#X connect 21 4 16 1;
#X connect 21 5 17 1;
#X connect 21 6 18 1;
#X connect 21 7 20 1;
