#N canvas 0 236 559 345 10;
#X obj 202 31 inlet~;
#X obj 60 258 outlet~;
#X obj 210 258 outlet~;
#X obj 61 31 inlet~;
#X obj 61 216 *~;
#X obj 211 218 *~;
#X obj 347 32 inlet~;
#X obj 370 258 outlet~;
#X obj 371 218 *~;
#X obj 202 62 +~ 0.25;
#X text 348 14 distance;
#X text 200 12 radians in 0 - 1;
#X obj 202 101 ptwospeakers/circle2~;
#X obj 347 65 ptwospeakers/spread~;
#X connect 0 0 9 0;
#X connect 3 0 4 0;
#X connect 3 0 5 0;
#X connect 3 0 8 0;
#X connect 4 0 1 0;
#X connect 5 0 2 0;
#X connect 6 0 13 0;
#X connect 8 0 7 0;
#X connect 9 0 12 0;
#X connect 12 0 4 1;
#X connect 12 1 5 1;
#X connect 13 0 8 1;
#X connect 13 0 12 1;
