#N canvas 0 182 1229 567 10;
#X obj 761 44 inlet;
#X obj 784 158 until;
#X obj 784 135 f 12;
#X obj 826 159 f 0;
#X obj 784 186 f 0;
#X obj 784 371 route 0 1 2 3 4 5 6 7 8 9 10 11;
#X obj 784 340 pack f f;
#X obj 784 315 f;
#X obj 784 401 pack f f f f f f f f f f f f;
#X obj 642 241 f 0;
#X obj 642 266 tabread \$0_guiguide;
#X obj 784 266 tabread \$0_guiguide;
#X obj 784 506 outlet;
#X obj 784 290 t b f;
#X obj 826 185 + 1;
#X obj 1049 324 tabread \$0_guiguide;
#X obj 1049 444 t l l;
#X obj 1049 350 select 1;
#X obj 1049 378 f;
#X obj 1049 296 t f f;
#X obj 1024 476 list;
#X obj 1049 410 list prepend;
#X obj 1024 520 outlet;
#X obj 32 99 select 1;
#X obj 85 122 t b;
#X obj 122 99 select 1;
#X obj 175 122 t b;
#X obj 212 99 select 1;
#X obj 265 122 t b;
#X obj 302 99 select 1;
#X obj 355 122 t b;
#X obj 393 100 select 1;
#X obj 446 123 t b;
#X obj 487 100 select 1;
#X obj 540 123 t b;
#X obj 32 179 select 1;
#X obj 85 202 t b;
#X msg 85 225 0 6;
#X obj 122 179 select 1;
#X obj 175 202 t b;
#X obj 212 179 select 1;
#X obj 265 202 t b;
#X obj 302 179 select 1;
#X obj 355 202 t b;
#X obj 393 180 select 1;
#X obj 446 203 t b;
#X obj 489 180 select 1;
#X obj 542 203 t b;
#X msg 85 145 0 0;
#X msg 32 144 1 0;
#X msg 212 144 1 2;
#X msg 265 145 0 2;
#X msg 302 144 1 3;
#X msg 355 145 0 3;
#X msg 393 145 1 4;
#X msg 446 146 0 4;
#X msg 487 145 1 5;
#X msg 540 146 0 5;
#X msg 32 224 1 6;
#X msg 122 224 1 7;
#X msg 175 225 0 7;
#X msg 212 224 1 8;
#X msg 265 225 0 8;
#X msg 302 224 1 9;
#X msg 355 225 0 9;
#X msg 393 225 1 10;
#X msg 446 226 0 10;
#X msg 489 225 1 11;
#X msg 542 226 0 11;
#X obj 32 41 inlet;
#X obj 83 41 inlet;
#X obj 132 41 inlet;
#X obj 183 41 inlet;
#X obj 232 41 inlet;
#X obj 283 41 inlet;
#X obj 332 41 inlet;
#X obj 383 41 inlet;
#X obj 432 41 inlet;
#X obj 483 41 inlet;
#X obj 532 41 inlet;
#X obj 583 41 inlet;
#X obj 220 390 tabwrite \$0_guiguide;
#X obj 219 424 table \$0_guiguide 12;
#X msg 122 144 1 1;
#X msg 175 145 0 1;
#X obj 761 102 t b b b b b;
#X obj 784 239 t f f f;
#X connect 0 0 85 0;
#X connect 1 0 4 0;
#X connect 2 0 1 0;
#X connect 3 0 4 1;
#X connect 4 0 14 0;
#X connect 4 0 86 0;
#X connect 5 1 8 1;
#X connect 5 2 8 2;
#X connect 5 3 8 3;
#X connect 5 4 8 4;
#X connect 5 5 8 5;
#X connect 5 6 8 6;
#X connect 5 7 8 7;
#X connect 5 8 8 8;
#X connect 5 9 8 9;
#X connect 5 10 8 10;
#X connect 5 11 8 11;
#X connect 6 0 5 0;
#X connect 7 0 6 0;
#X connect 8 0 12 0;
#X connect 9 0 10 0;
#X connect 10 0 8 0;
#X connect 11 0 13 0;
#X connect 13 0 7 0;
#X connect 13 1 6 1;
#X connect 14 0 4 1;
#X connect 15 0 17 0;
#X connect 16 0 20 1;
#X connect 16 1 21 1;
#X connect 17 0 18 0;
#X connect 18 0 21 0;
#X connect 19 0 15 0;
#X connect 19 1 18 1;
#X connect 20 0 22 0;
#X connect 21 0 16 0;
#X connect 23 0 49 0;
#X connect 23 1 24 0;
#X connect 24 0 48 0;
#X connect 25 0 83 0;
#X connect 25 1 26 0;
#X connect 26 0 84 0;
#X connect 27 0 50 0;
#X connect 27 1 28 0;
#X connect 28 0 51 0;
#X connect 29 0 52 0;
#X connect 29 1 30 0;
#X connect 30 0 53 0;
#X connect 31 0 54 0;
#X connect 31 1 32 0;
#X connect 32 0 55 0;
#X connect 33 0 56 0;
#X connect 33 1 34 0;
#X connect 34 0 57 0;
#X connect 35 0 58 0;
#X connect 35 1 36 0;
#X connect 36 0 37 0;
#X connect 37 0 81 0;
#X connect 38 0 59 0;
#X connect 38 1 39 0;
#X connect 39 0 60 0;
#X connect 40 0 61 0;
#X connect 40 1 41 0;
#X connect 41 0 62 0;
#X connect 42 0 63 0;
#X connect 42 1 43 0;
#X connect 43 0 64 0;
#X connect 44 0 65 0;
#X connect 44 1 45 0;
#X connect 45 0 66 0;
#X connect 46 0 67 0;
#X connect 46 1 47 0;
#X connect 47 0 68 0;
#X connect 48 0 81 0;
#X connect 49 0 81 0;
#X connect 50 0 81 0;
#X connect 51 0 81 0;
#X connect 52 0 81 0;
#X connect 53 0 81 0;
#X connect 54 0 81 0;
#X connect 55 0 81 0;
#X connect 56 0 81 0;
#X connect 57 0 81 0;
#X connect 58 0 81 0;
#X connect 59 0 81 0;
#X connect 60 0 81 0;
#X connect 61 0 81 0;
#X connect 62 0 81 0;
#X connect 63 0 81 0;
#X connect 64 0 81 0;
#X connect 65 0 81 0;
#X connect 66 0 81 0;
#X connect 67 0 81 0;
#X connect 68 0 81 0;
#X connect 69 0 23 0;
#X connect 70 0 25 0;
#X connect 71 0 27 0;
#X connect 72 0 29 0;
#X connect 73 0 31 0;
#X connect 74 0 33 0;
#X connect 75 0 35 0;
#X connect 76 0 38 0;
#X connect 77 0 40 0;
#X connect 78 0 42 0;
#X connect 79 0 44 0;
#X connect 80 0 46 0;
#X connect 83 0 81 0;
#X connect 84 0 81 0;
#X connect 85 0 9 0;
#X connect 85 1 20 0;
#X connect 85 2 2 0;
#X connect 85 3 3 0;
#X connect 85 4 16 0;
#X connect 86 0 11 0;
#X connect 86 1 7 1;
#X connect 86 2 19 0;
