#N canvas 190 336 668 388 10;
#X obj 65 48 inlet;
#X obj 202 47 inlet;
#X obj 465 124 table \$0_redirect 12;
#X obj 202 81 t b a;
#X obj 485 99 table \$0_guide 12;
#X obj 351 47 inlet;
#X obj 65 114 moses 0;
#X obj 111 137 + 0.5;
#X obj 111 164 int;
#X obj 111 202 t f f;
#X text 397 64 1 - only triggers correct notes;
#X text 397 50 0 - routes everynote;
#X obj 309 308 outlet;
#X obj 234 109 guidenote_init/setup_guide \$0;
#X obj 202 133 guidenote_init/remap \$0;
#X obj 351 168 guidenote_init/onoff;
#X obj 111 258 guidenote_init/redirect \$0;
#X obj 309 258 guidenote_init/seperate \$0;
#X connect 0 0 6 0;
#X connect 1 0 3 0;
#X connect 3 0 14 0;
#X connect 3 1 13 0;
#X connect 5 0 15 0;
#X connect 6 1 7 0;
#X connect 7 0 8 0;
#X connect 8 0 9 0;
#X connect 9 0 16 0;
#X connect 9 1 17 0;
#X connect 15 0 16 1;
#X connect 15 1 17 1;
#X connect 16 0 12 0;
#X connect 17 0 12 0;
