#N canvas 79 242 649 465 10;
#X obj 44 423 outlet~;
#X obj 442 45 inlet~;
#X obj 106 423 outlet~;
#X obj 166 423 outlet~;
#X obj 228 422 outlet~;
#X obj 294 422 outlet~;
#X obj 44 50 inlet~;
#X obj 45 385 *~;
#X obj 106 389 *~;
#X obj 166 389 *~;
#X obj 228 388 *~;
#X obj 293 387 *~;
#X obj 45 80 wrap~;
#X obj 46 263 +~;
#X obj 358 422 outlet~;
#X obj 424 422 outlet~;
#X obj 358 388 *~;
#X obj 423 387 *~;
#X text 207 175 from 0 to to 30 120;
#X text 131 114 from 330(-30) to 0 to 30;
#X text 287 208 from 30 to 125 to 150;
#X text 357 249 from 120 to 150 to 210;
#X text 416 280 from 150 to 210 to 250;
#X text 459 311 from 210 to 250 to 330;
#X text 455 342 from 250 to 330 to 0(360);
#X obj 46 132 space~ -0.083333 0 0.083333;
#X obj 64 157 space~ 0.916667 1 1.08333;
#X obj 108 191 space~ 0 0.082222 0.305556;
#X obj 168 232 space~ 0.083333 0.305556 0.416667;
#X obj 229 263 space~ 0.305556 0.416667 0.583333;
#X obj 292 295 space~ 0.416667 0.583333 0.694444;
#X obj 358 325 space~ 0.583333 0.694444 0.916667;
#X obj 422 357 space~ 0.694444 0.916667 1;
#X connect 1 0 7 1;
#X connect 1 0 8 1;
#X connect 1 0 9 1;
#X connect 1 0 10 1;
#X connect 1 0 11 1;
#X connect 1 0 16 1;
#X connect 1 0 17 1;
#X connect 6 0 12 0;
#X connect 7 0 0 0;
#X connect 8 0 2 0;
#X connect 9 0 3 0;
#X connect 10 0 4 0;
#X connect 11 0 5 0;
#X connect 12 0 25 0;
#X connect 12 0 26 0;
#X connect 12 0 27 0;
#X connect 12 0 28 0;
#X connect 12 0 29 0;
#X connect 12 0 30 0;
#X connect 12 0 31 0;
#X connect 12 0 32 0;
#X connect 13 0 7 0;
#X connect 16 0 14 0;
#X connect 17 0 15 0;
#X connect 25 0 13 0;
#X connect 26 0 13 1;
#X connect 27 0 8 0;
#X connect 28 0 9 0;
#X connect 29 0 10 0;
#X connect 30 0 11 0;
#X connect 31 0 16 0;
#X connect 32 0 17 0;
