#N canvas 185 438 559 321 10;
#X obj 41 260 outlet~;
#X obj 41 229 +~;
#X obj 99 261 outlet~;
#X obj 99 230 +~;
#X obj 158 261 outlet~;
#X obj 158 230 +~;
#X obj 218 261 outlet~;
#X obj 218 230 +~;
#X obj 278 261 outlet~;
#X obj 278 230 +~;
#X obj 341 259 outlet~;
#X obj 341 228 +~;
#X obj 401 259 outlet~;
#X obj 401 228 +~;
#X obj 43 41 inlet~;
#X obj 315 44 inlet~;
#X text 318 26 dist;
#X obj 314 127 +~ 0.5;
#X text 29 20 radian as 0-1;
#X obj 42 155 circle7~;
#X obj 315 155 circle7~;
#X obj 316 90 pspread~;
#X obj 461 259 outlet~;
#X connect 1 0 0 0;
#X connect 3 0 2 0;
#X connect 5 0 4 0;
#X connect 7 0 6 0;
#X connect 9 0 8 0;
#X connect 11 0 10 0;
#X connect 13 0 12 0;
#X connect 14 0 17 0;
#X connect 14 0 19 0;
#X connect 15 0 21 0;
#X connect 17 0 20 0;
#X connect 19 0 1 0;
#X connect 19 1 3 0;
#X connect 19 2 5 0;
#X connect 19 3 7 0;
#X connect 19 4 9 0;
#X connect 19 5 11 0;
#X connect 19 6 13 0;
#X connect 20 0 1 1;
#X connect 20 1 3 1;
#X connect 20 2 5 1;
#X connect 20 3 7 1;
#X connect 20 4 9 1;
#X connect 20 5 11 1;
#X connect 20 6 13 1;
#X connect 21 0 19 1;
#X connect 21 1 20 1;
#X connect 21 2 22 0;
