#N canvas 693 325 440 391 10;
#X obj 86 65 inlet~;
#X obj 265 131 t b;
#X obj 170 67 inlet;
#X obj 85 298 tabwrite~ \$1;
#X obj 170 141 t b b;
#X msg 202 173 stop;
#X msg 265 173 start;
#X obj 170 102 select 0 stop;
#X obj 321 69 inlet;
#X obj 321 150 t s;
#X msg 321 185 set \$1;
#X connect 0 0 3 0;
#X connect 1 0 6 0;
#X connect 2 0 7 0;
#X connect 4 0 6 0;
#X connect 4 1 5 0;
#X connect 5 0 3 0;
#X connect 6 0 3 0;
#X connect 7 0 4 0;
#X connect 7 1 4 0;
#X connect 7 2 1 0;
#X connect 8 0 9 0;
#X connect 9 0 10 0;
#X connect 10 0 3 0;
