#N canvas 705 273 535 368 10;
#X obj 79 64 inlet~;
#X obj 80 258 writesf~;
#X msg 387 164 start;
#X obj 299 128 t b;
#X msg 299 164 stop;
#X obj 147 113 savepanel;
#X obj 147 66 inlet;
#X obj 299 62 inlet;
#X obj 299 97 select 0 stop;
#X obj 387 127 t b b;
#X msg 147 158 open \$1;
#X connect 0 0 1 0;
#X connect 2 0 1 0;
#X connect 3 0 4 0;
#X connect 4 0 1 0;
#X connect 5 0 10 0;
#X connect 6 0 5 0;
#X connect 7 0 8 0;
#X connect 8 0 3 0;
#X connect 8 1 3 0;
#X connect 8 2 9 0;
#X connect 9 0 2 0;
#X connect 9 1 4 0;
#X connect 10 0 1 0;
