#N canvas 210 341 755 427 10;
#X obj 65 336 soundfiler;
#X text 46 63 --SampLoad--;
#X obj 65 89 inlet;
#X obj 65 263 pack s s;
#X obj 118 182 symbol \$1;
#X text 472 82 SampLoad;
#X text 489 98 auxillary object to support;
#X text 489 113 bangplay and phasorplay.;
#X text 480 130 first inlet;
#X text 492 145 -insert a file path and it;
#X text 499 160 will load it a table named;
#X text 498 176 after the first argument.;
#X text 497 207 table can be referenced with;
#X text 498 239 samples accessed with [v foo].;
#X text 498 223 foo_sound and the numbers of;
#X text 498 191 as in \, if [sampload foo] \,;
#X obj 261 98 inlet;
#X obj 261 197 t f;
#X obj 261 262 pack f s;
#X obj 65 157 t s b;
#X obj 118 208 t s s;
#X text 481 253 second inlet;
#X text 500 266 supply a number and it will;
#X text 500 281 normalize the sample to the;
#X text 500 295 given number.;
#X obj 261 168 clip 0 1;
#X msg 261 289 \; \$2 normalize \$1;
#X obj 343 98 table \$1;
#X msg 65 289 read -resize \$1 \$2 \;;
#X obj 65 382 outlet;
#X connect 0 0 29 0;
#X connect 2 0 19 0;
#X connect 3 0 28 0;
#X connect 4 0 20 0;
#X connect 16 0 25 0;
#X connect 17 0 18 0;
#X connect 18 0 26 0;
#X connect 19 0 3 0;
#X connect 19 1 4 0;
#X connect 20 0 3 1;
#X connect 20 1 18 1;
#X connect 25 0 17 0;
#X connect 28 0 0 0;
