#N canvas 178 338 754 395 10;
#X obj 61 61 inlet;
#X obj 207 61 inlet;
#X obj 207 111 openpanel;
#X obj 61 257 readsf~;
#X obj 114 165 f 1;
#X obj 61 283 outlet~;
#X text 49 41 --SamplePlay--;
#X text 326 50 SamplePlay;
#X text 339 136 first inlet;
#X text 368 151 -non-zero starts playback;
#X text 368 164 -zero stops playback;
#X text 348 66 use this object for simple playback;
#X text 348 80 of samples. not to be used as a;
#X text 348 93 performance tool. use [bangsample~];
#X text 348 107 or [phasorsample~] with [loadsample];
#X text 347 121 for that.;
#X text 347 182 second inlet;
#X text 368 196 -any input opens a window to select;
#X text 384 210 a new sample.;
#X obj 114 141 t b b;
#X obj 61 165 f 0;
#X obj 146 166 symbol;
#X msg 146 190 open \$1;
#X obj 207 84 t b;
#X obj 61 97 select 0 stop;
#X connect 0 0 24 0;
#X connect 1 0 23 0;
#X connect 2 0 21 1;
#X connect 3 0 5 0;
#X connect 4 0 3 0;
#X connect 19 0 4 0;
#X connect 19 1 21 0;
#X connect 20 0 3 0;
#X connect 21 0 22 0;
#X connect 22 0 3 0;
#X connect 23 0 2 0;
#X connect 24 0 20 0;
#X connect 24 1 20 0;
#X connect 24 2 19 0;
