#N canvas 478 217 547 462 10;
#X obj 100 389 outlet~;
#X obj 100 357 tabread4~ \$1;
#X obj 397 72 inlet;
#X msg 397 152 set \$1;
#X obj 397 126 t s;
#X obj 99 277 *~;
#X obj 99 315 +~;
#X obj 178 72 inlet~;
#X obj 243 72 inlet~;
#X obj 99 72 inlet~;
#X text 99 53 0-1;
#X text 393 54 Change;
#X text 180 56 Start;
#X text 251 55 End;
#X text 156 98 Make this time based;
#X obj 242 183 scratch/time2samp~;
#X obj 178 156 scratch/time2samp~;
#X obj 160 237 -~;
#X text 221 41 Time;
#X obj 100 125 clip~ 0 1;
#X connect 1 0 0 0;
#X connect 2 0 4 0;
#X connect 3 0 1 0;
#X connect 4 0 3 0;
#X connect 5 0 6 0;
#X connect 6 0 1 0;
#X connect 7 0 16 0;
#X connect 8 0 15 0;
#X connect 9 0 19 0;
#X connect 15 0 17 0;
#X connect 16 0 6 1;
#X connect 16 0 17 1;
#X connect 17 0 5 1;
#X connect 19 0 5 0;
