#N canvas 18 296 562 453 10;
#X obj 95 72 inlet;
#X obj 96 417 outlet~;
#X obj 95 356 vline~;
#X obj 96 385 tabread4~ \$1;
#X obj 168 72 inlet;
#X obj 225 72 inlet;
#X obj 288 72 inlet;
#X msg 288 196 set \$1;
#X obj 288 170 t s;
#X obj 168 207 -;
#X obj 95 261 *;
#X obj 95 291 +;
#X obj 361 72 loadbang;
#X obj 361 193 select 0;
#X obj 414 218 t b;
#X obj 361 218 f 30;
#X obj 95 325 pack f f;
#X obj 414 243 f \$2;
#X obj 361 166 f \$2;
#X obj 168 171 t b f f;
#X obj 95 102 clip 0 1;
#X text 455 79 -point (0-1);
#X text 455 96 -start (mS);
#X text 457 113 -end (mS);
#X text 457 133 -table name;
#X obj 225 128 scratch/time2samp;
#X obj 168 103 scratch/time2samp;
#X connect 0 0 20 0;
#X connect 2 0 3 0;
#X connect 3 0 1 0;
#X connect 4 0 26 0;
#X connect 5 0 25 0;
#X connect 6 0 8 0;
#X connect 7 0 3 0;
#X connect 8 0 7 0;
#X connect 9 0 10 1;
#X connect 10 0 11 0;
#X connect 11 0 16 0;
#X connect 12 0 18 0;
#X connect 13 0 15 0;
#X connect 13 1 14 0;
#X connect 14 0 17 0;
#X connect 15 0 16 1;
#X connect 16 0 2 0;
#X connect 17 0 16 1;
#X connect 18 0 13 0;
#X connect 19 0 9 0;
#X connect 19 1 9 1;
#X connect 19 2 11 1;
#X connect 20 0 10 0;
#X connect 25 0 9 0;
#X connect 26 0 19 0;
