#N canvas 372 221 657 413 10;
#X obj 46 90 inlet;
#X obj 212 90 inlet;
#X obj 46 328 tabread4~ \$1;
#X obj 47 357 outlet~;
#X text 103 68 start;
#X text 31 53 midi/pitch;
#X obj 100 90 inlet;
#X obj 155 89 inlet;
#X obj 46 263 vline~;
#X text 208 54 change sample;
#X obj 46 130 - 60;
#X obj 510 227 samplerate~;
#X obj 425 89 loadbang;
#X obj 425 111 f \$2;
#X obj 425 133 select 0;
#X obj 478 157 t b;
#X obj 478 179 f \$2;
#X obj 47 296 *~ 1;
#X obj 478 202 t f b;
#X obj 425 205 f 1;
#X obj 478 251 /;
#X obj 279 161 t f b;
#X obj 279 212 /;
#X obj 311 185 samplerate~;
#X text 152 70 length;
#X obj 46 179 trigplay/runprep;
#X text 270 69 change samplerate;
#X obj 212 117 unpack s f;
#X obj 279 139 abs;
#X connect 0 0 10 0;
#X connect 1 0 27 0;
#X connect 2 0 3 0;
#X connect 6 0 25 1;
#X connect 7 0 25 2;
#X connect 8 0 17 0;
#X connect 10 0 25 0;
#X connect 11 0 20 1;
#X connect 12 0 13 0;
#X connect 13 0 14 0;
#X connect 14 0 19 0;
#X connect 14 1 15 0;
#X connect 15 0 16 0;
#X connect 16 0 18 0;
#X connect 17 0 2 0;
#X connect 18 0 20 0;
#X connect 18 1 11 0;
#X connect 19 0 17 1;
#X connect 20 0 17 1;
#X connect 21 0 22 0;
#X connect 21 1 23 0;
#X connect 22 0 17 1;
#X connect 23 0 22 1;
#X connect 25 0 8 0;
#X connect 27 0 2 0;
#X connect 27 1 28 0;
#X connect 28 0 21 0;
