#N canvas 331 247 476 435 10;
#X obj 41 52 inlet~;
#X obj 41 93 env~ 256;
#X obj 138 53 inlet;
#X obj 41 189 moses;
#X obj 138 163 t f f;
#X obj 40 380 outlet~;
#X obj 41 352 vline~;
#X obj 41 258 pack 1 30;
#X obj 137 315 pack f 30;
#X obj 41 214 t b;
#X obj 41 236 f 1;
#X obj 138 125 max 0;
#X obj 342 265 max 0;
#X obj 247 126 max 0;
#X text 201 158 threshold \, ratio \, attack \, release;
#X obj 138 94 unpack f f f f;
#X text 174 236 by rms;
#X obj 323 59 inlet;
#X text 304 42 DB or RMS;
#X obj 186 126 max 1;
#X obj 137 264 compressar_init/switchdbrms;
#X connect 0 0 1 0;
#X connect 1 0 3 0;
#X connect 2 0 15 0;
#X connect 3 0 9 0;
#X connect 3 1 20 0;
#X connect 4 0 3 1;
#X connect 4 1 20 1;
#X connect 6 0 5 0;
#X connect 7 0 6 0;
#X connect 8 0 6 0;
#X connect 9 0 10 0;
#X connect 10 0 7 0;
#X connect 11 0 4 0;
#X connect 12 0 8 1;
#X connect 13 0 7 1;
#X connect 15 0 11 0;
#X connect 15 1 19 0;
#X connect 15 2 12 0;
#X connect 15 3 13 0;
#X connect 17 0 20 3;
#X connect 19 0 20 2;
#X connect 20 0 8 0;
