#N canvas 307 326 778 442 10;
#X obj 59 46 inlet~;
#X obj 151 393 outlet~;
#X obj 226 50 inlet~;
#X obj 226 72 wrap~;
#X text 147 24 freq;
#X obj 59 319 -~;
#X obj 77 158 +~;
#X obj 77 180 wrap~;
#X obj 150 363 +~;
#X obj 227 189 +~ -0.25;
#X msg 307 102 1 0.5 0.333333 0.25 0.2 0.166667 0.142857 0.125 0.111111
0.1 0.090909 \;;
#X obj 78 230 aapwm/aaosc~;
#X obj 59 278 aapwm/aaosc~;
#X obj 226 317 aapwm/aaosc~;
#X obj 307 76 loadbang;
#X obj 144 47 inlet~;
#X text 58 20 phasor;
#X connect 0 0 12 0;
#X connect 0 0 6 0;
#X connect 2 0 3 0;
#X connect 3 0 6 1;
#X connect 3 0 9 0;
#X connect 5 0 8 0;
#X connect 6 0 7 0;
#X connect 7 0 11 0;
#X connect 8 0 1 0;
#X connect 9 0 13 0;
#X connect 10 0 11 2;
#X connect 10 0 12 2;
#X connect 10 0 13 2;
#X connect 11 0 5 1;
#X connect 12 0 5 0;
#X connect 13 0 8 1;
#X connect 14 0 10 0;
#X connect 15 0 12 1;
#X connect 15 0 11 1;
#X connect 15 0 13 1;
