#N canvas 0 145 303 363 10;
#X obj 57 216 -~;
#X obj 111 112 +~;
#X obj 166 72 wrap~;
#X obj 57 133 -~ 1;
#X obj 58 105 *~ 2;
#X obj 168 223 -~ 1;
#X obj 167 196 *~ 2;
#X obj 96 263 +~;
#X obj 112 137 wrap~;
#X obj 111 191 -~ 1;
#X obj 112 163 *~ 2;
#X obj 166 39 inlet~;
#X obj 57 41 inlet~;
#X text 161 20 pulse;
#X text 46 20 frequency;
#X obj 97 308 outlet~;
#X connect 0 0 7 0;
#X connect 1 0 8 0;
#X connect 2 0 6 0;
#X connect 2 0 1 1;
#X connect 3 0 0 0;
#X connect 4 0 3 0;
#X connect 5 0 7 1;
#X connect 6 0 5 0;
#X connect 7 0 15 0;
#X connect 8 0 10 0;
#X connect 9 0 0 1;
#X connect 10 0 9 0;
#X connect 11 0 2 0;
#X connect 12 0 4 0;
#X connect 12 0 1 0;
