#N canvas 131 195 592 530 10;
#X obj 63 35 inlet~;
#X obj 63 476 outlet~;
#X obj 63 441 tabread4~;
#X obj 64 400 *~ \$1;
#X obj 450 36 inlet;
#X msg 429 376 set \$1_\$2;
#X obj 175 39 inlet;
#X obj 192 298 symbol lramp;
#X obj 210 275 symbol rramp;
#X obj 228 253 symbol triangle;
#X obj 246 229 symbol square;
#X obj 264 208 symbol llramp;
#X obj 282 188 symbol lrramp;
#X obj 318 142 symbol ltriangle;
#X obj 336 119 symbol lsquare;
#X obj 175 319 symbol sine;
#X obj 175 76 select 0 1 2 3 4 5 6 7 8 9;
#X obj 300 165 symbol lbent;
#X text 161 22 wave;
#X text 424 18 table ref;
#X obj 429 348 pack s f;
#X obj 450 292 t f f;
#X text 60 16 phasor;
#X connect 0 0 3 0;
#X connect 2 0 1 0;
#X connect 3 0 2 0;
#X connect 4 0 21 0;
#X connect 5 0 2 0;
#X connect 6 0 16 0;
#X connect 7 0 20 0;
#X connect 8 0 20 0;
#X connect 9 0 20 0;
#X connect 10 0 20 0;
#X connect 11 0 20 0;
#X connect 12 0 20 0;
#X connect 13 0 20 0;
#X connect 14 0 20 0;
#X connect 15 0 20 0;
#X connect 16 0 15 0;
#X connect 16 1 7 0;
#X connect 16 2 8 0;
#X connect 16 3 9 0;
#X connect 16 4 10 0;
#X connect 16 5 11 0;
#X connect 16 6 12 0;
#X connect 16 7 17 0;
#X connect 16 8 13 0;
#X connect 16 9 14 0;
#X connect 17 0 20 0;
#X connect 20 0 5 0;
#X connect 21 0 3 1;
#X connect 21 1 20 1;
