#N canvas 448 248 593 470 10;
#X obj 63 45 inlet~;
#X text 54 26 frequency;
#X obj 228 424 outlet~;
#X obj 247 46 inlet~;
#X text 222 25 pulse width;
#X text 357 366 take care of offset;
#X text 355 381 keep things in range;
#X obj 167 164 +~;
#X obj 167 186 wrap~;
#X obj 247 109 wrap~;
#X obj 148 334 -~;
#X obj 229 376 +~;
#X obj 64 210 *~ \$1;
#X obj 167 212 *~ \$1;
#X obj 247 290 *~ \$1;
#X text 273 373 Offset;
#X text 264 255 get pulse width;
#X obj 64 288 tabread4~;
#X obj 167 290 tabread4~;
#X obj 246 334 tabread4~;
#X obj 350 45 inlet;
#X text 324 27 table ref;
#X obj 350 84 t f f f f;
#X msg 410 194 set \$2_\$1;
#X obj 410 171 pack f s;
#X obj 463 145 symbol lramp;
#X obj 410 122 t f b;
#X connect 0 0 12 0;
#X connect 0 0 7 0;
#X connect 3 0 9 0;
#X connect 7 0 8 0;
#X connect 8 0 13 0;
#X connect 9 0 7 1;
#X connect 9 0 14 0;
#X connect 10 0 11 0;
#X connect 11 0 2 0;
#X connect 12 0 17 0;
#X connect 13 0 18 0;
#X connect 14 0 19 0;
#X connect 17 0 10 0;
#X connect 18 0 10 1;
#X connect 19 0 11 1;
#X connect 20 0 22 0;
#X connect 22 0 12 1;
#X connect 22 1 13 1;
#X connect 22 2 14 1;
#X connect 22 3 26 0;
#X connect 23 0 18 0;
#X connect 23 0 17 0;
#X connect 23 0 19 0;
#X connect 24 0 23 0;
#X connect 25 0 24 1;
#X connect 26 0 24 0;
#X connect 26 1 25 0;
