#N canvas 600 312 489 401 10;
#X obj 56 71 inlet;
#X obj 70 347 outlet;
#X obj 56 245 f 1;
#X obj 56 217 t b f;
#X obj 70 272 /;
#X text 208 135 1) get frequency;
#X text 208 151 2) divide 1 by the frequency;
#X obj 70 318 * 1000;
#X text 107 72 insert a frequency;
#X obj 56 124 min 0;
#X obj 103 132 max 0;
#X obj 56 151 * -1;
#X obj 56 191 +;
#X obj 56 93 t f f;
#X text 201 119 Frequency to MilliSeconds;
#X text 121 347 outputs as a number of milliSeconds;
#X text 36 29 --Frequency to MilliSecond Conversion--;
#X connect 0 0 13 0;
#X connect 2 0 4 0;
#X connect 3 0 2 0;
#X connect 3 1 4 1;
#X connect 4 0 7 0;
#X connect 7 0 1 0;
#X connect 9 0 11 0;
#X connect 10 0 12 1;
#X connect 11 0 12 0;
#X connect 12 0 3 0;
#X connect 13 0 9 0;
#X connect 13 1 10 0;
