#N canvas 0 197 415 516 10;
#X obj 161 44 inlet;
#X obj 277 40 inlet;
#X obj 131 462 outlet;
#X obj 90 44 inlet;
#X obj 161 156 -;
#X obj 161 131 t b f;
#X obj 175 417 pack f 0;
#X obj 143 237 +;
#X obj 175 393 f;
#X obj 90 328 t b b;
#X obj 90 390 f;
#X obj 161 98 t f f;
#X obj 277 93 t f f;
#X obj 90 418 pack f f;
#X obj 90 149 t b f;
#X obj 161 214 freq2midi;
#X obj 143 260 midi2freq;
#X obj 143 285 freq2time;
#X obj 161 71 abs;
#X obj 277 67 abs;
#X obj 161 191 time2freq;
#X obj 193 365 time2samp;
#X floatatom 328 383 5 0 0 0 - - -, f 5;
#X floatatom 302 452 5 0 0 0 - - -, f 5;
#X obj 267 192 time2samp;
#X connect 0 0 18 0;
#X connect 1 0 19 0;
#X connect 3 0 14 0;
#X connect 4 0 20 0;
#X connect 5 0 4 0;
#X connect 5 1 4 1;
#X connect 6 0 2 0;
#X connect 7 0 16 0;
#X connect 8 0 6 0;
#X connect 9 0 10 0;
#X connect 9 1 8 0;
#X connect 10 0 13 0;
#X connect 10 0 23 0;
#X connect 11 0 5 0;
#X connect 11 1 21 0;
#X connect 12 0 4 0;
#X connect 12 1 24 0;
#X connect 13 0 2 0;
#X connect 14 0 9 0;
#X connect 14 1 7 0;
#X connect 15 0 7 1;
#X connect 16 0 17 0;
#X connect 17 0 13 1;
#X connect 18 0 11 0;
#X connect 19 0 12 0;
#X connect 20 0 15 0;
#X connect 21 0 8 1;
#X connect 21 0 22 0;
#X connect 24 0 10 1;
