#N canvas 207 173 568 595 10;
#X obj 108 108 *~ \$1;
#X obj 109 325 *~ \$2;
#X obj 107 57 inlet~;
#X obj 110 558 outlet~;
#X obj 349 65 loadbang;
#X obj 110 501 *~;
#X obj 255 302 *~ 1;
#X obj 237 554 outlet~;
#X obj 236 487 sig~ \$2;
#X obj 109 256 cos~;
#X obj 109 229 +~ 1;
#X obj 349 90 f \$1;
#X obj 349 112 * 0.25;
#X obj 349 134 - 0.25;
#X obj 349 157 wrap;
#X obj 237 517 *~;
#X text 387 90 Get offset;
#X text 182 96 harmonic;
#X text 149 233 offset;
#X text 154 325 harmonic amp;
#X text 301 414 harmonic amp;
#X text 294 307 nyquist test;
#X text 293 514 after nyquist;
#X obj 395 341 tabread~ \$3_onoff;
#X obj 192 58 inlet~;
#X text 86 34 Phasor input;
#X text 182 37 Frequency;
#X obj 280 59 inlet;
#X text 266 39 1/nyquist;
#X obj 191 109 *~ \$1;
#X obj 256 355 *~ 0.25;
#X obj 256 379 +~ 0.25;
#X obj 255 427 +~ 1;
#X obj 256 403 cos~;
#X obj 255 329 clip~ 0 1;
#X connect 0 0 10 0;
#X connect 1 0 5 0;
#X connect 2 0 0 0;
#X connect 4 0 11 0;
#X connect 5 0 3 0;
#X connect 6 0 23 0;
#X connect 6 0 34 0;
#X connect 8 0 15 0;
#X connect 9 0 1 0;
#X connect 10 0 9 0;
#X connect 11 0 12 0;
#X connect 12 0 13 0;
#X connect 13 0 14 0;
#X connect 14 0 10 1;
#X connect 15 0 7 0;
#X connect 24 0 29 0;
#X connect 27 0 6 1;
#X connect 29 0 6 0;
#X connect 30 0 31 0;
#X connect 31 0 33 0;
#X connect 32 0 15 1;
#X connect 32 0 5 1;
#X connect 33 0 32 0;
#X connect 34 0 30 0;
