#N canvas 0 173 520 493 10;
#X obj 78 226 t f f;
#X obj 78 251 / 1;
#X obj 78 277 - 1;
#X obj 78 301 t b f;
#X obj 78 324 f 1;
#X obj 78 349 -;
#X obj 110 325 abs;
#X obj 160 198 * 0.5;
#X obj 78 166 until;
#X obj 78 197 f;
#X obj 116 197 + 1;
#X obj 78 375 tabwrite bartlett_\$1;
#X obj 78 71 loadbang;
#X obj 78 97 f \$1;
#X obj 78 125 t f f;
#X text 283 82 \$1 is first argument.;
#X text 185 114 so if you need a 128 sample window \,;
#X text 55 43 -Bartlett Window-;
#X text 227 98 it should be the window size.;
#X text 199 131 you reference it as bartlett_128.;
#X obj 78 408 table bartlett_\$1 \$1;
#X connect 0 0 1 0;
#X connect 0 1 11 1;
#X connect 1 0 2 0;
#X connect 2 0 3 0;
#X connect 3 0 4 0;
#X connect 3 1 6 0;
#X connect 4 0 5 0;
#X connect 5 0 11 0;
#X connect 6 0 5 1;
#X connect 7 0 1 1;
#X connect 8 0 9 0;
#X connect 9 0 10 0;
#X connect 9 0 0 0;
#X connect 10 0 9 1;
#X connect 12 0 13 0;
#X connect 13 0 14 0;
#X connect 14 0 8 0;
#X connect 14 1 7 0;
