#N canvas 728 113 524 655 10;
#X obj 78 197 t f f;
#X obj 78 223 / 1;
#X obj 78 274 t f b;
#X obj 110 300 f 3.14159;
#X obj 78 324 *;
#X obj 164 391 * 2;
#X obj 164 415 cos;
#X obj 79 379 cos;
#X obj 78 140 until;
#X obj 78 171 f;
#X obj 116 171 + 1;
#X obj 78 52 loadbang;
#X obj 78 74 f \$1;
#X obj 154 197 * 0.5;
#X text 293 60 \$1 is first argument.;
#X text 195 92 so if you need a 128 sample window \,;
#X text 237 76 it should be the window size.;
#X text 209 109 you reference it as blackman_128.;
#X text 166 136 w(n) = a_0 - a_1 cos (2 pi n / (N - 1));
#X text 257 153 + a_2 cos (4 pi n /(N- 1));
#X text 232 185 a_0 = 1 - a / 2;
#X text 232 205 a_1 = 1/2;
#X text 232 226 a_2 = a / 2;
#X obj 242 414 cos;
#X obj 242 390 * 3;
#X obj 79 438 t b f;
#X obj 79 482 -;
#X obj 79 506 +;
#X obj 79 528 -;
#X text 87 253 <--notice we start at cosine unlike the other patches
;
#X obj 79 578 tabwrite flat-top_\$1;
#X obj 317 414 cos;
#X obj 317 390 * 4;
#X text 376 287 a_0 = 1;
#X text 376 305 a_1 = 1.93;
#X text 376 325 a_2 = 1.29;
#X text 376 346 a_3 = 0.388;
#X text 376 365 a_3 = 0.028;
#X obj 79 553 +;
#X obj 79 460 f 1;
#X obj 79 403 * 1.93;
#X obj 164 438 * 1.29;
#X obj 242 438 * 0.388;
#X obj 317 438 * 0.028;
#X obj 78 606 table flat-top_\$1 \$1;
#X obj 78 352 t b f f f f;
#X obj 78 96 t f f;
#X text 52 25 --Blackman-Harris Window--;
#X connect 0 0 1 0;
#X connect 0 1 30 1;
#X connect 1 0 2 0;
#X connect 2 0 4 0;
#X connect 2 1 3 0;
#X connect 3 0 4 1;
#X connect 4 0 45 0;
#X connect 5 0 6 0;
#X connect 6 0 41 0;
#X connect 7 0 40 0;
#X connect 8 0 9 0;
#X connect 9 0 10 0;
#X connect 9 0 0 0;
#X connect 10 0 9 1;
#X connect 11 0 12 0;
#X connect 12 0 46 0;
#X connect 13 0 1 1;
#X connect 23 0 42 0;
#X connect 24 0 23 0;
#X connect 25 0 39 0;
#X connect 25 1 26 1;
#X connect 26 0 27 0;
#X connect 27 0 28 0;
#X connect 28 0 38 0;
#X connect 31 0 43 0;
#X connect 32 0 31 0;
#X connect 38 0 30 0;
#X connect 39 0 26 0;
#X connect 40 0 25 0;
#X connect 41 0 27 1;
#X connect 42 0 28 1;
#X connect 43 0 38 1;
#X connect 45 1 7 0;
#X connect 45 2 5 0;
#X connect 45 3 24 0;
#X connect 45 4 32 0;
#X connect 46 0 8 0;
#X connect 46 1 13 0;
