#N canvas 0 199 574 569 10;
#X obj 85 68 loadbang;
#X obj 85 90 f \$1;
#X obj 85 216 t f f;
#X obj 85 242 / 1;
#X text 120 243 <--table length;
#X obj 85 266 - 1;
#X text 142 312 <--vairable;
#X obj 85 165 until;
#X obj 85 191 f;
#X obj 123 191 + 1;
#X obj 85 335 *;
#X obj 85 287 t f b;
#X obj 85 386 pow 2;
#X obj 85 442 exp;
#X obj 85 412 * -1;
#X obj 85 361 abs;
#X obj 117 312 f 2;
#X obj 85 470 tabwrite gaussian_\$1;
#X obj 164 203 * 0.5;
#X text 381 71 \$1 is first argument.;
#X text 283 103 so if you need a 128 sample window \,;
#X text 304 120 you reference it as gaussian_128;
#X text 325 87 it should be the window size.;
#X text 55 43 -Gaussian Window-;
#X text 345 159 \$2 is the second argument.;
#X text 359 193 in the gaussian formula.;
#X text 429 210 if left blank \,;
#X obj 244 169 f \$2;
#X obj 244 195 select 0;
#X obj 297 219 t b;
#X obj 85 112 t f f b;
#X obj 297 243 f \$2;
#X text 408 227 the default is 2;
#X text 380 176 it controls the bend;
#X obj 297 267 max 1;
#X obj 85 509 table gaussian_\$1 \$1;
#X obj 244 222 f 2;
#X connect 0 0 1 0;
#X connect 1 0 30 0;
#X connect 2 0 3 0;
#X connect 2 1 17 1;
#X connect 3 0 5 0;
#X connect 5 0 11 0;
#X connect 7 0 8 0;
#X connect 8 0 9 0;
#X connect 8 0 2 0;
#X connect 9 0 8 1;
#X connect 10 0 15 0;
#X connect 11 0 10 0;
#X connect 11 1 16 0;
#X connect 12 0 14 0;
#X connect 13 0 17 0;
#X connect 14 0 13 0;
#X connect 15 0 12 0;
#X connect 16 0 10 1;
#X connect 18 0 3 1;
#X connect 27 0 28 0;
#X connect 28 0 36 0;
#X connect 28 1 29 0;
#X connect 29 0 31 0;
#X connect 30 0 7 0;
#X connect 30 1 18 0;
#X connect 30 2 27 0;
#X connect 31 0 34 0;
#X connect 34 0 16 1;
#X connect 36 0 16 1;
