#N canvas 631 156 511 543 10;
#X obj 75 78 loadbang;
#X obj 75 104 f \$1;
#X obj 107 322 f 3.14159;
#X obj 75 169 until;
#X obj 75 222 t f f;
#X obj 75 246 / 1;
#X obj 75 297 t f b;
#X obj 75 346 *;
#X obj 75 416 + 0.5;
#X obj 75 372 cos;
#X obj 75 394 * 0.5;
#X obj 176 219 * 0.5;
#X obj 75 195 f;
#X obj 113 195 + 1;
#X obj 75 441 tabwrite hanning_\$1;
#X obj 75 132 t f f;
#X text 313 77 \$1 is first argument.;
#X text 257 93 it should be the sample size.;
#X text 236 126 you reference it as hanning_128.;
#X text 55 42 -Hanning Window-;
#X text 215 109 so if you need a 128 window window \,;
#X obj 73 470 table hanning_\$1 \$1;
#X text 202 157 w(n) = 0.5 (1 - cos( 2 pi n / N - 1);
#X obj 75 271 - 1;
#X connect 0 0 1 0;
#X connect 1 0 15 0;
#X connect 2 0 7 1;
#X connect 3 0 12 0;
#X connect 4 0 5 0;
#X connect 4 1 14 1;
#X connect 5 0 23 0;
#X connect 6 0 7 0;
#X connect 6 1 2 0;
#X connect 7 0 9 0;
#X connect 8 0 14 0;
#X connect 9 0 10 0;
#X connect 10 0 8 0;
#X connect 11 0 5 1;
#X connect 12 0 13 0;
#X connect 12 0 4 0;
#X connect 13 0 12 1;
#X connect 15 0 3 0;
#X connect 15 1 11 0;
#X connect 23 0 6 0;
