#N canvas 115 311 427 386 10;
#X obj 259 125 route \$1;
#X obj 259 93 r presets;
#X obj 143 92 receive save;
#X obj 61 91 inlet;
#X text 38 65 bang for param;
#X text 253 75 on a load;
#X text 159 66 on a save;
#X obj 259 323 outlet;
#X obj 143 244 list;
#X obj 143 268 route list;
#X obj 143 121 t b;
#X obj 143 147 symbol \$1;
#X obj 259 160 t a a;
#X obj 143 292 s params;
#X msg 143 183 add \$1;
#X connect 0 0 12 0;
#X connect 1 0 0 0;
#X connect 2 0 10 0;
#X connect 3 0 8 1;
#X connect 8 0 9 0;
#X connect 9 0 13 0;
#X connect 10 0 11 0;
#X connect 11 0 14 0;
#X connect 12 0 7 0;
#X connect 12 1 8 1;
#X connect 14 0 8 0;
