#N canvas 0 145 450 300 10;
#X obj 72 87 inlet;
#X obj 105 232 outlet;
#X obj 72 140 min 0;
#X obj 123 140 max 0;
#X obj 72 167 * -1;
#X obj 105 202 +;
#X text 245 122 Shouldn't be neccessary.;
#X text 245 140 However in case you use;
#X text 252 158 a legacy version of Pd.;
#X text 56 48 --Absolute Value--;
#X obj 72 112 t f f;
#X connect 0 0 10 0;
#X connect 2 0 4 0;
#X connect 3 0 5 1;
#X connect 4 0 5 0;
#X connect 5 0 1 0;
#X connect 10 0 2 0;
#X connect 10 1 3 0;
