#N canvas 0 197 450 300 10;
#X obj 110 46 inlet~;
#X obj 90 254 outlet~;
#X obj 90 154 sig~ 60;
#X obj 91 189 /~;
#X obj 90 225 *~ 1000;
#X text 162 47 input a tempo;
#X obj 129 76 max~ 0;
#X obj 77 75 min~ 0;
#X obj 110 127 +~;
#X obj 77 101 *~ -1;
#X text 187 135 1) get BPM;
#X text 187 153 2) divide 60 by BPM;
#X text 187 169 3) multiply by 1000 to convert;
#X text 45 24 --BPM to MilliSecond Conversion--;
#X text 164 111 BPM to MilliSeconds;
#X text 243 185 convert to milliSeconds.;
#X text 155 255 outputs as milliSeconds;
#X connect 0 0 7 0;
#X connect 0 0 6 0;
#X connect 2 0 3 0;
#X connect 3 0 4 0;
#X connect 4 0 1 0;
#X connect 6 0 8 1;
#X connect 7 0 9 0;
#X connect 8 0 3 1;
#X connect 9 0 8 0;
