#N canvas 780 385 475 383 10;
#X obj 57 64 inlet;
#X obj 57 326 outlet;
#X obj 57 237 f 60;
#X obj 57 214 t b f;
#X obj 57 264 /;
#X obj 57 297 * 1000;
#X text 101 65 input a tempo;
#X obj 57 121 min 0;
#X obj 109 123 max 0;
#X obj 57 148 * -1;
#X obj 57 188 +;
#X obj 57 90 t f f;
#X text 195 181 1) get BPM;
#X text 195 199 2) divide 60 by BPM;
#X text 195 215 3) multiply by 1000 to convert;
#X text 34 32 --BPM to MilliSecond Conversion--;
#X text 172 157 BPM to MilliSeconds;
#X text 251 231 convert to milliSeconds.;
#X text 109 326 outputs as milliSeconds;
#X connect 0 0 11 0;
#X connect 2 0 4 0;
#X connect 3 0 2 0;
#X connect 3 1 4 1;
#X connect 4 0 5 0;
#X connect 5 0 1 0;
#X connect 7 0 9 0;
#X connect 8 0 10 1;
#X connect 9 0 10 0;
#X connect 10 0 3 0;
#X connect 11 0 7 0;
#X connect 11 1 8 0;
