#N canvas 0 93 450 300 10;
#X text 47 25 ++++CONVERSIONS++++;
#X floatatom 67 69 5 0 0 0 - - -, f 5;
#X floatatom 67 117 5 0 0 0 - - -, f 5;
#X floatatom 67 180 5 0 0 0 - - -, f 5;
#X floatatom 67 228 5 0 0 0 - - -, f 5;
#X floatatom 67 275 5 0 0 0 - - -, f 5;
#X floatatom 67 340 5 0 0 0 - - -, f 5;
#X floatatom 67 388 5 0 0 0 - - -, f 5;
#X floatatom 67 435 5 0 0 0 - - -, f 5;
#X floatatom 67 501 5 0 0 0 - - -, f 5;
#X floatatom 67 549 5 0 0 0 - - -, f 5;
#X floatatom 67 596 5 0 0 0 - - -, f 5;
#X floatatom 67 661 5 0 0 0 - - -, f 5;
#X floatatom 67 709 5 0 0 0 - - -, f 5;
#X floatatom 67 756 5 0 0 0 - - -, f 5;
#X floatatom 67 825 5 0 0 0 - - -, f 5;
#X floatatom 67 873 5 0 0 0 - - -, f 5;
#X floatatom 67 920 5 0 0 0 - - -, f 5;
#X floatatom 67 985 5 0 0 0 - - -, f 5;
#X floatatom 67 1033 5 0 0 0 - - -, f 5;
#X floatatom 67 1080 5 0 0 0 - - -, f 5;
#X floatatom 67 1145 5 0 0 0 - - -, f 5;
#X floatatom 67 1193 5 0 0 0 - - -, f 5;
#X floatatom 67 1240 5 0 0 0 - - -, f 5;
#X floatatom 66 1565 5 0 0 0 - - -, f 5;
#X floatatom 66 1449 5 0 0 0 - - -, f 5;
#X floatatom 118 1450 5 0 0 0 - - -, f 5;
#X obj 118 1472 t b f;
#X floatatom 168 1450 5 0 0 0 - - -, f 5;
#X obj 168 1472 t b f;
#X obj 66 1508 pack f f f;
#X floatatom 66 1415 5 0 0 0 - - -, f 5;
#X floatatom 66 1299 5 0 0 0 - - -, f 5;
#X floatatom 118 1300 5 0 0 0 - - -, f 5;
#X obj 118 1322 t b f;
#X obj 66 1358 pack f f;
#X floatatom 67 1844 5 0 0 0 - - -, f 5;
#X floatatom 67 1718 5 0 0 0 - - -, f 5;
#X floatatom 119 1719 5 0 0 0 - - -, f 5;
#X obj 119 1741 t b f;
#X floatatom 67 1680 5 0 0 0 - - -, f 5;
#X floatatom 67 1628 5 0 0 0 - - -, f 5;
#X obj 67 1771 pack f f;
#X floatatom 134 1680 5 0 0 0 - - -, f 5;
#X floatatom 142 1844 5 0 0 0 - - -, f 5;
#X floatatom 218 1844 5 0 0 0 - - -, f 5;
#X text 263 1630 theta = 0 - 1;
#X text 115 1631 theta = 0 - 2pi;
#X text 263 1794 theta = 0 - 1;
#X text 115 1795 theta = 0 - 2pi;
#X text 47 47 [+/-]<-->Absolute Value;
#X text 47 317 Frequency<-->Samples;
#X text 47 478 Frequency<-->Milliseconds;
#X text 47 157 BPM<-->Milliseconds;
#X text 47 638 Frequency<-->MIDI;
#X text 47 802 Samples<-->Milliseconds;
#X text 47 962 Milliseconds<-->Meters;
#X text 47 1122 Milliseconds<-->Meters;
#X text 45 1277 2D & 3D Hypotenuse;
#X text 46 1606 Unit Circle & Unit Sphere;
#X obj 67 92 absolute;
#X obj 244 92 absolute~;
#X obj 67 203 bpm2time;
#X obj 244 203 bpm2time~;
#X obj 244 248 time2bpm~;
#X obj 67 248 time2bpm;
#X obj 67 363 freq2samp;
#X obj 67 408 samp2freq;
#X obj 244 363 freq2samp~;
#X obj 244 408 samp2freq~;
#X obj 67 524 freq2time;
#X obj 244 524 freq2time~;
#X obj 244 569 time2freq~;
#X obj 67 569 time2freq;
#X obj 67 684 freq2midi;
#X obj 244 684 freq2midi~;
#X obj 244 729 midi2freq~;
#X obj 67 729 midi2freq;
#X obj 67 848 samp2time;
#X obj 244 848 samp2time~;
#X obj 244 893 time2samp~;
#X obj 67 893 time2samp;
#X obj 67 1008 time2dist;
#X obj 67 1053 dist2time;
#X obj 244 1008 time2dist~;
#X obj 244 1053 dist2time~;
#X obj 67 1168 time2dist;
#X obj 67 1213 dist2time;
#X obj 244 1168 time2dist~;
#X obj 244 1213 dist2time~;
#X obj 66 1388 hypotenuse3d;
#X obj 263 1388 hypotenuse2d~;
#X obj 66 1538 hypotenuse3d;
#X obj 263 1538 hypotenuse3d~;
#X obj 67 1653 unitcircle;
#X obj 264 1653 unitcircle~;
#X obj 67 1817 unitsphere;
#X obj 264 1817 unitsphere~;
#X text 47 1875 ++++++++;
#X connect 1 0 60 0;
#X connect 3 0 62 0;
#X connect 4 0 65 0;
#X connect 6 0 66 0;
#X connect 7 0 67 0;
#X connect 9 0 70 0;
#X connect 10 0 73 0;
#X connect 12 0 74 0;
#X connect 13 0 77 0;
#X connect 15 0 78 0;
#X connect 16 0 81 0;
#X connect 18 0 82 0;
#X connect 19 0 83 0;
#X connect 21 0 86 0;
#X connect 22 0 87 0;
#X connect 25 0 30 0;
#X connect 26 0 27 0;
#X connect 27 0 30 0;
#X connect 27 1 30 1;
#X connect 28 0 29 0;
#X connect 29 0 30 0;
#X connect 29 1 30 2;
#X connect 30 0 92 0;
#X connect 32 0 35 0;
#X connect 33 0 34 0;
#X connect 34 0 35 0;
#X connect 34 1 35 1;
#X connect 35 0 90 0;
#X connect 37 0 42 0;
#X connect 38 0 39 0;
#X connect 39 0 42 0;
#X connect 39 1 42 1;
#X connect 41 0 94 0;
#X connect 42 0 96 0;
#X connect 60 0 2 0;
#X connect 62 0 4 0;
#X connect 65 0 5 0;
#X connect 66 0 7 0;
#X connect 67 0 8 0;
#X connect 70 0 10 0;
#X connect 73 0 11 0;
#X connect 74 0 13 0;
#X connect 77 0 14 0;
#X connect 78 0 16 0;
#X connect 81 0 17 0;
#X connect 82 0 19 0;
#X connect 83 0 20 0;
#X connect 86 0 22 0;
#X connect 87 0 23 0;
#X connect 90 0 31 0;
#X connect 92 0 24 0;
#X connect 94 0 40 0;
#X connect 94 1 43 0;
#X connect 96 0 36 0;
#X connect 96 1 44 0;
#X connect 96 2 45 0;
