#N canvas 598 120 702 312 10;
#X obj 63 42 inlet;
#X obj 63 251 outlet;
#X obj 63 189 /;
#X obj 238 41 loadbang;
#X obj 238 89 select 0;
#X obj 238 133 f 343.2;
#X obj 238 112 t b;
#X obj 238 65 f \$1;
#X text 423 76 \$1 is first argument.;
#X text 353 92 it's the 'speed' of the medium.;
#X obj 63 216 * 1000;
#X text 339 108 in case you'd like to experiment.;
#X obj 63 98 min 0;
#X obj 115 100 max 0;
#X obj 63 125 * -1;
#X obj 63 161 +;
#X obj 63 67 t f f;
#X text 109 42 insert Meters;
#X text 313 207 2) get speed of medium in meters/second;
#X text 313 191 1) get Meters;
#X text 313 224 3) divide Meters by Speed;
#X text 297 175 Meters to MilliSeconds;
#X text 37 11 --Meters to MilliSeconds Conversion;
#X text 122 250 output milliSeconds;
#X text 313 240 4) multiply by 1000 to convert to MilliSeconds;
#X connect 0 0 16 0;
#X connect 2 0 10 0;
#X connect 3 0 7 0;
#X connect 4 0 6 0;
#X connect 4 1 2 1;
#X connect 5 0 2 1;
#X connect 6 0 5 0;
#X connect 7 0 4 0;
#X connect 10 0 1 0;
#X connect 12 0 14 0;
#X connect 13 0 15 1;
#X connect 14 0 15 0;
#X connect 15 0 2 0;
#X connect 16 0 12 0;
#X connect 16 1 13 0;
