#N canvas 418 293 684 320 10;
#X obj 307 46 loadbang;
#X obj 307 94 select 0;
#X obj 307 121 f 343.2;
#X obj 82 44 inlet~;
#X obj 82 259 outlet~;
#X obj 83 196 /~ 1;
#X obj 307 70 f \$1;
#X text 494 57 \$1 is first argument.;
#X text 424 73 it's the 'speed' of the medium.;
#X obj 83 229 *~ 1000;
#X text 410 89 in case you'd like to experiment.;
#X obj 133 88 max~ 0;
#X obj 81 87 min~ 0;
#X obj 82 151 +~;
#X obj 81 113 *~ -1;
#X text 132 44 insert Meters;
#X text 344 208 2) get speed of medium in meters/second;
#X text 344 192 1) get Meters;
#X text 344 225 3) divide Meters by Speed;
#X text 30 17 --Meters to MilliSeconds Conversion;
#X text 140 260 output milliSeconds;
#X text 328 175 Meters to MilliSeconds;
#X text 344 241 4) multiply by 1000 to convert to MilliSeconds;
#X connect 0 0 6 0;
#X connect 1 0 2 0;
#X connect 1 1 5 1;
#X connect 2 0 5 1;
#X connect 3 0 12 0;
#X connect 3 0 11 0;
#X connect 5 0 9 0;
#X connect 6 0 1 0;
#X connect 9 0 4 0;
#X connect 11 0 13 1;
#X connect 12 0 14 0;
#X connect 13 0 5 0;
#X connect 14 0 13 0;
