#N canvas 0 132 466 367 10;
#X obj 50 67 inlet~;
#X obj 32 310 outlet~;
#X text 129 203 Frequency to Time;
#X obj 32 211 sig~ 1;
#X obj 33 243 /~;
#X text 136 219 1) get frequency;
#X text 136 235 2) divide 1 by the frequency;
#X obj 33 278 *~ 1000;
#X obj 103 115 max~ 0;
#X obj 51 114 min~ 0;
#X obj 52 175 +~;
#X obj 51 140 *~ -1;
#X text 101 66 input a frequency;
#X text 15 38 --Frequency to MilliSecond Converter--;
#X text 96 312 output as milliSeconds;
#X connect 0 0 9 0;
#X connect 0 0 8 0;
#X connect 3 0 4 0;
#X connect 4 0 7 0;
#X connect 7 0 1 0;
#X connect 8 0 10 1;
#X connect 9 0 11 0;
#X connect 10 0 4 1;
#X connect 11 0 10 0;
