#N canvas 0 210 631 428 10;
#X obj 286 233 f 440;
#X obj 286 186 pow;
#X obj 286 161 f 2;
#X obj 315 161 / 12;
#X obj 286 137 t b f;
#X obj 286 210 t b f;
#X obj 298 257 *;
#X obj 229 87 loadbang;
#X obj 229 112 f 0.5;
#X obj 229 136 rmstodb;
#X obj 229 160 - 100;
#X obj 229 185 * -1;
#X obj 298 280 t b f;
#X obj 298 304 f 1;
#X obj 298 327 /;
#X obj 229 208 t b f;
#X obj 229 232 f 1;
#X obj 229 257 /;
#X obj 191 113 f 12;
#X obj 286 113 f -69;
#X obj 89 73 inlet;
#X obj 89 248 * 1;
#X obj 89 276 rmstodb;
#X obj 89 303 - 100;
#X obj 89 333 * 1;
#X obj 89 359 * 1;
#X obj 89 397 outlet;
#X text 67 37 --Frequency to Midi Conversion--;
#X text 425 132 Not a neccessary object.;
#X text 390 148 This is a pendantic exercise.;
#X text 488 232 provided by Pd.;
#X text 418 249 This object reaches a few;
#X text 432 265 more midi notes though.;
#X text 362 165 Shows the same power relationship;
#X text 362 182 that drives amplitude also drives;
#X text 439 198 also drives frequency.;
#X text 392 215 By all means \, use the [ftom];
#X obj 89 136 min 0;
#X obj 141 138 max 0;
#X obj 89 163 * -1;
#X obj 89 203 +;
#X obj 89 105 t f f;
#X connect 0 0 6 0;
#X connect 1 0 5 0;
#X connect 2 0 1 0;
#X connect 3 0 1 1;
#X connect 4 0 2 0;
#X connect 4 1 3 0;
#X connect 5 0 0 0;
#X connect 5 1 6 1;
#X connect 6 0 12 0;
#X connect 7 0 8 0;
#X connect 7 0 18 0;
#X connect 7 0 19 0;
#X connect 8 0 9 0;
#X connect 9 0 10 0;
#X connect 10 0 11 0;
#X connect 11 0 15 0;
#X connect 12 0 13 0;
#X connect 12 1 14 1;
#X connect 13 0 14 0;
#X connect 14 0 21 1;
#X connect 15 0 16 0;
#X connect 15 1 17 1;
#X connect 16 0 17 0;
#X connect 17 0 24 1;
#X connect 18 0 25 1;
#X connect 19 0 4 0;
#X connect 20 0 41 0;
#X connect 21 0 22 0;
#X connect 22 0 23 0;
#X connect 23 0 24 0;
#X connect 24 0 25 0;
#X connect 25 0 26 0;
#X connect 37 0 39 0;
#X connect 38 0 40 1;
#X connect 39 0 40 0;
#X connect 40 0 21 0;
#X connect 41 0 37 0;
#X connect 41 1 38 0;
