#N canvas 0 132 504 374 10;
#X obj 53 72 inlet~;
#X obj 34 319 outlet~;
#X obj 92 202 loadbang;
#X obj 92 228 samplerate~;
#X obj 33 256 sig~;
#X obj 34 286 /~;
#X text 187 225 Frequency 2 samples;
#X text 199 244 1) Get frequency;
#X text 199 260 2) get samplerate;
#X text 199 276 3) divide samplerate by frequency;
#X text 23 39 --Frequency to Samples Conversion--;
#X text 106 71 input a Frequency;
#X text 100 320 outputs as number of samples;
#X obj 53 215 abs~;
#X obj 105 115 max~ 0;
#X obj 53 114 min~ 0;
#X obj 54 175 +~;
#X obj 53 140 *~ -1;
#X connect 0 0 15 0;
#X connect 0 0 14 0;
#X connect 2 0 3 0;
#X connect 3 0 4 0;
#X connect 4 0 5 0;
#X connect 5 0 1 0;
#X connect 13 0 5 1;
#X connect 14 0 16 1;
#X connect 15 0 17 0;
#X connect 16 0 13 0;
#X connect 17 0 16 0;
