#N canvas 646 219 483 414 10;
#X obj 53 67 inlet;
#X obj 53 300 outlet;
#X obj 168 103 loadbang;
#X obj 168 126 samplerate~;
#X obj 53 268 /;
#X text 190 189 Frequency 2 samples;
#X text 202 208 1) Get frequency;
#X text 202 224 2) get samplerate;
#X text 202 240 3) divide samplerate by frequency;
#X obj 53 193 t b f;
#X obj 53 238 f;
#X text 28 36 --Frequency to Samples Conversion--;
#X text 99 68 input a Frequency;
#X text 109 302 outputs as number of samples;
#X obj 53 94 min 0;
#X obj 105 96 max 0;
#X obj 53 121 * -1;
#X obj 53 150 +;
#X connect 0 0 14 0;
#X connect 0 0 15 0;
#X connect 2 0 3 0;
#X connect 3 0 10 1;
#X connect 4 0 1 0;
#X connect 9 0 10 0;
#X connect 9 1 4 1;
#X connect 10 0 4 0;
#X connect 14 0 16 0;
#X connect 15 0 17 1;
#X connect 16 0 17 0;
#X connect 17 0 9 0;
