#N canvas 1 160 754 444 10;
#X obj 321 231 f 440;
#X obj 321 184 pow;
#X obj 321 159 f 2;
#X obj 350 159 / 12;
#X obj 321 135 t b f;
#X obj 321 208 t b f;
#X obj 333 255 *;
#X obj 264 85 loadbang;
#X obj 264 110 f 0.5;
#X obj 264 134 rmstodb;
#X obj 264 158 - 100;
#X obj 264 183 * -1;
#X obj 132 69 inlet~;
#X obj 131 374 outlet~;
#X obj 131 196 *~ 1;
#X obj 131 224 rmstodb~;
#X obj 130 252 -~ 100;
#X obj 130 281 *~ 1;
#X obj 130 307 *~ 1;
#X obj 333 278 t b f;
#X obj 333 302 f 1;
#X obj 333 325 /;
#X obj 264 206 t b f;
#X obj 264 230 f 1;
#X obj 264 255 /;
#X obj 222 112 f 12;
#X obj 149 104 max~ 0;
#X obj 98 104 min~ 0;
#X obj 131 165 +~;
#X obj 98 130 *~ -1;
#X obj 321 111 f -69;
#X text 64 40 --Frequency to Midi Conversion--;
#X text 492 164 Not a neccessary object.;
#X text 457 180 This is a pendantic exercise.;
#X text 555 264 provided by Pd.;
#X text 485 281 This object reaches a few;
#X text 499 297 more midi notes though.;
#X text 429 197 Shows the same power relationship;
#X text 429 214 that drives amplitude also drives;
#X text 506 230 also drives frequency.;
#X text 457 247 By all means \, use the [ftom~];
#X connect 0 0 6 0;
#X connect 1 0 5 0;
#X connect 2 0 1 0;
#X connect 3 0 1 1;
#X connect 4 0 2 0;
#X connect 4 1 3 0;
#X connect 5 0 0 0;
#X connect 5 1 6 1;
#X connect 6 0 19 0;
#X connect 7 0 8 0;
#X connect 7 0 25 0;
#X connect 7 0 30 0;
#X connect 8 0 9 0;
#X connect 9 0 10 0;
#X connect 10 0 11 0;
#X connect 11 0 22 0;
#X connect 12 0 27 0;
#X connect 12 0 26 0;
#X connect 14 0 15 0;
#X connect 15 0 16 0;
#X connect 16 0 17 0;
#X connect 17 0 18 0;
#X connect 18 0 13 0;
#X connect 19 0 20 0;
#X connect 19 1 21 1;
#X connect 20 0 21 0;
#X connect 21 0 14 1;
#X connect 22 0 23 0;
#X connect 22 1 24 1;
#X connect 23 0 24 0;
#X connect 24 0 17 1;
#X connect 25 0 18 1;
#X connect 26 0 28 1;
#X connect 27 0 29 0;
#X connect 28 0 14 0;
#X connect 29 0 28 0;
#X connect 30 0 4 0;
