#N canvas 276 373 450 300 10;
#X obj 43 60 inlet~;
#X obj 106 64 inlet~;
#X obj 44 108 *~;
#X obj 106 107 *~;
#X obj 45 155 q8_sqrt~;
#X obj 45 187 outlet~;
#X text 48 208 hypotenuse/distance;
#X text 49 34 steering force (x \, y);
#X connect 0 0 2 0;
#X connect 0 0 2 1;
#X connect 1 0 3 0;
#X connect 1 0 3 1;
#X connect 2 0 4 0;
#X connect 3 0 4 0;
#X connect 4 0 5 0;
