#N canvas 261 438 450 300 10;
#X text 49 34 steering force (x \, y);
#X text 100 224 hypotenuse/distance;
#X obj 52 111 t f f;
#X obj 52 133 *;
#X obj 52 197 sqrt;
#X obj 119 111 t f f;
#X obj 119 133 *;
#X obj 52 172 +;
#X obj 52 63 inlet;
#X obj 52 222 outlet;
#X obj 52 87 unpack f f;
#X connect 2 0 3 0;
#X connect 2 1 3 1;
#X connect 3 0 7 0;
#X connect 4 0 9 0;
#X connect 5 0 6 0;
#X connect 5 1 6 1;
#X connect 6 0 7 1;
#X connect 7 0 4 0;
#X connect 8 0 10 0;
#X connect 10 0 2 0;
#X connect 10 1 5 0;
