#N canvas 276 373 450 300 10;
#X text 49 34 steering force (x \, y \, z);
#X obj 42 61 inlet~;
#X obj 106 64 inlet~;
#X obj 44 108 *~;
#X obj 106 107 *~;
#X obj 107 171 q8_sqrt~;
#X obj 107 203 outlet~;
#X text 74 227 hypotenuse/distance;
#X obj 168 61 inlet~;
#X obj 168 104 *~;
#X connect 1 0 3 0;
#X connect 1 0 3 1;
#X connect 2 0 4 0;
#X connect 2 0 4 1;
#X connect 3 0 5 0;
#X connect 4 0 5 0;
#X connect 5 0 6 0;
#X connect 8 0 9 0;
#X connect 8 0 9 1;
#X connect 9 0 5 0;
