#N canvas 623 427 450 300 10;
#X text 49 34 steering force (x \, y \, z);
#X text 130 253 hypotenuse/distance;
#X obj 52 119 t f f;
#X obj 52 141 *;
#X obj 82 226 sqrt;
#X obj 102 119 t f f;
#X obj 102 141 *;
#X obj 153 119 t f f;
#X obj 153 141 *;
#X obj 120 169 +;
#X obj 82 201 +;
#X obj 52 86 unpack f f f;
#X obj 52 62 inlet;
#X obj 82 251 outlet;
#X connect 2 0 3 0;
#X connect 2 1 3 1;
#X connect 3 0 10 0;
#X connect 4 0 13 0;
#X connect 5 0 6 0;
#X connect 5 1 6 1;
#X connect 6 0 9 0;
#X connect 7 0 8 0;
#X connect 7 1 8 1;
#X connect 8 0 9 1;
#X connect 9 0 10 1;
#X connect 10 0 4 0;
#X connect 11 0 2 0;
#X connect 11 1 5 0;
#X connect 11 2 7 0;
#X connect 12 0 11 0;
