#N canvas 122 233 754 492 10;
#X obj 311 242 f 440;
#X obj 311 195 pow;
#X obj 311 170 f 2;
#X obj 340 170 / 12;
#X obj 311 146 t b f;
#X obj 311 219 t b f;
#X obj 323 266 *;
#X obj 254 61 loadbang;
#X obj 254 121 f 0.5;
#X obj 254 145 rmstodb;
#X obj 254 169 - 100;
#X obj 254 194 * -1;
#X obj 136 66 inlet~;
#X obj 220 123 f 1;
#X obj 220 145 / 12;
#X obj 135 227 *~ 1;
#X obj 135 251 *~ 1;
#X obj 135 274 +~ 100;
#X obj 135 297 dbtorms~;
#X obj 134 325 *~ 1;
#X obj 135 361 outlet~;
#X obj 311 122 f -69;
#X text 446 143 Not a neccessary object.;
#X text 411 159 This is a pendantic exercise.;
#X text 509 243 provided by Pd.;
#X text 439 260 This object reaches a few;
#X text 453 276 more midi notes though.;
#X text 383 176 Shows the same power relationship;
#X text 383 193 that drives amplitude also drives;
#X text 460 209 also drives frequency.;
#X text 66 30 --Midi to Frequency Conversion--;
#X text 413 226 By all means \, use the [mtof];
#X obj 255 89 t b b b;
#X connect 0 0 6 0;
#X connect 1 0 5 0;
#X connect 2 0 1 0;
#X connect 3 0 1 1;
#X connect 4 0 2 0;
#X connect 4 1 3 0;
#X connect 5 0 0 0;
#X connect 5 1 6 1;
#X connect 6 0 19 1;
#X connect 7 0 32 0;
#X connect 8 0 9 0;
#X connect 9 0 10 0;
#X connect 10 0 11 0;
#X connect 11 0 16 1;
#X connect 12 0 15 0;
#X connect 13 0 14 0;
#X connect 14 0 15 1;
#X connect 15 0 16 0;
#X connect 16 0 17 0;
#X connect 17 0 18 0;
#X connect 18 0 19 0;
#X connect 19 0 20 0;
#X connect 21 0 4 0;
#X connect 32 0 13 0;
#X connect 32 1 8 0;
#X connect 32 2 21 0;
