#N canvas 0 145 558 353 10;
#X obj 228 67 loadbang;
#X obj 228 91 samplerate~;
#X obj 228 137 f 1;
#X obj 228 115 t b f;
#X obj 228 162 /;
#X obj 94 211 *;
#X text 313 160 1) get samples;
#X text 313 176 2) get reciprocal of samplerate;
#X text 313 191 3) multiply samples by reciprocal;
#X obj 94 234 * 1000;
#X obj 94 259 outlet;
#X text 105 69 insert samples;
#X obj 60 69 inlet;
#X obj 60 122 min 0;
#X obj 111 122 max 0;
#X obj 60 149 * -1;
#X obj 93 184 +;
#X obj 60 94 t f f;
#X text 31 39 --Sample to MilliSecond Conversion--;
#X text 150 260 ouputs milliSeconds;
#X text 281 141 Samples to MilliSeconds;
#X connect 0 0 1 0;
#X connect 1 0 3 0;
#X connect 2 0 4 0;
#X connect 3 0 2 0;
#X connect 3 1 4 1;
#X connect 4 0 5 1;
#X connect 5 0 9 0;
#X connect 9 0 10 0;
#X connect 12 0 17 0;
#X connect 13 0 15 0;
#X connect 14 0 16 1;
#X connect 15 0 16 0;
#X connect 16 0 5 0;
#X connect 17 0 13 0;
#X connect 17 1 14 0;
