#N canvas 0 119 501 368 10;
#X obj 60 63 inlet~;
#X obj 75 283 outlet~;
#X obj 75 256 /~;
#X obj 228 68 loadbang;
#X obj 228 91 samplerate~;
#X obj 74 206 sig~;
#X text 212 154 Samples to Frequency;
#X text 235 178 1) get Samples;
#X text 235 196 2) get samplerate;
#X text 235 213 3) divide samplerate by samples;
#X obj 113 97 max~ 0;
#X obj 61 96 min~ 0;
#X obj 94 157 +~;
#X obj 61 122 *~ -1;
#X text 33 32 --Samples to Frequency Conversion--;
#X text 112 63 insert samples;
#X text 144 285 outputs frequency;
#X connect 0 0 11 0;
#X connect 0 0 10 0;
#X connect 2 0 1 0;
#X connect 3 0 4 0;
#X connect 4 0 5 0;
#X connect 5 0 2 0;
#X connect 10 0 12 1;
#X connect 11 0 13 0;
#X connect 12 0 2 1;
#X connect 13 0 12 0;
