#N canvas 0 145 484 370 10;
#X text 208 130 Samples to Frequency;
#X obj 51 67 inlet;
#X obj 65 357 outlet;
#X text 224 146 1) get Samples;
#X text 224 164 2) get samplerate;
#X text 224 181 3) divide samplerate by samples;
#X obj 217 65 loadbang;
#X obj 217 91 samplerate~;
#X obj 51 285 f;
#X obj 51 227 t b f;
#X obj 65 330 /;
#X text 19 33 --Samples to Frequency Conversion--;
#X text 98 67 insert samples;
#X text 123 360 outputs frequency;
#X obj 51 130 min 0;
#X obj 103 132 max 0;
#X obj 51 157 * -1;
#X obj 51 197 +;
#X obj 51 99 t f f;
#X connect 1 0 18 0;
#X connect 6 0 7 0;
#X connect 7 0 8 1;
#X connect 8 0 10 0;
#X connect 9 0 8 0;
#X connect 9 1 10 1;
#X connect 10 0 2 0;
#X connect 14 0 16 0;
#X connect 15 0 17 1;
#X connect 16 0 17 0;
#X connect 17 0 9 0;
#X connect 18 0 14 0;
#X connect 18 1 15 0;
