#N canvas 0 158 585 329 10;
#X obj 242 65 loadbang;
#X obj 242 89 samplerate~;
#X obj 242 135 f 1;
#X obj 242 113 t b f;
#X obj 242 160 /;
#X obj 71 220 *~ 1;
#X obj 71 65 inlet~;
#X text 320 166 1) get samples;
#X text 320 182 2) get reciprocal of samplerate;
#X text 320 197 3) multiply samples by reciprocal;
#X obj 71 243 *~ 1000;
#X obj 70 267 outlet~;
#X text 128 67 insert samples;
#X obj 123 104 max~ 0;
#X obj 71 103 min~ 0;
#X obj 72 173 +~;
#X obj 71 129 *~ -1;
#X text 31 39 --Sample to MilliSecond Conversion--;
#X text 289 147 Samples to MilliSeconds;
#X text 132 268 output milliSeconds;
#X connect 0 0 1 0;
#X connect 1 0 3 0;
#X connect 2 0 4 0;
#X connect 3 0 2 0;
#X connect 3 1 4 1;
#X connect 4 0 5 1;
#X connect 5 0 10 0;
#X connect 6 0 14 0;
#X connect 6 0 13 0;
#X connect 10 0 11 0;
#X connect 13 0 15 1;
#X connect 14 0 16 0;
#X connect 15 0 5 0;
#X connect 16 0 15 0;
