#N canvas 239 396 466 372 10;
#X obj 71 74 inlet~;
#X obj 56 301 outlet~;
#X obj 72 206 *~ 0.001;
#X obj 54 237 sig~ 60;
#X obj 55 272 /~;
#X obj 123 113 max~ 0;
#X obj 71 112 min~ 0;
#X obj 72 180 +~;
#X obj 71 138 *~ -1;
#X text 124 302 output BPM;
#X text 235 178 1) get miliSeconds;
#X text 235 196 2) convert to Seconds;
#X text 235 213 3) divide 60 by Seconds;
#X text 36 31 --MilliSeconds to BPM Conversion--;
#X text 126 74 insert milliSeconds;
#X text 212 154 MilliSeconds to BPM;
#X connect 0 0 6 0;
#X connect 0 0 5 0;
#X connect 2 0 4 1;
#X connect 3 0 4 0;
#X connect 4 0 1 0;
#X connect 5 0 7 1;
#X connect 6 0 8 0;
#X connect 7 0 2 0;
#X connect 8 0 7 0;
