#N canvas 0 158 590 388 10;
#X obj 62 61 inlet;
#X obj 62 310 outlet;
#X text 159 149 Time to Samples;
#X obj 80 233 loadbang;
#X obj 80 259 samplerate~;
#X obj 62 285 *;
#X obj 62 208 * 0.001;
#X text 168 198 3) multiply against samplerate;
#X text 121 309 output Samples;
#X obj 62 115 min 0;
#X obj 113 115 max 0;
#X obj 62 142 * -1;
#X obj 62 177 +;
#X obj 62 87 t f f;
#X text 30 37 --MilliSeconds to Samples Conversion--;
#X text 110 63 insert milliSeconds;
#X text 168 167 1) get time in milliSeconds;
#X text 168 183 2) convert milliSeconds to Seconds;
#X connect 0 0 13 0;
#X connect 3 0 4 0;
#X connect 4 0 5 1;
#X connect 5 0 1 0;
#X connect 6 0 5 0;
#X connect 9 0 11 0;
#X connect 10 0 12 1;
#X connect 11 0 12 0;
#X connect 12 0 6 0;
#X connect 13 0 9 0;
#X connect 13 1 10 0;
