#N canvas 402 321 585 358 10;
#X obj 43 35 inlet;
#X obj 43 182 * 0.001;
#X obj 43 227 *;
#X obj 43 261 outlet;
#X obj 235 41 loadbang;
#X obj 235 89 select 0;
#X obj 235 133 f 343.2;
#X obj 235 112 t b;
#X obj 235 65 f \$1;
#X text 397 83 \$1 is first argument.;
#X text 327 99 it's the 'speed' of the medium.;
#X text 313 115 in case you'd like to experiment.;
#X text 98 264 output Meters;
#X text 291 221 2) get speed of medium in meters/second;
#X text 292 238 3) multiply Seconds by speed;
#X obj 43 93 min 0;
#X obj 94 93 max 0;
#X obj 43 120 * -1;
#X obj 43 151 +;
#X obj 43 65 t f f;
#X text 30 14 --MilliSeconds to Distance Conversion--;
#X text 88 37 insert milliSeconds;
#X text 275 187 MilliSeconds to Distance;
#X text 291 203 1) get MilliSeconds \, convert to Seconds;
#X connect 0 0 19 0;
#X connect 1 0 2 0;
#X connect 2 0 3 0;
#X connect 4 0 8 0;
#X connect 5 0 7 0;
#X connect 5 1 2 1;
#X connect 6 0 2 1;
#X connect 7 0 6 0;
#X connect 8 0 5 0;
#X connect 15 0 17 0;
#X connect 16 0 18 1;
#X connect 17 0 18 0;
#X connect 18 0 1 0;
#X connect 19 0 15 0;
#X connect 19 1 16 0;
