#N canvas 496 410 488 358 10;
#X obj 48 53 inlet;
#X obj 48 200 * 0.001;
#X obj 48 232 t b f;
#X obj 48 285 /;
#X obj 48 257 f 60;
#X obj 48 325 outlet;
#X obj 48 106 min 0;
#X obj 99 106 max 0;
#X obj 48 133 * -1;
#X obj 48 169 +;
#X obj 48 78 t f f;
#X text 235 196 2) convert to Seconds;
#X text 235 213 3) divide 60 by Seconds;
#X text 107 325 output BPM;
#X text 36 31 --MilliSeconds to BPM conversion--;
#X text 97 53 insert milliSeconds;
#X text 211 159 MilliSeconds to BPM;
#X text 235 178 1) get milliSeconds;
#X connect 0 0 10 0;
#X connect 1 0 2 0;
#X connect 2 0 4 0;
#X connect 2 1 3 1;
#X connect 3 0 5 0;
#X connect 4 0 3 0;
#X connect 6 0 8 0;
#X connect 7 0 9 1;
#X connect 8 0 9 0;
#X connect 9 0 1 0;
#X connect 10 0 6 0;
#X connect 10 1 7 0;
