#N canvas 0 145 529 401 10;
#X obj 80 88 inlet~;
#X obj 81 316 outlet~;
#X obj 105 237 loadbang;
#X obj 105 263 samplerate~;
#X obj 80 289 *~ 1;
#X obj 81 214 *~ 0.001;
#X text 184 176 Time to Samples;
#X text 193 225 3) multiply against samplerate;
#X text 140 316 output Samples;
#X obj 132 125 max~ 0;
#X obj 80 124 min~ 0;
#X obj 81 182 +~;
#X obj 80 150 *~ -1;
#X text 44 63 --MilliSeconds to Samples Conversion--;
#X text 133 90 insert milliSeconds;
#X text 193 194 1) get time in milliSeconds;
#X text 193 210 2) convert milliSeconds to Seconds;
#X connect 0 0 10 0;
#X connect 0 0 9 0;
#X connect 2 0 3 0;
#X connect 3 0 4 1;
#X connect 4 0 1 0;
#X connect 5 0 4 0;
#X connect 9 0 11 1;
#X connect 10 0 12 0;
#X connect 11 0 5 0;
#X connect 12 0 11 0;
