#N canvas 660 211 599 335 10;
#X obj 41 56 inlet~;
#X obj 41 178 *~ 0.001;
#X obj 41 240 outlet~;
#X obj 228 56 loadbang;
#X obj 228 104 select 0;
#X obj 228 129 f 343.2;
#X obj 41 211 *~ 1;
#X obj 228 80 f \$1;
#X text 376 77 \$1 is first argument.;
#X text 306 93 it's the 'speed' of the medium.;
#X text 292 109 in case you'd like to experiment.;
#X text 270 215 2) get speed of medium in meters/second;
#X text 271 232 3) multiply Seconds by speed;
#X text 98 239 output Meters;
#X obj 93 92 max~ 0;
#X obj 41 91 min~ 0;
#X obj 40 146 +~;
#X obj 41 117 *~ -1;
#X text 20 30 --MilliSeconds to Meters Conversion--;
#X text 89 58 insert MilliSeconds;
#X text 253 181 MilliSeconds to Meters;
#X text 270 197 1) get MilliSeconds \, convert to Seconds;
#X connect 0 0 15 0;
#X connect 0 0 14 0;
#X connect 1 0 6 0;
#X connect 3 0 7 0;
#X connect 4 0 5 0;
#X connect 4 1 6 1;
#X connect 5 0 6 1;
#X connect 6 0 2 0;
#X connect 7 0 4 0;
#X connect 14 0 16 1;
#X connect 15 0 17 0;
#X connect 16 0 1 0;
#X connect 17 0 16 0;
