#N canvas 0 145 558 379 10;
#X obj 56 284 f 1;
#X obj 56 71 inlet;
#X obj 56 233 * 0.001;
#X obj 56 258 t b f;
#X obj 56 310 /;
#X obj 56 335 outlet;
#X text 152 217 2) convert time to seconds;
#X text 152 233 3) divide 1 second by the converted time;
#X obj 56 140 min 0;
#X obj 107 140 max 0;
#X obj 56 167 * -1;
#X obj 56 202 +;
#X obj 56 112 t f f;
#X text 31 40 --MilliSeconds to Frequency--;
#X text 105 70 insert milliSeconds;
#X text 126 180 MilliSeconds to Frequency;
#X text 152 200 1) get time in milliSeconds;
#X text 112 336 output frequency;
#X connect 0 0 4 0;
#X connect 1 0 12 0;
#X connect 2 0 3 0;
#X connect 3 0 0 0;
#X connect 3 1 4 1;
#X connect 4 0 5 0;
#X connect 8 0 10 0;
#X connect 9 0 11 1;
#X connect 10 0 11 0;
#X connect 11 0 2 0;
#X connect 12 0 8 0;
#X connect 12 1 9 0;
