#N canvas 0 171 525 355 10;
#X text 187 169 time to frequency;
#X text 187 186 1) get time in miliseconds;
#X text 187 203 2) convert time to seconds;
#X text 187 219 3) divide 1 second by the converted time;
#X obj 75 85 inlet~;
#X obj 75 200 *~ 0.001;
#X obj 58 229 sig~ 1;
#X obj 58 258 /~;
#X obj 58 288 outlet~;
#X text 135 291 output Frequency;
#X obj 126 117 max~ 0;
#X obj 74 116 min~ 0;
#X obj 75 175 +~;
#X obj 74 142 *~ -1;
#X text 28 47 --MilliSeconds to Frequency--;
#X text 140 82 insert milliSeconds;
#X connect 4 0 11 0;
#X connect 4 0 10 0;
#X connect 5 0 7 1;
#X connect 6 0 7 0;
#X connect 7 0 8 0;
#X connect 10 0 12 1;
#X connect 11 0 13 0;
#X connect 12 0 5 0;
#X connect 13 0 12 0;
