#N canvas 595 370 339 394 10;
#X obj 51 46 inlet;
#X obj 51 151 sin;
#X obj 83 151 cos;
#X obj 51 127 t f f;
#X obj 150 168 cos;
#X obj 150 190 abs;
#X obj 211 177 sin;
#X obj 51 264 *;
#X obj 99 263 *;
#X obj 150 130 t f f;
#X text 221 330 z;
#X text 63 335 x;
#X text 126 330 y;
#X obj 51 307 outlet;
#X obj 108 305 outlet;
#X obj 211 305 outlet;
#X obj 150 213 t f f;
#X obj 51 87 unpack f f;
#X connect 0 0 17 0;
#X connect 1 0 7 0;
#X connect 2 0 8 0;
#X connect 3 0 1 0;
#X connect 3 1 2 0;
#X connect 4 0 5 0;
#X connect 5 0 16 0;
#X connect 6 0 15 0;
#X connect 7 0 13 0;
#X connect 8 0 14 0;
#X connect 9 0 4 0;
#X connect 9 1 6 0;
#X connect 16 0 7 1;
#X connect 16 1 8 1;
#X connect 17 0 3 0;
#X connect 17 1 9 0;
