#N canvas 0 132 450 300 10;
#X obj 65 35 inlet~;
#X obj 64 198 outlet~;
#X obj 120 199 outlet~;
#X obj 64 167 cos~;
#X obj 121 165 cos~;
#X obj 65 137 -~ 0.25;
#X obj 65 74 clip~ 0 1;
#X connect 0 0 6 0;
#X connect 3 0 1 0;
#X connect 4 0 2 0;
#X connect 5 0 3 0;
#X connect 6 0 5 0;
#X connect 6 0 4 0;
