#N canvas 0 119 419 454 10;
#X obj 46 73 inlet~;
#X obj 225 77 inlet~;
#X obj 154 248 cos~;
#X obj 135 202 cos~;
#X obj 46 203 cos~;
#X obj 46 354 outlet~;
#X obj 137 354 outlet~;
#X obj 225 353 outlet~;
#X obj 136 311 *~;
#X obj 46 311 *~;
#X obj 224 310 cos~;
#X obj 153 272 absolute~;
#X text 235 377 z;
#X text 56 378 x;
#X text 150 379 y;
#X obj 47 171 -~ 0.25;
#X obj 225 273 -~ 0.25;
#X obj 47 105 wrap~;
#X obj 226 107 wrap~;
#X connect 0 0 17 0;
#X connect 1 0 18 0;
#X connect 2 0 11 0;
#X connect 3 0 8 0;
#X connect 4 0 9 0;
#X connect 8 0 6 0;
#X connect 9 0 5 0;
#X connect 10 0 7 0;
#X connect 11 0 9 1;
#X connect 11 0 8 1;
#X connect 15 0 4 0;
#X connect 16 0 10 0;
#X connect 17 0 15 0;
#X connect 17 0 3 0;
#X connect 18 0 2 0;
#X connect 18 0 16 0;
