#N canvas 470 296 657 406 10;
#X obj 63 43 inlet;
#X obj 63 166 until;
#X obj 100 195 + 1;
#X obj 63 195 f 0;
#X obj 63 137 t f b;
#X obj 109 166 f 0;
#X msg 220 152 const 0;
#X obj 63 293 select 0;
#X obj 128 325 t b;
#X obj 63 354 t f f;
#X obj 329 660 f;
#X obj 96 520 t a a;
#X obj 165 548 <;
#X obj 96 549 ==;
#X obj 96 576 select 1;
#X obj 165 576 select 1;
#X obj 96 494 pack f f;
#X obj 96 675 f;
#X obj 170 639 t b b;
#X obj 237 639 t b b;
#X text 88 595 last<next;
#X text 165 593 last>next;
#X text 96 612 last;
#X text 183 610 next;
#X obj 153 684 f;
#X obj 206 674 f;
#X obj 233 742 f;
#X obj 63 108 f 12;
#X obj 63 77 t b b;
#X obj 63 390 finder \$1 -1;
#X obj 220 181 s \$1_redirect;
#X obj 63 260 tabread \$1_guide;
#X obj 236 415 t f f;
#X obj 96 634 t b b;
#X obj 63 228 t f f f f f;
#X text 249 389 0(n^2) search;
#X obj 96 781 tabwrite \$1_redirect;
#X obj 311 694 t f b;
#X obj 63 324 f 12;
#X obj 162 389 finder \$1 1;
#X connect 0 0 28 0;
#X connect 1 0 3 0;
#X connect 2 0 3 1;
#X connect 3 0 2 0;
#X connect 3 0 34 0;
#X connect 4 0 1 0;
#X connect 4 1 5 0;
#X connect 5 0 3 1;
#X connect 6 0 30 0;
#X connect 7 0 38 0;
#X connect 7 1 8 0;
#X connect 8 0 10 0;
#X connect 9 0 29 0;
#X connect 9 1 39 0;
#X connect 10 0 37 0;
#X connect 11 0 13 0;
#X connect 11 1 12 0;
#X connect 12 0 15 0;
#X connect 13 0 14 0;
#X connect 14 0 33 0;
#X connect 15 0 18 0;
#X connect 15 1 19 0;
#X connect 16 0 11 0;
#X connect 17 0 36 0;
#X connect 18 0 24 0;
#X connect 18 1 26 0;
#X connect 19 0 25 0;
#X connect 19 1 26 0;
#X connect 24 0 36 0;
#X connect 25 0 36 0;
#X connect 26 0 36 1;
#X connect 27 0 4 0;
#X connect 28 0 27 0;
#X connect 28 1 6 0;
#X connect 29 0 16 0;
#X connect 29 1 24 1;
#X connect 31 0 7 0;
#X connect 32 0 17 1;
#X connect 32 1 25 1;
#X connect 33 0 17 0;
#X connect 33 1 26 0;
#X connect 34 0 31 0;
#X connect 34 1 29 1;
#X connect 34 2 39 1;
#X connect 34 3 10 1;
#X connect 34 4 26 1;
#X connect 37 0 36 0;
#X connect 37 1 26 0;
#X connect 38 0 9 0;
#X connect 39 0 16 1;
#X connect 39 1 32 0;
