#N canvas 253 327 497 320 10;
#X obj 28 27 inlet~;
#X obj 111 29 inlet~;
#X obj 28 60 +~;
#X obj 111 61 -~;
#X obj 111 96 delwrite~ \$1 \$2;
#X obj 28 165 outlet~;
#X obj 249 161 outlet~;
#X text 305 134 <---mahybe?;
#X obj 28 119 *~ 0.9;
#X obj 248 129 *~ 0.5;
#X obj 248 88 delread~ \$1 \$2;
#X connect 0 0 2 0;
#X connect 0 0 3 0;
#X connect 1 0 2 1;
#X connect 1 0 3 1;
#X connect 2 0 8 0;
#X connect 3 0 4 0;
#X connect 8 0 5 0;
#X connect 9 0 6 0;
#X connect 10 0 9 0;
