#N canvas 0 215 662 553 10;
#X obj 61 49 inlet~;
#X obj 126 339 /~;
#X obj 148 45 inlet~;
#X obj 61 444 *~;
#X obj 78 413 /~;
#X obj 95 259 max~;
#X obj 63 497 outlet~;
#X obj 62 474 *~;
#X obj 62 224 *~;
#X obj 238 50 inlet~;
#X obj 356 55 inlet~;
#X obj 126 309 -~;
#X obj 125 370 +~;
#X text 153 28 Boost;
#X text 66 29 signal;
#X obj 474 54 inlet~;
#X text 350 32 Threshold;
#X text 238 28 Cutoff;
#X text 471 34 Crunch;
#X obj 575 54 inlet~;
#X obj 575 138 clip~ 0 1;
#X text 560 38 turn down;
#X obj 474 136 *~ 99;
#X obj 474 160 +~ 1;
#X obj 474 111 clip~ 0 1;
#X obj 148 140 +~ 1;
#X obj 148 87 clip~ 0 1;
#X obj 148 113 *~ 4;
#X obj 239 139 +~ 1e-05;
#X obj 239 111 clip~ 0 0.9999;
#X obj 355 139 +~ 1e-05;
#X obj 355 111 clip~ 0 0.9999;
#X connect 0 0 8 0;
#X connect 1 0 12 0;
#X connect 2 0 26 0;
#X connect 3 0 7 0;
#X connect 4 0 3 1;
#X connect 5 0 4 1;
#X connect 5 0 11 0;
#X connect 7 0 6 0;
#X connect 8 0 3 0;
#X connect 8 0 5 0;
#X connect 9 0 29 0;
#X connect 10 0 31 0;
#X connect 11 0 1 0;
#X connect 12 0 4 0;
#X connect 15 0 24 0;
#X connect 19 0 20 0;
#X connect 20 0 7 1;
#X connect 22 0 23 0;
#X connect 23 0 1 1;
#X connect 24 0 22 0;
#X connect 25 0 8 1;
#X connect 26 0 27 0;
#X connect 27 0 25 0;
#X connect 28 0 5 1;
#X connect 29 0 28 0;
#X connect 30 0 11 1;
#X connect 30 0 12 1;
#X connect 31 0 30 0;
