#N canvas 64 420 623 348 10;
#X obj 75 274 outlet~;
#X obj 76 199 aatri/aaosc~;
#X msg 157 162 1 0 -0.111111 0 0.04 0 -0.020482 0 0.0123457 0 -0.00826446
\;;
#X obj 157 137 loadbang;
#X obj 77 97 inlet~;
#X obj 143 99 inlet~;
#X text 68 78 phasor;
#X text 137 78 freq;
#X connect 1 0 0 0;
#X connect 2 0 1 2;
#X connect 3 0 2 0;
#X connect 4 0 1 0;
#X connect 5 0 1 1;
