#N canvas 79 265 508 460 10;
#X obj 62 63 inlet~;
#X text 70 46 audio;
#X text 138 43 echo time;
#X obj 63 383 outlet~;
#X text 235 41 decay;
#X obj 144 63 inlet;
#X obj 235 64 inlet;
#X obj 258 207 echo/p \$1_echoparams;
#X obj 258 183 pack f f;
#X obj 156 383 outlet~;
#X obj 63 351 +~;
#X obj 144 271 pack f 50;
#X obj 144 293 vline~;
#X obj 235 271 pack f 50;
#X obj 235 293 vline~;
#X obj 235 141 t f b f;
#X obj 258 231 unpack f f;
#X obj 144 143 t f f;
#X obj 389 59 loadbang;
#X obj 389 80 t b b;
#X obj 388 101 f 200;
#X obj 432 102 f 0.8;
#X obj 82 323 echo/echo_init~ \$2;
#X connect 0 0 10 0;
#X connect 0 0 22 0;
#X connect 5 0 17 0;
#X connect 6 0 15 0;
#X connect 7 0 16 0;
#X connect 8 0 7 0;
#X connect 10 0 3 0;
#X connect 11 0 12 0;
#X connect 12 0 22 1;
#X connect 13 0 14 0;
#X connect 14 0 22 2;
#X connect 15 0 13 0;
#X connect 15 1 8 0;
#X connect 15 2 8 1;
#X connect 16 0 11 0;
#X connect 16 1 13 0;
#X connect 17 0 11 0;
#X connect 17 1 8 0;
#X connect 18 0 19 0;
#X connect 19 0 20 0;
#X connect 19 1 21 0;
#X connect 20 0 17 0;
#X connect 21 0 15 0;
#X connect 22 0 10 1;
#X connect 22 0 9 0;
