#N canvas 558 361 473 406 10;
#X obj 52 52 cnv 15 126 36 empty empty empty 20 12 0 14 -126080 -66577
0;
#X obj 55 55 cnv 15 120 30 empty empty empty 20 12 0 14 -262144 -66577
0;
#X floatatom 92 58 5 0 1000 0 - - -, f 5;
#X floatatom 134 58 5 0 100 0 - - -, f 5;
#X text 57 70 ----;
#X obj 96 186 inlet~;
#X obj 97 358 outlet~;
#X obj 205 358 outlet~;
#X obj 252 189 pack f f;
#X obj 210 146 t f f;
#X obj 259 146 t f b f;
#X obj 210 248 pack f 50;
#X obj 210 270 vline~;
#X obj 293 248 pack f 50;
#X obj 293 270 vline~;
#X obj 92 27 unpack f f;
#X text 138 71 amp;
#X text 94 71 time;
#X obj 97 328 +~;
#X text 57 57 echo;
#X obj 28 110 gecho/p \$1_gechoparams;
#X obj 309 53 loadbang;
#X msg 309 75 200 90;
#X obj 293 225 * 0.01;
#X obj 115 303 gecho/echo_init~ \$2;
#X connect 2 0 9 0;
#X connect 3 0 10 0;
#X connect 5 0 18 0;
#X connect 5 0 24 0;
#X connect 8 0 20 0;
#X connect 9 0 11 0;
#X connect 9 1 8 0;
#X connect 10 0 23 0;
#X connect 10 1 8 0;
#X connect 10 2 8 1;
#X connect 11 0 12 0;
#X connect 12 0 24 1;
#X connect 13 0 14 0;
#X connect 14 0 24 2;
#X connect 15 0 2 0;
#X connect 15 1 3 0;
#X connect 18 0 6 0;
#X connect 20 0 15 0;
#X connect 21 0 22 0;
#X connect 22 0 15 0;
#X connect 23 0 13 0;
#X connect 24 0 18 1;
#X connect 24 0 7 0;
#X coords 0 -1 1 1 130 40 2 50 50;
