#N canvas 86 299 542 457 10;
#X obj 62 58 inlet~;
#X text 70 41 audio;
#X obj 255 379 outlet~;
#X obj 290 58 inlet~;
#X obj 179 59 inlet~;
#X obj 273 267 *~;
#X text 173 40 Freq;
#X text 291 39 Del;
#X obj 374 58 inlet~;
#X text 368 41 feedback?;
#X obj 179 140 *~ 0.5;
#X obj 179 168 +~ 0.5;
#X obj 83 285 vd~ \$0_fb;
#X obj 83 316 *~;
#X obj 179 86 max~ 0;
#X obj 62 349 delwrite~ \$0_flanger 100;
#X obj 288 349 delwrite~ \$0_fb 100;
#X obj 272 320 vd~ \$0_flanger;
#X obj 179 114 osc~;
#X obj 374 85 clip~ 0 1;
#X obj 374 150 *~ 0.6;
#X obj 273 294 +~ 1;
#X obj 255 349 +~;
#X obj 290 86 clip~ 0 10;
#X connect 0 0 15 0;
#X connect 0 0 22 0;
#X connect 3 0 23 0;
#X connect 4 0 14 0;
#X connect 5 0 21 0;
#X connect 8 0 19 0;
#X connect 10 0 11 0;
#X connect 11 0 5 0;
#X connect 12 0 13 0;
#X connect 13 0 15 0;
#X connect 14 0 18 0;
#X connect 17 0 16 0;
#X connect 17 0 22 1;
#X connect 18 0 10 0;
#X connect 19 0 20 0;
#X connect 20 0 13 1;
#X connect 21 0 17 0;
#X connect 22 0 2 0;
#X connect 23 0 12 0;
#X connect 23 0 5 1;
