#N canvas 0 184 480 292 10;
#X obj 102 102 cnv 15 136 36 empty empty empty 20 12 0 14 -233017 -66577
0;
#X obj 106 121 hsl 128 15 -1 1 0 0 empty empty empty -2 -8 0 10 -262144
-1 -1 0 1;
#X obj 103 103 tgl 15 0 empty empty empty 17 7 0 10 -262144 -1 -1 0
1;
#X obj 41 38 inlet~;
#X symbolatom 164 104 10 0 0 0 - - -, f 10;
#X text 118 103 on/off;
#X obj 41 61 gtuner/tuner~;
#X connect 2 0 6 1;
#X connect 3 0 6 0;
#X connect 6 0 1 0;
#X connect 6 1 4 0;
#X coords 0 -1 1 1 140 40 2 100 100;
