#N canvas 0 132 468 380 10;
#X obj 216 66 inlet;
#X text 212 48 switch;
#X obj 216 122 select 0;
#X obj 282 153 t b b;
#X obj 282 186 f 0;
#X obj 314 187 f 1;
#X obj 216 152 t b b;
#X obj 216 185 f 1;
#X obj 248 186 f 0;
#X obj 117 247 spigot;
#X obj 59 66 inlet;
#X obj 140 65 inlet;
#X obj 209 245 spigot;
#X obj 117 314 outlet;
#X obj 209 313 outlet;
#X obj 274 68 loadbang;
#X obj 274 90 f 0;
#X connect 0 0 2 0;
#X connect 2 0 6 0;
#X connect 2 1 3 0;
#X connect 3 0 4 0;
#X connect 3 1 5 0;
#X connect 4 0 9 1;
#X connect 5 0 12 1;
#X connect 6 0 7 0;
#X connect 6 1 8 0;
#X connect 7 0 9 1;
#X connect 8 0 12 1;
#X connect 9 0 13 0;
#X connect 10 0 9 0;
#X connect 11 0 12 0;
#X connect 12 0 14 0;
#X connect 15 0 16 0;
#X connect 16 0 2 0;
