#N canvas 243 376 547 392 10;
#X obj 57 53 inlet~;
#X obj 58 348 outlet~;
#X text 26 26 --Change Bit--;
#X obj 404 54 loadbang;
#X obj 404 98 select 0;
#X obj 490 124 f \$2;
#X obj 244 55 inlet;
#X obj 244 266 vline~;
#X obj 57 310 changerate/changerate_init~;
#X obj 404 146 * 0.5;
#X obj 404 124 samplerate~;
#X obj 284 202 changerate/p \$1_crate;
#X obj 244 241 pack f 50;
#X obj 404 76 f \$2;
#X obj 244 151 t f f;
#X obj 404 175 t f;
#X text 251 73 Sample Rate;
#X text 68 72 Signal;
#X connect 0 0 8 0;
#X connect 3 0 13 0;
#X connect 4 0 10 0;
#X connect 4 1 5 0;
#X connect 5 0 15 0;
#X connect 6 0 14 0;
#X connect 7 0 8 1;
#X connect 8 0 1 0;
#X connect 9 0 15 0;
#X connect 10 0 9 0;
#X connect 11 0 12 0;
#X connect 12 0 7 0;
#X connect 13 0 4 0;
#X connect 14 0 12 0;
#X connect 14 1 11 0;
#X connect 15 0 14 0;
