#N canvas 517 287 706 404 10;
#X obj 52 52 cnv 15 82 36 empty empty empty 20 12 0 14 -119159 -66577
0;
#X obj 55 55 cnv 15 76 30 empty empty empty 20 12 0 14 -262144 -66577
0;
#X floatatom 91 58 5 0 180000 0 - - -, f 5;
#X text 56 69 ----;
#X text 56 56 rate;
#X text 91 71 samp;
#X obj 163 317 gchangerate/changerate_init~;
#X obj 357 252 pack f 50;
#X obj 357 276 vline~;
#X obj 281 200 t f f;
#X obj 162 53 inlet~;
#X obj 442 123 samplerate~;
#X obj 442 146 * 0.5;
#X obj 164 359 outlet~;
#X obj 281 178 clip 1 1;
#X obj 278 146 changerate/p \$1_gcrate;
#X obj 442 50 loadbang;
#X obj 528 122 select 0;
#X obj 582 170 f \$2;
#X obj 528 170 * 0.5;
#X obj 528 148 samplerate~;
#X obj 528 100 f \$2;
#X obj 442 72 t b b;
#X obj 528 200 t f;
#X connect 2 0 14 0;
#X connect 6 0 13 0;
#X connect 7 0 8 0;
#X connect 8 0 6 1;
#X connect 9 0 7 0;
#X connect 9 1 15 0;
#X connect 10 0 6 0;
#X connect 11 0 12 0;
#X connect 12 0 14 2;
#X connect 14 0 9 0;
#X connect 15 0 2 0;
#X connect 16 0 22 0;
#X connect 17 0 20 0;
#X connect 17 1 18 0;
#X connect 18 0 23 0;
#X connect 19 0 23 0;
#X connect 20 0 19 0;
#X connect 21 0 17 0;
#X connect 22 0 11 0;
#X connect 22 1 21 0;
#X connect 23 0 2 0;
#X coords 0 -1 1 1 86 40 2 50 50;
