#N canvas 0 93 450 300 10;
#X floatatom 77 75 5 0 0 0 - - -, f 5;
#X obj 58 128 *~;
#X obj 153 128 *~;
#X floatatom 116 313 5 0 0 0 - - -, f 5;
#X floatatom 174 313 5 0 0 0 - - -, f 5;
#X floatatom 119 405 5 0 0 0 - - -, f 5;
#X floatatom 181 405 5 0 0 0 - - -, f 5;
#X floatatom 119 495 5 0 0 0 - - -, f 5;
#X floatatom 181 495 5 0 0 0 - - -, f 5;
#X floatatom 153 585 5 0 0 0 - - -, f 5;
#X floatatom 218 585 5 0 0 0 - - -, f 5;
#X text 38 31 ++++PANNING++++;
#X text 38 53 Panner;
#X text 38 169 Polar Based Surround Sound Objects;
#X text 38 293 Polar Two Speakers;
#X text 38 384 Polar Four Speakers;
#X text 38 474 Polar Five Speakers;
#X text 38 565 Polar Seven Speakers;
#X text 61 190 Left inlet is for audio signal.;
#X text 61 218 Right inlet is distance \, can be signal driven.;
#X text 61 242 For polar panning \, the last outlet is only attenuated
;
#X text 62 255 by distance. Suitable for subwoofers or filters.;
#X text 124 75 0-1;
#X text 62 204 Middle inlet is for theta (0-1) \, can be signal driven.
;
#X obj 77 98 ../Pan/panner~;
#X obj 58 338 ../Pan/ptwospeakers~;
#X obj 58 428 ../Pan/pfourspeakers~;
#X obj 58 518 ../Pan/pfivespeakers~;
#X obj 58 608 ../Pan/psevenspeakers~;
#X text 37 672 ++++++++;
#X connect 0 0 24 0;
#X connect 3 0 25 1;
#X connect 4 0 25 2;
#X connect 5 0 26 1;
#X connect 6 0 26 2;
#X connect 7 0 27 1;
#X connect 8 0 27 2;
#X connect 9 0 28 1;
#X connect 10 0 28 2;
#X connect 24 0 1 1;
#X connect 24 1 2 1;
