#N canvas 0 106 497 354 10;
#X obj 61 167 sig~;
#X floatatom 61 145 5 0 0 0 - - -, f 5;
#X obj 61 192 phasor~;
#X obj 122 168 hradio 15 1 0 10 empty empty empty 0 -8 0 10 -262144
-1 -1 0;
#X msg 184 191 256;
#X text 121 150 select table;
#X text 214 192 specify table length;
#X obj 61 300 sig~;
#X floatatom 61 278 5 0 0 0 - - -, f 5;
#X obj 61 325 phasor~;
#X msg 184 346 256;
#X text 214 347 specify table length;
#X floatatom 122 276 5 0 0 0 - - -, f 5;
#X obj 122 295 / 100;
#X obj 122 317 pack f 30;
#X obj 122 339 vline~;
#X text 170 295 pulse width between (0-1);
#X obj 61 515 sig~;
#X floatatom 61 493 5 0 0 0 - - -, f 5;
#X obj 61 540 phasor~;
#X obj 61 663 sig~;
#X floatatom 61 641 5 0 0 0 - - -, f 5;
#X obj 61 688 phasor~;
#X obj 61 803 sig~;
#X floatatom 61 781 5 0 0 0 - - -, f 5;
#X obj 61 828 phasor~;
#X obj 61 947 sig~;
#X floatatom 61 925 5 0 0 0 - - -, f 5;
#X obj 61 972 phasor~;
#X floatatom 184 925 5 0 0 0 - - -, f 5;
#X obj 184 944 / 100;
#X obj 184 966 pack f 30;
#X obj 184 988 vline~;
#X text 232 944 pulse width between (0-1);
#X obj 61 1097 sig~;
#X floatatom 61 1075 5 0 0 0 - - -, f 5;
#X obj 61 1122 phasor~;
#X msg 184 1119 1 0.2 0.5 0.3 0.11 0.023;
#X text 182 1098 keep harmonics between (0-1);
#X obj 60 1267 sig~;
#X floatatom 60 1245 5 0 0 0 - - -, f 5;
#X obj 60 1292 phasor~;
#X floatatom 226 1245 5 0 0 0 - - -, f 5;
#X obj 226 1264 / 100;
#X obj 226 1286 pack f 30;
#X obj 226 1308 vline~;
#X text 274 1264 waveshape between (0-1);
#X text 41 60 Wavebank Oscillators;
#X text 41 122 Wavebank Standard Oscillators;
#X text 41 249 Wavebank PWM;
#X text 41 415 Anti-Aliasing Oscillators;
#X text 41 472 Anti-Aliasing Ramp Wave;
#X text 40 620 Anti-Aliasing Triangle Wave;
#X text 41 760 Anti-Aliasing Square Wave;
#X text 41 900 Anti-Aliasing PWM;
#X text 41 1050 Anti-Aliasing Custom Harmonics;
#X text 41 1220 Voscillator;
#X text 60 83 Wavebank oscillators must be used in tandem;
#X text 60 96 with the [wavebank] object. Specify table length.;
#X text 60 437 These oscillators will never cause nyquist frequencies.
;
#X text 182 1085 up to 10 harmonics;
#X text 41 38 ++++Generators++++;
#X text 41 1200 VARIABLE OSCILLATORS;
#X text 41 1380 ++++SAMPLES++++;
#X obj 61 216 ../Oscillators/wbosc~;
#X obj 61 371 ../Oscillators/wbpwm~;
#X obj 61 576 ../Oscillators/aaramp~;
#X obj 61 724 ../Oscillators/aatri~;
#X obj 62 864 ../Oscillators/aasquare~;
#X obj 61 1014 ../Oscillators/aapwm~;
#X obj 61 1154 ../Oscillators/aaosc~;
#X obj 61 1334 ../Oscillators/voscillator~;
#X connect 0 0 2 0;
#X connect 1 0 0 0;
#X connect 2 0 64 0;
#X connect 3 0 64 1;
#X connect 4 0 64 2;
#X connect 7 0 9 0;
#X connect 8 0 7 0;
#X connect 9 0 65 0;
#X connect 10 0 65 2;
#X connect 12 0 13 0;
#X connect 13 0 14 0;
#X connect 14 0 15 0;
#X connect 15 0 65 1;
#X connect 17 0 19 0;
#X connect 17 0 66 1;
#X connect 18 0 17 0;
#X connect 19 0 66 0;
#X connect 20 0 22 0;
#X connect 20 0 67 1;
#X connect 21 0 20 0;
#X connect 22 0 67 0;
#X connect 23 0 25 0;
#X connect 23 0 68 1;
#X connect 24 0 23 0;
#X connect 25 0 68 0;
#X connect 26 0 28 0;
#X connect 26 0 69 1;
#X connect 27 0 26 0;
#X connect 28 0 69 0;
#X connect 29 0 30 0;
#X connect 30 0 31 0;
#X connect 31 0 32 0;
#X connect 32 0 69 2;
#X connect 34 0 36 0;
#X connect 34 0 70 1;
#X connect 35 0 34 0;
#X connect 36 0 70 0;
#X connect 37 0 70 2;
#X connect 39 0 41 0;
#X connect 40 0 39 0;
#X connect 41 0 71 0;
#X connect 42 0 43 0;
#X connect 43 0 44 0;
#X connect 44 0 45 0;
#X connect 45 0 71 1;
