#N canvas 0 132 537 629 10;
#X obj 69 81 tgl 15 0 empty empty empty 17 7 0 10 -262144 -1 -1 0 1
;
#X floatatom 69 160 5 0 0 0 - - -, f 5;
#X floatatom 136 160 5 0 0 0 - - -, f 5;
#X obj 69 133 unpack f f;
#X floatatom 68 469 5 0 0 0 - - -, f 5;
#X obj 68 337 unpack f f;
#X floatatom 68 359 5 0 0 0 - - -, f 5;
#X floatatom 135 359 5 0 0 0 - - -, f 5;
#X obj 68 402 unpack f f;
#X floatatom 68 424 5 0 0 0 - - -, f 5;
#X floatatom 135 424 5 0 0 0 - - -, f 5;
#X text 45 28 ++++MIDI++++;
#X text 67 286 make sure there is an instance of [midi];
#X text 43 196 Midi Input;
#X text 44 56 Qwerty Midi;
#X text 66 270 To use [getnotes] \, [getcontrols] \, or [getbend];
#X text 43 514 Midi Guides;
#X msg 133 673 0 2 4 7 9;
#X obj 219 670 tgl 15 0 empty empty empty 17 7 0 10 -262144 -1 -1 0
1;
#X floatatom 68 674 5 0 0 0 - - -, f 5;
#X floatatom 68 727 5 0 0 0 - - -, f 5;
#X floatatom 68 762 5 0 0 0 - - -, f 5;
#X floatatom 68 815 5 0 0 0 - - -, f 5;
#X obj 198 762 tgl 15 0 empty empty empty 17 7 0 10 -262144 -1 -1 0
1;
#X msg 119 752 0 2 4 7 9;
#X floatatom 68 844 5 0 0 0 - - -, f 5;
#X floatatom 68 915 5 0 0 0 - - -, f 5;
#X text 65 553 1) [guidenote_init] is the baseline object.;
#X text 65 569 2) [guidenote] has [param] object.;
#X text 65 584 3) [gguidenote] has [param] object with a GUI.;
#X text 65 601 be sure to give type 2 & 3 a unique identifier to save!
;
#X text 65 537 GuideNote objects guide midi at the signal and control
level;
#X text 113 914 [Midi/gguidenotes gn2];
#X text 83 1163 [Midi/gguidenotes~ sgn2];
#X text 64 633 Control level guidenotes;
#X text 66 965 Signal level guidenotes;
#X msg 205 989 0 2 4 7 9;
#X msg 205 1051 0 2 4 7 9;
#X text 84 647 Right inlet is choice between block/correct.;
#X text 47 1186 ++++++++;
#X obj 69 106 ../Midi/qwerty;
#X obj 68 219 ../Midi/midi_debug;
#X obj 68 248 ../Midi/midi;
#X obj 68 312 ../Midi/getnotes;
#X obj 68 380 ../Midi/getcontrols;
#X obj 68 445 ../Midi/getbend;
#X obj 68 699 ../Midi/guidenote_init;
#X obj 68 788 ../Midi/guidenote gn1;
#X obj 68 866 ../Midi/gguidenote gn2;
#X obj 68 1012 ../Midi/guidenote_init~;
#X obj 68 1075 ../Midi/guidenote~ sgn1;
#X obj 67 1119 ../Midi/gguidenote~ sgn2;
#X connect 0 0 40 0;
#X connect 3 0 1 0;
#X connect 3 1 2 0;
#X connect 5 0 6 0;
#X connect 5 1 7 0;
#X connect 8 0 9 0;
#X connect 8 1 10 0;
#X connect 17 0 46 1;
#X connect 18 0 46 2;
#X connect 19 0 46 0;
#X connect 21 0 47 0;
#X connect 23 0 47 2;
#X connect 24 0 47 1;
#X connect 25 0 48 0;
#X connect 36 0 49 1;
#X connect 37 0 50 1;
#X connect 40 0 3 0;
#X connect 43 0 5 0;
#X connect 44 0 8 0;
#X connect 45 0 4 0;
#X connect 46 0 20 0;
#X connect 47 0 22 0;
#X connect 48 0 26 0;
