#N canvas 0 106 482 454 10;
#X text 25 25 ++++ENVELOPES++++;
#X text 25 47 TAPE STYLE;
#X floatatom 108 216 5 0 0 0 - - -, f 5;
#X floatatom 149 250 5 0 0 0 - - -, f 5;
#X obj 66 164 phasor~;
#X obj 66 190 *~;
#X floatatom 66 137 5 0 0 0 - - -, f 5;
#X text 146 233 open time;
#X floatatom 190 281 5 0 0 0 - - -, f 5;
#X text 187 265 close time;
#X floatatom 92 488 5 0 0 0 - - -, f 5;
#X floatatom 118 518 5 0 0 0 - - -, f 5;
#X obj 65 424 phasor~;
#X obj 65 450 *~;
#X floatatom 65 397 5 0 0 0 - - -, f 5;
#X floatatom 144 551 5 0 0 0 - - -, f 5;
#X obj 48 334 *~;
#X text 91 472 attack time;
#X text 116 502 decay level;
#X text 142 534 decay time;
#X floatatom 170 591 5 0 0 0 - - -, f 5;
#X floatatom 196 624 5 0 0 0 - - -, f 5;
#X text 167 574 sustain time;
#X text 194 607 release time;
#X obj 48 678 *~;
#X text 105 200 env time;
#X text 44 78 similar to analog drum machines and samplers.;
#X floatatom 146 875 5 0 0 0 - - -, f 5;
#X floatatom 180 909 5 0 0 0 - - -, f 5;
#X floatatom 113 842 5 0 0 0 - - -, f 5;
#X obj 163 958 tgl 15 0 empty empty empty 17 7 0 10 -262144 -1 -1 0
1;
#X obj 214 978 tgl 15 0 empty empty empty 17 7 0 10 -262144 -1 -1 0
1;
#X obj 63 964 tgl 15 0 empty empty empty 17 7 0 10 -262144 -1 -1 0
1;
#X text 182 957 key release off/on;
#X text 233 977 amp reset off/on;
#X obj 45 1029 *~;
#X text 25 727 TRIGGER STYLE;
#X floatatom 138 1144 5 0 0 0 - - -, f 5;
#X floatatom 162 1178 5 0 0 0 - - -, f 5;
#X floatatom 115 1112 5 0 0 0 - - -, f 5;
#X floatatom 186 1210 5 0 0 0 - - -, f 5;
#X floatatom 210 1242 5 0 0 0 - - -, f 5;
#X obj 115 1264 pack f f f f f;
#X obj 168 1293 tgl 15 0 empty empty empty 17 7 0 10 -262144 -1 -1
0 1;
#X obj 221 1308 tgl 15 0 empty empty empty 17 7 0 10 -262144 -1 -1
0 1;
#X obj 63 1294 tgl 15 0 empty empty empty 17 7 0 10 -262144 -1 -1 0
1;
#X text 187 1292 key release off/on;
#X text 240 1307 amp reset off/on;
#X text 114 1094 attack time;
#X text 136 1126 decay level (0-1);
#X text 161 1161 decay time;
#X text 185 1193 sustain time;
#X text 209 1226 release time;
#X obj 45 1359 *~;
#X text 112 824 envelope time;
#X text 144 857 open time;
#X text 179 892 close time;
#X obj 113 934 pack f f f;
#X text 25 109 Tape Envelope;
#X text 25 369 Tape ADSR;
#X text 25 807 Trigger Envelope;
#X text 25 1077 Trigger ADSR;
#X text 44 65 driven by sample number and function at the signal level.
;
#X text 44 745 Function off events and function at the control level.
;
#X text 45 759 Give [trigadsr~] and [envadsr~] a zero or non-zero value
;
#X text 44 773 representing amplitude (like a keypress).;
#X obj 128 165 ../Conversions/freq2samp~;
#X obj 67 305 ../Envelopes/tapeenv~;
#X obj 127 425 ../Conversions/freq2samp~;
#X obj 66 648 ../Envelopes/tapeadsr~;
#X obj 63 1001 ../Envelopes/trigenv~ 0 0;
#X obj 63 1331 ../Envelopes/trigadsr~ 0 0;
#X text 30 1407 ++++++++;
#X connect 2 0 67 1;
#X connect 3 0 67 2;
#X connect 4 0 5 0;
#X connect 5 0 67 0;
#X connect 6 0 4 0;
#X connect 6 0 66 0;
#X connect 8 0 67 3;
#X connect 10 0 69 1;
#X connect 11 0 69 2;
#X connect 12 0 13 0;
#X connect 13 0 69 0;
#X connect 14 0 12 0;
#X connect 14 0 68 0;
#X connect 15 0 69 3;
#X connect 20 0 69 4;
#X connect 21 0 69 5;
#X connect 27 0 57 1;
#X connect 28 0 57 2;
#X connect 29 0 57 0;
#X connect 30 0 70 2;
#X connect 31 0 70 3;
#X connect 32 0 70 0;
#X connect 37 0 42 1;
#X connect 38 0 42 2;
#X connect 39 0 42 0;
#X connect 40 0 42 3;
#X connect 41 0 42 4;
#X connect 42 0 71 1;
#X connect 43 0 71 2;
#X connect 44 0 71 3;
#X connect 45 0 71 0;
#X connect 57 0 70 1;
#X connect 66 0 5 1;
#X connect 67 0 16 1;
#X connect 68 0 13 1;
#X connect 69 0 24 1;
#X connect 70 0 35 1;
#X connect 71 0 53 1;
