#N canvas 0 145 528 526 10;
#X text 47 25 ++++CONVERSIONS++++;
#X floatatom 67 69 5 0 0 0 - - -, f 5;
#X floatatom 67 117 5 0 0 0 - - -, f 5;
#X floatatom 67 180 5 0 0 0 - - -, f 5;
#X floatatom 67 228 5 0 0 0 - - -, f 5;
#X floatatom 67 275 5 0 0 0 - - -, f 5;
#X floatatom 67 340 5 0 0 0 - - -, f 5;
#X floatatom 67 388 5 0 0 0 - - -, f 5;
#X floatatom 67 435 5 0 0 0 - - -, f 5;
#X floatatom 67 501 5 0 0 0 - - -, f 5;
#X floatatom 67 549 5 0 0 0 - - -, f 5;
#X floatatom 67 596 5 0 0 0 - - -, f 5;
#X floatatom 67 661 5 0 0 0 - - -, f 5;
#X floatatom 67 709 5 0 0 0 - - -, f 5;
#X floatatom 67 756 5 0 0 0 - - -, f 5;
#X floatatom 67 825 5 0 0 0 - - -, f 5;
#X floatatom 67 873 5 0 0 0 - - -, f 5;
#X floatatom 67 920 5 0 0 0 - - -, f 5;
#X floatatom 67 985 5 0 0 0 - - -, f 5;
#X floatatom 67 1033 5 0 0 0 - - -, f 5;
#X floatatom 67 1080 5 0 0 0 - - -, f 5;
#X floatatom 67 1145 5 0 0 0 - - -, f 5;
#X floatatom 67 1193 5 0 0 0 - - -, f 5;
#X floatatom 67 1240 5 0 0 0 - - -, f 5;
#X floatatom 66 1565 5 0 0 0 - - -, f 5;
#X floatatom 66 1449 5 0 0 0 - - -, f 5;
#X floatatom 118 1450 5 0 0 0 - - -, f 5;
#X obj 118 1472 t b f;
#X floatatom 168 1450 5 0 0 0 - - -, f 5;
#X obj 168 1472 t b f;
#X obj 66 1508 pack f f f;
#X floatatom 66 1415 5 0 0 0 - - -, f 5;
#X floatatom 66 1299 5 0 0 0 - - -, f 5;
#X floatatom 118 1300 5 0 0 0 - - -, f 5;
#X obj 118 1322 t b f;
#X obj 66 1358 pack f f;
#X floatatom 67 1844 5 0 0 0 - - -, f 5;
#X floatatom 67 1718 5 0 0 0 - - -, f 5;
#X floatatom 119 1719 5 0 0 0 - - -, f 5;
#X obj 119 1741 t b f;
#X floatatom 67 1680 5 0 0 0 - - -, f 5;
#X floatatom 67 1628 5 0 0 0 - - -, f 5;
#X obj 67 1771 pack f f;
#X floatatom 134 1680 5 0 0 0 - - -, f 5;
#X floatatom 142 1844 5 0 0 0 - - -, f 5;
#X floatatom 218 1844 5 0 0 0 - - -, f 5;
#X text 283 1630 theta = 0 - 1;
#X text 115 1631 theta = 0 - 2pi;
#X text 283 1794 theta = 0 - 1;
#X text 115 1795 theta = 0 - 2pi;
#X text 47 47 [+/-]<-->Absolute Value;
#X text 47 317 Frequency<-->Samples;
#X text 47 478 Frequency<-->Milliseconds;
#X text 47 157 BPM<-->Milliseconds;
#X text 47 638 Frequency<-->MIDI;
#X text 47 802 Samples<-->Milliseconds;
#X text 47 962 Milliseconds<-->Meters;
#X text 47 1122 Milliseconds<-->Meters;
#X text 45 1277 2D & 3D Hypotenuse;
#X text 46 1606 Unit Circle & Unit Sphere;
#X text 47 1875 ++++++++;
#X obj 264 92 ../Conversions/absolute~;
#X obj 67 92 ../Conversions/absolute;
#X obj 67 203 ../Conversions/bpm2time;
#X obj 264 203 ../Conversions/bpm2time~;
#X obj 264 248 ../Conversions/time2bpm~;
#X obj 67 248 ../Conversions/time2bpm;
#X obj 67 363 ../Conversions/freq2samp;
#X obj 264 363 ../Conversions/freq2samp~;
#X obj 67 408 ../Conversions/samp2freq;
#X obj 264 408 ../Conversions/samp2freq~;
#X obj 67 524 ../Conversions/freq2time;
#X obj 67 569 ../Conversions/time2freq;
#X obj 264 524 ../Conversions/freq2time~;
#X obj 264 569 ../Conversions/time2freq~;
#X obj 67 684 ../Conversions/freq2midi;
#X obj 264 684 ../Conversions/freq2midi~;
#X obj 67 729 ../Conversions/midi2freq;
#X obj 264 729 ../Conversions/midi2freq~;
#X obj 67 848 ../Conversions/samp2time;
#X obj 67 893 ../Conversions/time2samp;
#X obj 264 848 ../Conversions/samp2time~;
#X obj 264 893 ../Conversions/time2samp~;
#X obj 67 1008 ../Conversions/time2dist;
#X obj 264 1008 ../Conversions/time2dist~;
#X obj 264 1053 ../Conversions/dist2time~;
#X obj 67 1053 ../Conversions/dist2time;
#X obj 67 1168 ../Conversions/time2dist;
#X obj 67 1213 ../Conversions/dist2time;
#X obj 264 1168 ../Conversions/time2dist~;
#X obj 264 1213 ../Conversions/dist2time~;
#X obj 66 1388 ../Conversions/hypotenuse3d;
#X obj 283 1388 ../Conversions/hypotenuse2d~;
#X obj 66 1538 ../Conversions/hypotenuse3d;
#X obj 283 1538 ../Conversions/hypotenuse3d~;
#X obj 67 1653 ../Conversions/unitcircle;
#X obj 270 1653 ../Conversions/unitcircle~;
#X obj 67 1817 ../Conversions/unitsphere;
#X obj 271 1816 ../Conversions/unitsphere~;
#X connect 1 0 62 0;
#X connect 3 0 63 0;
#X connect 4 0 66 0;
#X connect 6 0 67 0;
#X connect 7 0 69 0;
#X connect 9 0 71 0;
#X connect 10 0 72 0;
#X connect 12 0 75 0;
#X connect 13 0 77 0;
#X connect 15 0 79 0;
#X connect 16 0 80 0;
#X connect 18 0 83 0;
#X connect 19 0 86 0;
#X connect 21 0 87 0;
#X connect 22 0 88 0;
#X connect 25 0 30 0;
#X connect 26 0 27 0;
#X connect 27 0 30 0;
#X connect 27 1 30 1;
#X connect 28 0 29 0;
#X connect 29 0 30 0;
#X connect 29 1 30 2;
#X connect 30 0 93 0;
#X connect 32 0 35 0;
#X connect 33 0 34 0;
#X connect 34 0 35 0;
#X connect 34 1 35 1;
#X connect 35 0 91 0;
#X connect 37 0 42 0;
#X connect 38 0 39 0;
#X connect 39 0 42 0;
#X connect 39 1 42 1;
#X connect 41 0 95 0;
#X connect 42 0 97 0;
#X connect 62 0 2 0;
#X connect 63 0 4 0;
#X connect 66 0 5 0;
#X connect 67 0 7 0;
#X connect 69 0 8 0;
#X connect 71 0 10 0;
#X connect 72 0 11 0;
#X connect 75 0 13 0;
#X connect 77 0 14 0;
#X connect 79 0 16 0;
#X connect 80 0 17 0;
#X connect 83 0 19 0;
#X connect 86 0 20 0;
#X connect 87 0 22 0;
#X connect 88 0 23 0;
#X connect 91 0 31 0;
#X connect 93 0 24 0;
#X connect 95 0 40 0;
#X connect 95 1 43 0;
#X connect 97 0 36 0;
#X connect 97 1 44 0;
#X connect 97 2 45 0;
