#N canvas 0 106 594 631 10;
#X text 27 26 ++++EFFECTS++++;
#X text 27 48 Pd-Sandbox Effects;
#X text 64 82 1) effect_init~;
#X text 64 114 2) effect~;
#X text 64 145 3) geffect~;
#X text 45 430 [Effects/SampleRate/gchangerate~ cr2];
#X text 44 697 [Effects/BitDepth/gchangebit~ cb2];
#X text 44 180 Be sure to give effects with params a unique identifier!
;
#X floatatom 233 232 5 0 0 0 - - -, f 5;
#X obj 233 251 pack f 30;
#X obj 233 273 vline~;
#X floatatom 226 333 5 0 0 0 - - -, f 5;
#X floatatom 213 492 5 0 0 0 - - -, f 5;
#X obj 213 511 pack f 30;
#X obj 213 533 vline~;
#X floatatom 206 605 5 0 0 0 - - -, f 5;
#X text 268 333 SampleRate;
#X text 27 228 Change Rate;
#X text 27 492 Change Bit;
#X text 247 605 Bit Depth;
#X text 273 233 SampleRate;
#X text 255 491 Bit Depth;
#X floatatom 149 762 5 0 0 0 - - -, f 5;
#X obj 149 781 pack f 30;
#X obj 149 803 vline~;
#X text 27 762 Delay;
#X text 189 761 Length;
#X floatatom 249 762 5 0 0 0 - - -, f 5;
#X obj 249 781 pack f 30;
#X obj 249 803 vline~;
#X text 289 761 Amp;
#X floatatom 144 875 5 0 0 0 - - -, f 5;
#X text 184 874 Length;
#X floatatom 241 875 5 0 0 0 - - -, f 5;
#X text 281 874 Amp;
#X floatatom 142 1092 5 0 0 0 - - -, f 5;
#X obj 142 1111 pack f 30;
#X obj 142 1133 vline~;
#X text 182 1091 Length;
#X floatatom 242 1092 5 0 0 0 - - -, f 5;
#X obj 242 1111 pack f 30;
#X obj 242 1133 vline~;
#X text 282 1091 Amp;
#X floatatom 138 1207 5 0 0 0 - - -, f 5;
#X text 178 1206 Length;
#X floatatom 234 1207 5 0 0 0 - - -, f 5;
#X text 278 1206 Amp;
#X text 27 1082 Echo;
#X floatatom 141 1402 5 0 0 0 - - -, f 5;
#X obj 141 1421 pack f 30;
#X obj 141 1443 vline~;
#X floatatom 234 1402 5 0 0 0 - - -, f 5;
#X obj 234 1421 pack f 30;
#X obj 234 1443 vline~;
#X text 274 1401 Amp;
#X floatatom 137 1515 5 0 0 0 - - -, f 5;
#X text 177 1514 Length;
#X floatatom 234 1515 5 0 0 0 - - -, f 5;
#X text 278 1514 Amp;
#X text 27 1392 Reverb;
#X text 181 1401 Pre;
#X text 44 1637 [Effects/Reverb/greverb~ rv2];
#X text 60 848 outlet: delayed signal;
#X text 61 918 outlet1: original + delay;
#X text 61 931 outlet2: delay signal;
#X text 61 1018 outlet1: original + delay;
#X text 61 1031 outlet2: delay signal;
#X text 68 2009 signal;
#X text 56 1857 outlet: amp modulator;
#X text 58 2073 outlet2: amp modulator;
#X text 58 2057 outlet1: modulated signal;
#X text 58 2207 outlet2: amp modulator;
#X text 58 2191 outlet1: modulated signal;
#X text 73 1562 outlets: stereo reverb;
#X text 73 1652 outlets: stereo reverb;
#X text 73 1490 outlets: stereo reverb;
#X floatatom 141 4600 5 0 0 0 - - -, f 5;
#X obj 141 4639 pack f 30;
#X obj 141 4661 vline~;
#X floatatom 224 4620 5 0 0 0 - - -, f 5;
#X obj 224 4639 pack f 30;
#X obj 224 4661 vline~;
#X obj 300 4668 bng 15 250 50 0 empty empty empty 17 7 0 10 -262144
-1 -1;
#X text 320 4668 reset phase;
#X floatatom 48 4580 5 0 0 0 - - -, f 5;
#X obj 48 4639 pack f 30;
#X obj 48 4661 vline~;
#X text 88 4579 Freq;
#X obj 144 4805 pack f f f;
#X floatatom 144 4750 5 0 0 0 - - -, f 5;
#X floatatom 211 4785 5 0 0 0 - - -, f 5;
#X floatatom 177 4768 5 0 0 0 - - -, f 5;
#X obj 241 4812 bng 15 250 50 0 empty empty empty 17 7 0 10 -262144
-1 -1;
#X text 68 4809 signal;
#X text 189 4750 Freq;
#X text 220 4766 Depth (0-1);
#X text 254 4786 Waveshape (0-1);
#X text 264 4619 WaveShape (0-1);
#X text 181 4599 Depth (0-1);
#X text 56 4705 outlet: amp modulator;
#X text 58 4873 outlet2: amp modulator;
#X text 58 4857 outlet1: modulated signal;
#X text 58 5007 outlet2: amp modulator;
#X text 58 4991 outlet1: modulated signal;
#X text 44 4974 [Effects/Tremolo/gtremolo~ tm2];
#X text 27 4540 Tremolo;
#X text 27 1702 Gate;
#X text 68 1821 signal;
#X floatatom 150 1720 5 0 0 0 - - -, f 5;
#X floatatom 177 1740 5 0 0 0 - - -, f 5;
#X floatatom 204 1763 5 0 0 0 - - -, f 5;
#X floatatom 231 1786 5 0 0 0 - - -, f 5;
#X obj 150 1812 pack f f f f;
#X text 217 1741 attack time;
#X text 244 1763 hold time;
#X text 273 1786 release time;
#X text 189 1718 threshold (dB);
#X floatatom 136 1914 5 0 0 0 - - -, f 5;
#X floatatom 163 1934 5 0 0 0 - - -, f 5;
#X floatatom 190 1957 5 0 0 0 - - -, f 5;
#X floatatom 217 1980 5 0 0 0 - - -, f 5;
#X obj 136 2006 pack f f f f;
#X text 205 1934 attack time;
#X text 229 1957 hold time;
#X text 259 1980 release time;
#X text 176 1914 threshold (dB);
#X text 68 2533 signal;
#X text 56 2417 outlet: amp modulator;
#X text 58 2593 outlet2: amp modulator;
#X text 58 2577 outlet1: modulated signal;
#X text 58 2737 outlet2: amp modulator;
#X text 58 2721 outlet1: modulated signal;
#X text 68 2381 signal;
#X floatatom 192 2300 5 0 0 0 - - -, f 5;
#X floatatom 225 2320 5 0 0 0 - - -, f 5;
#X floatatom 259 2343 5 0 0 0 - - -, f 5;
#X text 265 2321 attack time;
#X text 300 2345 release time;
#X text 231 2298 threshold (dB);
#X floatatom 185 2454 5 0 0 0 - - -, f 5;
#X floatatom 218 2475 5 0 0 0 - - -, f 5;
#X floatatom 252 2497 5 0 0 0 - - -, f 5;
#X text 260 2475 attack time;
#X text 292 2496 release time;
#X text 225 2454 threshold (dB);
#X obj 192 2372 pack f f f;
#X obj 185 2526 pack f f f;
#X text 44 2174 [Effects/Gate/ggate~ g2];
#X text 27 2272 Limiter;
#X text 68 2632 signal;
#X text 44 2704 [Effects/Limiter/glimter~ lm2];
#X text 68 3161 signal;
#X text 56 3021 outlet: amp modulator;
#X text 58 3221 outlet2: amp modulator;
#X text 58 3205 outlet1: modulated signal;
#X text 58 3365 outlet2: amp modulator;
#X text 58 3349 outlet1: modulated signal;
#X text 68 2985 signal;
#X text 68 3260 signal;
#X text 27 2792 Compressar;
#X floatatom 169 2883 5 0 0 0 - - -, f 5;
#X floatatom 196 2903 5 0 0 0 - - -, f 5;
#X floatatom 223 2926 5 0 0 0 - - -, f 5;
#X floatatom 250 2949 5 0 0 0 - - -, f 5;
#X obj 169 2975 pack f f f f;
#X text 267 2924 attack time;
#X text 292 2949 release time;
#X text 209 2883 threshold (dB);
#X obj 290 2975 tgl 15 0 empty empty empty 17 7 0 10 -262144 -1 -1
0 1;
#X text 239 2901 ratio;
#X text 312 2976 dB/rms ratio;
#X floatatom 165 3063 5 0 0 0 - - -, f 5;
#X floatatom 192 3083 5 0 0 0 - - -, f 5;
#X floatatom 219 3106 5 0 0 0 - - -, f 5;
#X floatatom 246 3129 5 0 0 0 - - -, f 5;
#X obj 165 3155 pack f f f f;
#X text 263 3104 attack time;
#X text 288 3129 release time;
#X text 205 3063 threshold (dB);
#X obj 283 3156 tgl 15 0 empty empty empty 17 7 0 10 -262144 -1 -1
0 1;
#X text 235 3081 ratio;
#X text 305 3157 dB/rms ratio;
#X text 44 3332 [Effects/Compressor/gcompressar~ lm2];
#X text 59 2823 -written as compressar;
#X text 67 2837 because [compressor~];
#X text 67 2851 is taken in Pd extended;
#X text 68 3720 signal;
#X text 56 3580 outlet: amp modulator;
#X text 58 3780 outlet2: amp modulator;
#X text 58 3764 outlet1: modulated signal;
#X text 58 3920 outlet2: amp modulator;
#X text 58 3904 outlet1: modulated signal;
#X text 68 3544 signal;
#X text 68 3815 signal;
#X floatatom 155 3442 5 0 0 0 - - -, f 5;
#X floatatom 182 3462 5 0 0 0 - - -, f 5;
#X floatatom 209 3485 5 0 0 0 - - -, f 5;
#X floatatom 236 3508 5 0 0 0 - - -, f 5;
#X obj 155 3534 pack f f f f;
#X text 253 3483 attack time;
#X text 278 3508 release time;
#X text 195 3442 threshold (dB);
#X obj 262 3534 tgl 15 0 empty empty empty 17 7 0 10 -262144 -1 -1
0 1;
#X text 225 3460 ratio;
#X text 284 3535 dB/rms ratio;
#X floatatom 151 3622 5 0 0 0 - - -, f 5;
#X floatatom 178 3642 5 0 0 0 - - -, f 5;
#X floatatom 205 3665 5 0 0 0 - - -, f 5;
#X floatatom 232 3688 5 0 0 0 - - -, f 5;
#X obj 151 3714 pack f f f f;
#X text 249 3663 attack time;
#X text 274 3688 release time;
#X text 191 3622 threshold (dB);
#X obj 255 3715 tgl 15 0 empty empty empty 17 7 0 10 -262144 -1 -1
0 1;
#X text 221 3640 ratio;
#X text 277 3716 dB/rms ratio;
#X text 27 3421 Expander;
#X floatatom 141 5100 5 0 0 0 - - -, f 5;
#X obj 141 5139 pack f 30;
#X obj 141 5161 vline~;
#X floatatom 233 5120 5 0 0 0 - - -, f 5;
#X obj 233 5139 pack f 30;
#X obj 233 5161 vline~;
#X obj 137 5305 pack f f f;
#X floatatom 137 5248 5 0 0 0 - - -, f 5;
#X floatatom 204 5285 5 0 0 0 - - -, f 5;
#X floatatom 170 5266 5 0 0 0 - - -, f 5;
#X text 58 5315 signal;
#X text 27 5060 Leslie;
#X obj 227 5306 hradio 15 1 0 3 empty empty empty 0 -8 0 10 -262144
-1 -1 0;
#X text 60 5165 signal;
#X text 273 5119 Distance;
#X text 277 5305 off/low/high;
#X text 181 5099 Speed (0-1);
#X text 182 5248 Low;
#X text 213 5264 High;
#X text 247 5286 Distance;
#X floatatom 114 5560 5 0 0 0 - - -, f 5;
#X obj 114 5599 pack f 30;
#X obj 114 5621 vline~;
#X floatatom 186 5580 5 0 0 0 - - -, f 5;
#X obj 186 5599 pack f 30;
#X obj 186 5621 vline~;
#X text 68 5779 signal;
#X text 56 5654 signal;
#X text 44 5474 [Effects/Tremolo/gtremolo~ ls2];
#X text 60 5395 signal;
#X text 27 5530 Flanger;
#X floatatom 241 5706 5 0 0 0 - - -, f 5;
#X floatatom 274 5727 5 0 0 0 - - -, f 5;
#X obj 241 5769 pack f f f;
#X floatatom 308 5747 5 0 0 0 - - -, f 5;
#X text 282 5704 Freq;
#X text 314 5727 Del (0-10);
#X text 346 5747 Feedback (0-1);
#X floatatom 262 5599 5 0 0 0 - - -, f 5;
#X obj 262 5618 pack f 30;
#X obj 262 5640 vline~;
#X text 154 5559 Freq;
#X text 226 5579 Del (0-10);
#X text 302 5598 Feedback (0-1);
#X text 56 5355 outlet: modulated signal;
#X text 81 5457 outlet: modulated signal;
#X text 56 5205 outlet: modulated signal;
#X text 55 5695 outlet: modulated signal;
#X text 58 5827 outlet: modulated signal;
#X text 58 5941 outlet: modulated signal;
#X text 44 5924 [Effects/Flanger/gflanger~ fl2];
#X floatatom 94 6020 5 0 0 0 - - -, f 5;
#X obj 94 6059 pack f 30;
#X obj 94 6081 vline~;
#X floatatom 166 6040 5 0 0 0 - - -, f 5;
#X obj 166 6059 pack f 30;
#X obj 166 6081 vline~;
#X text 68 6299 signal;
#X text 56 6144 signal;
#X floatatom 227 6216 5 0 0 0 - - -, f 5;
#X floatatom 254 6237 5 0 0 0 - - -, f 5;
#X floatatom 281 6257 5 0 0 0 - - -, f 5;
#X text 268 6214 Freq;
#X text 294 6237 Del (0-10);
#X floatatom 242 6059 5 0 0 0 - - -, f 5;
#X obj 242 6078 pack f 30;
#X obj 242 6100 vline~;
#X text 134 6019 Freq;
#X text 55 6185 outlet: modulated signal;
#X text 58 6347 outlet: modulated signal;
#X text 58 6461 outlet: modulated signal;
#X text 27 5990 Chorus;
#X text 207 6039 Del (0-1);
#X floatatom 322 6079 5 0 0 0 - - -, f 5;
#X obj 322 6098 pack f 30;
#X obj 322 6120 vline~;
#X text 282 6058 Depth (0-1);
#X text 362 6078 Color (0-1);
#X obj 227 6299 pack f f f f;
#X floatatom 308 6277 5 0 0 0 - - -, f 5;
#X text 321 6257 Depth (0-1);
#X text 346 6276 Color (0-1);
#X text 44 6444 [Effects/Chorus/gchorus~ fl2];
#X text 44 1327 [Effects/Echo/gecho~ ec2 500];
#X text 44 1003 [Effects/Delay/gdelay~ dl2 500];
#X text 44 65 Effects come in three forms:;
#X text 94 98 -The no frills base effect.;
#X text 94 128 -Effect with init and params to save with preset.;
#X text 94 161 -Effect with init \, params \, and a a gui.;
#X text 68 4330 signal;
#X text 38 4125 signal;
#X text 68 4405 signal;
#X floatatom 227 4212 5 0 0 0 - - -, f 5;
#X floatatom 254 4232 5 0 0 0 - - -, f 5;
#X floatatom 281 4255 5 0 0 0 - - -, f 5;
#X floatatom 308 4278 5 0 0 0 - - -, f 5;
#X text 27 3981 Distortion;
#X obj 103 4086 pack f 30;
#X obj 103 4108 vline~;
#X floatatom 103 4044 5 0 0 0 - - -, f 5;
#X obj 103 4063 * 0.01;
#X obj 183 4086 pack f 30;
#X obj 183 4108 vline~;
#X floatatom 183 4044 5 0 0 0 - - -, f 5;
#X obj 263 4086 pack f 30;
#X obj 263 4108 vline~;
#X floatatom 263 4044 5 0 0 0 - - -, f 5;
#X obj 343 4086 pack f 30;
#X obj 343 4108 vline~;
#X floatatom 343 4044 5 0 0 0 - - -, f 5;
#X obj 343 4063 * 0.01;
#X obj 423 4086 pack f 30;
#X obj 423 4109 vline~;
#X floatatom 423 4044 5 0 0 0 - - -, f 5;
#X text 100 4026 Boost;
#X text 257 4025 Threshold;
#X text 180 4028 Cutoff;
#X text 347 4024 Crunch;
#X text 420 4023 Amp;
#X text 56 4170 outlet: distorted signal;
#X obj 227 4324 pack f f f f f;
#X floatatom 325 4299 5 0 0 0 - - -, f 5;
#X obj 183 4063 dbtorms;
#X obj 263 4063 dbtorms;
#X obj 423 4063 dbtorms;
#X text 272 4208 Boost;
#X text 326 4252 Threshold;
#X text 298 4232 Cutoff;
#X text 351 4276 Crunch;
#X text 373 4298 Amp;
#X text 44 3887 [Effects/Expander/gexpander~ ex2];
#X text 44 4477 [Effects/Distortion/gdistortion~ ds2];
#X obj 47 358 ../Effects/SampleRate/changerate~ cr1;
#X obj 47 302 ../Effects/SampleRate/changerate_init~;
#X obj 48 386 ../Effects/SampleRate/gchangerate~ cr2;
#X obj 48 560 ../Effects/BitDepth/changebit_init~;
#X obj 48 626 ../Effects/BitDepth/changebit~ cb1;
#X obj 48 651 ../Effects/BitDepth/gchangebit~ cb2;
#X obj 48 829 ../Effects/Delay/delay_init~ 500;
#X obj 48 902 ../Effects/Delay/delay~ dl1 500;
#X obj 48 959 ../Effects/Delay/gdelay~ dl2 500;
#X obj 48 1159 ../Effects/Echo/echo_init~ 500;
#X obj 49 1232 ../Effects/Echo/echo~ ec1 500;
#X obj 49 1282 ../Effects/Echo/gecho~ ec2 500;
#X obj 48 1469 ../Effects/Reverb/reverb_init~;
#X obj 48 1542 ../Effects/Reverb/reverb~ rv1;
#X obj 50 1594 ../Effects/Reverb/greverb~ rb2;
#X obj 48 1838 ../Effects/Gate/gate_init~;
#X obj 48 2035 ../Effects/Gate/gate~ g1;
#X obj 48 2124 ../Effects/Gate/ggate~ g2;
#X obj 48 2398 ../Effects/Limiter/limiter_init~;
#X obj 48 2555 ../Effects/Limiter/limiter~ lm1;
#X obj 48 2651 ../Effects/Limiter/glimiter~ lm2;
#X obj 49 3002 ../Effects/Compressor/compressar_init~;
#X obj 48 3183 ../Effects/Compressor/compressar~ cm1;
#X obj 47 3284 ../Effects/Compressor/gcompressar~ lm2;
#X obj 48 3561 ../Effects/Expander/expander_init~;
#X obj 48 3742 ../Effects/Expander/expander~ ex1;
#X obj 48 3832 ../Effects/Expander/gexpander~ ex2;
#X obj 47 4151 ../Effects/Distortion/distortion_init~;
#X obj 48 4352 ../Effects/Distortion/distortion~ ds1;
#X obj 48 4426 ../Effects/Distortion/gdistortion~ ds2;
#X obj 48 4686 ../Effects/Tremolo/tremolo_init~;
#X obj 48 4835 ../Effects/Tremolo/tremolo~ tm1;
#X obj 48 4919 ../Effects/Tremolo/gtremolo~ tm2;
#X obj 48 5186 ../Effects/Leslie/leslie_init~;
#X obj 48 5335 ../Effects/Leslie/leslie~ ls1;
#X obj 48 5415 ../Effects/Leslie/gleslie~ ls2;
#X obj 48 5676 ../Effects/Flanger/flanger_init~;
#X obj 48 5805 ../Effects/Flanger/flanger~ fl1;
#X obj 48 5874 ../Effects/Flanger/gflanger~ fl2;
#X obj 48 6166 ../Effects/Chorus/chorus_init~;
#X obj 48 6325 ../Effects/Chorus/chorus~ fl1;
#X obj 48 6395 ../Effects/Chorus/gchorus~ ch2;
#X connect 8 0 9 0;
#X connect 9 0 10 0;
#X connect 10 0 350 1;
#X connect 11 0 349 1;
#X connect 12 0 13 0;
#X connect 13 0 14 0;
#X connect 14 0 352 1;
#X connect 15 0 353 1;
#X connect 22 0 23 0;
#X connect 23 0 24 0;
#X connect 24 0 355 1;
#X connect 27 0 28 0;
#X connect 28 0 29 0;
#X connect 29 0 355 2;
#X connect 31 0 356 1;
#X connect 33 0 356 2;
#X connect 35 0 36 0;
#X connect 36 0 37 0;
#X connect 37 0 358 1;
#X connect 39 0 40 0;
#X connect 40 0 41 0;
#X connect 41 0 358 2;
#X connect 43 0 359 1;
#X connect 45 0 359 2;
#X connect 48 0 49 0;
#X connect 49 0 50 0;
#X connect 50 0 361 1;
#X connect 51 0 52 0;
#X connect 52 0 53 0;
#X connect 53 0 361 2;
#X connect 55 0 362 1;
#X connect 57 0 362 2;
#X connect 76 0 77 0;
#X connect 77 0 78 0;
#X connect 78 0 379 1;
#X connect 79 0 80 0;
#X connect 80 0 81 0;
#X connect 81 0 379 2;
#X connect 82 0 379 3;
#X connect 84 0 85 0;
#X connect 85 0 86 0;
#X connect 86 0 379 0;
#X connect 88 0 380 1;
#X connect 89 0 88 0;
#X connect 90 0 88 2;
#X connect 91 0 88 1;
#X connect 92 0 380 2;
#X connect 108 0 112 0;
#X connect 109 0 112 1;
#X connect 110 0 112 2;
#X connect 111 0 112 3;
#X connect 112 0 364 1;
#X connect 117 0 121 0;
#X connect 118 0 121 1;
#X connect 119 0 121 2;
#X connect 120 0 121 3;
#X connect 121 0 365 1;
#X connect 133 0 145 0;
#X connect 134 0 145 1;
#X connect 135 0 145 2;
#X connect 139 0 146 0;
#X connect 140 0 146 1;
#X connect 141 0 146 2;
#X connect 145 0 367 1;
#X connect 146 0 368 1;
#X connect 160 0 164 0;
#X connect 161 0 164 1;
#X connect 162 0 164 2;
#X connect 163 0 164 3;
#X connect 164 0 370 1;
#X connect 168 0 370 2;
#X connect 171 0 175 0;
#X connect 172 0 175 1;
#X connect 173 0 175 2;
#X connect 174 0 175 3;
#X connect 175 0 371 1;
#X connect 179 0 371 2;
#X connect 194 0 198 0;
#X connect 195 0 198 1;
#X connect 196 0 198 2;
#X connect 197 0 198 3;
#X connect 198 0 373 1;
#X connect 202 0 373 2;
#X connect 205 0 209 0;
#X connect 206 0 209 1;
#X connect 207 0 209 2;
#X connect 208 0 209 3;
#X connect 209 0 374 1;
#X connect 213 0 374 2;
#X connect 217 0 218 0;
#X connect 218 0 219 0;
#X connect 219 0 382 1;
#X connect 220 0 221 0;
#X connect 221 0 222 0;
#X connect 222 0 382 2;
#X connect 223 0 383 1;
#X connect 224 0 223 0;
#X connect 225 0 223 2;
#X connect 226 0 223 1;
#X connect 229 0 383 2;
#X connect 237 0 238 0;
#X connect 238 0 239 0;
#X connect 239 0 385 1;
#X connect 240 0 241 0;
#X connect 241 0 242 0;
#X connect 242 0 385 2;
#X connect 248 0 250 0;
#X connect 249 0 250 1;
#X connect 250 0 386 1;
#X connect 251 0 250 2;
#X connect 255 0 256 0;
#X connect 256 0 257 0;
#X connect 257 0 385 3;
#X connect 268 0 269 0;
#X connect 269 0 270 0;
#X connect 270 0 388 1;
#X connect 271 0 272 0;
#X connect 272 0 273 0;
#X connect 273 0 388 2;
#X connect 276 0 295 0;
#X connect 277 0 295 1;
#X connect 278 0 295 2;
#X connect 281 0 282 0;
#X connect 282 0 283 0;
#X connect 283 0 388 3;
#X connect 290 0 291 0;
#X connect 291 0 292 0;
#X connect 292 0 388 4;
#X connect 295 0 389 1;
#X connect 296 0 295 3;
#X connect 309 0 337 0;
#X connect 310 0 337 1;
#X connect 311 0 337 2;
#X connect 312 0 337 3;
#X connect 314 0 315 0;
#X connect 315 0 376 1;
#X connect 316 0 317 0;
#X connect 317 0 314 0;
#X connect 318 0 319 0;
#X connect 319 0 376 2;
#X connect 320 0 339 0;
#X connect 321 0 322 0;
#X connect 322 0 376 3;
#X connect 323 0 340 0;
#X connect 324 0 325 0;
#X connect 325 0 376 4;
#X connect 326 0 327 0;
#X connect 327 0 324 0;
#X connect 328 0 329 0;
#X connect 329 0 376 5;
#X connect 330 0 341 0;
#X connect 337 0 377 1;
#X connect 338 0 337 4;
#X connect 339 0 318 0;
#X connect 340 0 321 0;
#X connect 341 0 328 0;
