#N canvas 7 185 686 573 10;
#X obj 213 124 tgl 15 0 empty empty empty 17 7 0 10 -262144 -1 -1 0
1;
#X obj 72 193 hsl 128 15 -1 1 0 0 empty empty empty -2 -8 0 10 -262144
-1 -1 0 1;
#X symbolatom 213 172 10 0 0 0 - - -, f 10;
#X text 48 193 -1;
#X text 204 193 1;
#X text 44 116 Tuner;
#X text 44 229 Tuner with GUI;
#X text 65 315 [Tuner/gtuner~];
#X obj 69 147 ../Tools/Tuner/tuner~;
#X obj 69 262 ../Tools/Tuner/gtuner~;
#X text 92 470 start/stop;
#X text 185 469 play/pause;
#X text 271 469 clear;
#X obj 286 489 bng 15 250 50 0 empty empty empty 17 7 0 10 -262144
-1 -1;
#X obj 208 489 tgl 15 0 empty empty empty 17 7 0 10 -262144 -1 -1 0
1;
#X obj 122 489 tgl 15 0 empty empty empty 17 7 0 10 -262144 -1 -1 0
1;
#X text 47 384 Looper;
#X text 66 407 First argument is max length of loop in seconds.;
#X text 66 420 Second argument is the length of crossfade in mS.;
#X text 65 434 Default is a 60 second loop with a 30 mS crossfade.
;
#X obj 67 514 ../Tools/Looper/looper~ 90 40;
#X text 45 48 ++++TOOLS++++;
#X text 64 64 A collection of helpful live performance patches.;
#X connect 0 0 8 1;
#X connect 8 0 1 0;
#X connect 8 1 2 0;
#X connect 13 0 20 3;
#X connect 14 0 20 2;
#X connect 15 0 20 1;
