#N canvas 102 205 450 300 10;
#X text 27 62 Play a soundfile;
#X text 27 159 Load a soundfile to a table;
#X text 32 522 Swipe through a sample;
#X text 28 34 ++++SAMPLES++++;
#X text 28 289 Save a signal to disk;
#X text 28 409 Save signal to a table;
#X text 32 742 Swipe through a sample with a signal;
#X obj 182 96 bng 15 250 50 0 empty empty empty 17 7 0 10 -262144 -1
-1;
#X msg 52 92 1;
#X msg 88 92 0;
#X text 232 255 <-- table name;
#X obj 53 229 openpanel;
#X obj 53 205 bng 15 250 50 0 empty empty empty 17 7 0 10 -262144 -1
-1;
#X msg 190 228 1;
#X text 221 229 normalize (0 -1);
#X text 51 180 First argument: table name;
#X text 62 334 signal;
#X obj 118 330 bng 15 250 50 0 empty empty empty 17 7 0 10 -262144
-1 -1;
#X obj 183 331 tgl 15 0 empty empty empty 17 7 0 10 -262144 -1 -1 0
1;
#X text 177 314 stop/start;
#X text 100 313 filename;
#X obj 135 464 tgl 15 0 empty empty empty 17 7 0 10 -262144 -1 -1 0
1;
#X text 129 447 stop/start;
#X msg 218 450 new_table_name;
#X text 228 467 change tables;
#X text 61 474 signal;
#X text 51 427 First argument: table name;
#X floatatom 53 594 5 0 0 0 - - -, f 5;
#X obj 53 616 * 0.01;
#X floatatom 105 618 5 0 0 0 - - -, f 5;
#X floatatom 158 638 5 0 0 0 - - -, f 5;
#X msg 211 655 new_table_name;
#X text 92 593 Position (0-1);
#X text 151 617 Start time (mS);
#X text 198 636 End time (mS);
#X text 231 672 Change tables;
#X text 51 546 First argument: table name;
#X text 51 562 Second argument: cossover time (30 mS default);
#X msg 291 859 new_table_name;
#X floatatom 52 787 5 0 0 0 - - -, f 5;
#X obj 52 828 pack f 30;
#X obj 52 850 vline~;
#X obj 52 806 * 0.01;
#X floatatom 128 806 5 0 0 0 - - -, f 5;
#X obj 128 829 pack f 30;
#X obj 128 851 vline~;
#X floatatom 208 830 5 0 0 0 - - -, f 5;
#X obj 208 853 pack f 30;
#X obj 208 875 vline~;
#X text 97 785 Position (0-1);
#X text 171 805 Start time (mS);
#X text 248 828 End time (mS);
#X text 300 879 Change tables;
#X text 51 767 First argument: table name;
#X msg 53 1032 60;
#X msg 70 1055 63;
#X msg 81 1080 65;
#X text 83 1030 Midi;
#X floatatom 115 1046 5 0 0 0 - - -, f 5;
#X text 155 1044 Start time (mS);
#X text 218 1064 End time (mS);
#X floatatom 177 1066 5 0 0 0 - - -, f 5;
#X msg 238 1091 new_table 48000;
#X text 258 1109 change table and samplerate;
#X text 32 976 Play a sample with a midi note;
#X text 61 993 First argument: table name;
#X text 61 1009 Second argument: cossover time (30 mS default);
#X obj 52 120 ../Samples/sampleplay~;
#X obj 53 254 ../Samples/sampload foo;
#X obj 53 354 ../Samples/samplesave~;
#X obj 53 494 ../Samples/sampletable~ foo;
#X obj 53 699 ../Samples/scratch foo 100;
#X obj 53 937 ../Samples/scratch~ foo;
#X obj 53 1129 ../Samples/trigplay~ foo 44100;
#X text 28 1175 ++++SAMPLES++++;
#X connect 7 0 67 1;
#X connect 8 0 67 0;
#X connect 9 0 67 0;
#X connect 11 0 68 0;
#X connect 12 0 11 0;
#X connect 13 0 68 1;
#X connect 17 0 69 1;
#X connect 18 0 69 2;
#X connect 21 0 70 1;
#X connect 23 0 70 2;
#X connect 27 0 28 0;
#X connect 28 0 71 0;
#X connect 29 0 71 1;
#X connect 30 0 71 2;
#X connect 31 0 71 3;
#X connect 38 0 72 3;
#X connect 39 0 42 0;
#X connect 40 0 41 0;
#X connect 41 0 72 0;
#X connect 42 0 40 0;
#X connect 43 0 44 0;
#X connect 44 0 45 0;
#X connect 45 0 72 1;
#X connect 46 0 47 0;
#X connect 47 0 48 0;
#X connect 48 0 72 2;
#X connect 54 0 73 0;
#X connect 55 0 73 0;
#X connect 56 0 73 0;
#X connect 58 0 73 1;
#X connect 61 0 73 2;
#X connect 62 0 73 3;
