#N canvas 297 338 616 422 10;
#X obj 87 61 inlet;
#X obj 321 57 inlet;
#X obj 180 281 textfile;
#X obj 110 160 s save;
#X obj 180 325 s presets;
#X msg 312 207 rewind;
#X obj 259 206 until;
#X msg 367 208 read \$1;
#X obj 180 91 r params;
#X obj 321 143 symbol;
#X obj 398 58 inlet;
#X obj 398 80 t b;
#X obj 87 113 t s b b;
#X obj 87 90 symbol;
#X msg 87 181 write \$1;
#X msg 133 136 clear;
#X text 398 35 reload last params;
#X obj 321 170 t b b s;
#X obj 119 353 outlet;
#X text 331 261 how to use:;
#X text 331 320 note:;
#X text 345 353 directory / folder;
#X text 344 337 only one saver / preset per;
#X text 350 293 give right inlet a name for 'load'.;
#X text 350 277 give left inlet a name for 'save'.;
#X text 80 37 save name;
#X text 312 35 load name;
#X connect 0 0 13 0;
#X connect 1 0 9 0;
#X connect 2 0 4 0;
#X connect 2 0 18 0;
#X connect 2 1 6 1;
#X connect 5 0 2 0;
#X connect 6 0 2 0;
#X connect 7 0 2 0;
#X connect 8 0 2 0;
#X connect 9 0 17 0;
#X connect 10 0 11 0;
#X connect 11 0 9 0;
#X connect 12 0 14 0;
#X connect 12 1 3 0;
#X connect 12 2 15 0;
#X connect 13 0 12 0;
#X connect 14 0 2 0;
#X connect 15 0 2 0;
#X connect 17 0 6 0;
#X connect 17 1 5 0;
#X connect 17 2 7 0;
