#N canvas 311 332 604 436 10;
#X obj 216 66 inlet;
#X text 212 48 switch;
#X obj 94 71 inlet;
#X obj 94 319 outlet;
#X obj 179 319 outlet;
#X obj 274 68 loadbang;
#X obj 274 90 f 0;
#X obj 94 154 f 0;
#X obj 94 214 route 0;
#X obj 140 236 unpack;
#X obj 94 125 t b l;
#X obj 94 185 list;
#X connect 0 0 7 1;
#X connect 2 0 10 0;
#X connect 5 0 6 0;
#X connect 6 0 7 1;
#X connect 7 0 11 0;
#X connect 8 0 3 0;
#X connect 8 1 9 0;
#X connect 9 1 4 0;
#X connect 10 0 7 0;
#X connect 10 1 11 1;
#X connect 11 0 8 0;
