#N canvas 206 218 713 534 10;
#X obj 72 47 inlet;
#X obj 155 46 inlet;
#X obj 72 91 t b b;
#X obj 155 89 t b b;
#X obj 157 385 t f f;
#X obj 157 419 outlet;
#X text 57 24 --Round--;
#X obj 189 303 < 0;
#X obj 157 281 t f f;
#X obj 157 349 +;
#X obj 256 48 loadbang;
#X obj 72 195 f 1;
#X obj 104 116 f -1;
#X obj 187 116 f 1;
#X obj 157 253 % \$1;
#X obj 157 229 + \$2;
#X obj 189 326 * \$1;
#X obj 324 96 f \$1;
#X obj 324 143 max 0;
#X obj 324 166 t f f;
#X obj 256 73 t b b b;
#X obj 279 96 f \$2;
#X obj 324 119 int;
#X obj 279 119 int;
#X text 327 334 how to use:;
#X text 340 351 first argument \, num ticks.;
#X text 340 366 second argument \, starting tick.;
#X obj 279 143 max 0;
#X connect 0 0 2 0;
#X connect 1 0 3 0;
#X connect 2 0 11 0;
#X connect 2 1 12 0;
#X connect 3 0 11 0;
#X connect 3 1 13 0;
#X connect 4 0 5 0;
#X connect 4 1 11 1;
#X connect 7 0 16 0;
#X connect 8 0 9 0;
#X connect 8 1 7 0;
#X connect 9 0 4 0;
#X connect 10 0 20 0;
#X connect 11 0 15 0;
#X connect 12 0 15 1;
#X connect 13 0 15 1;
#X connect 14 0 8 0;
#X connect 15 0 14 0;
#X connect 16 0 9 1;
#X connect 17 0 22 0;
#X connect 18 0 19 0;
#X connect 19 0 14 1;
#X connect 19 1 16 1;
#X connect 20 0 15 0;
#X connect 20 1 21 0;
#X connect 20 2 17 0;
#X connect 21 0 23 0;
#X connect 22 0 18 0;
#X connect 23 0 27 0;
#X connect 27 0 15 1;
