#N canvas 96 234 422 473 10;
#X obj 68 144 t b b;
#X obj 156 170 t b b;
#X obj 156 65 inlet;
#X obj 68 62 inlet;
#X obj 264 62 loadbang;
#X obj 129 410 outlet;
#X obj 129 383 t f f;
#X text 49 35 --Switch--;
#X obj 129 351 clip 0 \$1;
#X obj 334 123 f \$1;
#X obj 334 173 - 1;
#X obj 334 200 max 0;
#X obj 100 243 f -1;
#X obj 188 242 f 1;
#X obj 68 265 f 0;
#X obj 129 298 + \$2;
#X obj 264 89 t b b b;
#X obj 287 123 f \$2;
#X obj 287 148 int;
#X obj 334 149 int;
#X obj 287 173 max 1;
#X connect 0 0 14 0;
#X connect 0 1 12 0;
#X connect 1 0 14 0;
#X connect 1 1 13 0;
#X connect 2 0 1 0;
#X connect 3 0 0 0;
#X connect 4 0 16 0;
#X connect 6 0 5 0;
#X connect 6 1 14 1;
#X connect 8 0 6 0;
#X connect 9 0 19 0;
#X connect 10 0 11 0;
#X connect 11 0 8 2;
#X connect 12 0 15 1;
#X connect 13 0 15 1;
#X connect 14 0 15 0;
#X connect 15 0 8 0;
#X connect 16 0 15 0;
#X connect 16 1 17 0;
#X connect 16 2 9 0;
#X connect 17 0 18 0;
#X connect 18 0 20 0;
#X connect 19 0 10 0;
#X connect 20 0 15 1;
