#N canvas 55 267 685 501 10;
#X obj 37 31 inlet~;
#X text 37 16 signal;
#X obj 260 36 inlet~;
#X text 260 21 speed;
#X obj 462 35 inlet~;
#X text 456 20 distance;
#X obj 262 437 outlet~;
#X obj 371 324 lop~ 800;
#X obj 371 346 lop~ 800;
#X obj 262 323 hip~ 800;
#X obj 262 345 hip~ 800;
#X obj 261 74 clip~ 0 1;
#X obj 262 184 phasor~;
#X obj 370 146 phasor~;
#X obj 262 412 +~;
#X obj 262 233 *~ 0.5;
#X obj 262 255 +~ 0.5;
#X obj 370 197 *~ 0.5;
#X obj 371 220 +~ 0.5;
#X obj 262 209 cos~;
#X obj 370 172 cos~;
#X obj 262 159 *~ 17;
#X obj 370 118 *~ -13;
#X text 38 91 don't need no half-second;
#X obj 37 70 delwrite~ \$0_leslie 10;
#X obj 262 289 leslie_init/rotator~ \$0_leslie 0.3;
#X obj 371 246 leslie_init/rotator~ \$0_leslie 0.61;
#X connect 0 0 24 0;
#X connect 2 0 11 0;
#X connect 4 0 25 2;
#X connect 4 0 26 2;
#X connect 7 0 8 0;
#X connect 8 0 14 1;
#X connect 9 0 10 0;
#X connect 10 0 14 0;
#X connect 11 0 21 0;
#X connect 11 0 22 0;
#X connect 11 0 25 1;
#X connect 11 0 26 1;
#X connect 12 0 19 0;
#X connect 13 0 20 0;
#X connect 14 0 6 0;
#X connect 15 0 16 0;
#X connect 16 0 25 0;
#X connect 17 0 18 0;
#X connect 18 0 26 0;
#X connect 19 0 15 0;
#X connect 20 0 17 0;
#X connect 21 0 12 0;
#X connect 22 0 13 0;
#X connect 25 0 9 0;
#X connect 26 0 7 0;
