#N canvas 503 155 699 613 10;
#X obj 75 567 outlet~;
#X obj 75 482 +~;
#X obj 220 499 +~;
#X obj 75 533 /~;
#X obj 380 58 inlet~;
#X obj 73 54 inlet~;
#X text 74 34 phasor;
#X text 374 39 frequency;
#X obj 466 58 inlet;
#X obj 466 91 unpack f f f f f f f f f f f;
#X text 518 61 Harmonics;
#X obj 212 346 aaosc/oscctl~ 7 \$7 \$0;
#X obj 301 445 aaosc/oscctl~ 11 \$11 \$0;
#X obj 74 184 aaosc/oscctl~ 1 \$1 \$0;
#X obj 240 372 aaosc/oscctl~ 8 \$8 \$0;
#X obj 192 319 aaosc/oscctl~ 6 \$6 \$0;
#X obj 116 237 aaosc/oscctl~ 3 \$3 \$0;
#X obj 95 211 aaosc/oscctl~ 2 \$2 \$0;
#X obj 143 264 aaosc/oscctl~ 4 \$4 \$0;
#X obj 163 292 aaosc/oscctl~ 5 \$5 \$0;
#X obj 258 397 aaosc/oscctl~ 9 \$9 \$0;
#X obj 281 423 aaosc/oscctl~ 10 \$10 \$0;
#X connect 1 0 3 0;
#X connect 2 0 3 1;
#X connect 3 0 0 0;
#X connect 4 0 11 1;
#X connect 4 0 12 1;
#X connect 4 0 13 1;
#X connect 4 0 14 1;
#X connect 4 0 15 1;
#X connect 4 0 16 1;
#X connect 4 0 17 1;
#X connect 4 0 18 1;
#X connect 4 0 19 1;
#X connect 4 0 20 1;
#X connect 4 0 21 1;
#X connect 5 0 11 0;
#X connect 5 0 12 0;
#X connect 5 0 13 0;
#X connect 5 0 14 0;
#X connect 5 0 15 0;
#X connect 5 0 16 0;
#X connect 5 0 17 0;
#X connect 5 0 18 0;
#X connect 5 0 19 0;
#X connect 5 0 20 0;
#X connect 5 0 21 0;
#X connect 8 0 9 0;
#X connect 9 0 13 2;
#X connect 9 1 17 2;
#X connect 9 2 16 2;
#X connect 9 3 18 2;
#X connect 9 4 19 2;
#X connect 9 5 15 2;
#X connect 9 6 11 2;
#X connect 9 7 14 2;
#X connect 9 8 20 2;
#X connect 9 9 21 2;
#X connect 9 10 12 2;
#X connect 11 0 1 1;
#X connect 11 1 2 1;
#X connect 12 0 1 1;
#X connect 12 1 2 1;
#X connect 13 0 1 0;
#X connect 13 1 2 0;
#X connect 14 0 1 1;
#X connect 14 1 2 1;
#X connect 15 0 1 1;
#X connect 15 1 2 1;
#X connect 16 0 1 0;
#X connect 16 1 2 0;
#X connect 17 0 1 0;
#X connect 17 1 2 0;
#X connect 18 0 1 0;
#X connect 18 1 2 0;
#X connect 19 0 1 0;
#X connect 19 1 2 0;
#X connect 20 0 1 1;
#X connect 20 1 2 1;
#X connect 21 0 1 1;
#X connect 21 1 2 1;
