#N canvas 105 294 535 474 10;
#X obj 62 58 inlet~;
#X text 70 41 audio;
#X obj 62 399 outlet~;
#X obj 210 59 inlet;
#X obj 293 59 inlet;
#X obj 210 248 pack f 50;
#X obj 210 270 vline~;
#X obj 293 248 pack f 50;
#X obj 293 270 vline~;
#X obj 210 95 t f f;
#X obj 293 95 t f b f;
#X obj 316 167 delay/p \$1_delparams;
#X obj 316 141 pack f f;
#X obj 141 401 outlet~;
#X obj 316 194 unpack f f;
#X obj 63 362 +~;
#X obj 142 303 delay/delay_init~ \$2;
#X obj 431 59 loadbang;
#X obj 431 81 t b b;
#X obj 431 103 f 200;
#X obj 478 104 f 0.8;
#X connect 0 0 15 0;
#X connect 0 0 16 0;
#X connect 3 0 9 0;
#X connect 4 0 10 0;
#X connect 5 0 6 0;
#X connect 6 0 16 1;
#X connect 7 0 8 0;
#X connect 8 0 16 2;
#X connect 9 0 5 0;
#X connect 9 1 12 0;
#X connect 10 0 7 0;
#X connect 10 1 12 0;
#X connect 10 2 12 1;
#X connect 11 0 14 0;
#X connect 12 0 11 0;
#X connect 14 0 5 0;
#X connect 14 1 7 0;
#X connect 15 0 2 0;
#X connect 16 0 13 0;
#X connect 16 0 15 1;
#X connect 17 0 18 0;
#X connect 18 0 19 0;
#X connect 18 1 20 0;
#X connect 19 0 9 0;
#X connect 20 0 10 0;
