#N canvas 560 313 510 408 10;
#X obj 62 63 inlet~;
#X text 70 46 audio;
#X obj 63 342 outlet~;
#X text 219 41 decay;
#X obj 128 63 inlet;
#X obj 219 64 inlet;
#X obj 242 143 pack f f;
#X obj 193 338 outlet~;
#X obj 128 231 pack f 50;
#X obj 128 253 vline~;
#X obj 219 231 pack f 50;
#X obj 219 253 vline~;
#X obj 219 101 t f b f;
#X obj 242 191 unpack f f;
#X obj 128 103 t f f;
#X obj 242 167 echo/p \$1_rvrbparams;
#X text 121 43 predelay;
#X obj 63 283 reverb/reverb_init~;
#X obj 351 61 loadbang;
#X obj 351 83 t b b;
#X obj 351 105 f 20;
#X obj 387 105 f 0.75;
#X connect 0 0 17 0;
#X connect 4 0 14 0;
#X connect 5 0 12 0;
#X connect 6 0 15 0;
#X connect 8 0 9 0;
#X connect 9 0 17 1;
#X connect 10 0 11 0;
#X connect 11 0 17 2;
#X connect 12 0 10 0;
#X connect 12 1 6 0;
#X connect 12 2 6 1;
#X connect 13 0 8 0;
#X connect 13 1 10 0;
#X connect 14 0 8 0;
#X connect 14 1 6 0;
#X connect 15 0 13 0;
#X connect 17 0 2 0;
#X connect 17 1 7 0;
#X connect 18 0 19 0;
#X connect 19 0 20 0;
#X connect 19 1 21 0;
#X connect 20 0 14 0;
#X connect 21 0 12 0;
