#N canvas 255 371 511 354 10;
#X obj 31 50 inlet~;
#X text 26 26 Input;
#X obj 191 50 inlet~;
#X text 186 26 Pre-delay;
#X obj 356 52 inlet~;
#X text 351 28 Length;
#X obj 190 169 vd~ \$0_pre;
#X obj 30 134 delwrite~ \$0_pre 100;
#X obj 191 98 clip~ 0 100;
#X obj 192 282 outlet~;
#X obj 355 282 outlet~;
#X obj 355 99 clip~ 0 1;
#X obj 30 112 *~ 0.5;
#X obj 355 128 *~ 0.5;
#X obj 191 200 reverb_init/resonate~;
#X obj 191 230 reverb_init/echotail~ \$0;
#X connect 0 0 12 0;
#X connect 2 0 8 0;
#X connect 4 0 11 0;
#X connect 6 0 14 0;
#X connect 8 0 6 0;
#X connect 11 0 13 0;
#X connect 12 0 7 0;
#X connect 13 0 15 2;
#X connect 14 0 15 0;
#X connect 14 1 15 1;
#X connect 15 0 9 0;
#X connect 15 1 10 0;
