#N canvas 55 107 687 648 10;
#X obj 59 50 inlet;
#X obj 171 50 inlet;
#X msg 374 206 stop;
#X obj 171 263 del 1;
#X obj 171 191 t f f;
#X obj 263 351 del 1;
#X obj 112 229 f;
#X obj 59 201 t f b;
#X obj 347 420 f;
#X obj 315 419 f 0;
#X obj 315 393 t b b;
#X obj 434 412 f 0;
#X obj 466 412 f 0;
#X obj 374 50 inlet;
#X text 381 34 stop;
#X obj 435 49 inlet;
#X obj 434 388 t b b;
#X obj 268 52 inlet;
#X obj 316 51 inlet;
#X obj 216 499 pack f f;
#X obj 216 530 outlet;
#X obj 229 314 spigot;
#X obj 171 116 unpack f f f;
#X text 428 31 restart;
#X text 316 31 release;
#X text 247 31 keyrlease;
#X text 166 31 params;
#X obj 59 140 t f b b;
#X obj 365 366 max 0;
#X obj 171 162 max 0;
#X obj 512 203 +;
#X obj 494 227 -;
#X obj 494 254 max 0;
#X connect 0 0 27 0;
#X connect 1 0 22 0;
#X connect 2 0 5 0;
#X connect 2 0 3 0;
#X connect 3 0 21 0;
#X connect 4 0 6 1;
#X connect 4 1 3 1;
#X connect 5 0 10 0;
#X connect 6 0 19 1;
#X connect 7 0 19 0;
#X connect 7 1 6 0;
#X connect 8 0 19 1;
#X connect 9 0 19 0;
#X connect 10 0 9 0;
#X connect 10 1 8 0;
#X connect 11 0 19 0;
#X connect 12 0 19 1;
#X connect 13 0 2 0;
#X connect 15 0 16 0;
#X connect 16 0 11 0;
#X connect 16 1 12 0;
#X connect 17 0 21 1;
#X connect 18 0 10 0;
#X connect 19 0 20 0;
#X connect 21 0 5 0;
#X connect 22 0 31 0;
#X connect 22 1 29 0;
#X connect 22 1 30 0;
#X connect 22 2 28 0;
#X connect 22 2 30 1;
#X connect 27 0 7 0;
#X connect 27 1 3 0;
#X connect 27 2 2 0;
#X connect 28 0 8 1;
#X connect 29 0 4 0;
#X connect 30 0 31 1;
#X connect 31 0 32 0;
#X connect 32 0 5 1;
