#N canvas 763 261 489 285 10;
#X obj 52 55 inlet~;
#X obj 53 226 outlet~;
#X obj 53 196 *~;
#X obj 161 226 outlet~;
#X text 177 207 amp;
#X obj 164 138 compressar/p \$1_compparams;
#X obj 257 106 compressar/p \$1_compdbrms;
#X obj 132 54 inlet;
#X obj 225 53 inlet;
#X obj 71 171 compressar/compressar_init~;
#X obj 225 75 t f f;
#X obj 132 81 t l l;
#X connect 0 0 2 0;
#X connect 0 0 9 0;
#X connect 2 0 1 0;
#X connect 5 0 9 1;
#X connect 6 0 9 2;
#X connect 7 0 11 0;
#X connect 8 0 10 0;
#X connect 9 0 2 1;
#X connect 9 0 3 0;
#X connect 10 0 9 2;
#X connect 10 1 6 0;
#X connect 11 0 9 1;
#X connect 11 1 5 0;
