#N canvas 296 321 639 381 10;
#X obj 52 52 cnv 15 250 36 empty empty empty 20 12 0 14 -79414 -66577
0;
#X obj 55 55 cnv 15 244 30 empty empty empty 20 12 0 14 -262144 -66577
0;
#X floatatom 92 58 5 0 100 0 - - -, f 5;
#X floatatom 133 58 5 0 100 0 - - -, f 5;
#X floatatom 174 58 5 0 100 0 - - -, f 5;
#X floatatom 215 58 5 0 250 0 - - -, f 5;
#X text 221 71 rls;
#X text 56 70 ----;
#X text 90 71 thrsh;
#X obj 96 186 inlet~;
#X obj 97 328 outlet~;
#X obj 97 298 *~;
#X obj 108 26 unpack f f f f;
#X obj 334 109 t b f;
#X obj 285 109 t b f;
#X obj 235 108 t b f;
#X obj 205 328 outlet~;
#X text 221 309 amp;
#X text 56 57 comp;
#X text 132 71 ratio;
#X text 176 71 attck;
#X obj 18 106 gcompressar/p \$1_compparams;
#X obj 115 273 gcompressar/compressar_init~;
#X obj 268 57 tgl 15 0 empty empty empty 17 7 0 10 -262144 -1 -1 0
1;
#X text 252 71 db-rms;
#X obj 242 155 pack f f f f;
#X obj 359 195 gcompressar/p \$1_compdbrms;
#X obj 457 69 loadbang;
#X obj 457 91 t b b;
#X obj 457 118 f 0;
#X msg 492 118 50 4 100 200;
#X obj 211 196 t l l;
#X obj 308 196 t f f;
#X connect 2 0 25 0;
#X connect 3 0 15 0;
#X connect 4 0 14 0;
#X connect 5 0 13 0;
#X connect 9 0 11 0;
#X connect 9 0 22 0;
#X connect 11 0 10 0;
#X connect 12 0 2 0;
#X connect 12 1 3 0;
#X connect 12 2 4 0;
#X connect 12 3 5 0;
#X connect 13 0 25 0;
#X connect 13 1 25 3;
#X connect 14 0 25 0;
#X connect 14 1 25 2;
#X connect 15 0 25 0;
#X connect 15 1 25 1;
#X connect 21 0 12 0;
#X connect 22 0 11 1;
#X connect 22 0 16 0;
#X connect 23 0 32 0;
#X connect 25 0 31 0;
#X connect 26 0 23 0;
#X connect 27 0 28 0;
#X connect 28 0 29 0;
#X connect 28 1 30 0;
#X connect 29 0 23 0;
#X connect 30 0 12 0;
#X connect 31 0 22 1;
#X connect 31 1 21 0;
#X connect 32 0 22 2;
#X connect 32 1 26 0;
#X coords 0 -1 1 1 254 40 2 50 50;
