#N canvas 724 249 588 483 10;
#X obj 52 52 cnv 15 212 36 empty empty empty 20 12 0 14 -71713 -66577
0;
#X obj 55 55 cnv 15 206 30 empty empty empty 20 12 0 14 -262144 -66577
0;
#X floatatom 92 58 5 0 100 0 - - -, f 5;
#X floatatom 133 58 5 0 100 0 - - -, f 5;
#X text 56 69 ----;
#X obj 79 189 inlet~;
#X obj 80 441 outlet~;
#X obj 238 213 pack f f f;
#X text 56 56 lsly;
#X obj 79 395 gleslie/leslie_init~;
#X obj 147 367 vline~;
#X obj 234 368 vline~;
#X obj 214 57 hradio 15 1 0 3 empty empty empty 0 -8 0 10 -262144 -1
-1 0;
#X text 97 71 low;
#X text 134 71 high;
#X text 217 71 o/l/h;
#X obj 101 249 select 0 1 2;
#X obj 183 292 f 0;
#X obj 218 292 f 0;
#X floatatom 174 58 5 0 5 0 - - -, f 5;
#X text 175 71 dist;
#X obj 29 112 gleslie/p \$1_glesparams;
#X obj 147 345 pack f 200;
#X obj 234 345 pack f 50;
#X obj 254 151 t b f b f;
#X obj 92 27 unpack f f f;
#X obj 192 151 t b f f;
#X obj 101 225 f;
#X obj 328 151 t f b f;
#X obj 295 56 gleslie/p \$1_glesonoff;
#X obj 147 292 f 0;
#X obj 255 249 * 0.01;
#X obj 201 250 * 0.01;
#X obj 466 108 loadbang;
#X obj 466 130 t b b;
#X obj 466 152 f 0;
#X msg 498 152 10 90 2;
#X connect 2 0 26 0;
#X connect 3 0 24 0;
#X connect 5 0 9 0;
#X connect 7 0 21 0;
#X connect 9 0 6 0;
#X connect 10 0 9 1;
#X connect 11 0 9 2;
#X connect 12 0 27 0;
#X connect 12 0 29 0;
#X connect 16 0 30 0;
#X connect 16 1 17 0;
#X connect 16 2 18 0;
#X connect 17 0 22 0;
#X connect 18 0 22 0;
#X connect 19 0 28 0;
#X connect 21 0 25 0;
#X connect 22 0 10 0;
#X connect 23 0 11 0;
#X connect 24 0 27 0;
#X connect 24 1 31 0;
#X connect 24 2 7 0;
#X connect 24 3 7 1;
#X connect 25 0 2 0;
#X connect 25 1 3 0;
#X connect 25 2 19 0;
#X connect 26 0 27 0;
#X connect 26 1 32 0;
#X connect 26 2 7 0;
#X connect 27 0 16 0;
#X connect 28 0 23 0;
#X connect 28 1 7 0;
#X connect 28 2 7 2;
#X connect 29 0 12 0;
#X connect 30 0 22 0;
#X connect 31 0 18 1;
#X connect 32 0 17 1;
#X connect 33 0 34 0;
#X connect 34 0 35 0;
#X connect 34 1 36 0;
#X connect 35 0 12 0;
#X connect 36 0 25 0;
#X coords 0 -1 1 1 216 40 2 50 50;
