#N canvas 171 302 583 466 10;
#X obj 58 63 inlet~;
#X obj 59 410 outlet~;
#X obj 126 336 vline~;
#X obj 235 333 vline~;
#X obj 132 66 inlet;
#X text 191 65 low;
#X text 191 82 high;
#X text 191 171 dist;
#X obj 302 67 inlet;
#X obj 302 188 select 0 1 2;
#X obj 302 162 f;
#X obj 93 283 f 0;
#X obj 126 314 pack f 200;
#X obj 235 310 pack f 50;
#X obj 58 364 leslie/leslie_init~;
#X obj 330 240 leslie/p \$1_lesparams;
#X obj 339 163 leslie/p \$1_lesonoff;
#X obj 126 283 f 0;
#X obj 165 284 f 0;
#X text 490 75 off;
#X text 490 92 low;
#X text 491 110 high;
#X obj 132 194 unpack f f f;
#X obj 132 224 t b f;
#X obj 360 66 loadbang;
#X obj 360 88 t b b;
#X obj 360 110 f 0;
#X msg 392 110 0.1 0.9 2;
#X obj 132 165 t l l;
#X connect 0 0 14 0;
#X connect 2 0 14 1;
#X connect 3 0 14 2;
#X connect 4 0 28 0;
#X connect 8 0 10 0;
#X connect 9 0 11 0;
#X connect 9 1 17 0;
#X connect 9 2 18 0;
#X connect 10 0 9 0;
#X connect 10 0 16 0;
#X connect 11 0 12 0;
#X connect 12 0 2 0;
#X connect 13 0 3 0;
#X connect 14 0 1 0;
#X connect 15 0 22 0;
#X connect 16 0 10 0;
#X connect 17 0 12 0;
#X connect 18 0 12 0;
#X connect 22 0 23 0;
#X connect 22 1 18 1;
#X connect 22 2 13 0;
#X connect 23 0 10 0;
#X connect 23 1 17 1;
#X connect 24 0 25 0;
#X connect 25 0 26 0;
#X connect 25 1 27 0;
#X connect 26 0 10 0;
#X connect 27 0 28 0;
#X connect 28 0 22 0;
#X connect 28 1 15 0;
