#N canvas 324 290 457 389 10;
#X obj 52 52 cnv 15 166 36 empty empty empty 20 12 0 14 -260129 -66577
0;
#X obj 55 55 cnv 15 160 30 empty empty empty 20 12 0 14 -262144 -66577
0;
#X floatatom 92 58 5 0 100 0 - - -, f 5;
#X floatatom 133 58 5 0 100 0 - - -, f 5;
#X floatatom 174 58 5 0 100 0 - - -, f 5;
#X text 57 70 ----;
#X text 132 71 attck;
#X text 57 57 lmtr;
#X text 178 71 rls;
#X obj 96 186 inlet~;
#X obj 97 328 outlet~;
#X obj 97 298 *~;
#X obj 309 147 t b f;
#X obj 259 146 t b f;
#X obj 205 328 outlet~;
#X text 221 309 amp;
#X obj 92 27 unpack f f f;
#X obj 266 193 pack f f f;
#X obj 115 273 glimiter/limiter_init~;
#X text 99 71 dB;
#X obj 28 110 glimiter/p \$1_glimiterparams;
#X obj 321 47 loadbang;
#X msg 321 69 82 30 100;
#X obj 266 219 t l l;
#X connect 2 0 17 0;
#X connect 3 0 13 0;
#X connect 4 0 12 0;
#X connect 9 0 11 0;
#X connect 9 0 18 0;
#X connect 11 0 10 0;
#X connect 12 0 17 0;
#X connect 12 1 17 2;
#X connect 13 0 17 0;
#X connect 13 1 17 1;
#X connect 16 0 2 0;
#X connect 16 1 3 0;
#X connect 16 2 4 0;
#X connect 17 0 23 0;
#X connect 18 0 11 1;
#X connect 18 0 14 0;
#X connect 20 0 16 0;
#X connect 21 0 22 0;
#X connect 22 0 16 0;
#X connect 23 0 18 1;
#X connect 23 1 20 0;
#X coords 0 -1 1 1 170 40 2 50 50;
