#N canvas 757 316 574 285 10;
#X obj 42 30 inlet~;
#X obj 221 33 inlet;
#X obj 42 222 outlet~;
#X text 200 76 threshold \, attack \, release;
#X obj 77 136 limiter/limiter_init~;
#X obj 42 186 *~;
#X obj 253 98 limiter/p \$1_limiterparams;
#X obj 226 220 outlet~;
#X obj 459 34 loadbang;
#X msg 459 56 82 30 100;
#X obj 221 55 t l l;
#X connect 0 0 5 0;
#X connect 0 0 4 0;
#X connect 1 0 10 0;
#X connect 4 0 5 1;
#X connect 4 0 7 0;
#X connect 5 0 2 0;
#X connect 6 0 4 1;
#X connect 8 0 9 0;
#X connect 9 0 10 0;
#X connect 10 0 4 1;
#X connect 10 1 6 0;
