#N canvas 589 188 636 580 10;
#X obj 222 119 *~ 3;
#X obj 222 25 inlet~;
#X obj 36 21 inlet~;
#X obj 171 907 outlet~;
#X obj 36 124 +~;
#X text 39 4 Freq;
#X obj 94 22 inlet~;
#X text 216 6 Waveselect;
#X text 91 3 phase modulation;
#X text 469 5 Phase reset;
#X text 548 153 Voscillator;
#X text 567 201 LFOs and bass frequencies.;
#X text 567 233 lot of aliasing at high;
#X text 568 169 a linear and unforgiving;
#X text 568 184 oscillator. best suited for;
#X text 567 217 it's linear nature causes a;
#X text 567 249 frequencies. if this is;
#X text 567 264 something you want \, then;
#X text 568 296 it's a unique oscillator;
#X text 568 312 giving you access to a;
#X text 568 328 variable waveform similar;
#X text 568 343 to old analogue synths.;
#X text 568 358 triangle bent-triangle to;
#X text 569 373 saw-tooth to square to a;
#X text 569 388 narrow-pulse.;
#X text 567 280 velocillator is perfect.;
#X obj 221 164 clip~ 1 2;
#X obj 222 194 -~ 1;
#X obj 36 273 wrap~;
#X obj 55 336 wrap~;
#X obj 37 365 -~;
#X obj 55 310 +~;
#X obj 85 400 +~;
#X obj 103 271 wrap~;
#X obj 170 519 +~;
#X obj 86 436 *~ 2;
#X obj 86 458 -~ 1;
#X obj 207 422 max~ 0;
#X obj 153 422 min~ 0;
#X obj 152 323 *~ 2;
#X obj 152 345 -~ 1;
#X obj 152 381 *~;
#X obj 207 449 *~ -1;
#X obj 188 479 +~;
#X obj 171 628 *~;
#X obj 171 541 *~ 0.5;
#X obj 171 563 +~ 0.5;
#X obj 312 595 +~ 1;
#X obj 171 686 min~ 1;
#X obj 223 709 *~ -1;
#X obj 223 659 -~ 1;
#X obj 223 686 max~ 0;
#X obj 172 740 +~;
#X obj 171 763 -~ 1;
#X obj 171 785 *~ -1;
#X obj 153 449 *~ -1;
#X obj 222 51 clip~ 0 1;
#X obj 222 73 -~ 1;
#X obj 222 95 *~ -1;
#X obj 313 157 clip~ 2 3;
#X obj 313 180 -~ 2;
#X obj 104 168 clip~ 0 1;
#X obj 103 192 *~ -0.45;
#X obj 103 223 -~ 0.05;
#X obj 171 850 *~ 2;
#X obj 171 872 -~ 1;
#X text 114 248 Do a pulse modulation;
#X text 159 272 end with a square;
#X text 191 386 turn from sqaure into sawtooth;
#X text 211 634 turn triangle into sawtooth;
#X text 211 850 bring from 0-1 to 1;
#X text 269 96 you work backwards;
#X connect 0 0 26 0;
#X connect 0 0 59 0;
#X connect 0 0 61 0;
#X connect 1 0 56 0;
#X connect 2 0 4 0;
#X connect 4 0 28 0;
#X connect 6 0 4 1;
#X connect 26 0 27 0;
#X connect 27 0 41 1;
#X connect 28 0 31 0;
#X connect 28 0 30 0;
#X connect 28 0 39 0;
#X connect 29 0 30 1;
#X connect 30 0 32 0;
#X connect 31 0 29 0;
#X connect 32 0 35 0;
#X connect 33 0 31 1;
#X connect 33 0 32 1;
#X connect 34 0 45 0;
#X connect 35 0 36 0;
#X connect 36 0 34 0;
#X connect 37 0 42 0;
#X connect 38 0 55 0;
#X connect 39 0 40 0;
#X connect 40 0 41 0;
#X connect 41 0 38 0;
#X connect 41 0 37 0;
#X connect 42 0 43 1;
#X connect 43 0 34 1;
#X connect 44 0 48 0;
#X connect 44 0 50 0;
#X connect 45 0 46 0;
#X connect 46 0 44 0;
#X connect 47 0 44 1;
#X connect 48 0 52 0;
#X connect 49 0 52 1;
#X connect 50 0 51 0;
#X connect 51 0 49 0;
#X connect 52 0 53 0;
#X connect 53 0 54 0;
#X connect 54 0 64 0;
#X connect 55 0 43 0;
#X connect 56 0 57 0;
#X connect 57 0 58 0;
#X connect 58 0 0 0;
#X connect 59 0 60 0;
#X connect 60 0 47 0;
#X connect 61 0 62 0;
#X connect 62 0 63 0;
#X connect 63 0 33 0;
#X connect 64 0 65 0;
#X connect 65 0 3 0;
