#N canvas 240 212 577 545 10;
#X obj 63 229 -;
#X obj 108 134 unpack f f;
#X obj 63 134 + 0.5;
#X obj 63 158 int;
#X obj 65 453 line;
#X obj 64 427 pack f 30;
#X obj 65 479 spigot;
#X obj 134 455 select 0;
#X obj 134 478 f 0;
#X obj 448 232 / 12;
#X obj 448 259 int;
#X obj 193 261 % 12;
#X obj 417 205 t f f;
#X obj 193 286 select 0 1 2 3 4 5 6 7 8 9 10 11;
#X msg 229 529 D;
#X msg 248 507 D#/Eb;
#X msg 266 484 E;
#X msg 285 462 F;
#X msg 303 430 F#/Eb;
#X msg 321 402 G;
#X msg 340 380 G#/Ab;
#X msg 358 359 A;
#X msg 377 335 A#/Bb;
#X msg 395 312 B;
#X obj 395 615 pack s f;
#X msg 395 640 set \$1_\$2;
#X obj 265 79 switch~;
#X msg 211 548 C#/Db;
#X msg 193 570 C;
#X obj 74 192 t b f f f;
#X obj 63 281 * 0.5;
#X obj 63 306 + 0.5;
#X obj 64 330 - 1;
#X obj 64 354 * -1;
#X obj 64 379 * 2;
#X obj 64 403 - 1;
#X obj 63 256 clip -1 1;
#X obj 62 109 fiddle~ 8192 1 20 0;
#X obj 124 46 loadbang;
#X obj 63 46 inlet~;
#X obj 265 48 inlet;
#X obj 65 532 outlet;
#X obj 395 665 outlet;
#X msg 124 70 amp-range 30 70;
#X connect 0 0 36 0;
#X connect 1 0 29 0;
#X connect 2 0 3 0;
#X connect 3 0 0 0;
#X connect 3 0 12 0;
#X connect 4 0 6 0;
#X connect 5 0 4 0;
#X connect 6 0 41 0;
#X connect 7 0 8 0;
#X connect 8 0 41 0;
#X connect 9 0 10 0;
#X connect 10 0 24 1;
#X connect 11 0 13 0;
#X connect 12 0 11 0;
#X connect 12 1 9 0;
#X connect 13 0 28 0;
#X connect 13 1 27 0;
#X connect 13 2 14 0;
#X connect 13 3 15 0;
#X connect 13 4 16 0;
#X connect 13 5 17 0;
#X connect 13 6 18 0;
#X connect 13 7 19 0;
#X connect 13 8 20 0;
#X connect 13 9 21 0;
#X connect 13 10 22 0;
#X connect 13 11 23 0;
#X connect 14 0 24 0;
#X connect 15 0 24 0;
#X connect 16 0 24 0;
#X connect 17 0 24 0;
#X connect 18 0 24 0;
#X connect 19 0 24 0;
#X connect 20 0 24 0;
#X connect 21 0 24 0;
#X connect 22 0 24 0;
#X connect 23 0 24 0;
#X connect 24 0 25 0;
#X connect 25 0 42 0;
#X connect 27 0 24 0;
#X connect 28 0 24 0;
#X connect 29 0 0 0;
#X connect 29 1 0 1;
#X connect 29 2 6 1;
#X connect 29 3 7 0;
#X connect 30 0 31 0;
#X connect 31 0 32 0;
#X connect 32 0 33 0;
#X connect 33 0 34 0;
#X connect 34 0 35 0;
#X connect 35 0 5 0;
#X connect 36 0 30 0;
#X connect 37 0 2 0;
#X connect 37 2 1 0;
#X connect 38 0 43 0;
#X connect 39 0 37 0;
#X connect 40 0 26 0;
#X connect 43 0 37 0;
#X coords 0 545 1 544 160 60 0;
