#N canvas 147 197 664 511 10;
#X obj 52 52 cnv 15 196 36 empty empty empty 20 12 0 14 -232576 -66577
0;
#X obj 56 55 cnv 15 188 30 empty empty empty 20 12 0 14 -262144 -66577
0;
#X floatatom 90 58 5 0 20 0 - - -, f 5;
#X floatatom 131 58 5 0 100 0 - - -, f 5;
#X floatatom 172 58 5 0 100 0 - - -, f 5;
#X text 57 70 ----;
#X obj 147 174 inlet~;
#X obj 148 428 outlet~;
#X obj 148 398 *~;
#X obj 256 428 outlet~;
#X text 272 409 amp;
#X obj 166 373 gtremolo/tremolo_init~;
#X obj 270 223 pack f f f;
#X obj 219 58 bng 15 250 50 0 empty empty empty 17 7 0 10 -262144 -1
-1;
#X text 57 57 trml;
#X obj 233 299 vline~;
#X obj 315 297 vline~;
#X obj 401 297 vline~;
#X obj 233 275 pack f 50;
#X obj 315 275 pack f 50;
#X obj 401 275 pack f 50;
#X obj 213 184 t f f;
#X text 93 71 freq;
#X text 133 71 dpth;
#X text 174 71 wave;
#X text 215 71 rst;
#X obj 90 27 unpack f f f;
#X obj 27 145 gtremolo/p \$1_ggateparams;
#X obj 315 249 * 0.01;
#X obj 401 250 * 0.01;
#X obj 327 184 t f b f;
#X obj 264 184 t f b f;
#X obj 554 170 loadbang;
#X msg 554 192 8 100 10;
#X connect 2 0 21 0;
#X connect 3 0 31 0;
#X connect 4 0 30 0;
#X connect 6 0 8 0;
#X connect 8 0 7 0;
#X connect 11 0 8 1;
#X connect 11 0 9 0;
#X connect 12 0 27 0;
#X connect 15 0 11 0;
#X connect 16 0 11 1;
#X connect 17 0 11 2;
#X connect 18 0 15 0;
#X connect 19 0 16 0;
#X connect 20 0 17 0;
#X connect 21 0 18 0;
#X connect 21 1 12 0;
#X connect 26 0 2 0;
#X connect 26 1 3 0;
#X connect 26 2 4 0;
#X connect 27 0 26 0;
#X connect 28 0 19 0;
#X connect 29 0 20 0;
#X connect 30 0 29 0;
#X connect 30 1 12 0;
#X connect 30 2 12 2;
#X connect 31 0 28 0;
#X connect 31 1 12 0;
#X connect 31 2 12 1;
#X connect 32 0 33 0;
#X connect 33 0 26 0;
#X coords 0 -1 1 1 200 40 2 50 50;
