#N canvas 715 303 450 365 10;
#X obj 51 38 inlet~;
#X text 49 16 signal;
#X obj 52 268 *~;
#X obj 52 295 outlet~;
#X obj 283 44 inlet;
#X text 281 24 Reset;
#X obj 139 222 tremolo/tremolo_init~;
#X obj 139 38 inlet;
#X obj 139 133 unpack f f f;
#X obj 296 167 pack f 50;
#X obj 139 166 pack f 50;
#X obj 215 166 pack f 50;
#X obj 223 289 outlet~;
#X obj 171 95 tremolo/p \$1_tremparams;
#X obj 139 193 vline~;
#X obj 215 193 vline~;
#X obj 296 195 vline~;
#X obj 372 42 loadbang;
#X msg 372 64 8 1 0.1;
#X obj 139 66 t l l;
#X connect 0 0 2 0;
#X connect 2 0 3 0;
#X connect 4 0 6 3;
#X connect 6 0 2 1;
#X connect 6 0 12 0;
#X connect 7 0 19 0;
#X connect 8 0 10 0;
#X connect 8 1 11 0;
#X connect 8 2 9 0;
#X connect 9 0 16 0;
#X connect 10 0 14 0;
#X connect 11 0 15 0;
#X connect 13 0 8 0;
#X connect 14 0 6 0;
#X connect 15 0 6 1;
#X connect 16 0 6 2;
#X connect 17 0 18 0;
#X connect 18 0 19 0;
#X connect 19 0 8 0;
#X connect 19 1 13 0;
