#N canvas 276 336 493 432 10;
#X text 253 27 waveshape;
#X text 75 26 freq;
#X text 171 29 depth;
#X obj 259 49 inlet~;
#X obj 71 46 inlet~;
#X obj 168 47 inlet~;
#X obj 69 269 *~ 0.5;
#X obj 69 291 +~ 0.5;
#X obj 69 327 *~;
#X obj 168 120 -~ 1;
#X obj 168 142 *~ -1;
#X obj 168 73 clip~ 0 1;
#X obj 70 351 +~;
#X obj 69 387 outlet~;
#X obj 69 145 phasor~;
#X obj 70 75 max~ 0;
#X obj 338 52 inlet;
#X obj 338 82 t b;
#X text 335 34 Reset;
#X obj 69 201 tremolo_init/voscillator~;
#X obj 70 173 *~ -1;
#X obj 338 106 f 0.5;
#X obj 68 233 lop~ 30;
#X connect 3 0 19 2;
#X connect 4 0 15 0;
#X connect 5 0 11 0;
#X connect 6 0 7 0;
#X connect 7 0 8 0;
#X connect 8 0 12 0;
#X connect 9 0 10 0;
#X connect 10 0 12 1;
#X connect 11 0 8 1;
#X connect 11 0 9 0;
#X connect 12 0 13 0;
#X connect 14 0 20 0;
#X connect 15 0 14 0;
#X connect 16 0 17 0;
#X connect 17 0 21 0;
#X connect 19 0 22 0;
#X connect 20 0 19 0;
#X connect 21 0 14 1;
#X connect 22 0 6 0;
