#N canvas 204 138 646 619 10;
#X obj 108 108 *~ \$1;
#X obj 109 342 *~ \$2;
#X obj 107 57 inlet~;
#X obj 110 578 outlet~;
#X obj 494 55 loadbang;
#X obj 110 501 *~;
#X obj 225 262 *~ 1;
#X obj 207 579 outlet~;
#X obj 336 341 sig~ \$2;
#X obj 109 293 cos~;
#X obj 109 266 +~ 1;
#X obj 384 111 f \$1;
#X obj 384 133 * 0.25;
#X obj 384 155 - 0.25;
#X obj 384 178 wrap;
#X obj 207 502 *~;
#X obj 226 58 inlet~;
#X text 86 34 Phasor input;
#X text 216 37 Frequency;
#X obj 225 112 *~ \$1;
#X obj 226 315 *~ 0.25;
#X obj 226 339 +~ 0.25;
#X obj 225 387 +~ 1;
#X obj 226 363 cos~;
#X obj 225 289 clip~ 0 1;
#X obj 207 527 absolute~;
#X obj 449 110 samplerate~;
#X obj 449 183 f 1;
#X obj 449 207 /;
#X obj 449 136 * 0.5;
#X obj 449 158 t b f;
#X obj 540 111 f \$1;
#X obj 494 77 t b b b;
#X obj 540 133 % 2;
#X obj 540 154 select 0;
#X obj 540 176 f 0;
#X obj 593 177 t b;
#X obj 593 203 f 1;
#X obj 208 553 *~ 1;
#X obj 304 64 inlet;
#X obj 304 98 t f f;
#X connect 0 0 10 0;
#X connect 1 0 5 0;
#X connect 2 0 0 0;
#X connect 4 0 32 0;
#X connect 5 0 3 0;
#X connect 6 0 24 0;
#X connect 8 0 15 0;
#X connect 9 0 1 0;
#X connect 10 0 9 0;
#X connect 11 0 12 0;
#X connect 12 0 13 0;
#X connect 13 0 14 0;
#X connect 14 0 10 1;
#X connect 15 0 25 0;
#X connect 16 0 19 0;
#X connect 19 0 6 0;
#X connect 20 0 21 0;
#X connect 21 0 23 0;
#X connect 22 0 15 1;
#X connect 22 0 5 1;
#X connect 23 0 22 0;
#X connect 24 0 20 0;
#X connect 25 0 38 0;
#X connect 26 0 29 0;
#X connect 27 0 28 0;
#X connect 28 0 6 1;
#X connect 29 0 30 0;
#X connect 30 0 27 0;
#X connect 30 1 28 1;
#X connect 31 0 33 0;
#X connect 32 0 11 0;
#X connect 32 1 26 0;
#X connect 32 2 31 0;
#X connect 33 0 34 0;
#X connect 34 0 35 0;
#X connect 34 1 36 0;
#X connect 35 0 38 1;
#X connect 36 0 37 0;
#X connect 37 0 38 1;
#X connect 38 0 7 0;
#X connect 39 0 40 0;
#X connect 40 0 1 1;
#X connect 40 1 8 0;
