#N canvas 571 207 573 492 10;
#X obj 42 39 inlet;
#X obj 70 488 outlet;
#X obj 231 42 inlet;
#X obj 42 102 until;
#X obj 42 131 f 0;
#X obj 42 79 t f b;
#X obj 88 102 f 0;
#X obj 56 274 select 1;
#X obj 56 299 t b b;
#X obj 56 324 f;
#X obj 42 161 + 0;
#X obj 56 374 f 0;
#X obj 70 398 -;
#X obj 85 220 mod 12;
#X obj 42 188 t f f;
#X obj 70 462 abs;
#X obj 77 131 + \$2;
#X obj 56 250 tabread \$1_guide;
#X obj 221 490 outlet;
#X obj 56 349 t b f f;
#X obj 231 71 t f f;
#X text 148 219 change mod 12;
#X connect 0 0 5 0;
#X connect 2 0 20 0;
#X connect 3 0 4 0;
#X connect 4 0 10 0;
#X connect 4 0 16 0;
#X connect 5 0 3 0;
#X connect 5 1 6 0;
#X connect 6 0 4 1;
#X connect 7 0 8 0;
#X connect 8 0 9 0;
#X connect 8 1 3 1;
#X connect 9 0 19 0;
#X connect 10 0 14 0;
#X connect 11 0 12 0;
#X connect 12 0 15 0;
#X connect 13 0 17 0;
#X connect 14 0 13 0;
#X connect 14 1 9 1;
#X connect 15 0 1 0;
#X connect 16 0 4 1;
#X connect 17 0 7 0;
#X connect 19 0 11 0;
#X connect 19 1 12 1;
#X connect 19 2 18 0;
#X connect 20 0 10 1;
#X connect 20 1 11 1;
