#N canvas 0 132 450 300 10;
#X obj 93 94 spigot;
#X obj 132 147 mod 12;
#X obj 93 120 t f f;
#X obj 93 196 spigot;
#X obj 93 59 inlet;
#X obj 93 242 outlet;
#X obj 182 60 inlet;
#X obj 132 169 tabread \$1_guide;
#X connect 0 0 2 0;
#X connect 1 0 7 0;
#X connect 2 0 3 0;
#X connect 2 1 1 0;
#X connect 3 0 5 0;
#X connect 4 0 0 0;
#X connect 6 0 0 1;
#X connect 7 0 3 1;
