#N canvas 0 236 517 405 10;
#X msg 130 94 const 0;
#X obj 98 226 t b f;
#X obj 98 252 f 1;
#X obj 98 151 unpack f f f f f f f f f f f;
#X obj 130 123 s \$1_guide;
#X obj 98 280 tabwrite \$1_guide;
#X obj 98 39 inlet;
#X obj 98 65 t a b;
#X obj 214 255 mod 12;
#X connect 0 0 4 0;
#X connect 1 0 2 0;
#X connect 1 1 8 0;
#X connect 2 0 5 0;
#X connect 3 0 1 0;
#X connect 3 1 1 0;
#X connect 3 2 1 0;
#X connect 3 3 1 0;
#X connect 3 4 1 0;
#X connect 3 5 1 0;
#X connect 3 6 1 0;
#X connect 3 7 1 0;
#X connect 3 8 1 0;
#X connect 3 9 1 0;
#X connect 3 10 1 0;
#X connect 6 0 7 0;
#X connect 7 0 3 0;
#X connect 7 1 0 0;
#X connect 8 0 5 1;
